  0
SECTION
  2
HEADER
  9
$ACADVER
  1
AC1014
  9
$HANDSEED
  5
FFFF
  9
$MEASUREMENT
 70
     1
  0
ENDSEC
  0
SECTION
  2
TABLES
  0
TABLE
  2
VPORT
  5
8
330
0
100
AcDbSymbolTable
 70
     4
  0
VPORT
  5
2E
330
8
100
AcDbSymbolTableRecord
100
AcDbViewportTableRecord
  2
*ACTIVE
 70
     0
 10
0.0
 20
0.0
 11
1.0
 21
1.0
 12
210.0
 22
148.5
 13
0.0
 23
0.0
 14
10.0
 24
10.0
 15
10.0
 25
10.0
 16
0.0
 26
0.0
 36
1.0
 17
0.0
 27
0.0
 37
0.0
 40
341.0
 41
1.24
 42
50.0
 43
0.0
 44
0.0
 50
0.0
 51
0.0
 71
     0
 72
   100
 73
     1
 74
     3
 75
     0
 76
     0
 77
     0
 78
     0
  0
ENDTAB
  0
TABLE
  2
LTYPE
  5
5
330
0
100
AcDbSymbolTable
 70
     1
  0
LTYPE
  5
14
330
5
100
AcDbSymbolTableRecord
100
AcDbLinetypeTableRecord
  2
BYBLOCK
 70
     0
  3

 72
    65
 73
     0
 40
0.0
  0
LTYPE
  5
15
330
5
100
AcDbSymbolTableRecord
100
AcDbLinetypeTableRecord
  2
BYLAYER
 70
     0
  3

 72
    65
 73
     0
 40
0.0
  0
LTYPE
  5
16
330
5
100
AcDbSymbolTableRecord
100
AcDbLinetypeTableRecord
  2
CONTINUOUS
 70
     0
  3
Solid line
 72
    65
 73
     0
 40
0.0
  0
ENDTAB
  0
TABLE
  2
LAYER
  5
2
100
AcDbSymbolTable
 70
2
  0
LAYER
  5
50
100
AcDbSymbolTableRecord
100
AcDbLayerTableRecord
  2
0
 70
0
  6
CONTINUOUS
  0
LAYER
  5
51
100
AcDbSymbolTableRecord
100
AcDbLayerTableRecord
  2
RelayWing
 70
0
  6
CONTINUOUS
  0
ENDTAB
  0
TABLE
  2
STYLE
  5
3
330
0
100
AcDbSymbolTable
 70
     1
  0
STYLE
  5
11
330
3
100
AcDbSymbolTableRecord
100
AcDbTextStyleTableRecord
  2
STANDARD
 70
     0
 40
0.0
 41
1.0
 50
0.0
 71
     0
 42
2.5
  3
txt
  4

  0
ENDTAB
  0
TABLE
  2
VIEW
  5
6
330
0
100
AcDbSymbolTable
 70
     0
  0
ENDTAB
  0
TABLE
  2
UCS
  5
7
330
0
100
AcDbSymbolTable
 70
     0
  0
ENDTAB
  0
TABLE
  2
APPID
  5
9
330
0
100
AcDbSymbolTable
 70
     2
  0
APPID
  5
12
330
9
100
AcDbSymbolTableRecord
100
AcDbRegAppTableRecord
  2
ACAD
 70
     0
  0
ENDTAB
  0
TABLE
  2
DIMSTYLE
  5
A
330
0
100
AcDbSymbolTable
 70
     1
  0
DIMSTYLE
105
27
330
A
100
AcDbSymbolTableRecord
100
AcDbDimStyleTableRecord
  2
ISO-25
 70
     0
  3

  4

  5

  6

  7

 40
1.0
 41
2.5
 42
0.625
 43
3.75
 44
1.25
 45
0.0
 46
0.0
 47
0.0
 48
0.0
140
2.5
141
2.5
142
0.0
143
0.03937007874016
144
1.0
145
0.0
146
1.0
147
0.625
 71
     0
 72
     0
 73
     0
 74
     0
 75
     0
 76
     0
 77
     1
 78
     8
170
     0
171
     3
172
     1
173
     0
174
     0
175
     0
176
     0
177
     0
178
     0
270
     2
271
     2
272
     2
273
     2
274
     3
340
11
275
     0
280
     0
281
     0
282
     0
283
     0
284
     8
285
     0
286
     0
287
     3
288
     0
  0
ENDTAB
  0
TABLE
  2
BLOCK_RECORD
  5
1
330
0
100
AcDbSymbolTable
 70
     1
  0
BLOCK_RECORD
  5
1F
330
1
100
AcDbSymbolTableRecord
100
AcDbBlockTableRecord
  2
*MODEL_SPACE
  0
BLOCK_RECORD
  5
1B
330
1
100
AcDbSymbolTableRecord
100
AcDbBlockTableRecord
  2
*PAPER_SPACE
  0
ENDTAB
  0
ENDSEC
  0
SECTION
  2
BLOCKS
  0
BLOCK
  5
20
330
1F
100
AcDbEntity
  8
0
100
AcDbBlockBegin
  2
*MODEL_SPACE
 70
     0
 10
0.0
 20
0.0
 30
0.0
  3
*MODEL_SPACE
  1

  0
ENDBLK
  5
21
330
1F
100
AcDbEntity
  8
0
100
AcDbBlockEnd
  0
BLOCK
  5
1C
330
1B
100
AcDbEntity
 67
     1
  8
0
100
AcDbBlockBegin
  2
*PAPER_SPACE
  1

  0
ENDBLK
  5
1D
330
1B
100
AcDbEntity
 67
     1
  8
0
100
AcDbBlockEnd
  0
ENDSEC
  0
SECTION
  2
ENTITIES
  0
SPLINE
  5
100
100
AcDbEntity
  8
RelayWing
 62
7
100
AcDbSpline
 70
8
 71
3
 72
8
 73
4
 74
0
 40
0
 40
0
 40
0
 40
0
 40
1
 40
1
 40
1
 40
1
 10
84.546161
 20
162.421402
 30
0.0
 10
82.033735
 20
162.414101
 30
0.0
 10
79.848537
 20
160.690177
 30
0.0
 10
79.256274
 20
158.248511
 30
0.0
  0
LINE
  5
101
100
AcDbEntity
  8
RelayWing
 62
7
100
AcDbLine
 10
79.256274
 20
158.248511
 30
0.0
 11
79.195672
 21
157.998968
 31
0.0
  0
LINE
  5
102
100
AcDbEntity
  8
RelayWing
 62
7
100
AcDbLine
 10
79.195672
 20
157.998968
 30
0.0
 11
79.623062
 21
157.933613
 31
0.0
  0
SPLINE
  5
103
100
AcDbEntity
  8
RelayWing
 62
7
100
AcDbSpline
 70
8
 71
3
 72
8
 73
4
 74
0
 40
0
 40
0
 40
0
 40
0
 40
1
 40
1
 40
1
 40
1
 10
79.623062
 20
157.933613
 30
0.0
 10
80.087548
 20
160.314797
 30
0.0
 10
82.171592
 20
162.034769
 30
0.0
 10
84.597652
 20
162.039165
 30
0.0
  0
SPLINE
  5
104
100
AcDbEntity
  8
RelayWing
 62
7
100
AcDbSpline
 70
8
 71
3
 72
8
 73
4
 74
0
 40
0
 40
0
 40
0
 40
0
 40
1
 40
1
 40
1
 40
1
 10
84.597652
 20
162.039165
 30
0.0
 10
87.400808
 20
162.043464
 30
0.0
 10
89.677170
 20
159.775436
 30
0.0
 10
89.683152
 20
156.972283
 30
0.0
  0
SPLINE
  5
105
100
AcDbEntity
  8
RelayWing
 62
7
100
AcDbSpline
 70
8
 71
3
 72
8
 73
4
 74
0
 40
0
 40
0
 40
0
 40
0
 40
1
 40
1
 40
1
 40
1
 10
89.683152
 20
156.972283
 30
0.0
 10
89.683152
 20
156.972283
 30
0.0
 10
89.683152
 20
156.961585
 30
0.0
 10
89.683152
 20
156.961585
 30
0.0
  0
SPLINE
  5
106
100
AcDbEntity
  8
RelayWing
 62
7
100
AcDbSpline
 70
8
 71
3
 72
8
 73
4
 74
0
 40
0
 40
0
 40
0
 40
0
 40
1
 40
1
 40
1
 40
1
 10
89.683152
 20
156.961585
 30
0.0
 10
89.682290
 20
156.772952
 30
0.0
 10
89.670917
 20
156.584514
 30
0.0
 10
89.649086
 20
156.397146
 30
0.0
  0
LINE
  5
107
100
AcDbEntity
  8
RelayWing
 62
7
100
AcDbLine
 10
89.649086
 20
156.397146
 30
0.0
 11
89.976660
 21
156.346841
 31
0.0
  0
LINE
  5
108
100
AcDbEntity
  8
RelayWing
 62
7
100
AcDbLine
 10
89.976660
 20
156.346841
 30
0.0
 11
89.997650
 21
156.598759
 31
0.0
  0
SPLINE
  5
109
100
AcDbEntity
  8
RelayWing
 62
7
100
AcDbSpline
 70
8
 71
3
 72
8
 73
4
 74
0
 40
0
 40
0
 40
0
 40
0
 40
1
 40
1
 40
1
 40
1
 10
89.997650
 20
156.598759
 30
0.0
 10
90.007511
 20
156.718167
 30
0.0
 10
90.013494
 20
156.837822
 30
0.0
 10
90.015471
 20
156.957623
 30
0.0
  0
LINE
  5
10a
100
AcDbEntity
  8
RelayWing
 62
7
100
AcDbLine
 10
90.015471
 20
156.957623
 30
0.0
 11
90.015471
 21
156.959651
 31
0.0
  0
LINE
  5
10b
100
AcDbEntity
  8
RelayWing
 62
7
100
AcDbLine
 10
90.015471
 20
156.959651
 30
0.0
 11
90.015471
 21
156.973112
 31
0.0
  0
SPLINE
  5
10c
100
AcDbEntity
  8
RelayWing
 62
7
100
AcDbSpline
 70
8
 71
3
 72
8
 73
4
 74
0
 40
0
 40
0
 40
0
 40
0
 40
1
 40
1
 40
1
 40
1
 10
90.015471
 20
156.973112
 30
0.0
 10
90.009058
 20
159.984540
 30
0.0
 10
87.558375
 20
162.426208
 30
0.0
 10
84.546947
 20
162.421437
 30
0.0
  0
LINE
  5
10d
100
AcDbEntity
  8
RelayWing
 62
7
100
AcDbLine
 10
84.546947
 20
162.421437
 30
0.0
 11
84.546440
 21
162.421437
 31
0.0
  0
LINE
  5
10e
100
AcDbEntity
  8
RelayWing
 62
7
100
AcDbLine
 10
84.546440
 20
162.421437
 30
0.0
 11
84.545933
 21
162.421437
 31
0.0
  0
LINE
  5
10f
100
AcDbEntity
  8
RelayWing
 62
7
100
AcDbLine
 10
84.545933
 20
162.421437
 30
0.0
 11
84.546161
 21
162.421402
 31
0.0
  0
LINE
  5
110
100
AcDbEntity
  8
RelayWing
 62
7
100
AcDbLine
 10
79.594145
 20
154.645606
 30
0.0
 11
79.841706
 21
154.219800
 31
0.0
  0
SPLINE
  5
111
100
AcDbEntity
  8
RelayWing
 62
7
100
AcDbSpline
 70
8
 71
3
 72
8
 73
4
 74
0
 40
0
 40
0
 40
0
 40
0
 40
1
 40
1
 40
1
 40
1
 10
79.841706
 20
154.219800
 30
0.0
 10
80.817736
 20
152.538986
 30
0.0
 10
82.614392
 20
151.503484
 30
0.0
 10
84.558042
 20
151.501776
 30
0.0
  0
LINE
  5
112
100
AcDbEntity
  8
RelayWing
 62
7
100
AcDbLine
 10
84.558042
 20
151.501776
 30
0.0
 11
84.558549
 21
151.501776
 31
0.0
  0
LINE
  5
113
100
AcDbEntity
  8
RelayWing
 62
7
100
AcDbLine
 10
84.558549
 20
151.501776
 30
0.0
 11
84.559056
 21
151.501776
 31
0.0
  0
SPLINE
  5
114
100
AcDbEntity
  8
RelayWing
 62
7
100
AcDbSpline
 70
8
 71
3
 72
8
 73
4
 74
0
 40
0
 40
0
 40
0
 40
0
 40
1
 40
1
 40
1
 40
1
 10
84.559056
 20
151.501776
 30
0.0
 10
85.919445
 20
151.504767
 30
0.0
 10
87.230145
 20
152.015564
 30
0.0
 10
88.233655
 20
152.934065
 30
0.0
  0
LINE
  5
115
100
AcDbEntity
  8
RelayWing
 62
7
100
AcDbLine
 10
88.233655
 20
152.934065
 30
0.0
 11
88.596480
 21
153.266394
 31
0.0
  0
LINE
  5
116
100
AcDbEntity
  8
RelayWing
 62
7
100
AcDbLine
 10
88.596480
 20
153.266394
 30
0.0
 11
88.156811
 21
153.333730
 31
0.0
  0
SPLINE
  5
117
100
AcDbEntity
  8
RelayWing
 62
7
100
AcDbSpline
 70
8
 71
3
 72
8
 73
4
 74
0
 40
0
 40
0
 40
0
 40
0
 40
1
 40
1
 40
1
 40
1
 10
88.156811
 20
153.333730
 30
0.0
 10
87.208841
 20
152.405259
 30
0.0
 10
85.935087
 20
151.884754
 30
0.0
 10
84.608173
 20
151.883616
 30
0.0
  0
SPLINE
  5
118
100
AcDbEntity
  8
RelayWing
 62
7
100
AcDbSpline
 70
8
 71
3
 72
8
 73
4
 74
0
 40
0
 40
0
 40
0
 40
0
 40
1
 40
1
 40
1
 40
1
 10
84.608173
 20
151.883616
 30
0.0
 10
82.737433
 20
151.884501
 30
0.0
 10
81.018705
 20
152.913942
 30
0.0
 10
80.135041
 20
154.562822
 30
0.0
  0
LINE
  5
119
100
AcDbEntity
  8
RelayWing
 62
7
100
AcDbLine
 10
80.135041
 20
154.562822
 30
0.0
 11
79.594366
 21
154.645606
 31
0.0
  0
LINE
  5
11a
100
AcDbEntity
  8
RelayWing
 62
7
100
AcDbLine
 10
79.594366
 20
154.645606
 30
0.0
 11
79.594145
 21
154.645606
 31
0.0
  0
SPLINE
  5
11b
100
AcDbEntity
  8
RelayWing
 62
7
100
AcDbSpline
 70
8
 71
3
 72
8
 73
4
 74
0
 40
0
 40
0
 40
0
 40
0
 40
1
 40
1
 40
1
 40
1
 10
84.932952
 20
161.725666
 30
0.0
 10
84.724729
 20
161.684102
 30
0.0
 10
84.585646
 20
161.475514
 30
0.0
 10
84.492491
 20
161.273718
 30
0.0
  0
LINE
  5
11c
100
AcDbEntity
  8
RelayWing
 62
7
100
AcDbLine
 10
84.492491
 20
161.273718
 30
0.0
 11
84.492896
 21
161.273718
 31
0.0
  0
SPLINE
  5
11d
100
AcDbEntity
  8
RelayWing
 62
7
100
AcDbSpline
 70
8
 71
3
 72
8
 73
4
 74
0
 40
0
 40
0
 40
0
 40
0
 40
1
 40
1
 40
1
 40
1
 10
84.492896
 20
161.273718
 30
0.0
 10
84.312050
 20
160.876173
 30
0.0
 10
84.001460
 20
160.573988
 30
0.0
 10
83.798932
 20
160.216533
 30
0.0
  0
LINE
  5
11e
100
AcDbEntity
  8
RelayWing
 62
7
100
AcDbLine
 10
83.798932
 20
160.216533
 30
0.0
 11
83.798121
 21
160.215722
 31
0.0
  0
SPLINE
  5
11f
100
AcDbEntity
  8
RelayWing
 62
7
100
AcDbSpline
 70
8
 71
3
 72
8
 73
4
 74
0
 40
0
 40
0
 40
0
 40
0
 40
1
 40
1
 40
1
 40
1
 10
83.798121
 20
160.215722
 30
0.0
 10
83.690796
 20
160.017862
 30
0.0
 10
83.540424
 20
159.862688
 30
0.0
 10
83.358056
 20
159.737235
 30
0.0
  0
SPLINE
  5
120
100
AcDbEntity
  8
RelayWing
 62
7
100
AcDbSpline
 70
8
 71
3
 72
8
 73
4
 74
0
 40
0
 40
0
 40
0
 40
0
 40
1
 40
1
 40
1
 40
1
 10
83.358056
 20
159.737235
 30
0.0
 10
82.978245
 20
159.464462
 30
0.0
 10
82.542241
 20
159.284974
 30
0.0
 10
82.217690
 20
158.971975
 30
0.0
  0
LINE
  5
121
100
AcDbEntity
  8
RelayWing
 62
7
100
AcDbLine
 10
82.217690
 20
158.971975
 30
0.0
 11
82.216474
 21
158.970759
 31
0.0
  0
LINE
  5
122
100
AcDbEntity
  8
RelayWing
 62
7
100
AcDbLine
 10
82.216474
 20
158.970759
 30
0.0
 11
82.214851
 21
158.969136
 31
0.0
  0
SPLINE
  5
123
100
AcDbEntity
  8
RelayWing
 62
7
100
AcDbSpline
 70
8
 71
3
 72
8
 73
4
 74
0
 40
0
 40
0
 40
0
 40
0
 40
1
 40
1
 40
1
 40
1
 10
82.214851
 20
158.969136
 30
0.0
 10
82.006490
 20
158.790543
 30
0.0
 10
81.835035
 20
158.562644
 30
0.0
 10
81.634172
 20
158.361523
 30
0.0
  0
LINE
  5
124
100
AcDbEntity
  8
RelayWing
 62
7
100
AcDbLine
 10
81.634172
 20
158.361523
 30
0.0
 11
81.631394
 21
158.358744
 31
0.0
  0
LINE
  5
125
100
AcDbEntity
  8
RelayWing
 62
7
100
AcDbLine
 10
81.631394
 20
158.358744
 30
0.0
 11
81.628615
 21
158.356716
 31
0.0
  0
SPLINE
  5
126
100
AcDbEntity
  8
RelayWing
 62
7
100
AcDbSpline
 70
8
 71
3
 72
8
 73
4
 74
0
 40
0
 40
0
 40
0
 40
0
 40
1
 40
1
 40
1
 40
1
 10
81.628615
 20
158.356716
 30
0.0
 10
81.211277
 20
158.032925
 30
0.0
 10
80.703696
 20
157.864842
 30
0.0
 10
80.206624
 20
157.738407
 30
0.0
  0
LINE
  5
127
100
AcDbEntity
  8
RelayWing
 62
7
100
AcDbLine
 10
80.206624
 20
157.738407
 30
0.0
 11
80.205407
 21
157.738407
 31
0.0
  0
LINE
  5
128
100
AcDbEntity
  8
RelayWing
 62
7
100
AcDbLine
 10
80.205407
 20
157.738407
 30
0.0
 11
80.205002
 21
157.738407
 31
0.0
  0
SPLINE
  5
129
100
AcDbEntity
  8
RelayWing
 62
7
100
AcDbSpline
 70
8
 71
3
 72
8
 73
4
 74
0
 40
0
 40
0
 40
0
 40
0
 40
1
 40
1
 40
1
 40
1
 10
80.205002
 20
157.738407
 30
0.0
 10
79.848336
 20
157.657449
 30
0.0
 10
79.490278
 20
157.591232
 30
0.0
 10
79.155738
 20
157.469062
 30
0.0
  0
SPLINE
  5
12a
100
AcDbEntity
  8
RelayWing
 62
7
100
AcDbSpline
 70
8
 71
3
 72
8
 73
4
 74
0
 40
0
 40
0
 40
0
 40
0
 40
1
 40
1
 40
1
 40
1
 10
79.155738
 20
157.469062
 30
0.0
 10
79.140447
 20
157.397396
 30
0.0
 10
79.165087
 20
157.299998
 30
0.0
 10
79.165250
 20
157.189814
 30
0.0
  0
SPLINE
  5
12b
100
AcDbEntity
  8
RelayWing
 62
7
100
AcDbSpline
 70
8
 71
3
 72
8
 73
4
 74
0
 40
0
 40
0
 40
0
 40
0
 40
1
 40
1
 40
1
 40
1
 10
79.165250
 20
157.189814
 30
0.0
 10
79.200359
 20
156.764163
 30
0.0
 10
79.266892
 20
156.338161
 30
0.0
 10
79.290812
 20
155.904872
 30
0.0
  0
SPLINE
  5
12c
100
AcDbEntity
  8
RelayWing
 62
7
100
AcDbSpline
 70
8
 71
3
 72
8
 73
4
 74
0
 40
0
 40
0
 40
0
 40
0
 40
1
 40
1
 40
1
 40
1
 10
79.290812
 20
155.904872
 30
0.0
 10
79.380621
 20
155.888851
 30
0.0
 10
79.494551
 20
155.901485
 30
0.0
 10
79.614821
 20
155.893779
 30
0.0
  0
SPLINE
  5
12d
100
AcDbEntity
  8
RelayWing
 62
7
100
AcDbSpline
 70
8
 71
3
 72
8
 73
4
 74
0
 40
0
 40
0
 40
0
 40
0
 40
1
 40
1
 40
1
 40
1
 10
79.614821
 20
155.893779
 30
0.0
 10
79.800263
 20
155.898768
 30
0.0
 10
80.006014
 20
155.863742
 30
0.0
 10
80.159059
 20
155.730983
 30
0.0
  0
LINE
  5
12e
100
AcDbEntity
  8
RelayWing
 62
7
100
AcDbLine
 10
80.159059
 20
155.730983
 30
0.0
 11
80.159059
 21
155.730578
 31
0.0
  0
SPLINE
  5
12f
100
AcDbEntity
  8
RelayWing
 62
7
100
AcDbSpline
 70
8
 71
3
 72
8
 73
4
 74
0
 40
0
 40
0
 40
0
 40
0
 40
1
 40
1
 40
1
 40
1
 10
80.159059
 20
155.730578
 30
0.0
 10
80.233240
 20
155.719241
 30
0.0
 10
80.329382
 20
155.752422
 30
0.0
 10
80.440288
 20
155.749986
 30
0.0
  0
SPLINE
  5
130
100
AcDbEntity
  8
RelayWing
 62
7
100
AcDbSpline
 70
8
 71
3
 72
8
 73
4
 74
0
 40
0
 40
0
 40
0
 40
0
 40
1
 40
1
 40
1
 40
1
 10
80.440288
 20
155.749986
 30
0.0
 10
80.479050
 20
155.755644
 30
0.0
 10
80.518373
 20
155.759051
 30
0.0
 10
80.548425
 20
155.767021
 30
0.0
  0
SPLINE
  5
131
100
AcDbEntity
  8
RelayWing
 62
7
100
AcDbSpline
 70
8
 71
3
 72
8
 73
4
 74
0
 40
0
 40
0
 40
0
 40
0
 40
1
 40
1
 40
1
 40
1
 10
80.548425
 20
155.767021
 30
0.0
 10
80.579439
 20
155.775235
 30
0.0
 10
80.595542
 20
155.784665
 30
0.0
 10
80.604670
 20
155.801879
 30
0.0
  0
LINE
  5
132
100
AcDbEntity
  8
RelayWing
 62
7
100
AcDbLine
 10
80.604670
 20
155.801879
 30
0.0
 11
80.612599
 21
155.816927
 31
0.0
  0
LINE
  5
133
100
AcDbEntity
  8
RelayWing
 62
7
100
AcDbLine
 10
80.612599
 20
155.816927
 30
0.0
 11
80.626856
 21
155.824856
 31
0.0
  0
SPLINE
  5
134
100
AcDbEntity
  8
RelayWing
 62
7
100
AcDbSpline
 70
8
 71
3
 72
8
 73
4
 74
0
 40
0
 40
0
 40
0
 40
0
 40
1
 40
1
 40
1
 40
1
 10
80.626856
 20
155.824856
 30
0.0
 10
80.811613
 20
155.929831
 30
0.0
 10
81.018145
 20
155.925535
 30
0.0
 10
81.190897
 20
155.971411
 30
0.0
  0
LINE
  5
135
100
AcDbEntity
  8
RelayWing
 62
7
100
AcDbLine
 10
81.190897
 20
155.971411
 30
0.0
 11
81.194852
 21
155.972628
 31
0.0
  0
LINE
  5
136
100
AcDbEntity
  8
RelayWing
 62
7
100
AcDbLine
 10
81.194852
 20
155.972628
 30
0.0
 11
81.198807
 21
155.973034
 31
0.0
  0
SPLINE
  5
137
100
AcDbEntity
  8
RelayWing
 62
7
100
AcDbSpline
 70
8
 71
3
 72
8
 73
4
 74
0
 40
0
 40
0
 40
0
 40
0
 40
1
 40
1
 40
1
 40
1
 10
81.198807
 20
155.973034
 30
0.0
 10
81.472289
 20
156.006374
 30
0.0
 10
81.735845
 20
156.102947
 30
0.0
 10
81.992586
 20
156.208712
 30
0.0
  0
SPLINE
  5
138
100
AcDbEntity
  8
RelayWing
 62
7
100
AcDbSpline
 70
8
 71
3
 72
8
 73
4
 74
0
 40
0
 40
0
 40
0
 40
0
 40
1
 40
1
 40
1
 40
1
 10
81.992586
 20
156.208712
 30
0.0
 10
81.980722
 20
156.219359
 30
0.0
 10
81.967672
 20
156.230410
 30
0.0
 10
81.955749
 20
156.246340
 30
0.0
  0
SPLINE
  5
139
100
AcDbEntity
  8
RelayWing
 62
7
100
AcDbSpline
 70
8
 71
3
 72
8
 73
4
 74
0
 40
0
 40
0
 40
0
 40
0
 40
1
 40
1
 40
1
 40
1
 10
81.955749
 20
156.246340
 30
0.0
 10
81.942790
 20
156.263659
 30
0.0
 10
81.929213
 20
156.289612
 30
0.0
 10
81.933171
 20
156.321202
 30
0.0
  0
LINE
  5
13a
100
AcDbEntity
  8
RelayWing
 62
7
100
AcDbLine
 10
81.933171
 20
156.321202
 30
0.0
 11
81.943474
 21
156.403591
 31
0.0
  0
LINE
  5
13b
100
AcDbEntity
  8
RelayWing
 62
7
100
AcDbLine
 10
81.943474
 20
156.403591
 30
0.0
 11
82.016752
 21
156.364774
 31
0.0
  0
SPLINE
  5
13c
100
AcDbEntity
  8
RelayWing
 62
7
100
AcDbSpline
 70
8
 71
3
 72
8
 73
4
 74
0
 40
0
 40
0
 40
0
 40
0
 40
1
 40
1
 40
1
 40
1
 10
82.016752
 20
156.364774
 30
0.0
 10
82.220365
 20
156.256423
 30
0.0
 10
82.400188
 20
156.114527
 30
0.0
 10
82.606939
 20
156.054234
 30
0.0
  0
LINE
  5
13d
100
AcDbEntity
  8
RelayWing
 62
7
100
AcDbLine
 10
82.606939
 20
156.054234
 30
0.0
 11
82.610508
 21
156.053017
 31
0.0
  0
LINE
  5
13e
100
AcDbEntity
  8
RelayWing
 62
7
100
AcDbLine
 10
82.610508
 20
156.053017
 30
0.0
 11
82.613286
 21
156.051394
 31
0.0
  0
SPLINE
  5
13f
100
AcDbEntity
  8
RelayWing
 62
7
100
AcDbSpline
 70
8
 71
3
 72
8
 73
4
 74
0
 40
0
 40
0
 40
0
 40
0
 40
1
 40
1
 40
1
 40
1
 10
82.613286
 20
156.051394
 30
0.0
 10
82.921987
 20
155.918892
 30
0.0
 10
83.269746
 20
155.932794
 30
0.0
 10
83.616998
 20
155.932169
 30
0.0
  0
SPLINE
  5
140
100
AcDbEntity
  8
RelayWing
 62
7
100
AcDbSpline
 70
8
 71
3
 72
8
 73
4
 74
0
 40
0
 40
0
 40
0
 40
0
 40
1
 40
1
 40
1
 40
1
 10
83.616998
 20
155.932169
 30
0.0
 10
83.571321
 20
155.944743
 30
0.0
 10
83.540333
 20
155.977560
 30
0.0
 10
83.522330
 20
156.007429
 30
0.0
  0
SPLINE
  5
141
100
AcDbEntity
  8
RelayWing
 62
7
100
AcDbSpline
 70
8
 71
3
 72
8
 73
4
 74
0
 40
0
 40
0
 40
0
 40
0
 40
1
 40
1
 40
1
 40
1
 10
83.522330
 20
156.007429
 30
0.0
 10
83.502760
 20
156.039916
 30
0.0
 10
83.489067
 20
156.072109
 30
0.0
 10
83.479947
 20
156.087045
 30
0.0
  0
LINE
  5
142
100
AcDbEntity
  8
RelayWing
 62
7
100
AcDbLine
 10
83.479947
 20
156.087045
 30
0.0
 11
83.478324
 21
156.090209
 31
0.0
  0
LINE
  5
143
100
AcDbEntity
  8
RelayWing
 62
7
100
AcDbLine
 10
83.478324
 20
156.090209
 30
0.0
 11
83.476702
 21
156.093778
 31
0.0
  0
SPLINE
  5
144
100
AcDbEntity
  8
RelayWing
 62
7
100
AcDbSpline
 70
8
 71
3
 72
8
 73
4
 74
0
 40
0
 40
0
 40
0
 40
0
 40
1
 40
1
 40
1
 40
1
 10
83.476702
 20
156.093778
 30
0.0
 10
83.444063
 20
156.165552
 30
0.0
 10
83.484246
 20
156.222766
 30
0.0
 10
83.498091
 20
156.290638
 30
0.0
  0
SPLINE
  5
145
100
AcDbEntity
  8
RelayWing
 62
7
100
AcDbSpline
 70
8
 71
3
 72
8
 73
4
 74
0
 40
0
 40
0
 40
0
 40
0
 40
1
 40
1
 40
1
 40
1
 10
83.498091
 20
156.290638
 30
0.0
 10
83.498294
 20
156.292463
 30
0.0
 10
83.496672
 20
156.294512
 30
0.0
 10
83.496875
 20
156.296195
 30
0.0
  0
SPLINE
  5
146
100
AcDbEntity
  8
RelayWing
 62
7
100
AcDbSpline
 70
8
 71
3
 72
8
 73
4
 74
0
 40
0
 40
0
 40
0
 40
0
 40
1
 40
1
 40
1
 40
1
 10
83.496875
 20
156.296195
 30
0.0
 10
83.498700
 20
156.305747
 30
0.0
 10
83.499693
 20
156.311101
 30
0.0
 10
83.501620
 20
156.320357
 30
0.0
  0
SPLINE
  5
147
100
AcDbEntity
  8
RelayWing
 62
7
100
AcDbSpline
 70
8
 71
3
 72
8
 73
4
 74
0
 40
0
 40
0
 40
0
 40
0
 40
1
 40
1
 40
1
 40
1
 10
83.501620
 20
156.320357
 30
0.0
 10
83.517216
 20
156.380558
 30
0.0
 10
83.504845
 20
156.451543
 30
0.0
 10
83.520623
 20
156.498997
 30
0.0
  0
LINE
  5
148
100
AcDbEntity
  8
RelayWing
 62
7
100
AcDbLine
 10
83.520623
 20
156.498997
 30
0.0
 11
83.522995
 21
156.505730
 31
0.0
  0
LINE
  5
149
100
AcDbEntity
  8
RelayWing
 62
7
100
AcDbLine
 10
83.522995
 20
156.505730
 30
0.0
 11
83.526159
 21
156.510475
 31
0.0
  0
SPLINE
  5
14a
100
AcDbEntity
  8
RelayWing
 62
7
100
AcDbSpline
 70
8
 71
3
 72
8
 73
4
 74
0
 40
0
 40
0
 40
0
 40
0
 40
1
 40
1
 40
1
 40
1
 10
83.526159
 20
156.510475
 30
0.0
 10
83.528694
 20
156.514673
 30
0.0
 10
83.531919
 20
156.521183
 30
0.0
 10
83.541613
 20
156.530269
 30
0.0
  0
SPLINE
  5
14b
100
AcDbEntity
  8
RelayWing
 62
7
100
AcDbSpline
 70
8
 71
3
 72
8
 73
4
 74
0
 40
0
 40
0
 40
0
 40
0
 40
1
 40
1
 40
1
 40
1
 10
83.541613
 20
156.530269
 30
0.0
 10
83.546439
 20
156.534832
 30
0.0
 10
83.553253
 20
156.541078
 30
0.0
 10
83.564984
 20
156.545317
 30
0.0
  0
SPLINE
  5
14c
100
AcDbEntity
  8
RelayWing
 62
7
100
AcDbSpline
 70
8
 71
3
 72
8
 73
4
 74
0
 40
0
 40
0
 40
0
 40
0
 40
1
 40
1
 40
1
 40
1
 10
83.564984
 20
156.545317
 30
0.0
 10
83.576726
 20
156.549555
 30
0.0
 10
83.594901
 20
156.549941
 30
0.0
 10
83.609346
 20
156.544100
 30
0.0
  0
LINE
  5
14d
100
AcDbEntity
  8
RelayWing
 62
7
100
AcDbLine
 10
83.609346
 20
156.544100
 30
0.0
 11
83.642618
 21
156.530634
 31
0.0
  0
LINE
  5
14e
100
AcDbEntity
  8
RelayWing
 62
7
100
AcDbLine
 10
83.642618
 20
156.530634
 30
0.0
 11
83.645397
 21
156.494983
 31
0.0
  0
SPLINE
  5
14f
100
AcDbEntity
  8
RelayWing
 62
7
100
AcDbSpline
 70
8
 71
3
 72
8
 73
4
 74
0
 40
0
 40
0
 40
0
 40
0
 40
1
 40
1
 40
1
 40
1
 10
83.645397
 20
156.494983
 30
0.0
 10
83.650974
 20
156.410971
 30
0.0
 10
83.621997
 20
156.336678
 30
0.0
 10
83.609748
 20
156.273962
 30
0.0
  0
SPLINE
  5
150
100
AcDbEntity
  8
RelayWing
 62
7
100
AcDbSpline
 70
8
 71
3
 72
8
 73
4
 74
0
 40
0
 40
0
 40
0
 40
0
 40
1
 40
1
 40
1
 40
1
 10
83.609748
 20
156.273962
 30
0.0
 10
83.597499
 20
156.211247
 30
0.0
 10
83.595430
 20
156.170200
 30
0.0
 10
83.634703
 20
156.125821
 30
0.0
  0
LINE
  5
151
100
AcDbEntity
  8
RelayWing
 62
7
100
AcDbLine
 10
83.634703
 20
156.125821
 30
0.0
 11
83.635920
 21
156.124604
 31
0.0
  0
LINE
  5
152
100
AcDbEntity
  8
RelayWing
 62
7
100
AcDbLine
 10
83.635920
 20
156.124604
 30
0.0
 11
83.636731
 21
156.122982
 31
0.0
  0
SPLINE
  5
153
100
AcDbEntity
  8
RelayWing
 62
7
100
AcDbSpline
 70
8
 71
3
 72
8
 73
4
 74
0
 40
0
 40
0
 40
0
 40
0
 40
1
 40
1
 40
1
 40
1
 10
83.636731
 20
156.122982
 30
0.0
 10
83.637136
 20
156.122170
 30
0.0
 10
83.664689
 20
156.101071
 30
0.0
 10
83.687036
 20
156.072281
 30
0.0
  0
SPLINE
  5
154
100
AcDbEntity
  8
RelayWing
 62
7
100
AcDbSpline
 70
8
 71
3
 72
8
 73
4
 74
0
 40
0
 40
0
 40
0
 40
0
 40
1
 40
1
 40
1
 40
1
 10
83.687036
 20
156.072281
 30
0.0
 10
83.698210
 20
156.057882
 30
0.0
 10
83.711908
 20
156.038107
 30
0.0
 10
83.711198
 20
156.007717
 30
0.0
  0
SPLINE
  5
155
100
AcDbEntity
  8
RelayWing
 62
7
100
AcDbSpline
 70
8
 71
3
 72
8
 73
4
 74
0
 40
0
 40
0
 40
0
 40
0
 40
1
 40
1
 40
1
 40
1
 10
83.711198
 20
156.007717
 30
0.0
 10
83.710387
 20
155.977327
 30
0.0
 10
83.688456
 20
155.948284
 30
0.0
 10
83.665251
 20
155.933648
 30
0.0
  0
LINE
  5
156
100
AcDbEntity
  8
RelayWing
 62
7
100
AcDbLine
 10
83.665251
 20
155.933648
 30
0.0
 11
83.663628
 21
155.932431
 31
0.0
  0
SPLINE
  5
157
100
AcDbEntity
  8
RelayWing
 62
7
100
AcDbSpline
 70
8
 71
3
 72
8
 73
4
 74
0
 40
0
 40
0
 40
0
 40
0
 40
1
 40
1
 40
1
 40
1
 10
83.663628
 20
155.932431
 30
0.0
 10
84.287198
 20
155.973472
 30
0.0
 10
84.912776
 20
156.000676
 30
0.0
 10
85.519348
 20
156.126121
 30
0.0
  0
LINE
  5
158
100
AcDbEntity
  8
RelayWing
 62
7
100
AcDbLine
 10
85.519348
 20
156.126121
 30
0.0
 11
85.519754
 21
156.126121
 31
0.0
  0
SPLINE
  5
159
100
AcDbEntity
  8
RelayWing
 62
7
100
AcDbSpline
 70
8
 71
3
 72
8
 73
4
 74
0
 40
0
 40
0
 40
0
 40
0
 40
1
 40
1
 40
1
 40
1
 10
85.519754
 20
156.126121
 30
0.0
 10
85.728196
 20
156.168614
 30
0.0
 10
85.923527
 20
156.289178
 30
0.0
 10
86.056466
 20
156.453299
 30
0.0
  0
SPLINE
  5
15a
100
AcDbEntity
  8
RelayWing
 62
7
100
AcDbSpline
 70
8
 71
3
 72
8
 73
4
 74
0
 40
0
 40
0
 40
0
 40
0
 40
1
 40
1
 40
1
 40
1
 10
86.056466
 20
156.453299
 30
0.0
 10
86.097263
 20
156.527265
 30
0.0
 10
86.103915
 20
156.630619
 30
0.0
 10
86.073501
 20
156.715119
 30
0.0
  0
SPLINE
  5
15b
100
AcDbEntity
  8
RelayWing
 62
7
100
AcDbSpline
 70
8
 71
3
 72
8
 73
4
 74
0
 40
0
 40
0
 40
0
 40
0
 40
1
 40
1
 40
1
 40
1
 10
86.073501
 20
156.715119
 30
0.0
 10
86.042890
 20
156.800154
 30
0.0
 10
85.983074
 20
156.860522
 30
0.0
 10
85.893275
 20
156.870786
 30
0.0
  0
SPLINE
  5
15c
100
AcDbEntity
  8
RelayWing
 62
7
100
AcDbSpline
 70
8
 71
3
 72
8
 73
4
 74
0
 40
0
 40
0
 40
0
 40
0
 40
1
 40
1
 40
1
 40
1
 10
85.893275
 20
156.870786
 30
0.0
 10
85.633238
 20
156.859307
 30
0.0
 10
85.369528
 20
156.784907
 30
0.0
 10
85.091179
 20
156.767801
 30
0.0
  0
LINE
  5
15d
100
AcDbEntity
  8
RelayWing
 62
7
100
AcDbLine
 10
85.091179
 20
156.767801
 30
0.0
 11
85.086027
 21
156.767801
 31
0.0
  0
LINE
  5
15e
100
AcDbEntity
  8
RelayWing
 62
7
100
AcDbLine
 10
85.086027
 20
156.767801
 30
0.0
 11
85.081667
 21
156.768206
 31
0.0
  0
SPLINE
  5
15f
100
AcDbEntity
  8
RelayWing
 62
7
100
AcDbSpline
 70
8
 71
3
 72
8
 73
4
 74
0
 40
0
 40
0
 40
0
 40
0
 40
1
 40
1
 40
1
 40
1
 10
85.081667
 20
156.768206
 30
0.0
 10
85.067978
 20
156.769423
 30
0.0
 10
85.033625
 20
156.763258
 30
0.0
 10
84.995318
 20
156.757904
 30
0.0
  0
SPLINE
  5
160
100
AcDbEntity
  8
RelayWing
 62
7
100
AcDbSpline
 70
8
 71
3
 72
8
 73
4
 74
0
 40
0
 40
0
 40
0
 40
0
 40
1
 40
1
 40
1
 40
1
 10
84.995318
 20
156.757904
 30
0.0
 10
84.957015
 20
156.752550
 30
0.0
 10
84.907787
 20
156.747014
 30
0.0
 10
84.862229
 20
156.779294
 30
0.0
  0
LINE
  5
161
100
AcDbEntity
  8
RelayWing
 62
7
100
AcDbLine
 10
84.862229
 20
156.779294
 30
0.0
 11
84.809945
 21
156.816131
 31
0.0
  0
LINE
  5
162
100
AcDbEntity
  8
RelayWing
 62
7
100
AcDbLine
 10
84.809945
 20
156.816131
 30
0.0
 11
84.852724
 21
156.863661
 31
0.0
  0
SPLINE
  5
163
100
AcDbEntity
  8
RelayWing
 62
7
100
AcDbSpline
 70
8
 71
3
 72
8
 73
4
 74
0
 40
0
 40
0
 40
0
 40
0
 40
1
 40
1
 40
1
 40
1
 10
84.852724
 20
156.863661
 30
0.0
 10
84.888214
 20
156.903021
 30
0.0
 10
84.929817
 20
156.902153
 30
0.0
 10
84.962442
 20
156.904857
 30
0.0
  0
SPLINE
  5
164
100
AcDbEntity
  8
RelayWing
 62
7
100
AcDbSpline
 70
8
 71
3
 72
8
 73
4
 74
0
 40
0
 40
0
 40
0
 40
0
 40
1
 40
1
 40
1
 40
1
 10
84.962442
 20
156.904857
 30
0.0
 10
84.995071
 20
156.907533
 30
0.0
 10
85.025375
 20
156.909906
 30
0.0
 10
85.032948
 20
156.912380
 30
0.0
  0
LINE
  5
165
100
AcDbEntity
  8
RelayWing
 62
7
100
AcDbLine
 10
85.032948
 20
156.912380
 30
0.0
 11
85.038099
 21
156.914408
 31
0.0
  0
LINE
  5
166
100
AcDbEntity
  8
RelayWing
 62
7
100
AcDbLine
 10
85.038099
 20
156.914408
 30
0.0
 11
85.043636
 21
156.914814
 31
0.0
  0
SPLINE
  5
167
100
AcDbEntity
  8
RelayWing
 62
7
100
AcDbSpline
 70
8
 71
3
 72
8
 73
4
 74
0
 40
0
 40
0
 40
0
 40
0
 40
1
 40
1
 40
1
 40
1
 10
85.043636
 20
156.914814
 30
0.0
 10
85.433727
 20
156.965506
 30
0.0
 10
85.828934
 20
156.996701
 30
0.0
 10
86.181625
 20
157.142173
 30
0.0
  0
SPLINE
  5
168
100
AcDbEntity
  8
RelayWing
 62
7
100
AcDbSpline
 70
8
 71
3
 72
8
 73
4
 74
0
 40
0
 40
0
 40
0
 40
0
 40
1
 40
1
 40
1
 40
1
 10
86.181625
 20
157.142173
 30
0.0
 10
86.257187
 20
157.196814
 30
0.0
 10
86.332349
 20
157.259432
 30
0.0
 10
86.360661
 20
157.324379
 30
0.0
  0
SPLINE
  5
169
100
AcDbEntity
  8
RelayWing
 62
7
100
AcDbSpline
 70
8
 71
3
 72
8
 73
4
 74
0
 40
0
 40
0
 40
0
 40
0
 40
1
 40
1
 40
1
 40
1
 10
86.360661
 20
157.324379
 30
0.0
 10
86.362689
 20
157.400371
 30
0.0
 10
86.365345
 20
157.482932
 30
0.0
 10
86.350764
 20
157.551343
 30
0.0
  0
SPLINE
  5
16a
100
AcDbEntity
  8
RelayWing
 62
7
100
AcDbSpline
 70
8
 71
3
 72
8
 73
4
 74
0
 40
0
 40
0
 40
0
 40
0
 40
1
 40
1
 40
1
 40
1
 10
86.350764
 20
157.551343
 30
0.0
 10
86.335250
 20
157.624234
 30
0.0
 10
86.307103
 20
157.676567
 30
0.0
 10
86.240253
 20
157.708989
 30
0.0
  0
LINE
  5
16b
100
AcDbEntity
  8
RelayWing
 62
7
100
AcDbLine
 10
86.240253
 20
157.708989
 30
0.0
 11
86.236298
 21
157.711017
 31
0.0
  0
LINE
  5
16c
100
AcDbEntity
  8
RelayWing
 62
7
100
AcDbLine
 10
86.236298
 20
157.711017
 30
0.0
 11
86.232729
 21
157.713795
 31
0.0
  0
SPLINE
  5
16d
100
AcDbEntity
  8
RelayWing
 62
7
100
AcDbSpline
 70
8
 71
3
 72
8
 73
4
 74
0
 40
0
 40
0
 40
0
 40
0
 40
1
 40
1
 40
1
 40
1
 10
86.232729
 20
157.713795
 30
0.0
 10
86.088364
 20
157.811392
 30
0.0
 10
85.888740
 20
157.761985
 30
0.0
 10
85.685322
 20
157.762119
 30
0.0
  0
LINE
  5
16e
100
AcDbEntity
  8
RelayWing
 62
7
100
AcDbLine
 10
85.685322
 20
157.762119
 30
0.0
 11
85.681367
 21
157.762119
 31
0.0
  0
SPLINE
  5
16f
100
AcDbEntity
  8
RelayWing
 62
7
100
AcDbSpline
 70
8
 71
3
 72
8
 73
4
 74
0
 40
0
 40
0
 40
0
 40
0
 40
1
 40
1
 40
1
 40
1
 10
85.681367
 20
157.762119
 30
0.0
 10
85.399456
 20
157.743421
 30
0.0
 10
85.106510
 20
157.692294
 30
0.0
 10
84.811932
 20
157.715777
 30
0.0
  0
LINE
  5
170
100
AcDbEntity
  8
RelayWing
 62
7
100
AcDbLine
 10
84.811932
 20
157.715777
 30
0.0
 11
84.737070
 21
157.721719
 31
0.0
  0
LINE
  5
171
100
AcDbEntity
  8
RelayWing
 62
7
100
AcDbLine
 10
84.737070
 20
157.721719
 30
0.0
 11
84.762818
 21
157.792620
 31
0.0
  0
SPLINE
  5
172
100
AcDbEntity
  8
RelayWing
 62
7
100
AcDbSpline
 70
8
 71
3
 72
8
 73
4
 74
0
 40
0
 40
0
 40
0
 40
0
 40
1
 40
1
 40
1
 40
1
 10
84.762818
 20
157.792620
 30
0.0
 10
84.773546
 20
157.822017
 30
0.0
 10
84.799393
 20
157.843084
 30
0.0
 10
84.822233
 20
157.852035
 30
0.0
  0
SPLINE
  5
173
100
AcDbEntity
  8
RelayWing
 62
7
100
AcDbSpline
 70
8
 71
3
 72
8
 73
4
 74
0
 40
0
 40
0
 40
0
 40
0
 40
1
 40
1
 40
1
 40
1
 10
84.822233
 20
157.852035
 30
0.0
 10
84.845072
 20
157.860979
 30
0.0
 10
84.865906
 20
157.861993
 30
0.0
 10
84.885211
 20
157.862723
 30
0.0
  0
SPLINE
  5
174
100
AcDbEntity
  8
RelayWing
 62
7
100
AcDbSpline
 70
8
 71
3
 72
8
 73
4
 74
0
 40
0
 40
0
 40
0
 40
0
 40
1
 40
1
 40
1
 40
1
 10
84.885211
 20
157.862723
 30
0.0
 10
84.923814
 20
157.864143
 30
0.0
 10
84.961215
 20
157.863737
 30
0.0
 10
84.965222
 20
157.864751
 30
0.0
  0
LINE
  5
175
100
AcDbEntity
  8
RelayWing
 62
7
100
AcDbLine
 10
84.965222
 20
157.864751
 30
0.0
 11
84.971550
 21
157.866374
 31
0.0
  0
LINE
  5
176
100
AcDbEntity
  8
RelayWing
 62
7
100
AcDbLine
 10
84.971550
 20
157.866374
 30
0.0
 11
84.977492
 21
157.866374
 31
0.0
  0
SPLINE
  5
177
100
AcDbEntity
  8
RelayWing
 62
7
100
AcDbSpline
 70
8
 71
3
 72
8
 73
4
 74
0
 40
0
 40
0
 40
0
 40
0
 40
1
 40
1
 40
1
 40
1
 10
84.977492
 20
157.866374
 30
0.0
 10
85.268557
 20
157.874486
 30
0.0
 10
85.563133
 20
157.880144
 30
0.0
 10
85.837817
 20
157.945199
 30
0.0
  0
SPLINE
  5
178
100
AcDbEntity
  8
RelayWing
 62
7
100
AcDbSpline
 70
8
 71
3
 72
8
 73
4
 74
0
 40
0
 40
0
 40
0
 40
0
 40
1
 40
1
 40
1
 40
1
 10
85.837817
 20
157.945199
 30
0.0
 10
86.043044
 20
158.015088
 30
0.0
 10
86.250645
 20
158.079946
 30
0.0
 10
86.410970
 20
158.201474
 30
0.0
  0
SPLINE
  5
179
100
AcDbEntity
  8
RelayWing
 62
7
100
AcDbSpline
 70
8
 71
3
 72
8
 73
4
 74
0
 40
0
 40
0
 40
0
 40
0
 40
1
 40
1
 40
1
 40
1
 10
86.410970
 20
158.201474
 30
0.0
 10
86.436413
 20
158.259593
 30
0.0
 10
86.456919
 20
158.325408
 30
0.0
 10
86.458105
 20
158.386847
 30
0.0
  0
SPLINE
  5
17a
100
AcDbEntity
  8
RelayWing
 62
7
100
AcDbSpline
 70
8
 71
3
 72
8
 73
4
 74
0
 40
0
 40
0
 40
0
 40
0
 40
1
 40
1
 40
1
 40
1
 10
86.458105
 20
158.386847
 30
0.0
 10
86.459322
 20
158.453380
 30
0.0
 10
86.442570
 20
158.512041
 30
0.0
 10
86.399483
 20
158.559545
 30
0.0
  0
LINE
  5
17b
100
AcDbEntity
  8
RelayWing
 62
7
100
AcDbLine
 10
86.399483
 20
158.559545
 30
0.0
 11
86.399077
 21
158.560762
 31
0.0
  0
LINE
  5
17c
100
AcDbEntity
  8
RelayWing
 62
7
100
AcDbLine
 10
86.399077
 20
158.560762
 30
0.0
 11
86.397861
 21
158.561573
 31
0.0
  0
SPLINE
  5
17d
100
AcDbEntity
  8
RelayWing
 62
7
100
AcDbSpline
 70
8
 71
3
 72
8
 73
4
 74
0
 40
0
 40
0
 40
0
 40
0
 40
1
 40
1
 40
1
 40
1
 10
86.397861
 20
158.561573
 30
0.0
 10
86.215821
 20
158.782372
 30
0.0
 10
85.882910
 20
158.844301
 30
0.0
 10
85.606854
 20
158.765563
 30
0.0
  0
LINE
  5
17e
100
AcDbEntity
  8
RelayWing
 62
7
100
AcDbLine
 10
85.606854
 20
158.765563
 30
0.0
 11
85.603284
 21
158.764752
 31
0.0
  0
LINE
  5
17f
100
AcDbEntity
  8
RelayWing
 62
7
100
AcDbLine
 10
85.603284
 20
158.764752
 30
0.0
 11
85.599715
 21
158.763941
 31
0.0
  0
SPLINE
  5
180
100
AcDbEntity
  8
RelayWing
 62
7
100
AcDbSpline
 70
8
 71
3
 72
8
 73
4
 74
0
 40
0
 40
0
 40
0
 40
0
 40
1
 40
1
 40
1
 40
1
 10
85.599715
 20
158.763941
 30
0.0
 10
85.244365
 20
158.710000
 30
0.0
 10
84.883923
 20
158.684422
 30
0.0
 10
84.527083
 20
158.669670
 30
0.0
  0
LINE
  5
181
100
AcDbEntity
  8
RelayWing
 62
7
100
AcDbLine
 10
84.527083
 20
158.669670
 30
0.0
 11
84.454993
 21
158.666507
 31
0.0
  0
LINE
  5
182
100
AcDbEntity
  8
RelayWing
 62
7
100
AcDbLine
 10
84.454993
 20
158.666507
 30
0.0
 11
84.468459
 21
158.737406
 31
0.0
  0
SPLINE
  5
183
100
AcDbEntity
  8
RelayWing
 62
7
100
AcDbSpline
 70
8
 71
3
 72
8
 73
4
 74
0
 40
0
 40
0
 40
0
 40
0
 40
1
 40
1
 40
1
 40
1
 10
84.468459
 20
158.737406
 30
0.0
 10
84.474705
 20
158.769425
 30
0.0
 10
84.502625
 20
158.791003
 30
0.0
 10
84.522329
 20
158.798803
 30
0.0
  0
SPLINE
  5
184
100
AcDbEntity
  8
RelayWing
 62
7
100
AcDbSpline
 70
8
 71
3
 72
8
 73
4
 74
0
 40
0
 40
0
 40
0
 40
0
 40
1
 40
1
 40
1
 40
1
 10
84.522329
 20
158.798803
 30
0.0
 10
84.542021
 20
158.806611
 30
0.0
 10
84.558957
 20
158.808132
 30
0.0
 10
84.575009
 20
158.809490
 30
0.0
  0
SPLINE
  5
185
100
AcDbEntity
  8
RelayWing
 62
7
100
AcDbSpline
 70
8
 71
3
 72
8
 73
4
 74
0
 40
0
 40
0
 40
0
 40
0
 40
1
 40
1
 40
1
 40
1
 10
84.575009
 20
158.809490
 30
0.0
 10
84.607114
 20
158.812228
 30
0.0
 10
84.641619
 20
158.816528
 30
0.0
 10
84.635217
 20
158.814236
 30
0.0
  0
LINE
  5
186
100
AcDbEntity
  8
RelayWing
 62
7
100
AcDbLine
 10
84.635217
 20
158.814236
 30
0.0
 11
84.641950
 21
158.816264
 31
0.0
  0
LINE
  5
187
100
AcDbEntity
  8
RelayWing
 62
7
100
AcDbLine
 10
84.641950
 20
158.816264
 30
0.0
 11
84.648277
 21
158.817075
 31
0.0
  0
SPLINE
  5
188
100
AcDbEntity
  8
RelayWing
 62
7
100
AcDbSpline
 70
8
 71
3
 72
8
 73
4
 74
0
 40
0
 40
0
 40
0
 40
0
 40
1
 40
1
 40
1
 40
1
 10
84.648277
 20
158.817075
 30
0.0
 10
85.152520
 20
158.872247
 30
0.0
 10
85.684638
 20
158.853488
 30
0.0
 10
86.096807
 20
159.131576
 30
0.0
  0
LINE
  5
189
100
AcDbEntity
  8
RelayWing
 62
7
100
AcDbLine
 10
86.096807
 20
159.131576
 30
0.0
 11
86.099585
 21
159.133199
 31
0.0
  0
LINE
  5
18a
100
AcDbEntity
  8
RelayWing
 62
7
100
AcDbLine
 10
86.099585
 20
159.133199
 30
0.0
 11
86.101958
 21
159.134821
 31
0.0
  0
SPLINE
  5
18b
100
AcDbEntity
  8
RelayWing
 62
7
100
AcDbSpline
 70
8
 71
3
 72
8
 73
4
 74
0
 40
0
 40
0
 40
0
 40
0
 40
1
 40
1
 40
1
 40
1
 10
86.101958
 20
159.134821
 30
0.0
 10
86.176731
 20
159.175270
 30
0.0
 10
86.214043
 20
159.272055
 30
0.0
 10
86.163750
 20
159.341584
 30
0.0
  0
LINE
  5
18c
100
AcDbEntity
  8
RelayWing
 62
7
100
AcDbLine
 10
86.163750
 20
159.341584
 30
0.0
 11
86.161377
 21
159.346330
 31
0.0
  0
LINE
  5
18d
100
AcDbEntity
  8
RelayWing
 62
7
100
AcDbLine
 10
86.161377
 20
159.346330
 30
0.0
 11
86.159004
 21
159.350690
 31
0.0
  0
SPLINE
  5
18e
100
AcDbEntity
  8
RelayWing
 62
7
100
AcDbSpline
 70
8
 71
3
 72
8
 73
4
 74
0
 40
0
 40
0
 40
0
 40
0
 40
1
 40
1
 40
1
 40
1
 10
86.159004
 20
159.350690
 30
0.0
 10
86.088979
 20
159.494988
 30
0.0
 10
85.945440
 20
159.583129
 30
0.0
 10
85.785881
 20
159.618849
 30
0.0
  0
LINE
  5
18f
100
AcDbEntity
  8
RelayWing
 62
7
100
AcDbLine
 10
85.785881
 20
159.618849
 30
0.0
 11
85.785070
 21
159.618849
 31
0.0
  0
LINE
  5
190
100
AcDbEntity
  8
RelayWing
 62
7
100
AcDbLine
 10
85.785070
 20
159.618849
 30
0.0
 11
85.783853
 21
159.619660
 31
0.0
  0
SPLINE
  5
191
100
AcDbEntity
  8
RelayWing
 62
7
100
AcDbSpline
 70
8
 71
3
 72
8
 73
4
 74
0
 40
0
 40
0
 40
0
 40
0
 40
1
 40
1
 40
1
 40
1
 10
85.783853
 20
159.619660
 30
0.0
 10
85.406272
 20
159.716076
 30
0.0
 10
84.998656
 20
159.674729
 30
0.0
 10
84.593184
 20
159.683829
 30
0.0
  0
SPLINE
  5
192
100
AcDbEntity
  8
RelayWing
 62
7
100
AcDbSpline
 70
8
 71
3
 72
8
 73
4
 74
0
 40
0
 40
0
 40
0
 40
0
 40
1
 40
1
 40
1
 40
1
 10
84.593184
 20
159.683829
 30
0.0
 10
84.292380
 20
159.683829
 30
0.0
 10
83.991673
 20
159.673243
 30
0.0
 10
83.691666
 20
159.655311
 30
0.0
  0
LINE
  5
193
100
AcDbEntity
  8
RelayWing
 62
7
100
AcDbLine
 10
83.691666
 20
159.655311
 30
0.0
 11
83.686515
 21
159.654500
 31
0.0
  0
LINE
  5
194
100
AcDbEntity
  8
RelayWing
 62
7
100
AcDbLine
 10
83.686515
 20
159.654500
 30
0.0
 11
83.682154
 21
159.655311
 31
0.0
  0
SPLINE
  5
195
100
AcDbEntity
  8
RelayWing
 62
7
100
AcDbSpline
 70
8
 71
3
 72
8
 73
4
 74
0
 40
0
 40
0
 40
0
 40
0
 40
1
 40
1
 40
1
 40
1
 10
83.682154
 20
159.655311
 30
0.0
 10
83.672095
 20
159.656325
 30
0.0
 10
83.663720
 20
159.656528
 30
0.0
 10
83.648883
 20
159.663626
 30
0.0
  0
SPLINE
  5
196
100
AcDbEntity
  8
RelayWing
 62
7
100
AcDbSpline
 70
8
 71
3
 72
8
 73
4
 74
0
 40
0
 40
0
 40
0
 40
0
 40
1
 40
1
 40
1
 40
1
 10
83.648883
 20
159.663626
 30
0.0
 10
83.641460
 20
159.667195
 30
0.0
 10
83.630306
 20
159.673015
 30
0.0
 10
83.621156
 20
159.689769
 30
0.0
  0
SPLINE
  5
197
100
AcDbEntity
  8
RelayWing
 62
7
100
AcDbSpline
 70
8
 71
3
 72
8
 73
4
 74
0
 40
0
 40
0
 40
0
 40
0
 40
1
 40
1
 40
1
 40
1
 10
83.621156
 20
159.689769
 30
0.0
 10
83.612009
 20
159.706520
 30
0.0
 10
83.613875
 20
159.732351
 30
0.0
 10
83.620344
 20
159.745223
 30
0.0
  0
SPLINE
  5
198
100
AcDbEntity
  8
RelayWing
 62
7
100
AcDbSpline
 70
8
 71
3
 72
8
 73
4
 74
0
 40
0
 40
0
 40
0
 40
0
 40
1
 40
1
 40
1
 40
1
 10
83.620344
 20
159.745223
 30
0.0
 10
83.633385
 20
159.770961
 30
0.0
 10
83.643419
 20
159.771403
 30
0.0
 10
83.650844
 20
159.775325
 30
0.0
  0
SPLINE
  5
199
100
AcDbEntity
  8
RelayWing
 62
7
100
AcDbSpline
 70
8
 71
3
 72
8
 73
4
 74
0
 40
0
 40
0
 40
0
 40
0
 40
1
 40
1
 40
1
 40
1
 10
83.650844
 20
159.775325
 30
0.0
 10
83.658266
 20
159.779259
 30
0.0
 10
83.665121
 20
159.781673
 30
0.0
 10
83.671838
 20
159.784045
 30
0.0
  0
SPLINE
  5
19a
100
AcDbEntity
  8
RelayWing
 62
7
100
AcDbSpline
 70
8
 71
3
 72
8
 73
4
 74
0
 40
0
 40
0
 40
0
 40
0
 40
1
 40
1
 40
1
 40
1
 10
83.671838
 20
159.784045
 30
0.0
 10
83.685284
 20
159.788791
 30
0.0
 10
83.698936
 20
159.792218
 30
0.0
 10
83.712240
 20
159.795139
 30
0.0
  0
SPLINE
  5
19b
100
AcDbEntity
  8
RelayWing
 62
7
100
AcDbSpline
 70
8
 71
3
 72
8
 73
4
 74
0
 40
0
 40
0
 40
0
 40
0
 40
1
 40
1
 40
1
 40
1
 10
83.712240
 20
159.795139
 30
0.0
 10
83.725544
 20
159.798059
 30
0.0
 10
83.734623
 20
159.800675
 30
0.0
 10
83.751454
 20
159.800675
 30
0.0
  0
SPLINE
  5
19c
100
AcDbEntity
  8
RelayWing
 62
7
100
AcDbSpline
 70
8
 71
3
 72
8
 73
4
 74
0
 40
0
 40
0
 40
0
 40
0
 40
1
 40
1
 40
1
 40
1
 10
83.751454
 20
159.800675
 30
0.0
 10
84.095812
 20
159.830917
 30
0.0
 10
84.440346
 20
159.839672
 30
0.0
 10
84.783684
 20
159.846624
 30
0.0
  0
SPLINE
  5
19d
100
AcDbEntity
  8
RelayWing
 62
7
100
AcDbSpline
 70
8
 71
3
 72
8
 73
4
 74
0
 40
0
 40
0
 40
0
 40
0
 40
1
 40
1
 40
1
 40
1
 10
84.783684
 20
159.846624
 30
0.0
 10
84.806195
 20
159.925674
 30
0.0
 10
84.803883
 20
160.031762
 30
0.0
 10
84.845476
 20
160.141320
 30
0.0
  0
SPLINE
  5
19e
100
AcDbEntity
  8
RelayWing
 62
7
100
AcDbSpline
 70
8
 71
3
 72
8
 73
4
 74
0
 40
0
 40
0
 40
0
 40
0
 40
1
 40
1
 40
1
 40
1
 10
84.845476
 20
160.141320
 30
0.0
 10
84.969733
 20
160.527262
 30
0.0
 10
85.153861
 20
160.889684
 30
0.0
 10
85.213054
 20
161.275348
 30
0.0
  0
SPLINE
  5
19f
100
AcDbEntity
  8
RelayWing
 62
7
100
AcDbSpline
 70
8
 71
3
 72
8
 73
4
 74
0
 40
0
 40
0
 40
0
 40
0
 40
1
 40
1
 40
1
 40
1
 10
85.213054
 20
161.275348
 30
0.0
 10
85.219483
 20
161.452936
 30
0.0
 10
85.111475
 20
161.642609
 30
0.0
 10
84.955194
 20
161.723334
 30
0.0
  0
SPLINE
  5
1a0
100
AcDbEntity
  8
RelayWing
 62
7
100
AcDbSpline
 70
8
 71
3
 72
8
 73
4
 74
0
 40
0
 40
0
 40
0
 40
0
 40
1
 40
1
 40
1
 40
1
 10
84.955194
 20
161.723334
 30
0.0
 10
84.947102
 20
161.724754
 30
0.0
 10
84.939233
 20
161.726173
 30
0.0
 10
84.932618
 20
161.725707
 30
0.0
  0
LINE
  5
1a1
100
AcDbEntity
  8
RelayWing
 62
7
100
AcDbLine
 10
84.932618
 20
161.725707
 30
0.0
 11
84.932952
 21
161.725666
 31
0.0
  0
LINE
  5
1a2
100
AcDbEntity
  8
RelayWing
 62
7
100
AcDbLine
 10
83.379852
 20
159.615653
 30
0.0
 11
83.379852
 21
159.464740
 31
0.0
  0
LINE
  5
1a3
100
AcDbEntity
  8
RelayWing
 62
7
100
AcDbLine
 10
83.379852
 20
159.464740
 30
0.0
 11
83.377824
 21
159.457216
 31
0.0
  0
SPLINE
  5
1a4
100
AcDbEntity
  8
RelayWing
 62
7
100
AcDbSpline
 70
8
 71
3
 72
8
 73
4
 74
0
 40
0
 40
0
 40
0
 40
0
 40
1
 40
1
 40
1
 40
1
 10
83.377824
 20
159.457216
 30
0.0
 10
83.353055
 20
159.365492
 30
0.0
 10
83.308356
 20
159.285511
 30
0.0
 10
83.276423
 20
159.208467
 30
0.0
  0
SPLINE
  5
1a5
100
AcDbEntity
  8
RelayWing
 62
7
100
AcDbSpline
 70
8
 71
3
 72
8
 73
4
 74
0
 40
0
 40
0
 40
0
 40
0
 40
1
 40
1
 40
1
 40
1
 10
83.276423
 20
159.208467
 30
0.0
 10
83.244491
 20
159.131424
 30
0.0
 10
83.225128
 20
159.060281
 30
0.0
 10
83.238397
 20
158.982691
 30
0.0
  0
LINE
  5
1a6
100
AcDbEntity
  8
RelayWing
 62
7
100
AcDbLine
 10
83.238397
 20
158.982691
 30
0.0
 11
83.239208
 21
158.975958
 31
0.0
  0
LINE
  5
1a7
100
AcDbEntity
  8
RelayWing
 62
7
100
AcDbLine
 10
83.239208
 20
158.975958
 30
0.0
 11
83.239208
 21
158.969631
 31
0.0
  0
SPLINE
  5
1a8
100
AcDbEntity
  8
RelayWing
 62
7
100
AcDbSpline
 70
8
 71
3
 72
8
 73
4
 74
0
 40
0
 40
0
 40
0
 40
0
 40
1
 40
1
 40
1
 40
1
 10
83.239208
 20
158.969631
 30
0.0
 10
83.236592
 20
158.929336
 30
0.0
 10
83.266769
 20
158.893207
 30
0.0
 10
83.312884
 20
158.842880
 30
0.0
  0
SPLINE
  5
1a9
100
AcDbEntity
  8
RelayWing
 62
7
100
AcDbSpline
 70
8
 71
3
 72
8
 73
4
 74
0
 40
0
 40
0
 40
0
 40
0
 40
1
 40
1
 40
1
 40
1
 10
83.312884
 20
158.842880
 30
0.0
 10
83.335953
 20
158.817706
 30
0.0
 10
83.361567
 20
158.790214
 30
0.0
 10
83.381409
 20
158.755738
 30
0.0
  0
SPLINE
  5
1aa
100
AcDbEntity
  8
RelayWing
 62
7
100
AcDbSpline
 70
8
 71
3
 72
8
 73
4
 74
0
 40
0
 40
0
 40
0
 40
0
 40
1
 40
1
 40
1
 40
1
 10
83.381409
 20
158.755738
 30
0.0
 10
83.395017
 20
158.732085
 30
0.0
 10
83.395991
 20
158.699811
 30
0.0
 10
83.398830
 20
158.668991
 30
0.0
  0
SPLINE
  5
1ab
100
AcDbEntity
  8
RelayWing
 62
7
100
AcDbSpline
 70
8
 71
3
 72
8
 73
4
 74
0
 40
0
 40
0
 40
0
 40
0
 40
1
 40
1
 40
1
 40
1
 10
83.398830
 20
158.668991
 30
0.0
 10
83.400047
 20
158.654896
 30
0.0
 10
83.409132
 20
158.644300
 30
0.0
 10
83.406759
 20
158.629382
 30
0.0
  0
LINE
  5
1ac
100
AcDbEntity
  8
RelayWing
 62
7
100
AcDbLine
 10
83.406759
 20
158.629382
 30
0.0
 11
83.393293
 21
158.545410
 31
0.0
  0
LINE
  5
1ad
100
AcDbEntity
  8
RelayWing
 62
7
100
AcDbLine
 10
83.393293
 20
158.545410
 30
0.0
 11
83.429337
 21
158.585414
 31
0.0
  0
LINE
  5
1ae
100
AcDbEntity
  8
RelayWing
 62
7
100
AcDbLine
 10
83.429337
 20
158.585414
 30
0.0
 11
83.407157
 21
158.405588
 31
0.0
  0
SPLINE
  5
1af
100
AcDbEntity
  8
RelayWing
 62
7
100
AcDbSpline
 70
8
 71
3
 72
8
 73
4
 74
0
 40
0
 40
0
 40
0
 40
0
 40
1
 40
1
 40
1
 40
1
 10
83.407157
 20
158.405588
 30
0.0
 10
83.396368
 20
158.318358
 30
0.0
 10
83.354361
 20
158.240359
 30
0.0
 10
83.331899
 20
158.169512
 30
0.0
  0
SPLINE
  5
1b0
100
AcDbEntity
  8
RelayWing
 62
7
100
AcDbSpline
 70
8
 71
3
 72
8
 73
4
 74
0
 40
0
 40
0
 40
0
 40
0
 40
1
 40
1
 40
1
 40
1
 10
83.331899
 20
158.169512
 30
0.0
 10
83.309439
 20
158.098669
 30
0.0
 10
83.303326
 20
158.046026
 30
0.0
 10
83.341411
 20
157.990476
 30
0.0
  0
LINE
  5
1b1
100
AcDbEntity
  8
RelayWing
 62
7
100
AcDbLine
 10
83.341411
 20
157.990476
 30
0.0
 11
83.343439
 21
157.987698
 31
0.0
  0
LINE
  5
1b2
100
AcDbEntity
  8
RelayWing
 62
7
100
AcDbLine
 10
83.343439
 20
157.987698
 30
0.0
 11
83.345061
 21
157.984919
 31
0.0
  0
SPLINE
  5
1b3
100
AcDbEntity
  8
RelayWing
 62
7
100
AcDbSpline
 70
8
 71
3
 72
8
 73
4
 74
0
 40
0
 40
0
 40
0
 40
0
 40
1
 40
1
 40
1
 40
1
 10
83.345061
 20
157.984919
 30
0.0
 10
83.358061
 20
157.960202
 30
0.0
 10
83.391888
 20
157.921706
 30
0.0
 10
83.421112
 20
157.875992
 30
0.0
  0
SPLINE
  5
1b4
100
AcDbEntity
  8
RelayWing
 62
7
100
AcDbSpline
 70
8
 71
3
 72
8
 73
4
 74
0
 40
0
 40
0
 40
0
 40
0
 40
1
 40
1
 40
1
 40
1
 10
83.421112
 20
157.875992
 30
0.0
 10
83.440398
 20
157.845813
 30
0.0
 10
83.437356
 20
157.800315
 30
0.0
 10
83.439323
 20
157.758351
 30
0.0
  0
SPLINE
  5
1b5
100
AcDbEntity
  8
RelayWing
 62
7
100
AcDbSpline
 70
8
 71
3
 72
8
 73
4
 74
0
 40
0
 40
0
 40
0
 40
0
 40
1
 40
1
 40
1
 40
1
 10
83.439323
 20
157.758351
 30
0.0
 10
83.441149
 20
157.754680
 30
0.0
 10
83.445083
 20
157.749570
 30
0.0
 10
83.446847
 20
157.746081
 30
0.0
  0
LINE
  5
1b6
100
AcDbEntity
  8
RelayWing
 62
7
100
AcDbLine
 10
83.446847
 20
157.746081
 30
0.0
 11
83.441311
 21
157.746081
 31
0.0
  0
SPLINE
  5
1b7
100
AcDbEntity
  8
RelayWing
 62
7
100
AcDbSpline
 70
8
 71
3
 72
8
 73
4
 74
0
 40
0
 40
0
 40
0
 40
0
 40
1
 40
1
 40
1
 40
1
 10
83.441311
 20
157.746081
 30
0.0
 10
83.440500
 20
157.728661
 30
0.0
 10
83.456460
 20
157.716077
 30
0.0
 10
83.448835
 20
157.698153
 30
0.0
  0
LINE
  5
1b8
100
AcDbEntity
  8
RelayWing
 62
7
100
AcDbLine
 10
83.448835
 20
157.698153
 30
0.0
 11
83.400907
 21
157.585663
 31
0.0
  0
LINE
  5
1b9
100
AcDbEntity
  8
RelayWing
 62
7
100
AcDbLine
 10
83.400907
 20
157.585663
 30
0.0
 11
83.345452
 21
157.694590
 31
0.0
  0
SPLINE
  5
1ba
100
AcDbEntity
  8
RelayWing
 62
7
100
AcDbSpline
 70
8
 71
3
 72
8
 73
4
 74
0
 40
0
 40
0
 40
0
 40
0
 40
1
 40
1
 40
1
 40
1
 10
83.345452
 20
157.694590
 30
0.0
 10
83.318607
 20
157.747513
 30
0.0
 10
83.285393
 20
157.812067
 30
0.0
 10
83.248805
 20
157.854613
 30
0.0
  0
LINE
  5
1bb
100
AcDbEntity
  8
RelayWing
 62
7
100
AcDbLine
 10
83.248805
 20
157.854613
 30
0.0
 11
83.247183
 21
157.856641
 31
0.0
  0
LINE
  5
1bc
100
AcDbEntity
  8
RelayWing
 62
7
100
AcDbLine
 10
83.247183
 20
157.856641
 30
0.0
 11
83.245966
 21
157.859014
 31
0.0
  0
SPLINE
  5
1bd
100
AcDbEntity
  8
RelayWing
 62
7
100
AcDbSpline
 70
8
 71
3
 72
8
 73
4
 74
0
 40
0
 40
0
 40
0
 40
0
 40
1
 40
1
 40
1
 40
1
 10
83.245966
 20
157.859014
 30
0.0
 10
83.156544
 20
157.985475
 30
0.0
 10
83.132608
 20
158.158009
 30
0.0
 10
83.220218
 20
158.298683
 30
0.0
  0
SPLINE
  5
1be
100
AcDbEntity
  8
RelayWing
 62
7
100
AcDbSpline
 70
8
 71
3
 72
8
 73
4
 74
0
 40
0
 40
0
 40
0
 40
0
 40
1
 40
1
 40
1
 40
1
 10
83.220218
 20
158.298683
 30
0.0
 10
83.220309
 20
158.298831
 30
0.0
 10
83.220127
 20
158.299291
 30
0.0
 10
83.220218
 20
158.299494
 30
0.0
  0
SPLINE
  5
1bf
100
AcDbEntity
  8
RelayWing
 62
7
100
AcDbSpline
 70
8
 71
3
 72
8
 73
4
 74
0
 40
0
 40
0
 40
0
 40
0
 40
1
 40
1
 40
1
 40
1
 10
83.220218
 20
158.299494
 30
0.0
 10
83.242654
 20
158.344964
 30
0.0
 10
83.263464
 20
158.401146
 30
0.0
 10
83.308153
 20
158.450802
 30
0.0
  0
LINE
  5
1c0
100
AcDbEntity
  8
RelayWing
 62
7
100
AcDbLine
 10
83.308153
 20
158.450802
 30
0.0
 11
83.363210
 21
158.511801
 31
0.0
  0
LINE
  5
1c1
100
AcDbEntity
  8
RelayWing
 62
7
100
AcDbLine
 10
83.363210
 20
158.511801
 30
0.0
 11
83.302211
 21
158.608451
 31
0.0
  0
SPLINE
  5
1c2
100
AcDbEntity
  8
RelayWing
 62
7
100
AcDbSpline
 70
8
 71
3
 72
8
 73
4
 74
0
 40
0
 40
0
 40
0
 40
0
 40
1
 40
1
 40
1
 40
1
 10
83.302211
 20
158.608451
 30
0.0
 10
83.265952
 20
158.665823
 30
0.0
 10
83.204984
 20
158.724500
 30
0.0
 10
83.153675
 20
158.795408
 30
0.0
  0
SPLINE
  5
1c3
100
AcDbEntity
  8
RelayWing
 62
7
100
AcDbSpline
 70
8
 71
3
 72
8
 73
4
 74
0
 40
0
 40
0
 40
0
 40
0
 40
1
 40
1
 40
1
 40
1
 10
83.153675
 20
158.795408
 30
0.0
 10
83.102566
 20
158.866042
 30
0.0
 10
83.061562
 20
158.955958
 30
0.0
 10
83.080792
 20
159.062774
 30
0.0
  0
SPLINE
  5
1c4
100
AcDbEntity
  8
RelayWing
 62
7
100
AcDbSpline
 70
8
 71
3
 72
8
 73
4
 74
0
 40
0
 40
0
 40
0
 40
0
 40
1
 40
1
 40
1
 40
1
 10
83.080792
 20
159.062774
 30
0.0
 10
83.100443
 20
159.187670
 30
0.0
 10
83.165816
 20
159.308860
 30
0.0
 10
83.240024
 20
159.419261
 30
0.0
  0
SPLINE
  5
1c5
100
AcDbEntity
  8
RelayWing
 62
7
100
AcDbSpline
 70
8
 71
3
 72
8
 73
4
 74
0
 40
0
 40
0
 40
0
 40
0
 40
1
 40
1
 40
1
 40
1
 10
83.240024
 20
159.419261
 30
0.0
 10
83.248704
 20
159.441113
 30
0.0
 10
83.262026
 20
159.465792
 30
0.0
 10
83.267751
 20
159.486995
 30
0.0
  0
LINE
  5
1c6
100
AcDbEntity
  8
RelayWing
 62
7
100
AcDbLine
 10
83.267751
 20
159.486995
 30
0.0
 11
83.266534
 21
159.479066
 31
0.0
  0
SPLINE
  5
1c7
100
AcDbEntity
  8
RelayWing
 62
7
100
AcDbSpline
 70
8
 71
3
 72
8
 73
4
 74
0
 40
0
 40
0
 40
0
 40
0
 40
1
 40
1
 40
1
 40
1
 10
83.266534
 20
159.479066
 30
0.0
 10
83.274849
 20
159.488942
 30
0.0
 10
83.272983
 20
159.504588
 30
0.0
 10
83.281987
 20
159.513921
 30
0.0
  0
LINE
  5
1c8
100
AcDbEntity
  8
RelayWing
 62
7
100
AcDbLine
 10
83.281987
 20
159.513921
 30
0.0
 11
83.379823
 21
159.615718
 31
0.0
  0
LINE
  5
1c9
100
AcDbEntity
  8
RelayWing
 62
7
100
AcDbLine
 10
83.379823
 20
159.615718
 30
0.0
 11
83.379852
 21
159.615653
 31
0.0
  0
LINE
  5
1ca
100
AcDbEntity
  8
RelayWing
 62
7
100
AcDbLine
 10
83.125161
 20
158.976747
 30
0.0
 11
83.125972
 21
158.963667
 31
0.0
  0
SPLINE
  5
1cb
100
AcDbEntity
  8
RelayWing
 62
7
100
AcDbSpline
 70
8
 71
3
 72
8
 73
4
 74
0
 40
0
 40
0
 40
0
 40
0
 40
1
 40
1
 40
1
 40
1
 10
83.125972
 20
158.963667
 30
0.0
 10
83.125566
 20
158.966830
 30
0.0
 10
83.128061
 20
158.968838
 30
0.0
 10
83.127594
 20
158.971981
 30
0.0
  0
SPLINE
  5
1cc
100
AcDbEntity
  8
RelayWing
 62
7
100
AcDbSpline
 70
8
 71
3
 72
8
 73
4
 74
0
 40
0
 40
0
 40
0
 40
0
 40
1
 40
1
 40
1
 40
1
 10
83.127594
 20
158.971981
 30
0.0
 10
83.127665
 20
158.974273
 30
0.0
 10
83.125140
 20
158.974476
 30
0.0
 10
83.125221
 20
158.976727
 30
0.0
  0
LINE
  5
1cd
100
AcDbEntity
  8
RelayWing
 62
7
100
AcDbLine
 10
83.125221
 20
158.976727
 30
0.0
 11
83.125161
 21
158.976747
 31
0.0
  0
LINE
  5
1ce
100
AcDbEntity
  8
RelayWing
 62
7
100
AcDbLine
 10
83.478878
 20
157.419290
 30
0.0
 11
83.508189
 21
157.403046
 31
0.0
  0
SPLINE
  5
1cf
100
AcDbEntity
  8
RelayWing
 62
7
100
AcDbSpline
 70
8
 71
3
 72
8
 73
4
 74
0
 40
0
 40
0
 40
0
 40
0
 40
1
 40
1
 40
1
 40
1
 10
83.508189
 20
157.403046
 30
0.0
 10
83.536482
 20
157.387024
 30
0.0
 10
83.558977
 20
157.348640
 30
0.0
 10
83.557303
 20
157.318281
 30
0.0
  0
SPLINE
  5
1d0
100
AcDbEntity
  8
RelayWing
 62
7
100
AcDbSpline
 70
8
 71
3
 72
8
 73
4
 74
0
 40
0
 40
0
 40
0
 40
0
 40
1
 40
1
 40
1
 40
1
 10
83.557303
 20
157.318281
 30
0.0
 10
83.555478
 20
157.287921
 30
0.0
 10
83.543452
 20
157.268868
 30
0.0
 10
83.533539
 20
157.252133
 30
0.0
  0
SPLINE
  5
1d1
100
AcDbEntity
  8
RelayWing
 62
7
100
AcDbSpline
 70
8
 71
3
 72
8
 73
4
 74
0
 40
0
 40
0
 40
0
 40
0
 40
1
 40
1
 40
1
 40
1
 10
83.533539
 20
157.252133
 30
0.0
 10
83.523642
 20
157.235402
 30
0.0
 10
83.513948
 20
157.221143
 30
0.0
 10
83.508189
 20
157.210542
 30
0.0
  0
SPLINE
  5
1d2
100
AcDbEntity
  8
RelayWing
 62
7
100
AcDbSpline
 70
8
 71
3
 72
8
 73
4
 74
0
 40
0
 40
0
 40
0
 40
0
 40
1
 40
1
 40
1
 40
1
 10
83.508189
 20
157.210542
 30
0.0
 10
83.502429
 20
157.199936
 30
0.0
 10
83.502652
 20
157.194075
 30
0.0
 10
83.502247
 20
157.199854
 30
0.0
  0
LINE
  5
1d3
100
AcDbEntity
  8
RelayWing
 62
7
100
AcDbLine
 10
83.502247
 20
157.199854
 30
0.0
 11
83.503869
 21
157.185597
 31
0.0
  0
LINE
  5
1d4
100
AcDbEntity
  8
RelayWing
 62
7
100
AcDbLine
 10
83.503869
 20
157.185597
 30
0.0
 11
83.497927
 21
157.172131
 31
0.0
  0
SPLINE
  5
1d5
100
AcDbEntity
  8
RelayWing
 62
7
100
AcDbSpline
 70
8
 71
3
 72
8
 73
4
 74
0
 40
0
 40
0
 40
0
 40
0
 40
1
 40
1
 40
1
 40
1
 10
83.497927
 20
157.172131
 30
0.0
 10
83.454452
 20
157.075310
 30
0.0
 10
83.468853
 20
156.959502
 30
0.0
 10
83.545064
 20
156.888920
 30
0.0
  0
LINE
  5
1d6
100
AcDbEntity
  8
RelayWing
 62
7
100
AcDbLine
 10
83.545064
 20
156.888920
 30
0.0
 11
83.549425
 21
156.884966
 31
0.0
  0
LINE
  5
1d7
100
AcDbEntity
  8
RelayWing
 62
7
100
AcDbLine
 10
83.549425
 20
156.884966
 30
0.0
 11
83.552588
 21
156.880605
 31
0.0
  0
SPLINE
  5
1d8
100
AcDbEntity
  8
RelayWing
 62
7
100
AcDbSpline
 70
8
 71
3
 72
8
 73
4
 74
0
 40
0
 40
0
 40
0
 40
0
 40
1
 40
1
 40
1
 40
1
 10
83.552588
 20
156.880605
 30
0.0
 10
83.562444
 20
156.866916
 30
0.0
 10
83.582623
 20
156.840485
 30
0.0
 10
83.596951
 20
156.807722
 30
0.0
  0
SPLINE
  5
1d9
100
AcDbEntity
  8
RelayWing
 62
7
100
AcDbSpline
 70
8
 71
3
 72
8
 73
4
 74
0
 40
0
 40
0
 40
0
 40
0
 40
1
 40
1
 40
1
 40
1
 10
83.596951
 20
156.807722
 30
0.0
 10
83.604130
 20
156.791336
 30
0.0
 10
83.611249
 20
156.773167
 30
0.0
 10
83.610417
 20
156.749100
 30
0.0
  0
SPLINE
  5
1da
100
AcDbEntity
  8
RelayWing
 62
7
100
AcDbSpline
 70
8
 71
3
 72
8
 73
4
 74
0
 40
0
 40
0
 40
0
 40
0
 40
1
 40
1
 40
1
 40
1
 10
83.610417
 20
156.749100
 30
0.0
 10
83.609606
 20
156.725042
 30
0.0
 10
83.595187
 20
156.694247
 30
0.0
 10
83.571601
 20
156.677803
 30
0.0
  0
LINE
  5
1db
100
AcDbEntity
  8
RelayWing
 62
7
100
AcDbLine
 10
83.571601
 20
156.677803
 30
0.0
 11
83.531990
 21
156.650076
 31
0.0
  0
LINE
  5
1dc
100
AcDbEntity
  8
RelayWing
 62
7
100
AcDbLine
 10
83.531990
 20
156.650076
 30
0.0
 11
83.498323
 21
156.684139
 31
0.0
  0
SPLINE
  5
1dd
100
AcDbEntity
  8
RelayWing
 62
7
100
AcDbSpline
 70
8
 71
3
 72
8
 73
4
 74
0
 40
0
 40
0
 40
0
 40
0
 40
1
 40
1
 40
1
 40
1
 10
83.498323
 20
156.684139
 30
0.0
 10
83.350823
 20
156.833610
 30
0.0
 10
83.279286
 20
157.068700
 30
0.0
 10
83.373155
 20
157.273534
 30
0.0
  0
SPLINE
  5
1de
100
AcDbEntity
  8
RelayWing
 62
7
100
AcDbSpline
 70
8
 71
3
 72
8
 73
4
 74
0
 40
0
 40
0
 40
0
 40
0
 40
1
 40
1
 40
1
 40
1
 10
83.373155
 20
157.273534
 30
0.0
 10
83.378205
 20
157.285500
 30
0.0
 10
83.383640
 20
157.305762
 30
0.0
 10
83.393354
 20
157.328987
 30
0.0
  0
SPLINE
  5
1df
100
AcDbEntity
  8
RelayWing
 62
7
100
AcDbSpline
 70
8
 71
3
 72
8
 73
4
 74
0
 40
0
 40
0
 40
0
 40
0
 40
1
 40
1
 40
1
 40
1
 10
83.393354
 20
157.328987
 30
0.0
 10
83.403231
 20
157.352639
 30
0.0
 10
83.418297
 20
157.382218
 30
0.0
 10
83.450392
 20
157.401870
 30
0.0
  0
LINE
  5
1e0
100
AcDbEntity
  8
RelayWing
 62
7
100
AcDbLine
 10
83.450392
 20
157.401870
 30
0.0
 11
83.478912
 21
157.419290
 31
0.0
  0
LINE
  5
1e1
100
AcDbEntity
  8
RelayWing
 62
7
100
AcDbLine
 10
83.478912
 20
157.419290
 30
0.0
 11
83.478878
 21
157.419290
 31
0.0
  0
LINE
  5
1e2
100
AcDbEntity
  8
RelayWing
 62
7
100
AcDbLine
 10
83.393715
 20
157.219263
 30
0.0
 11
83.388564
 21
157.191535
 31
0.0
  0
SPLINE
  5
1e3
100
AcDbEntity
  8
RelayWing
 62
7
100
AcDbSpline
 70
8
 71
3
 72
8
 73
4
 74
0
 40
0
 40
0
 40
0
 40
0
 40
1
 40
1
 40
1
 40
1
 10
83.388564
 20
157.191535
 30
0.0
 10
83.388361
 20
157.195632
 30
0.0
 10
83.390693
 20
157.197234
 30
0.0
 10
83.390937
 20
157.201047
 30
0.0
  0
SPLINE
  5
1e4
100
AcDbEntity
  8
RelayWing
 62
7
100
AcDbSpline
 70
8
 71
3
 72
8
 73
4
 74
0
 40
0
 40
0
 40
0
 40
0
 40
1
 40
1
 40
1
 40
1
 10
83.390937
 20
157.201047
 30
0.0
 10
83.393228
 20
157.206908
 30
0.0
 10
83.391073
 20
157.213519
 30
0.0
 10
83.393715
 20
157.219259
 30
0.0
  0
LINE
  5
1e5
100
AcDbEntity
  8
RelayWing
 62
7
100
AcDbLine
 10
83.393715
 20
157.219259
 30
0.0
 11
83.393715
 21
157.219263
 31
0.0
  0
SPLINE
  5
1e6
100
AcDbEntity
  8
RelayWing
 62
7
100
AcDbSpline
 70
8
 71
3
 72
8
 73
4
 74
0
 40
0
 40
0
 40
0
 40
0
 40
1
 40
1
 40
1
 40
1
 10
87.164963
 20
156.604914
 30
0.0
 10
86.867039
 20
156.600980
 30
0.0
 10
86.565850
 20
156.526156
 30
0.0
 10
86.251166
 20
156.520942
 30
0.0
  0
LINE
  5
1e7
100
AcDbEntity
  8
RelayWing
 62
7
100
AcDbLine
 10
86.251166
 20
156.520942
 30
0.0
 11
86.249543
 21
156.520942
 31
0.0
  0
LINE
  5
1e8
100
AcDbEntity
  8
RelayWing
 62
7
100
AcDbLine
 10
86.249543
 20
156.520942
 30
0.0
 11
86.248732
 21
156.520942
 31
0.0
  0
SPLINE
  5
1e9
100
AcDbEntity
  8
RelayWing
 62
7
100
AcDbSpline
 70
8
 71
3
 72
8
 73
4
 74
0
 40
0
 40
0
 40
0
 40
0
 40
1
 40
1
 40
1
 40
1
 10
86.248732
 20
156.520942
 30
0.0
 10
86.237274
 20
156.521145
 30
0.0
 10
86.239728
 20
156.519725
 30
0.0
 10
86.241208
 20
156.520942
 30
0.0
  0
SPLINE
  5
1ea
100
AcDbEntity
  8
RelayWing
 62
7
100
AcDbSpline
 70
8
 71
3
 72
8
 73
4
 74
0
 40
0
 40
0
 40
0
 40
0
 40
1
 40
1
 40
1
 40
1
 10
86.241208
 20
156.520942
 30
0.0
 10
86.242628
 20
156.522159
 30
0.0
 10
86.240803
 20
156.520782
 30
0.0
 10
86.238430
 20
156.511836
 30
0.0
  0
SPLINE
  5
1eb
100
AcDbEntity
  8
RelayWing
 62
7
100
AcDbSpline
 70
8
 71
3
 72
8
 73
4
 74
0
 40
0
 40
0
 40
0
 40
0
 40
1
 40
1
 40
1
 40
1
 10
86.238430
 20
156.511836
 30
0.0
 10
86.233644
 20
156.493969
 30
0.0
 10
86.234414
 20
156.456266
 30
0.0
 10
86.217831
 20
156.412810
 30
0.0
  0
LINE
  5
1ec
100
AcDbEntity
  8
RelayWing
 62
7
100
AcDbLine
 10
86.217831
 20
156.412810
 30
0.0
 11
86.217020
 21
156.409241
 31
0.0
  0
LINE
  5
1ed
100
AcDbEntity
  8
RelayWing
 62
7
100
AcDbLine
 10
86.217020
 20
156.409241
 30
0.0
 11
86.214992
 21
156.406077
 31
0.0
  0
SPLINE
  5
1ee
100
AcDbEntity
  8
RelayWing
 62
7
100
AcDbSpline
 70
8
 71
3
 72
8
 73
4
 74
0
 40
0
 40
0
 40
0
 40
0
 40
1
 40
1
 40
1
 40
1
 10
86.214992
 20
156.406077
 30
0.0
 10
86.129233
 20
156.250153
 30
0.0
 10
85.977931
 20
156.153637
 30
0.0
 10
85.824835
 20
156.083257
 30
0.0
  0
SPLINE
  5
1ef
100
AcDbEntity
  8
RelayWing
 62
7
100
AcDbSpline
 70
8
 71
3
 72
8
 73
4
 74
0
 40
0
 40
0
 40
0
 40
0
 40
1
 40
1
 40
1
 40
1
 10
85.824835
 20
156.083257
 30
0.0
 10
86.185292
 20
156.182832
 30
0.0
 10
86.539248
 20
156.319249
 30
0.0
 10
86.923215
 20
156.380331
 30
0.0
  0
SPLINE
  5
1f0
100
AcDbEntity
  8
RelayWing
 62
7
100
AcDbSpline
 70
8
 71
3
 72
8
 73
4
 74
0
 40
0
 40
0
 40
0
 40
0
 40
1
 40
1
 40
1
 40
1
 10
86.923215
 20
156.380331
 30
0.0
 10
86.923621
 20
156.380433
 30
0.0
 10
86.924229
 20
156.380230
 30
0.0
 10
86.924838
 20
156.380331
 30
0.0
  0
SPLINE
  5
1f1
100
AcDbEntity
  8
RelayWing
 62
7
100
AcDbSpline
 70
8
 71
3
 72
8
 73
4
 74
0
 40
0
 40
0
 40
0
 40
0
 40
1
 40
1
 40
1
 40
1
 10
86.924838
 20
156.380331
 30
0.0
 10
87.208248
 20
156.440391
 30
0.0
 10
87.511126
 20
156.469698
 30
0.0
 10
87.802194
 20
156.408849
 30
0.0
  0
LINE
  5
1f2
100
AcDbEntity
  8
RelayWing
 62
7
100
AcDbLine
 10
87.802194
 20
156.408849
 30
0.0
 11
87.804222
 21
156.408444
 31
0.0
  0
LINE
  5
1f3
100
AcDbEntity
  8
RelayWing
 62
7
100
AcDbLine
 10
87.804222
 20
156.408444
 30
0.0
 11
87.805844
 21
156.407632
 31
0.0
  0
SPLINE
  5
1f4
100
AcDbEntity
  8
RelayWing
 62
7
100
AcDbSpline
 70
8
 71
3
 72
8
 73
4
 74
0
 40
0
 40
0
 40
0
 40
0
 40
1
 40
1
 40
1
 40
1
 10
87.805844
 20
156.407632
 30
0.0
 10
87.951349
 20
156.367646
 30
0.0
 10
88.098064
 20
156.283769
 30
0.0
 10
88.221351
 20
156.177896
 30
0.0
  0
SPLINE
  5
1f5
100
AcDbEntity
  8
RelayWing
 62
7
100
AcDbSpline
 70
8
 71
3
 72
8
 73
4
 74
0
 40
0
 40
0
 40
0
 40
0
 40
1
 40
1
 40
1
 40
1
 10
88.221351
 20
156.177896
 30
0.0
 10
88.247695
 20
156.162788
 30
0.0
 10
88.277834
 20
156.153864
 30
0.0
 10
88.303344
 20
156.137892
 30
0.0
  0
LINE
  5
1f6
100
AcDbEntity
  8
RelayWing
 62
7
100
AcDbLine
 10
88.303344
 20
156.137892
 30
0.0
 11
88.300180
 21
156.133937
 31
0.0
  0
SPLINE
  5
1f7
100
AcDbEntity
  8
RelayWing
 62
7
100
AcDbSpline
 70
8
 71
3
 72
8
 73
4
 74
0
 40
0
 40
0
 40
0
 40
0
 40
1
 40
1
 40
1
 40
1
 10
88.300180
 20
156.133937
 30
0.0
 10
88.304784
 20
156.128380
 30
0.0
 10
88.313971
 20
156.129820
 30
0.0
 10
88.318412
 20
156.124040
 30
0.0
  0
LINE
  5
1f8
100
AcDbEntity
  8
RelayWing
 62
7
100
AcDbLine
 10
88.318412
 20
156.124040
 30
0.0
 11
88.242757
 21
156.040859
 31
0.0
  0
SPLINE
  5
1f9
100
AcDbEntity
  8
RelayWing
 62
7
100
AcDbSpline
 70
8
 71
3
 72
8
 73
4
 74
0
 40
0
 40
0
 40
0
 40
0
 40
1
 40
1
 40
1
 40
1
 10
88.242757
 20
156.040859
 30
0.0
 10
88.007819
 20
156.187911
 30
0.0
 10
87.743381
 20
156.295933
 30
0.0
 10
87.471158
 20
156.282082
 30
0.0
  0
LINE
  5
1fa
100
AcDbEntity
  8
RelayWing
 62
7
100
AcDbLine
 10
87.471158
 20
156.282082
 30
0.0
 11
87.468380
 21
156.282082
 31
0.0
  0
LINE
  5
1fb
100
AcDbEntity
  8
RelayWing
 62
7
100
AcDbLine
 10
87.468380
 20
156.282082
 30
0.0
 11
87.465601
 21
156.282082
 31
0.0
  0
SPLINE
  5
1fc
100
AcDbEntity
  8
RelayWing
 62
7
100
AcDbSpline
 70
8
 71
3
 72
8
 73
4
 74
0
 40
0
 40
0
 40
0
 40
0
 40
1
 40
1
 40
1
 40
1
 10
87.465601
 20
156.282082
 30
0.0
 10
87.121602
 20
156.296197
 30
0.0
 10
86.780136
 20
156.191855
 30
0.0
 10
86.436935
 20
156.104630
 30
0.0
  0
LINE
  5
1fd
100
AcDbEntity
  8
RelayWing
 62
7
100
AcDbLine
 10
86.436935
 20
156.104630
 30
0.0
 11
86.434906
 21
156.104224
 31
0.0
  0
SPLINE
  5
1fe
100
AcDbEntity
  8
RelayWing
 62
7
100
AcDbSpline
 70
8
 71
3
 72
8
 73
4
 74
0
 40
0
 40
0
 40
0
 40
0
 40
1
 40
1
 40
1
 40
1
 10
86.434906
 20
156.104224
 30
0.0
 10
86.434095
 20
156.104022
 30
0.0
 10
86.433081
 20
156.104082
 30
0.0
 10
86.432128
 20
156.103819
 30
0.0
  0
SPLINE
  5
1ff
100
AcDbEntity
  8
RelayWing
 62
7
100
AcDbSpline
 70
8
 71
3
 72
8
 73
4
 74
0
 40
0
 40
0
 40
0
 40
0
 40
1
 40
1
 40
1
 40
1
 10
86.432128
 20
156.103819
 30
0.0
 10
86.130466
 20
155.999680
 30
0.0
 10
85.827151
 20
155.897172
 30
0.0
 10
85.507239
 20
155.842790
 30
0.0
  0
SPLINE
  5
200
100
AcDbEntity
  8
RelayWing
 62
7
100
AcDbSpline
 70
8
 71
3
 72
8
 73
4
 74
0
 40
0
 40
0
 40
0
 40
0
 40
1
 40
1
 40
1
 40
1
 10
85.507239
 20
155.842790
 30
0.0
 10
85.061046
 20
155.740904
 30
0.0
 10
84.601535
 20
155.690784
 30
0.0
 10
84.143474
 20
155.707720
 30
0.0
  0
LINE
  5
201
100
AcDbEntity
  8
RelayWing
 62
7
100
AcDbLine
 10
84.143474
 20
155.707720
 30
0.0
 11
84.136336
 21
155.707720
 31
0.0
  0
LINE
  5
202
100
AcDbEntity
  8
RelayWing
 62
7
100
AcDbLine
 10
84.136336
 20
155.707720
 30
0.0
 11
84.130008
 21
155.709748
 31
0.0
  0
SPLINE
  5
203
100
AcDbEntity
  8
RelayWing
 62
7
100
AcDbSpline
 70
8
 71
3
 72
8
 73
4
 74
0
 40
0
 40
0
 40
0
 40
0
 40
1
 40
1
 40
1
 40
1
 10
84.130008
 20
155.709748
 30
0.0
 10
83.818515
 20
155.799125
 30
0.0
 10
83.464526
 20
155.766078
 30
0.0
 10
83.183334
 20
155.609535
 30
0.0
  0
SPLINE
  5
204
100
AcDbEntity
  8
RelayWing
 62
7
100
AcDbSpline
 70
8
 71
3
 72
8
 73
4
 74
0
 40
0
 40
0
 40
0
 40
0
 40
1
 40
1
 40
1
 40
1
 10
83.183334
 20
155.609535
 30
0.0
 10
83.056092
 20
155.499197
 30
0.0
 10
82.919992
 20
155.381973
 30
0.0
 10
82.910424
 20
155.232449
 30
0.0
  0
LINE
  5
205
100
AcDbEntity
  8
RelayWing
 62
7
100
AcDbLine
 10
82.910424
 20
155.232449
 30
0.0
 11
82.910424
 21
155.230827
 31
0.0
  0
LINE
  5
206
100
AcDbEntity
  8
RelayWing
 62
7
100
AcDbLine
 10
82.910424
 20
155.230827
 30
0.0
 11
82.910018
 21
155.229204
 31
0.0
  0
SPLINE
  5
207
100
AcDbEntity
  8
RelayWing
 62
7
100
AcDbSpline
 70
8
 71
3
 72
8
 73
4
 74
0
 40
0
 40
0
 40
0
 40
0
 40
1
 40
1
 40
1
 40
1
 10
82.910018
 20
155.229204
 30
0.0
 10
82.907402
 20
155.206592
 30
0.0
 10
82.913770
 20
155.184850
 30
0.0
 10
82.921497
 20
155.174543
 30
0.0
  0
SPLINE
  5
208
100
AcDbEntity
  8
RelayWing
 62
7
100
AcDbSpline
 70
8
 71
3
 72
8
 73
4
 74
0
 40
0
 40
0
 40
0
 40
0
 40
1
 40
1
 40
1
 40
1
 10
82.921497
 20
155.174543
 30
0.0
 10
82.929264
 20
155.164221
 30
0.0
 10
82.933340
 20
155.159800
 30
0.0
 10
82.956352
 20
155.163450
 30
0.0
  0
LINE
  5
209
100
AcDbEntity
  8
RelayWing
 62
7
100
AcDbLine
 10
82.956352
 20
155.163450
 30
0.0
 11
82.964282
 21
155.165072
 31
0.0
  0
LINE
  5
20a
100
AcDbEntity
  8
RelayWing
 62
7
100
AcDbLine
 10
82.964282
 20
155.165072
 30
0.0
 11
82.972211
 21
155.163450
 31
0.0
  0
SPLINE
  5
20b
100
AcDbEntity
  8
RelayWing
 62
7
100
AcDbSpline
 70
8
 71
3
 72
8
 73
4
 74
0
 40
0
 40
0
 40
0
 40
0
 40
1
 40
1
 40
1
 40
1
 10
82.972211
 20
155.163450
 30
0.0
 10
83.190268
 20
155.135796
 30
0.0
 10
83.409931
 20
155.153999
 30
0.0
 10
83.623792
 20
155.207020
 30
0.0
  0
LINE
  5
20c
100
AcDbEntity
  8
RelayWing
 62
7
100
AcDbLine
 10
83.623792
 20
155.207020
 30
0.0
 11
83.627747
 21
155.208237
 31
0.0
  0
LINE
  5
20d
100
AcDbEntity
  8
RelayWing
 62
7
100
AcDbLine
 10
83.627747
 20
155.208237
 30
0.0
 11
83.631701
 21
155.208642
 31
0.0
  0
SPLINE
  5
20e
100
AcDbEntity
  8
RelayWing
 62
7
100
AcDbSpline
 70
8
 71
3
 72
8
 73
4
 74
0
 40
0
 40
0
 40
0
 40
0
 40
1
 40
1
 40
1
 40
1
 10
83.631701
 20
155.208642
 30
0.0
 10
83.720182
 20
155.217647
 30
0.0
 10
83.842555
 20
155.259164
 30
0.0
 10
83.960066
 20
155.209454
 30
0.0
  0
LINE
  5
20f
100
AcDbEntity
  8
RelayWing
 62
7
100
AcDbLine
 10
83.960066
 20
155.209454
 30
0.0
 11
83.982249
 21
155.200348
 31
0.0
  0
LINE
  5
210
100
AcDbEntity
  8
RelayWing
 62
7
100
AcDbLine
 10
83.982249
 20
155.200348
 30
0.0
 11
83.990564
 21
155.177374
 31
0.0
  0
SPLINE
  5
211
100
AcDbEntity
  8
RelayWing
 62
7
100
AcDbSpline
 70
8
 71
3
 72
8
 73
4
 74
0
 40
0
 40
0
 40
0
 40
0
 40
1
 40
1
 40
1
 40
1
 10
83.990564
 20
155.177374
 30
0.0
 10
84.010824
 20
155.125005
 30
0.0
 10
84.011063
 20
155.073901
 30
0.0
 10
84.013142
 20
155.031213
 30
0.0
  0
SPLINE
  5
212
100
AcDbEntity
  8
RelayWing
 62
7
100
AcDbSpline
 70
8
 71
3
 72
8
 73
4
 74
0
 40
0
 40
0
 40
0
 40
0
 40
1
 40
1
 40
1
 40
1
 10
84.013142
 20
155.031213
 30
0.0
 10
84.014561
 20
155.000405
 30
0.0
 10
84.020138
 20
154.981599
 30
0.0
 10
84.025817
 20
154.961897
 30
0.0
  0
SPLINE
  5
213
100
AcDbEntity
  8
RelayWing
 62
7
100
AcDbSpline
 70
8
 71
3
 72
8
 73
4
 74
0
 40
0
 40
0
 40
0
 40
0
 40
1
 40
1
 40
1
 40
1
 10
84.025817
 20
154.961897
 30
0.0
 10
84.457000
 20
154.967778
 30
0.0
 10
84.886259
 20
154.940931
 30
0.0
 10
85.313135
 20
154.902482
 30
0.0
  0
SPLINE
  5
214
100
AcDbEntity
  8
RelayWing
 62
7
100
AcDbSpline
 70
8
 71
3
 72
8
 73
4
 74
0
 40
0
 40
0
 40
0
 40
0
 40
1
 40
1
 40
1
 40
1
 10
85.313135
 20
154.902482
 30
0.0
 10
85.303806
 20
154.930317
 30
0.0
 10
85.288349
 20
154.974883
 30
0.0
 10
85.313946
 20
155.022501
 30
0.0
  0
SPLINE
  5
215
100
AcDbEntity
  8
RelayWing
 62
7
100
AcDbSpline
 70
8
 71
3
 72
8
 73
4
 74
0
 40
0
 40
0
 40
0
 40
0
 40
1
 40
1
 40
1
 40
1
 10
85.313946
 20
155.022501
 30
0.0
 10
85.319341
 20
155.049169
 30
0.0
 10
85.326277
 20
155.074754
 30
0.0
 10
85.338108
 20
155.098551
 30
0.0
  0
SPLINE
  5
216
100
AcDbEntity
  8
RelayWing
 62
7
100
AcDbSpline
 70
8
 71
3
 72
8
 73
4
 74
0
 40
0
 40
0
 40
0
 40
0
 40
1
 40
1
 40
1
 40
1
 10
85.338108
 20
155.098551
 30
0.0
 10
85.345713
 20
155.113843
 30
0.0
 10
85.353825
 20
155.128288
 30
0.0
 10
85.363856
 20
155.141328
 30
0.0
  0
SPLINE
  5
217
100
AcDbEntity
  8
RelayWing
 62
7
100
AcDbSpline
 70
8
 71
3
 72
8
 73
4
 74
0
 40
0
 40
0
 40
0
 40
0
 40
1
 40
1
 40
1
 40
1
 10
85.363856
 20
155.141328
 30
0.0
 10
85.368886
 20
155.147838
 30
0.0
 10
85.373793
 20
155.154044
 30
0.0
 10
85.382068
 20
155.160736
 30
0.0
  0
SPLINE
  5
218
100
AcDbEntity
  8
RelayWing
 62
7
100
AcDbSpline
 70
8
 71
3
 72
8
 73
4
 74
0
 40
0
 40
0
 40
0
 40
0
 40
1
 40
1
 40
1
 40
1
 10
85.382068
 20
155.160736
 30
0.0
 10
85.390342
 20
155.167429
 30
0.0
 10
85.402603
 20
155.176981
 30
0.0
 10
85.426035
 20
155.176981
 30
0.0
  0
LINE
  5
219
100
AcDbEntity
  8
RelayWing
 62
7
100
AcDbLine
 10
85.426035
 20
155.176981
 30
0.0
 11
85.506840
 21
155.176981
 31
0.0
  0
LINE
  5
21a
100
AcDbEntity
  8
RelayWing
 62
7
100
AcDbLine
 10
85.506840
 20
155.176981
 30
0.0
 11
85.479508
 21
155.101328
 31
0.0
  0
SPLINE
  5
21b
100
AcDbEntity
  8
RelayWing
 62
7
100
AcDbSpline
 70
8
 71
3
 72
8
 73
4
 74
0
 40
0
 40
0
 40
0
 40
0
 40
1
 40
1
 40
1
 40
1
 10
85.479508
 20
155.101328
 30
0.0
 10
85.464156
 20
155.058094
 30
0.0
 10
85.449368
 20
155.000791
 30
0.0
 10
85.450592
 20
154.958731
 30
0.0
  0
SPLINE
  5
21c
100
AcDbEntity
  8
RelayWing
 62
7
100
AcDbSpline
 70
8
 71
3
 72
8
 73
4
 74
0
 40
0
 40
0
 40
0
 40
0
 40
1
 40
1
 40
1
 40
1
 10
85.450592
 20
154.958731
 30
0.0
 10
85.450998
 20
154.937691
 30
0.0
 10
85.455784
 20
154.921262
 30
0.0
 10
85.462477
 20
154.910012
 30
0.0
  0
SPLINE
  5
21d
100
AcDbEntity
  8
RelayWing
 62
7
100
AcDbSpline
 70
8
 71
3
 72
8
 73
4
 74
0
 40
0
 40
0
 40
0
 40
0
 40
1
 40
1
 40
1
 40
1
 10
85.462477
 20
154.910012
 30
0.0
 10
85.469169
 20
154.898757
 30
0.0
 10
85.477058
 20
154.890726
 30
0.0
 10
85.496939
 20
154.883474
 30
0.0
  0
LINE
  5
21e
100
AcDbEntity
  8
RelayWing
 62
7
100
AcDbLine
 10
85.496939
 20
154.883474
 30
0.0
 11
85.499312
 21
154.882257
 31
0.0
  0
LINE
  5
21f
100
AcDbEntity
  8
RelayWing
 62
7
100
AcDbLine
 10
85.499312
 20
154.882257
 30
0.0
 11
85.502475
 21
154.881446
 31
0.0
  0
SPLINE
  5
220
100
AcDbEntity
  8
RelayWing
 62
7
100
AcDbSpline
 70
8
 71
3
 72
8
 73
4
 74
0
 40
0
 40
0
 40
0
 40
0
 40
1
 40
1
 40
1
 40
1
 10
85.502475
 20
154.881446
 30
0.0
 10
85.504301
 20
154.880634
 30
0.0
 10
85.503489
 20
154.880634
 30
0.0
 10
85.504503
 20
154.880229
 30
0.0
  0
SPLINE
  5
221
100
AcDbEntity
  8
RelayWing
 62
7
100
AcDbSpline
 70
8
 71
3
 72
8
 73
4
 74
0
 40
0
 40
0
 40
0
 40
0
 40
1
 40
1
 40
1
 40
1
 10
85.504503
 20
154.880229
 30
0.0
 10
85.504706
 20
154.880837
 30
0.0
 10
85.504305
 20
154.879823
 30
0.0
 10
85.507282
 20
154.886171
 30
0.0
  0
SPLINE
  5
222
100
AcDbEntity
  8
RelayWing
 62
7
100
AcDbSpline
 70
8
 71
3
 72
8
 73
4
 74
0
 40
0
 40
0
 40
0
 40
0
 40
1
 40
1
 40
1
 40
1
 10
85.507282
 20
154.886171
 30
0.0
 10
85.516104
 20
154.905133
 30
0.0
 10
85.522979
 20
154.945225
 30
0.0
 10
85.527075
 20
154.973708
 30
0.0
  0
LINE
  5
223
100
AcDbEntity
  8
RelayWing
 62
7
100
AcDbLine
 10
85.527075
 20
154.973708
 30
0.0
 11
85.527075
 21
154.975331
 31
0.0
  0
LINE
  5
224
100
AcDbEntity
  8
RelayWing
 62
7
100
AcDbLine
 10
85.527075
 20
154.975331
 30
0.0
 11
85.527886
 21
154.976953
 31
0.0
  0
SPLINE
  5
225
100
AcDbEntity
  8
RelayWing
 62
7
100
AcDbSpline
 70
8
 71
3
 72
8
 73
4
 74
0
 40
0
 40
0
 40
0
 40
0
 40
1
 40
1
 40
1
 40
1
 10
85.527886
 20
154.976953
 30
0.0
 10
85.544009
 20
155.055904
 30
0.0
 10
85.548444
 20
155.169605
 30
0.0
 10
85.555614
 20
155.246299
 30
0.0
  0
LINE
  5
226
100
AcDbEntity
  8
RelayWing
 62
7
100
AcDbLine
 10
85.555614
 20
155.246299
 30
0.0
 11
85.667313
 21
155.255810
 31
0.0
  0
SPLINE
  5
227
100
AcDbEntity
  8
RelayWing
 62
7
100
AcDbSpline
 70
8
 71
3
 72
8
 73
4
 74
0
 40
0
 40
0
 40
0
 40
0
 40
1
 40
1
 40
1
 40
1
 10
85.667313
 20
155.255810
 30
0.0
 10
85.669341
 20
155.248225
 30
0.0
 10
85.665488
 20
155.243500
 30
0.0
 10
85.666907
 20
155.235996
 30
0.0
  0
LINE
  5
228
100
AcDbEntity
  8
RelayWing
 62
7
100
AcDbLine
 10
85.666907
 20
155.235996
 30
0.0
 11
85.668935
 21
155.235996
 31
0.0
  0
SPLINE
  5
229
100
AcDbEntity
  8
RelayWing
 62
7
100
AcDbSpline
 70
8
 71
3
 72
8
 73
4
 74
0
 40
0
 40
0
 40
0
 40
0
 40
1
 40
1
 40
1
 40
1
 10
85.668935
 20
155.235996
 30
0.0
 10
85.668530
 20
155.229608
 30
0.0
 10
85.667110
 20
155.217359
 30
0.0
 10
85.666562
 20
155.210251
 30
0.0
  0
SPLINE
  5
22a
100
AcDbEntity
  8
RelayWing
 62
7
100
AcDbSpline
 70
8
 71
3
 72
8
 73
4
 74
0
 40
0
 40
0
 40
0
 40
0
 40
1
 40
1
 40
1
 40
1
 10
85.666562
 20
155.210251
 30
0.0
 10
85.683720
 20
155.086136
 30
0.0
 10
85.659809
 20
154.972958
 30
0.0
 10
85.657457
 20
154.878320
 30
0.0
  0
SPLINE
  5
22b
100
AcDbEntity
  8
RelayWing
 62
7
100
AcDbSpline
 70
8
 71
3
 72
8
 73
4
 74
0
 40
0
 40
0
 40
0
 40
0
 40
1
 40
1
 40
1
 40
1
 10
85.657457
 20
154.878320
 30
0.0
 10
85.678447
 20
154.869377
 30
0.0
 10
85.703566
 20
154.864996
 30
0.0
 10
85.730735
 20
154.863272
 30
0.0
  0
SPLINE
  5
22c
100
AcDbEntity
  8
RelayWing
 62
7
100
AcDbSpline
 70
8
 71
3
 72
8
 73
4
 74
0
 40
0
 40
0
 40
0
 40
0
 40
1
 40
1
 40
1
 40
1
 10
85.730735
 20
154.863272
 30
0.0
 10
85.730806
 20
154.864489
 30
0.0
 10
85.728504
 20
154.865970
 30
0.0
 10
85.728707
 20
154.867227
 30
0.0
  0
SPLINE
  5
22d
100
AcDbEntity
  8
RelayWing
 62
7
100
AcDbSpline
 70
8
 71
3
 72
8
 73
4
 74
0
 40
0
 40
0
 40
0
 40
0
 40
1
 40
1
 40
1
 40
1
 10
85.728707
 20
154.867227
 30
0.0
 10
85.731141
 20
154.884161
 30
0.0
 10
85.737894
 20
154.895743
 30
0.0
 10
85.745743
 20
154.906836
 30
0.0
  0
SPLINE
  5
22e
100
AcDbEntity
  8
RelayWing
 62
7
100
AcDbSpline
 70
8
 71
3
 72
8
 73
4
 74
0
 40
0
 40
0
 40
0
 40
0
 40
1
 40
1
 40
1
 40
1
 10
85.745743
 20
154.906836
 30
0.0
 10
85.776753
 20
154.982167
 30
0.0
 10
85.759918
 20
155.076910
 30
0.0
 10
85.749697
 20
155.175391
 30
0.0
  0
LINE
  5
22f
100
AcDbEntity
  8
RelayWing
 62
7
100
AcDbLine
 10
85.749697
 20
155.175391
 30
0.0
 11
85.856643
 21
155.208663
 31
0.0
  0
SPLINE
  5
230
100
AcDbEntity
  8
RelayWing
 62
7
100
AcDbSpline
 70
8
 71
3
 72
8
 73
4
 74
0
 40
0
 40
0
 40
0
 40
0
 40
1
 40
1
 40
1
 40
1
 10
85.856643
 20
155.208663
 30
0.0
 10
85.860395
 20
155.201828
 30
0.0
 10
85.854148
 20
155.193189
 30
0.0
 10
85.857454
 20
155.186087
 30
0.0
  0
LINE
  5
231
100
AcDbEntity
  8
RelayWing
 62
7
100
AcDbLine
 10
85.857454
 20
155.186087
 30
0.0
 11
85.862990
 21
155.187304
 31
0.0
  0
SPLINE
  5
232
100
AcDbEntity
  8
RelayWing
 62
7
100
AcDbSpline
 70
8
 71
3
 72
8
 73
4
 74
0
 40
0
 40
0
 40
0
 40
0
 40
1
 40
1
 40
1
 40
1
 10
85.862990
 20
155.187304
 30
0.0
 10
85.864816
 20
155.170532
 30
0.0
 10
85.858265
 20
155.145311
 30
0.0
 10
85.860618
 20
155.126700
 30
0.0
  0
SPLINE
  5
233
100
AcDbEntity
  8
RelayWing
 62
7
100
AcDbSpline
 70
8
 71
3
 72
8
 73
4
 74
0
 40
0
 40
0
 40
0
 40
0
 40
1
 40
1
 40
1
 40
1
 10
85.860618
 20
155.126700
 30
0.0
 10
85.886952
 20
155.038341
 30
0.0
 10
85.903484
 20
154.945783
 30
0.0
 10
85.873698
 20
154.859334
 30
0.0
  0
SPLINE
  5
234
100
AcDbEntity
  8
RelayWing
 62
7
100
AcDbSpline
 70
8
 71
3
 72
8
 73
4
 74
0
 40
0
 40
0
 40
0
 40
0
 40
1
 40
1
 40
1
 40
1
 10
85.873698
 20
154.859334
 30
0.0
 10
85.896108
 20
154.860348
 30
0.0
 10
85.916267
 20
154.862579
 30
0.0
 10
85.939451
 20
154.861362
 30
0.0
  0
SPLINE
  5
235
100
AcDbEntity
  8
RelayWing
 62
7
100
AcDbSpline
 70
8
 71
3
 72
8
 73
4
 74
0
 40
0
 40
0
 40
0
 40
0
 40
1
 40
1
 40
1
 40
1
 10
85.939451
 20
154.861362
 30
0.0
 10
86.542008
 20
154.886155
 30
0.0
 10
87.149551
 20
154.936338
 30
0.0
 10
87.756746
 20
154.916421
 30
0.0
  0
LINE
  5
236
100
AcDbEntity
  8
RelayWing
 62
7
100
AcDbLine
 10
87.756746
 20
154.916421
 30
0.0
 11
87.768225
 21
154.803533
 31
0.0
  0
SPLINE
  5
237
100
AcDbEntity
  8
RelayWing
 62
7
100
AcDbSpline
 70
8
 71
3
 72
8
 73
4
 74
0
 40
0
 40
0
 40
0
 40
0
 40
1
 40
1
 40
1
 40
1
 10
87.768225
 20
154.803533
 30
0.0
 10
87.763276
 20
154.802316
 30
0.0
 10
87.758145
 20
154.803442
 30
0.0
 10
87.753177
 20
154.802316
 30
0.0
  0
LINE
  5
238
100
AcDbEntity
  8
RelayWing
 62
7
100
AcDbLine
 10
87.753177
 20
154.802316
 30
0.0
 11
87.753177
 21
154.801911
 31
0.0
  0
SPLINE
  5
239
100
AcDbEntity
  8
RelayWing
 62
7
100
AcDbSpline
 70
8
 71
3
 72
8
 73
4
 74
0
 40
0
 40
0
 40
0
 40
0
 40
1
 40
1
 40
1
 40
1
 10
87.753177
 20
154.801911
 30
0.0
 10
87.746302
 20
154.802113
 30
0.0
 10
87.739447
 20
154.800897
 30
0.0
 10
87.732578
 20
154.801099
 30
0.0
  0
SPLINE
  5
23a
100
AcDbEntity
  8
RelayWing
 62
7
100
AcDbSpline
 70
8
 71
3
 72
8
 73
4
 74
0
 40
0
 40
0
 40
0
 40
0
 40
1
 40
1
 40
1
 40
1
 10
87.732578
 20
154.801099
 30
0.0
 10
87.534181
 20
154.762630
 30
0.0
 10
87.326885
 20
154.778025
 30
0.0
 10
87.140810
 20
154.766242
 30
0.0
  0
LINE
  5
23b
100
AcDbEntity
  8
RelayWing
 62
7
100
AcDbLine
 10
87.140810
 20
154.766242
 30
0.0
 11
87.139187
 21
154.766242
 31
0.0
  0
LINE
  5
23c
100
AcDbEntity
  8
RelayWing
 62
7
100
AcDbLine
 10
87.139187
 20
154.766242
 30
0.0
 11
87.137159
 21
154.766242
 31
0.0
  0
SPLINE
  5
23d
100
AcDbEntity
  8
RelayWing
 62
7
100
AcDbSpline
 70
8
 71
3
 72
8
 73
4
 74
0
 40
0
 40
0
 40
0
 40
0
 40
1
 40
1
 40
1
 40
1
 10
87.137159
 20
154.766242
 30
0.0
 10
86.684215
 20
154.763220
 30
0.0
 10
86.230490
 20
154.716555
 30
0.0
 10
85.771811
 20
154.707620
 30
0.0
  0
LINE
  5
23e
100
AcDbEntity
  8
RelayWing
 62
7
100
AcDbLine
 10
85.771811
 20
154.707620
 30
0.0
 11
85.768647
 21
154.707620
 31
0.0
  0
LINE
  5
23f
100
AcDbEntity
  8
RelayWing
 62
7
100
AcDbLine
 10
85.768647
 20
154.707620
 30
0.0
 11
85.766274
 21
154.707620
 31
0.0
  0
SPLINE
  5
240
100
AcDbEntity
  8
RelayWing
 62
7
100
AcDbSpline
 70
8
 71
3
 72
8
 73
4
 74
0
 40
0
 40
0
 40
0
 40
0
 40
1
 40
1
 40
1
 40
1
 10
85.766274
 20
154.707620
 30
0.0
 10
85.269145
 20
154.746312
 30
0.0
 10
84.777050
 20
154.824158
 30
0.0
 10
84.286849
 20
154.811793
 30
0.0
  0
SPLINE
  5
241
100
AcDbEntity
  8
RelayWing
 62
7
100
AcDbSpline
 70
8
 71
3
 72
8
 73
4
 74
0
 40
0
 40
0
 40
0
 40
0
 40
1
 40
1
 40
1
 40
1
 10
84.286849
 20
154.811793
 30
0.0
 10
83.942321
 20
154.782478
 30
0.0
 10
83.578585
 20
154.716675
 30
0.0
 10
83.219762
 20
154.822886
 30
0.0
  0
SPLINE
  5
242
100
AcDbEntity
  8
RelayWing
 62
7
100
AcDbSpline
 70
8
 71
3
 72
8
 73
4
 74
0
 40
0
 40
0
 40
0
 40
0
 40
1
 40
1
 40
1
 40
1
 10
83.219762
 20
154.822886
 30
0.0
 10
83.145485
 20
154.838421
 30
0.0
 10
83.084345
 20
154.885948
 30
0.0
 10
83.015771
 20
154.919138
 30
0.0
  0
SPLINE
  5
243
100
AcDbEntity
  8
RelayWing
 62
7
100
AcDbSpline
 70
8
 71
3
 72
8
 73
4
 74
0
 40
0
 40
0
 40
0
 40
0
 40
1
 40
1
 40
1
 40
1
 10
83.015771
 20
154.919138
 30
0.0
 10
82.986403
 20
154.927636
 30
0.0
 10
82.958699
 20
154.934754
 30
0.0
 10
82.922292
 20
154.949242
 30
0.0
  0
LINE
  5
244
100
AcDbEntity
  8
RelayWing
 62
7
100
AcDbLine
 10
82.922292
 20
154.949242
 30
0.0
 11
82.903289
 21
154.956766
 31
0.0
  0
LINE
  5
245
100
AcDbEntity
  8
RelayWing
 62
7
100
AcDbLine
 10
82.903289
 20
154.956766
 30
0.0
 11
82.893392
 21
154.974593
 31
0.0
  0
SPLINE
  5
246
100
AcDbEntity
  8
RelayWing
 62
7
100
AcDbSpline
 70
8
 71
3
 72
8
 73
4
 74
0
 40
0
 40
0
 40
0
 40
0
 40
1
 40
1
 40
1
 40
1
 10
82.893392
 20
154.974593
 30
0.0
 10
82.892987
 20
154.975404
 30
0.0
 10
82.893595
 20
154.976215
 30
0.0
 10
82.893392
 20
154.976965
 30
0.0
  0
SPLINE
  5
247
100
AcDbEntity
  8
RelayWing
 62
7
100
AcDbSpline
 70
8
 71
3
 72
8
 73
4
 74
0
 40
0
 40
0
 40
0
 40
0
 40
1
 40
1
 40
1
 40
1
 10
82.893392
 20
154.976965
 30
0.0
 10
82.873497
 20
154.990614
 30
0.0
 10
82.846527
 20
154.992743
 30
0.0
 10
82.828035
 20
155.007860
 30
0.0
  0
LINE
  5
248
100
AcDbEntity
  8
RelayWing
 62
7
100
AcDbLine
 10
82.828035
 20
155.007860
 30
0.0
 11
82.823290
 21
155.011815
 31
0.0
  0
LINE
  5
249
100
AcDbEntity
  8
RelayWing
 62
7
100
AcDbLine
 10
82.823290
 20
155.011815
 30
0.0
 11
82.819335
 21
155.017372
 31
0.0
  0
SPLINE
  5
24a
100
AcDbEntity
  8
RelayWing
 62
7
100
AcDbSpline
 70
8
 71
3
 72
8
 73
4
 74
0
 40
0
 40
0
 40
0
 40
0
 40
1
 40
1
 40
1
 40
1
 10
82.819335
 20
155.017372
 30
0.0
 10
82.777282
 20
155.072023
 30
0.0
 10
82.769417
 20
155.134107
 30
0.0
 10
82.765862
 20
155.185712
 30
0.0
  0
SPLINE
  5
24b
100
AcDbEntity
  8
RelayWing
 62
7
100
AcDbSpline
 70
8
 71
3
 72
8
 73
4
 74
0
 40
0
 40
0
 40
0
 40
0
 40
1
 40
1
 40
1
 40
1
 10
82.765862
 20
155.185712
 30
0.0
 10
82.763104
 20
155.225702
 30
0.0
 10
82.758622
 20
155.255011
 30
0.0
 10
82.752782
 20
155.282756
 30
0.0
  0
SPLINE
  5
24c
100
AcDbEntity
  8
RelayWing
 62
7
100
AcDbSpline
 70
8
 71
3
 72
8
 73
4
 74
0
 40
0
 40
0
 40
0
 40
0
 40
1
 40
1
 40
1
 40
1
 10
82.752782
 20
155.282756
 30
0.0
 10
82.592953
 20
155.343131
 30
0.0
 10
82.401709
 20
155.340504
 30
0.0
 10
82.209730
 20
155.366729
 30
0.0
  0
SPLINE
  5
24d
100
AcDbEntity
  8
RelayWing
 62
7
100
AcDbSpline
 70
8
 71
3
 72
8
 73
4
 74
0
 40
0
 40
0
 40
0
 40
0
 40
1
 40
1
 40
1
 40
1
 10
82.209730
 20
155.366729
 30
0.0
 10
82.209528
 20
155.366777
 30
0.0
 10
82.208716
 20
155.366684
 30
0.0
 10
82.208514
 20
155.366729
 30
0.0
  0
SPLINE
  5
24e
100
AcDbEntity
  8
RelayWing
 62
7
100
AcDbSpline
 70
8
 71
3
 72
8
 73
4
 74
0
 40
0
 40
0
 40
0
 40
0
 40
1
 40
1
 40
1
 40
1
 10
82.208514
 20
155.366729
 30
0.0
 10
82.008612
 20
155.373827
 30
0.0
 10
81.820423
 20
155.421793
 30
0.0
 10
81.643282
 20
155.407526
 30
0.0
  0
SPLINE
  5
24f
100
AcDbEntity
  8
RelayWing
 62
7
100
AcDbSpline
 70
8
 71
3
 72
8
 73
4
 74
0
 40
0
 40
0
 40
0
 40
0
 40
1
 40
1
 40
1
 40
1
 10
81.643282
 20
155.407526
 30
0.0
 10
81.591281
 20
155.390957
 30
0.0
 10
81.569649
 20
155.354492
 30
0.0
 10
81.550200
 20
155.291866
 30
0.0
  0
SPLINE
  5
250
100
AcDbEntity
  8
RelayWing
 62
7
100
AcDbSpline
 70
8
 71
3
 72
8
 73
4
 74
0
 40
0
 40
0
 40
0
 40
0
 40
1
 40
1
 40
1
 40
1
 10
81.550200
 20
155.291866
 30
0.0
 10
81.530325
 20
155.227902
 30
0.0
 10
81.521986
 20
155.147106
 30
0.0
 10
81.486429
 20
155.075201
 30
0.0
  0
LINE
  5
251
100
AcDbEntity
  8
RelayWing
 62
7
100
AcDbLine
 10
81.486429
 20
155.075201
 30
0.0
 11
81.463058
 21
155.028065
 31
0.0
  0
LINE
  5
252
100
AcDbEntity
  8
RelayWing
 62
7
100
AcDbLine
 10
81.463058
 20
155.028065
 30
0.0
 11
81.413941
 21
155.047474
 31
0.0
  0
SPLINE
  5
253
100
AcDbEntity
  8
RelayWing
 62
7
100
AcDbSpline
 70
8
 71
3
 72
8
 73
4
 74
0
 40
0
 40
0
 40
0
 40
0
 40
1
 40
1
 40
1
 40
1
 10
81.413941
 20
155.047474
 30
0.0
 10
81.383499
 20
155.059500
 30
0.0
 10
81.356891
 20
155.092175
 30
0.0
 10
81.352547
 20
155.122336
 30
0.0
  0
SPLINE
  5
254
100
AcDbEntity
  8
RelayWing
 62
7
100
AcDbSpline
 70
8
 71
3
 72
8
 73
4
 74
0
 40
0
 40
0
 40
0
 40
0
 40
1
 40
1
 40
1
 40
1
 10
81.352547
 20
155.122336
 30
0.0
 10
81.348207
 20
155.152499
 30
0.0
 10
81.356441
 20
155.174511
 30
0.0
 10
81.363640
 20
155.193635
 30
0.0
  0
SPLINE
  5
255
100
AcDbEntity
  8
RelayWing
 62
7
100
AcDbSpline
 70
8
 71
3
 72
8
 73
4
 74
0
 40
0
 40
0
 40
0
 40
0
 40
1
 40
1
 40
1
 40
1
 10
81.363640
 20
155.193635
 30
0.0
 10
81.370840
 20
155.212739
 30
0.0
 10
81.378627
 20
155.229460
 30
0.0
 10
81.383839
 20
155.242354
 30
0.0
  0
SPLINE
  5
256
100
AcDbEntity
  8
RelayWing
 62
7
100
AcDbSpline
 70
8
 71
3
 72
8
 73
4
 74
0
 40
0
 40
0
 40
0
 40
0
 40
1
 40
1
 40
1
 40
1
 10
81.383839
 20
155.242354
 30
0.0
 10
81.389072
 20
155.255252
 30
0.0
 10
81.389903
 20
155.264549
 30
0.0
 10
81.390167
 20
155.259775
 30
0.0
  0
LINE
  5
257
100
AcDbEntity
  8
RelayWing
 62
7
100
AcDbLine
 10
81.390167
 20
155.259775
 30
0.0
 11
81.389761
 21
155.268881
 31
0.0
  0
LINE
  5
258
100
AcDbEntity
  8
RelayWing
 62
7
100
AcDbLine
 10
81.389761
 20
155.268881
 30
0.0
 11
81.392134
 21
155.277601
 31
0.0
  0
SPLINE
  5
259
100
AcDbEntity
  8
RelayWing
 62
7
100
AcDbSpline
 70
8
 71
3
 72
8
 73
4
 74
0
 40
0
 40
0
 40
0
 40
0
 40
1
 40
1
 40
1
 40
1
 10
81.392134
 20
155.277601
 30
0.0
 10
81.401179
 20
155.311295
 30
0.0
 10
81.411826
 20
155.350227
 30
0.0
 10
81.411542
 20
155.372269
 30
0.0
  0
SPLINE
  5
25a
100
AcDbEntity
  8
RelayWing
 62
7
100
AcDbSpline
 70
8
 71
3
 72
8
 73
4
 74
0
 40
0
 40
0
 40
0
 40
0
 40
1
 40
1
 40
1
 40
1
 10
81.411542
 20
155.372269
 30
0.0
 10
81.411400
 20
155.383302
 30
0.0
 10
81.409453
 20
155.387743
 30
0.0
 10
81.408764
 20
155.388514
 30
0.0
  0
SPLINE
  5
25b
100
AcDbEntity
  8
RelayWing
 62
7
100
AcDbSpline
 70
8
 71
3
 72
8
 73
4
 74
0
 40
0
 40
0
 40
0
 40
0
 40
1
 40
1
 40
1
 40
1
 10
81.408764
 20
155.388514
 30
0.0
 10
81.408358
 20
155.389325
 30
0.0
 10
81.408605
 20
155.391556
 30
0.0
 10
81.395298
 20
155.394050
 30
0.0
  0
LINE
  5
25c
100
AcDbEntity
  8
RelayWing
 62
7
100
AcDbLine
 10
81.395298
 20
155.394050
 30
0.0
 11
81.389741
 21
155.395267
 31
0.0
  0
LINE
  5
25d
100
AcDbEntity
  8
RelayWing
 62
7
100
AcDbLine
 10
81.389741
 20
155.395267
 30
0.0
 11
81.384995
 21
155.397295
 31
0.0
  0
SPLINE
  5
25e
100
AcDbEntity
  8
RelayWing
 62
7
100
AcDbSpline
 70
8
 71
3
 72
8
 73
4
 74
0
 40
0
 40
0
 40
0
 40
0
 40
1
 40
1
 40
1
 40
1
 10
81.384995
 20
155.397295
 30
0.0
 10
81.088748
 20
155.511424
 30
0.0
 10
80.762257
 20
155.546002
 30
0.0
 10
80.437133
 20
155.585838
 30
0.0
  0
SPLINE
  5
25f
100
AcDbEntity
  8
RelayWing
 62
7
100
AcDbSpline
 70
8
 71
3
 72
8
 73
4
 74
0
 40
0
 40
0
 40
0
 40
0
 40
1
 40
1
 40
1
 40
1
 10
80.437133
 20
155.585838
 30
0.0
 10
80.323771
 20
155.597824
 30
0.0
 10
80.215344
 20
155.589752
 30
0.0
 10
80.151545
 20
155.511371
 30
0.0
  0
LINE
  5
260
100
AcDbEntity
  8
RelayWing
 62
7
100
AcDbLine
 10
80.151545
 20
155.511371
 30
0.0
 11
80.143615
 21
155.501069
 31
0.0
  0
LINE
  5
261
100
AcDbEntity
  8
RelayWing
 62
7
100
AcDbLine
 10
80.143615
 20
155.501069
 30
0.0
 11
80.137673
 21
155.498290
 31
0.0
  0
SPLINE
  5
262
100
AcDbEntity
  8
RelayWing
 62
7
100
AcDbSpline
 70
8
 71
3
 72
8
 73
4
 74
0
 40
0
 40
0
 40
0
 40
0
 40
1
 40
1
 40
1
 40
1
 10
80.137673
 20
155.498290
 30
0.0
 10
80.135848
 20
155.496871
 30
0.0
 10
80.131447
 20
155.493423
 30
0.0
 10
80.127777
 20
155.489570
 30
0.0
  0
SPLINE
  5
263
100
AcDbEntity
  8
RelayWing
 62
7
100
AcDbSpline
 70
8
 71
3
 72
8
 73
4
 74
0
 40
0
 40
0
 40
0
 40
0
 40
1
 40
1
 40
1
 40
1
 10
80.127777
 20
155.489570
 30
0.0
 10
80.120435
 20
155.481863
 30
0.0
 10
80.111269
 20
155.471358
 30
0.0
 10
80.100049
 20
155.460654
 30
0.0
  0
SPLINE
  5
264
100
AcDbEntity
  8
RelayWing
 62
7
100
AcDbSpline
 70
8
 71
3
 72
8
 73
4
 74
0
 40
0
 40
0
 40
0
 40
0
 40
1
 40
1
 40
1
 40
1
 10
80.100049
 20
155.460654
 30
0.0
 10
80.088814
 20
155.449946
 30
0.0
 10
80.078198
 20
155.437561
 30
0.0
 10
80.052121
 20
155.429362
 30
0.0
  0
SPLINE
  5
265
100
AcDbEntity
  8
RelayWing
 62
7
100
AcDbSpline
 70
8
 71
3
 72
8
 73
4
 74
0
 40
0
 40
0
 40
0
 40
0
 40
1
 40
1
 40
1
 40
1
 10
80.052121
 20
155.429362
 30
0.0
 10
80.039081
 20
155.425286
 30
0.0
 10
80.018365
 20
155.423886
 30
0.0
 10
79.999439
 20
155.433317
 30
0.0
  0
SPLINE
  5
266
100
AcDbEntity
  8
RelayWing
 62
7
100
AcDbSpline
 70
8
 71
3
 72
8
 73
4
 74
0
 40
0
 40
0
 40
0
 40
0
 40
1
 40
1
 40
1
 40
1
 10
79.999439
 20
155.433317
 30
0.0
 10
79.980538
 20
155.442747
 30
0.0
 10
79.969508
 20
155.459269
 30
0.0
 10
79.964188
 20
155.472530
 30
0.0
  0
LINE
  5
267
100
AcDbEntity
  8
RelayWing
 62
7
100
AcDbLine
 10
79.964188
 20
155.472530
 30
0.0
 11
79.959443
 21
155.484800
 31
0.0
  0
LINE
  5
268
100
AcDbEntity
  8
RelayWing
 62
7
100
AcDbLine
 10
79.959443
 20
155.484800
 30
0.0
 11
79.960254
 21
155.498266
 31
0.0
  0
SPLINE
  5
269
100
AcDbEntity
  8
RelayWing
 62
7
100
AcDbSpline
 70
8
 71
3
 72
8
 73
4
 74
0
 40
0
 40
0
 40
0
 40
0
 40
1
 40
1
 40
1
 40
1
 10
79.960254
 20
155.498266
 30
0.0
 10
79.965020
 20
155.560368
 30
0.0
 10
80.002903
 20
155.595333
 30
0.0
 10
80.020855
 20
155.623036
 30
0.0
  0
SPLINE
  5
26a
100
AcDbEntity
  8
RelayWing
 62
7
100
AcDbSpline
 70
8
 71
3
 72
8
 73
4
 74
0
 40
0
 40
0
 40
0
 40
0
 40
1
 40
1
 40
1
 40
1
 10
80.020855
 20
155.623036
 30
0.0
 10
80.027913
 20
155.633906
 30
0.0
 10
80.029758
 20
155.639929
 30
0.0
 10
80.031543
 20
155.644821
 30
0.0
  0
SPLINE
  5
26b
100
AcDbEntity
  8
RelayWing
 62
7
100
AcDbSpline
 70
8
 71
3
 72
8
 73
4
 74
0
 40
0
 40
0
 40
0
 40
0
 40
1
 40
1
 40
1
 40
1
 10
80.031543
 20
155.644821
 30
0.0
 10
79.787248
 20
155.780218
 30
0.0
 10
79.480126
 20
155.760004
 30
0.0
 10
79.196568
 20
155.712555
 30
0.0
  0
SPLINE
  5
26c
100
AcDbEntity
  8
RelayWing
 62
7
100
AcDbSpline
 70
8
 71
3
 72
8
 73
4
 74
0
 40
0
 40
0
 40
0
 40
0
 40
1
 40
1
 40
1
 40
1
 10
79.196568
 20
155.712555
 30
0.0
 10
79.040421
 20
155.674385
 30
0.0
 10
78.921169
 20
155.527569
 30
0.0
 10
78.884046
 20
155.371515
 30
0.0
  0
SPLINE
  5
26d
100
AcDbEntity
  8
RelayWing
 62
7
100
AcDbSpline
 70
8
 71
3
 72
8
 73
4
 74
0
 40
0
 40
0
 40
0
 40
0
 40
1
 40
1
 40
1
 40
1
 10
78.884046
 20
155.371515
 30
0.0
 10
78.892381
 20
155.370298
 30
0.0
 10
78.893274
 20
155.365755
 30
0.0
 10
78.909794
 20
155.366364
 30
0.0
  0
SPLINE
  5
26e
100
AcDbEntity
  8
RelayWing
 62
7
100
AcDbSpline
 70
8
 71
3
 72
8
 73
4
 74
0
 40
0
 40
0
 40
0
 40
0
 40
1
 40
1
 40
1
 40
1
 10
78.909794
 20
155.366364
 30
0.0
 10
78.945410
 20
155.367580
 30
0.0
 10
78.993091
 20
155.377680
 30
0.0
 10
79.046448
 20
155.359631
 30
0.0
  0
SPLINE
  5
26f
100
AcDbEntity
  8
RelayWing
 62
7
100
AcDbSpline
 70
8
 71
3
 72
8
 73
4
 74
0
 40
0
 40
0
 40
0
 40
0
 40
1
 40
1
 40
1
 40
1
 10
79.046448
 20
155.359631
 30
0.0
 10
79.255426
 20
155.332325
 30
0.0
 10
79.483961
 20
155.319251
 30
0.0
 10
79.690105
 20
155.230105
 30
0.0
  0
LINE
  5
270
100
AcDbEntity
  8
RelayWing
 62
7
100
AcDbLine
 10
79.690105
 20
155.230105
 30
0.0
 11
79.700002
 21
155.226150
 31
0.0
  0
LINE
  5
271
100
AcDbEntity
  8
RelayWing
 62
7
100
AcDbLine
 10
79.700002
 20
155.226150
 30
0.0
 11
79.707526
 21
155.219032
 31
0.0
  0
SPLINE
  5
272
100
AcDbEntity
  8
RelayWing
 62
7
100
AcDbSpline
 70
8
 71
3
 72
8
 73
4
 74
0
 40
0
 40
0
 40
0
 40
0
 40
1
 40
1
 40
1
 40
1
 10
79.707526
 20
155.219032
 30
0.0
 10
79.730063
 20
155.197306
 30
0.0
 10
79.771751
 20
155.168273
 30
0.0
 10
79.809323
 20
155.130701
 30
0.0
  0
SPLINE
  5
273
100
AcDbEntity
  8
RelayWing
 62
7
100
AcDbSpline
 70
8
 71
3
 72
8
 73
4
 74
0
 40
0
 40
0
 40
0
 40
0
 40
1
 40
1
 40
1
 40
1
 10
79.809323
 20
155.130701
 30
0.0
 10
79.846896
 20
155.093130
 30
0.0
 10
79.884700
 20
155.038051
 30
0.0
 10
79.874680
 20
154.969886
 30
0.0
  0
LINE
  5
274
100
AcDbEntity
  8
RelayWing
 62
7
100
AcDbLine
 10
79.874680
 20
154.969886
 30
0.0
 11
79.873868
 21
154.961956
 31
0.0
  0
SPLINE
  5
275
100
AcDbEntity
  8
RelayWing
 62
7
100
AcDbSpline
 70
8
 71
3
 72
8
 73
4
 74
0
 40
0
 40
0
 40
0
 40
0
 40
1
 40
1
 40
1
 40
1
 10
79.873868
 20
154.961956
 30
0.0
 10
79.890113
 20
154.955061
 30
0.0
 10
79.910046
 20
154.948368
 30
0.0
 10
79.932095
 20
154.938585
 30
0.0
  0
SPLINE
  5
276
100
AcDbEntity
  8
RelayWing
 62
7
100
AcDbSpline
 70
8
 71
3
 72
8
 73
4
 74
0
 40
0
 40
0
 40
0
 40
0
 40
1
 40
1
 40
1
 40
1
 10
79.932095
 20
154.938585
 30
0.0
 10
80.281995
 20
154.816494
 30
0.0
 10
80.656662
 20
154.743996
 30
0.0
 10
81.009085
 20
154.589228
 30
0.0
  0
LINE
  5
277
100
AcDbEntity
  8
RelayWing
 62
7
100
AcDbLine
 10
81.009085
 20
154.589228
 30
0.0
 11
81.015818
 21
154.586450
 31
0.0
  0
SPLINE
  5
278
100
AcDbEntity
  8
RelayWing
 62
7
100
AcDbSpline
 70
8
 71
3
 72
8
 73
4
 74
0
 40
0
 40
0
 40
0
 40
0
 40
1
 40
1
 40
1
 40
1
 10
81.015818
 20
154.586450
 30
0.0
 10
81.255520
 20
154.513269
 30
0.0
 10
81.489962
 20
154.430314
 30
0.0
 10
81.726419
 20
154.357504
 30
0.0
  0
LINE
  5
279
100
AcDbEntity
  8
RelayWing
 62
7
100
AcDbLine
 10
81.726419
 20
154.357504
 30
0.0
 11
81.728041
 21
154.356693
 31
0.0
  0
SPLINE
  5
27a
100
AcDbEntity
  8
RelayWing
 62
7
100
AcDbSpline
 70
8
 71
3
 72
8
 73
4
 74
0
 40
0
 40
0
 40
0
 40
0
 40
1
 40
1
 40
1
 40
1
 10
81.728041
 20
154.356693
 30
0.0
 10
81.728852
 20
154.356497
 30
0.0
 10
81.729258
 20
154.356551
 30
0.0
 10
81.730069
 20
154.356288
 30
0.0
  0
SPLINE
  5
27b
100
AcDbEntity
  8
RelayWing
 62
7
100
AcDbSpline
 70
8
 71
3
 72
8
 73
4
 74
0
 40
0
 40
0
 40
0
 40
0
 40
1
 40
1
 40
1
 40
1
 10
81.730069
 20
154.356288
 30
0.0
 10
82.266272
 20
154.231400
 30
0.0
 10
82.797311
 20
154.090333
 30
0.0
 10
83.329512
 20
153.962170
 30
0.0
  0
LINE
  5
27c
100
AcDbEntity
  8
RelayWing
 62
7
100
AcDbLine
 10
83.329512
 20
153.962170
 30
0.0
 11
83.331540
 21
153.961765
 31
0.0
  0
SPLINE
  5
27d
100
AcDbEntity
  8
RelayWing
 62
7
100
AcDbSpline
 70
8
 71
3
 72
8
 73
4
 74
0
 40
0
 40
0
 40
0
 40
0
 40
1
 40
1
 40
1
 40
1
 10
83.331540
 20
153.961765
 30
0.0
 10
84.047551
 20
153.818542
 30
0.0
 10
84.777054
 20
153.744691
 30
0.0
 10
85.506513
 20
153.670632
 30
0.0
  0
LINE
  5
27e
100
AcDbEntity
  8
RelayWing
 62
7
100
AcDbLine
 10
85.506513
 20
153.670632
 30
0.0
 11
85.506513
 21
153.670226
 31
0.0
  0
LINE
  5
27f
100
AcDbEntity
  8
RelayWing
 62
7
100
AcDbLine
 10
85.506513
 20
153.670226
 30
0.0
 11
85.507324
 21
153.670226
 31
0.0
  0
SPLINE
  5
280
100
AcDbEntity
  8
RelayWing
 62
7
100
AcDbSpline
 70
8
 71
3
 72
8
 73
4
 74
0
 40
0
 40
0
 40
0
 40
0
 40
1
 40
1
 40
1
 40
1
 10
85.507324
 20
153.670226
 30
0.0
 10
85.843367
 20
153.662277
 30
0.0
 10
86.183414
 20
153.686856
 30
0.0
 10
86.519751
 20
153.723304
 30
0.0
  0
SPLINE
  5
281
100
AcDbEntity
  8
RelayWing
 62
7
100
AcDbSpline
 70
8
 71
3
 72
8
 73
4
 74
0
 40
0
 40
0
 40
0
 40
0
 40
1
 40
1
 40
1
 40
1
 10
86.519751
 20
153.723304
 30
0.0
 10
87.067422
 20
153.847492
 30
0.0
 10
87.628376
 20
154.000851
 30
0.0
 10
88.210692
 20
153.965715
 30
0.0
  0
LINE
  5
282
100
AcDbEntity
  8
RelayWing
 62
7
100
AcDbLine
 10
88.210692
 20
153.965715
 30
0.0
 11
88.209475
 21
153.966526
 31
0.0
  0
SPLINE
  5
283
100
AcDbEntity
  8
RelayWing
 62
7
100
AcDbSpline
 70
8
 71
3
 72
8
 73
4
 74
0
 40
0
 40
0
 40
0
 40
0
 40
1
 40
1
 40
1
 40
1
 10
88.209475
 20
153.966526
 30
0.0
 10
88.762608
 20
153.941328
 30
0.0
 10
89.298121
 20
153.807025
 30
0.0
 10
89.836248
 20
153.783530
 30
0.0
  0
LINE
  5
284
100
AcDbEntity
  8
RelayWing
 62
7
100
AcDbLine
 10
89.836248
 20
153.783530
 30
0.0
 11
89.839412
 21
153.783530
 31
0.0
  0
LINE
  5
285
100
AcDbEntity
  8
RelayWing
 62
7
100
AcDbLine
 10
89.839412
 20
153.783530
 30
0.0
 11
89.842190
 21
153.783124
 31
0.0
  0
SPLINE
  5
286
100
AcDbEntity
  8
RelayWing
 62
7
100
AcDbSpline
 70
8
 71
3
 72
8
 73
4
 74
0
 40
0
 40
0
 40
0
 40
0
 40
1
 40
1
 40
1
 40
1
 10
89.842190
 20
153.783124
 30
0.0
 10
89.865360
 20
153.779636
 30
0.0
 10
89.874760
 20
153.785254
 30
0.0
 10
89.885760
 20
153.796590
 30
0.0
  0
SPLINE
  5
287
100
AcDbEntity
  8
RelayWing
 62
7
100
AcDbSpline
 70
8
 71
3
 72
8
 73
4
 74
0
 40
0
 40
0
 40
0
 40
0
 40
1
 40
1
 40
1
 40
1
 10
89.885760
 20
153.796590
 30
0.0
 10
89.896772
 20
153.808028
 30
0.0
 10
89.906756
 20
153.829223
 30
0.0
 10
89.908733
 20
153.853233
 30
0.0
  0
LINE
  5
288
100
AcDbEntity
  8
RelayWing
 62
7
100
AcDbLine
 10
89.908733
 20
153.853233
 30
0.0
 11
89.909545
 21
153.866699
 31
0.0
  0
LINE
  5
289
100
AcDbEntity
  8
RelayWing
 62
7
100
AcDbLine
 10
89.909545
 20
153.866699
 30
0.0
 11
89.916683
 21
153.878178
 31
0.0
  0
SPLINE
  5
28a
100
AcDbEntity
  8
RelayWing
 62
7
100
AcDbSpline
 70
8
 71
3
 72
8
 73
4
 74
0
 40
0
 40
0
 40
0
 40
0
 40
1
 40
1
 40
1
 40
1
 10
89.916683
 20
153.878178
 30
0.0
 10
89.947755
 20
153.929330
 30
0.0
 10
89.953735
 20
154.019010
 30
0.0
 10
89.998279
 20
154.102369
 30
0.0
  0
LINE
  5
28b
100
AcDbEntity
  8
RelayWing
 62
7
100
AcDbLine
 10
89.998279
 20
154.102369
 30
0.0
 11
89.999901
 21
154.105533
 31
0.0
  0
LINE
  5
28c
100
AcDbEntity
  8
RelayWing
 62
7
100
AcDbLine
 10
89.999901
 20
154.105533
 30
0.0
 11
90.001929
 21
154.107906
 31
0.0
  0
SPLINE
  5
28d
100
AcDbEntity
  8
RelayWing
 62
7
100
AcDbSpline
 70
8
 71
3
 72
8
 73
4
 74
0
 40
0
 40
0
 40
0
 40
0
 40
1
 40
1
 40
1
 40
1
 10
90.001929
 20
154.107906
 30
0.0
 10
90.031078
 20
154.149498
 30
0.0
 10
90.042064
 20
154.228151
 30
0.0
 10
90.105309
 20
154.296051
 30
0.0
  0
SPLINE
  5
28e
100
AcDbEntity
  8
RelayWing
 62
7
100
AcDbSpline
 70
8
 71
3
 72
8
 73
4
 74
0
 40
0
 40
0
 40
0
 40
0
 40
1
 40
1
 40
1
 40
1
 10
90.105309
 20
154.296051
 30
0.0
 10
90.118248
 20
154.329276
 30
0.0
 10
90.136896
 20
154.355387
 30
0.0
 10
90.152842
 20
154.376460
 30
0.0
  0
SPLINE
  5
28f
100
AcDbEntity
  8
RelayWing
 62
7
100
AcDbSpline
 70
8
 71
3
 72
8
 73
4
 74
0
 40
0
 40
0
 40
0
 40
0
 40
1
 40
1
 40
1
 40
1
 10
90.152842
 20
154.376460
 30
0.0
 10
90.171520
 20
154.401151
 30
0.0
 10
90.185185
 20
154.421093
 30
0.0
 10
90.190075
 20
154.439043
 30
0.0
  0
LINE
  5
290
100
AcDbEntity
  8
RelayWing
 62
7
100
AcDbLine
 10
90.190075
 20
154.439043
 30
0.0
 11
90.192103
 21
154.447764
 31
0.0
  0
LINE
  5
291
100
AcDbEntity
  8
RelayWing
 62
7
100
AcDbLine
 10
90.192103
 20
154.447764
 30
0.0
 11
90.197254
 21
154.454497
 31
0.0
  0
SPLINE
  5
292
100
AcDbEntity
  8
RelayWing
 62
7
100
AcDbSpline
 70
8
 71
3
 72
8
 73
4
 74
0
 40
0
 40
0
 40
0
 40
0
 40
1
 40
1
 40
1
 40
1
 10
90.197254
 20
154.454497
 30
0.0
 10
90.265405
 20
154.560911
 30
0.0
 10
90.316069
 20
154.696137
 30
0.0
 10
90.434911
 20
154.792369
 30
0.0
  0
LINE
  5
293
100
AcDbEntity
  8
RelayWing
 62
7
100
AcDbLine
 10
90.434911
 20
154.792369
 30
0.0
 11
90.435723
 21
154.792774
 31
0.0
  0
LINE
  5
294
100
AcDbEntity
  8
RelayWing
 62
7
100
AcDbLine
 10
90.435723
 20
154.792774
 30
0.0
 11
90.436534
 21
154.793180
 31
0.0
  0
SPLINE
  5
295
100
AcDbEntity
  8
RelayWing
 62
7
100
AcDbSpline
 70
8
 71
3
 72
8
 73
4
 74
0
 40
0
 40
0
 40
0
 40
0
 40
1
 40
1
 40
1
 40
1
 10
90.436534
 20
154.793180
 30
0.0
 10
90.455313
 20
154.807315
 30
0.0
 10
90.469467
 20
154.830021
 30
0.0
 10
90.486837
 20
154.860912
 30
0.0
  0
SPLINE
  5
296
100
AcDbEntity
  8
RelayWing
 62
7
100
AcDbSpline
 70
8
 71
3
 72
8
 73
4
 74
0
 40
0
 40
0
 40
0
 40
0
 40
1
 40
1
 40
1
 40
1
 10
90.486837
 20
154.860912
 30
0.0
 10
90.501195
 20
154.886471
 30
0.0
 10
90.520565
 20
154.917098
 30
0.0
 10
90.549024
 20
154.944489
 30
0.0
  0
SPLINE
  5
297
100
AcDbEntity
  8
RelayWing
 62
7
100
AcDbSpline
 70
8
 71
3
 72
8
 73
4
 74
0
 40
0
 40
0
 40
0
 40
0
 40
1
 40
1
 40
1
 40
1
 10
90.549024
 20
154.944489
 30
0.0
 10
90.561111
 20
154.980166
 30
0.0
 10
90.588522
 20
155.003737
 30
0.0
 10
90.605667
 20
155.016183
 30
0.0
  0
SPLINE
  5
298
100
AcDbEntity
  8
RelayWing
 62
7
100
AcDbSpline
 70
8
 71
3
 72
8
 73
4
 74
0
 40
0
 40
0
 40
0
 40
0
 40
1
 40
1
 40
1
 40
1
 10
90.605667
 20
155.016183
 30
0.0
 10
90.626353
 20
155.031191
 30
0.0
 10
90.633185
 20
155.037301
 30
0.0
 10
90.634978
 20
155.042324
 30
0.0
  0
LINE
  5
299
100
AcDbEntity
  8
RelayWing
 62
7
100
AcDbLine
 10
90.634978
 20
155.042324
 30
0.0
 11
90.638547
 21
155.051836
 31
0.0
  0
LINE
  5
29a
100
AcDbEntity
  8
RelayWing
 62
7
100
AcDbLine
 10
90.638547
 20
155.051836
 30
0.0
 11
90.644874
 21
155.059765
 31
0.0
  0
SPLINE
  5
29b
100
AcDbEntity
  8
RelayWing
 62
7
100
AcDbSpline
 70
8
 71
3
 72
8
 73
4
 74
0
 40
0
 40
0
 40
0
 40
0
 40
1
 40
1
 40
1
 40
1
 10
90.644874
 20
155.059765
 30
0.0
 10
90.687228
 20
155.110987
 30
0.0
 10
90.722990
 20
155.181451
 30
0.0
 10
90.756178
 20
155.244743
 30
0.0
  0
LINE
  5
29c
100
AcDbEntity
  8
RelayWing
 62
7
100
AcDbLine
 10
90.756178
 20
155.244743
 30
0.0
 11
90.766075
 21
155.264151
 31
0.0
  0
LINE
  5
29d
100
AcDbEntity
  8
RelayWing
 62
7
100
AcDbLine
 10
90.766075
 20
155.264151
 30
0.0
 11
90.785483
 21
155.270884
 31
0.0
  0
SPLINE
  5
29e
100
AcDbEntity
  8
RelayWing
 62
7
100
AcDbSpline
 70
8
 71
3
 72
8
 73
4
 74
0
 40
0
 40
0
 40
0
 40
0
 40
1
 40
1
 40
1
 40
1
 10
90.785483
 20
155.270884
 30
0.0
 10
90.786497
 20
155.272304
 30
0.0
 10
90.788769
 20
155.279138
 30
0.0
 10
90.791811
 20
155.289887
 30
0.0
  0
SPLINE
  5
29f
100
AcDbEntity
  8
RelayWing
 62
7
100
AcDbSpline
 70
8
 71
3
 72
8
 73
4
 74
0
 40
0
 40
0
 40
0
 40
0
 40
1
 40
1
 40
1
 40
1
 10
90.791811
 20
155.289887
 30
0.0
 10
90.797002
 20
155.308220
 30
0.0
 10
90.806108
 20
155.342719
 30
0.0
 10
90.834590
 20
155.369503
 30
0.0
  0
SPLINE
  5
2a0
100
AcDbEntity
  8
RelayWing
 62
7
100
AcDbSpline
 70
8
 71
3
 72
8
 73
4
 74
0
 40
0
 40
0
 40
0
 40
0
 40
1
 40
1
 40
1
 40
1
 10
90.834590
 20
155.369503
 30
0.0
 10
90.897252
 20
155.492906
 30
0.0
 10
90.923429
 20
155.633866
 30
0.0
 10
90.930842
 20
155.771542
 30
0.0
  0
SPLINE
  5
2a1
100
AcDbEntity
  8
RelayWing
 62
7
100
AcDbSpline
 70
8
 71
3
 72
8
 73
4
 74
0
 40
0
 40
0
 40
0
 40
0
 40
1
 40
1
 40
1
 40
1
 10
90.930842
 20
155.771542
 30
0.0
 10
90.468078
 20
155.762760
 30
0.0
 10
89.999625
 20
155.749540
 30
0.0
 10
89.533408
 20
155.797290
 30
0.0
  0
LINE
  5
2a2
100
AcDbEntity
  8
RelayWing
 62
7
100
AcDbLine
 10
89.533408
 20
155.797290
 30
0.0
 11
89.528256
 21
155.797695
 31
0.0
  0
LINE
  5
2a3
100
AcDbEntity
  8
RelayWing
 62
7
100
AcDbLine
 10
89.528256
 20
155.797695
 30
0.0
 11
89.523511
 21
155.799318
 31
0.0
  0
SPLINE
  5
2a4
100
AcDbEntity
  8
RelayWing
 62
7
100
AcDbSpline
 70
8
 71
3
 72
8
 73
4
 74
0
 40
0
 40
0
 40
0
 40
0
 40
1
 40
1
 40
1
 40
1
 10
89.523511
 20
155.799318
 30
0.0
 10
89.412331
 20
155.831429
 30
0.0
 10
89.284438
 20
155.850789
 30
0.0
 10
89.166230
 20
155.908642
 30
0.0
  0
LINE
  5
2a5
100
AcDbEntity
  8
RelayWing
 62
7
100
AcDbLine
 10
89.166230
 20
155.908642
 30
0.0
 11
89.159497
 21
155.912211
 31
0.0
  0
LINE
  5
2a6
100
AcDbEntity
  8
RelayWing
 62
7
100
AcDbLine
 10
89.159497
 20
155.912211
 30
0.0
 11
89.153170
 21
155.917768
 31
0.0
  0
SPLINE
  5
2a7
100
AcDbEntity
  8
RelayWing
 62
7
100
AcDbSpline
 70
8
 71
3
 72
8
 73
4
 74
0
 40
0
 40
0
 40
0
 40
0
 40
1
 40
1
 40
1
 40
1
 10
89.153170
 20
155.917768
 30
0.0
 10
89.002389
 20
156.054589
 30
0.0
 10
88.853650
 20
156.190511
 30
0.0
 10
88.677853
 20
156.273860
 30
0.0
  0
LINE
  5
2a8
100
AcDbEntity
  8
RelayWing
 62
7
100
AcDbLine
 10
88.677853
 20
156.273860
 30
0.0
 11
88.676230
 21
156.274671
 31
0.0
  0
LINE
  5
2a9
100
AcDbEntity
  8
RelayWing
 62
7
100
AcDbLine
 10
88.676230
 20
156.274671
 30
0.0
 11
88.674202
 21
156.275888
 31
0.0
  0
SPLINE
  5
2aa
100
AcDbEntity
  8
RelayWing
 62
7
100
AcDbSpline
 70
8
 71
3
 72
8
 73
4
 74
0
 40
0
 40
0
 40
0
 40
0
 40
1
 40
1
 40
1
 40
1
 10
88.674202
 20
156.275888
 30
0.0
 10
88.348664
 20
156.459422
 30
0.0
 10
87.987364
 20
156.581324
 30
0.0
 10
87.616226
 20
156.587222
 30
0.0
  0
LINE
  5
2ab
100
AcDbEntity
  8
RelayWing
 62
7
100
AcDbLine
 10
87.616226
 20
156.587222
 30
0.0
 11
87.613854
 21
156.587222
 31
0.0
  0
LINE
  5
2ac
100
AcDbEntity
  8
RelayWing
 62
7
100
AcDbLine
 10
87.613854
 20
156.587222
 30
0.0
 11
87.611826
 21
156.587222
 31
0.0
  0
SPLINE
  5
2ad
100
AcDbEntity
  8
RelayWing
 62
7
100
AcDbSpline
 70
8
 71
3
 72
8
 73
4
 74
0
 40
0
 40
0
 40
0
 40
0
 40
1
 40
1
 40
1
 40
1
 10
87.611826
 20
156.587222
 30
0.0
 10
87.462533
 20
156.600059
 30
0.0
 10
87.313244
 20
156.608037
 30
0.0
 10
87.165424
 20
156.605048
 30
0.0
  0
LINE
  5
2ae
100
AcDbEntity
  8
RelayWing
 62
7
100
AcDbLine
 10
87.165424
 20
156.605048
 30
0.0
 11
87.165018
 21
156.605048
 31
0.0
  0
LINE
  5
2af
100
AcDbEntity
  8
RelayWing
 62
7
100
AcDbLine
 10
87.165018
 20
156.605048
 30
0.0
 11
87.164963
 21
156.604914
 31
0.0
  0
SPLINE
  5
2b0
100
AcDbEntity
  8
RelayWing
 62
7
100
AcDbSpline
 70
8
 71
3
 72
8
 73
4
 74
0
 40
0
 40
0
 40
0
 40
0
 40
1
 40
1
 40
1
 40
1
 10
87.465204
 20
156.396568
 30
0.0
 10
87.466218
 20
156.396620
 30
0.0
 10
87.467435
 20
156.395756
 30
0.0
 10
87.468368
 20
156.395756
 30
0.0
  0
SPLINE
  5
2b1
100
AcDbEntity
  8
RelayWing
 62
7
100
AcDbSpline
 70
8
 71
3
 72
8
 73
4
 74
0
 40
0
 40
0
 40
0
 40
0
 40
1
 40
1
 40
1
 40
1
 10
87.468368
 20
156.395756
 30
0.0
 10
87.469179
 20
156.395724
 30
0.0
 10
87.469787
 20
156.396568
 30
0.0
 10
87.470740
 20
156.396568
 30
0.0
  0
LINE
  5
2b2
100
AcDbEntity
  8
RelayWing
 62
7
100
AcDbLine
 10
87.470740
 20
156.396568
 30
0.0
 11
87.465184
 21
156.396568
 31
0.0
  0
LINE
  5
2b3
100
AcDbEntity
  8
RelayWing
 62
7
100
AcDbLine
 10
87.465184
 20
156.396568
 30
0.0
 11
87.465204
 21
156.396568
 31
0.0
  0
SPLINE
  5
2b4
100
AcDbEntity
  8
RelayWing
 62
7
100
AcDbSpline
 70
8
 71
3
 72
8
 73
4
 74
0
 40
0
 40
0
 40
0
 40
0
 40
1
 40
1
 40
1
 40
1
 10
82.125807
 20
156.115338
 30
0.0
 10
82.108771
 20
156.100108
 30
0.0
 10
82.097571
 20
156.081044
 30
0.0
 10
82.070750
 20
156.076124
 30
0.0
  0
LINE
  5
2b5
100
AcDbEntity
  8
RelayWing
 62
7
100
AcDbLine
 10
82.070750
 20
156.076124
 30
0.0
 11
82.079471
 21
156.078152
 31
0.0
  0
SPLINE
  5
2b6
100
AcDbEntity
  8
RelayWing
 62
7
100
AcDbSpline
 70
8
 71
3
 72
8
 73
4
 74
0
 40
0
 40
0
 40
0
 40
0
 40
1
 40
1
 40
1
 40
1
 10
82.079471
 20
156.078152
 30
0.0
 10
82.036659
 20
156.063266
 30
0.0
 10
81.999193
 20
156.041715
 30
0.0
 10
81.957871
 20
156.024284
 30
0.0
  0
SPLINE
  5
2b7
100
AcDbEntity
  8
RelayWing
 62
7
100
AcDbSpline
 70
8
 71
3
 72
8
 73
4
 74
0
 40
0
 40
0
 40
0
 40
0
 40
1
 40
1
 40
1
 40
1
 10
81.957871
 20
156.024284
 30
0.0
 10
82.016071
 20
156.012704
 30
0.0
 10
82.068856
 20
155.996863
 30
0.0
 10
82.111951
 20
156.005281
 30
0.0
  0
LINE
  5
2b8
100
AcDbEntity
  8
RelayWing
 62
7
100
AcDbLine
 10
82.111951
 20
156.005281
 30
0.0
 11
82.115906
 21
156.005687
 31
0.0
  0
LINE
  5
2b9
100
AcDbEntity
  8
RelayWing
 62
7
100
AcDbLine
 10
82.115906
 20
156.005687
 30
0.0
 11
82.120266
 21
156.006498
 31
0.0
  0
SPLINE
  5
2ba
100
AcDbEntity
  8
RelayWing
 62
7
100
AcDbSpline
 70
8
 71
3
 72
8
 73
4
 74
0
 40
0
 40
0
 40
0
 40
0
 40
1
 40
1
 40
1
 40
1
 10
82.120266
 20
156.006498
 30
0.0
 10
82.191344
 20
156.009702
 30
0.0
 10
82.260096
 20
156.005281
 30
0.0
 10
82.329406
 20
156.002543
 30
0.0
  0
SPLINE
  5
2bb
100
AcDbEntity
  8
RelayWing
 62
7
100
AcDbSpline
 70
8
 71
3
 72
8
 73
4
 74
0
 40
0
 40
0
 40
0
 40
0
 40
1
 40
1
 40
1
 40
1
 10
82.329406
 20
156.002543
 30
0.0
 10
82.312269
 20
156.009682
 30
0.0
 10
82.302206
 20
156.011386
 30
0.0
 10
82.284250
 20
156.021952
 30
0.0
  0
SPLINE
  5
2bc
100
AcDbEntity
  8
RelayWing
 62
7
100
AcDbSpline
 70
8
 71
3
 72
8
 73
4
 74
0
 40
0
 40
0
 40
0
 40
0
 40
1
 40
1
 40
1
 40
1
 10
82.284250
 20
156.021952
 30
0.0
 10
82.283844
 20
156.022154
 30
0.0
 10
82.283236
 20
156.022357
 30
0.0
 10
82.282628
 20
156.022763
 30
0.0
  0
SPLINE
  5
2bd
100
AcDbEntity
  8
RelayWing
 62
7
100
AcDbSpline
 70
8
 71
3
 72
8
 73
4
 74
0
 40
0
 40
0
 40
0
 40
0
 40
1
 40
1
 40
1
 40
1
 10
82.282628
 20
156.022763
 30
0.0
 10
82.215595
 20
156.055090
 30
0.0
 10
82.169945
 20
156.095380
 30
0.0
 10
82.125772
 20
156.115449
 30
0.0
  0
LINE
  5
2be
100
AcDbEntity
  8
RelayWing
 62
7
100
AcDbLine
 10
82.125772
 20
156.115449
 30
0.0
 11
82.125807
 21
156.115338
 31
0.0
  0
SPLINE
  5
2bf
100
AcDbEntity
  8
RelayWing
 62
7
100
AcDbSpline
 70
8
 71
3
 72
8
 73
4
 74
0
 40
0
 40
0
 40
0
 40
0
 40
1
 40
1
 40
1
 40
1
 10
81.719410
 20
155.933528
 30
0.0
 10
81.597088
 20
155.898068
 30
0.0
 10
81.472443
 20
155.861827
 30
0.0
 10
81.340344
 20
155.844011
 30
0.0
  0
SPLINE
  5
2c0
100
AcDbEntity
  8
RelayWing
 62
7
100
AcDbSpline
 70
8
 71
3
 72
8
 73
4
 74
0
 40
0
 40
0
 40
0
 40
0
 40
1
 40
1
 40
1
 40
1
 10
81.340344
 20
155.844011
 30
0.0
 10
81.134835
 20
155.816592
 30
0.0
 10
80.933856
 20
155.781700
 30
0.0
 10
80.750555
 20
155.700624
 30
0.0
  0
SPLINE
  5
2c1
100
AcDbEntity
  8
RelayWing
 62
7
100
AcDbSpline
 70
8
 71
3
 72
8
 73
4
 74
0
 40
0
 40
0
 40
0
 40
0
 40
1
 40
1
 40
1
 40
1
 10
80.750555
 20
155.700624
 30
0.0
 10
80.750353
 20
155.700423
 30
0.0
 10
80.749947
 20
155.700823
 30
0.0
 10
80.749744
 20
155.700624
 30
0.0
  0
SPLINE
  5
2c2
100
AcDbEntity
  8
RelayWing
 62
7
100
AcDbSpline
 70
8
 71
3
 72
8
 73
4
 74
0
 40
0
 40
0
 40
0
 40
0
 40
1
 40
1
 40
1
 40
1
 10
80.749744
 20
155.700624
 30
0.0
 10
80.746844
 20
155.698596
 30
0.0
 10
80.745465
 20
155.698048
 30
0.0
 10
80.742626
 20
155.696264
 30
0.0
  0
SPLINE
  5
2c3
100
AcDbEntity
  8
RelayWing
 62
7
100
AcDbSpline
 70
8
 71
3
 72
8
 73
4
 74
0
 40
0
 40
0
 40
0
 40
0
 40
1
 40
1
 40
1
 40
1
 10
80.742626
 20
155.696264
 30
0.0
 10
80.748872
 20
155.694438
 30
0.0
 10
80.751772
 20
155.696669
 30
0.0
 10
80.758465
 20
155.693891
 30
0.0
  0
SPLINE
  5
2c4
100
AcDbEntity
  8
RelayWing
 62
7
100
AcDbSpline
 70
8
 71
3
 72
8
 73
4
 74
0
 40
0
 40
0
 40
0
 40
0
 40
1
 40
1
 40
1
 40
1
 10
80.758465
 20
155.693891
 30
0.0
 10
80.989069
 20
155.650228
 30
0.0
 10
81.244885
 20
155.641921
 30
0.0
 10
81.475402
 20
155.518023
 30
0.0
  0
SPLINE
  5
2c5
100
AcDbEntity
  8
RelayWing
 62
7
100
AcDbSpline
 70
8
 71
3
 72
8
 73
4
 74
0
 40
0
 40
0
 40
0
 40
0
 40
1
 40
1
 40
1
 40
1
 10
81.475402
 20
155.518023
 30
0.0
 10
81.484833
 20
155.513014
 30
0.0
 10
81.491870
 20
155.510540
 30
0.0
 10
81.498376
 20
155.508126
 30
0.0
  0
LINE
  5
2c6
100
AcDbEntity
  8
RelayWing
 62
7
100
AcDbLine
 10
81.498376
 20
155.508126
 30
0.0
 11
81.510260
 21
155.516056
 31
0.0
  0
SPLINE
  5
2c7
100
AcDbEntity
  8
RelayWing
 62
7
100
AcDbSpline
 70
8
 71
3
 72
8
 73
4
 74
0
 40
0
 40
0
 40
0
 40
0
 40
1
 40
1
 40
1
 40
1
 10
81.510260
 20
155.516056
 30
0.0
 10
81.625151
 20
155.588519
 30
0.0
 10
81.756742
 20
155.570851
 30
0.0
 10
81.863580
 20
155.551309
 30
0.0
  0
LINE
  5
2c8
100
AcDbEntity
  8
RelayWing
 62
7
100
AcDbLine
 10
81.863580
 20
155.551309
 30
0.0
 11
81.862769
 21
155.551715
 31
0.0
  0
SPLINE
  5
2c9
100
AcDbEntity
  8
RelayWing
 62
7
100
AcDbSpline
 70
8
 71
3
 72
8
 73
4
 74
0
 40
0
 40
0
 40
0
 40
0
 40
1
 40
1
 40
1
 40
1
 10
81.862769
 20
155.551715
 30
0.0
 10
82.148229
 20
155.506409
 30
0.0
 10
82.449670
 20
155.513415
 30
0.0
 10
82.748841
 20
155.437638
 30
0.0
  0
SPLINE
  5
2ca
100
AcDbEntity
  8
RelayWing
 62
7
100
AcDbSpline
 70
8
 71
3
 72
8
 73
4
 74
0
 40
0
 40
0
 40
0
 40
0
 40
1
 40
1
 40
1
 40
1
 10
82.748841
 20
155.437638
 30
0.0
 10
82.776217
 20
155.435813
 30
0.0
 10
82.796212
 20
155.428086
 30
0.0
 10
82.807859
 20
155.424963
 30
0.0
  0
SPLINE
  5
2cb
100
AcDbEntity
  8
RelayWing
 62
7
100
AcDbSpline
 70
8
 71
3
 72
8
 73
4
 74
0
 40
0
 40
0
 40
0
 40
0
 40
1
 40
1
 40
1
 40
1
 10
82.807859
 20
155.424963
 30
0.0
 10
82.810414
 20
155.424355
 30
0.0
 10
82.809947
 20
155.423949
 30
0.0
 10
82.811022
 20
155.423746
 30
0.0
  0
SPLINE
  5
2cc
100
AcDbEntity
  8
RelayWing
 62
7
100
AcDbSpline
 70
8
 71
3
 72
8
 73
4
 74
0
 40
0
 40
0
 40
0
 40
0
 40
1
 40
1
 40
1
 40
1
 10
82.811022
 20
155.423746
 30
0.0
 10
82.869555
 20
155.530862
 30
0.0
 10
82.952884
 20
155.616871
 30
0.0
 10
83.028874
 20
155.693094
 30
0.0
  0
LINE
  5
2cd
100
AcDbEntity
  8
RelayWing
 62
7
100
AcDbLine
 10
83.028874
 20
155.693094
 30
0.0
 11
83.030091
 21
155.694311
 31
0.0
  0
LINE
  5
2ce
100
AcDbEntity
  8
RelayWing
 62
7
100
AcDbLine
 10
83.030091
 20
155.694311
 30
0.0
 11
83.030902
 21
155.695528
 31
0.0
  0
SPLINE
  5
2cf
100
AcDbEntity
  8
RelayWing
 62
7
100
AcDbSpline
 70
8
 71
3
 72
8
 73
4
 74
0
 40
0
 40
0
 40
0
 40
0
 40
1
 40
1
 40
1
 40
1
 10
83.030902
 20
155.695528
 30
0.0
 10
83.087510
 20
155.747027
 30
0.0
 10
83.158341
 20
155.772252
 30
0.0
 10
83.228555
 20
155.797722
 30
0.0
  0
SPLINE
  5
2d0
100
AcDbEntity
  8
RelayWing
 62
7
100
AcDbSpline
 70
8
 71
3
 72
8
 73
4
 74
0
 40
0
 40
0
 40
0
 40
0
 40
1
 40
1
 40
1
 40
1
 10
83.228555
 20
155.797722
 30
0.0
 10
83.072031
 20
155.798938
 30
0.0
 10
82.913123
 20
155.803887
 30
0.0
 10
82.756408
 20
155.839312
 30
0.0
  0
SPLINE
  5
2d1
100
AcDbEntity
  8
RelayWing
 62
7
100
AcDbSpline
 70
8
 71
3
 72
8
 73
4
 74
0
 40
0
 40
0
 40
0
 40
0
 40
1
 40
1
 40
1
 40
1
 10
82.756408
 20
155.839312
 30
0.0
 10
82.541612
 20
155.851886
 30
0.0
 10
82.327893
 20
155.865506
 30
0.0
 10
82.117898
 20
155.859126
 30
0.0
  0
SPLINE
  5
2d2
100
AcDbEntity
  8
RelayWing
 62
7
100
AcDbSpline
 70
8
 71
3
 72
8
 73
4
 74
0
 40
0
 40
0
 40
0
 40
0
 40
1
 40
1
 40
1
 40
1
 10
82.117898
 20
155.859126
 30
0.0
 10
82.036028
 20
155.848154
 30
0.0
 10
81.968473
 20
155.776320
 30
0.0
 10
81.903211
 20
155.698310
 30
0.0
  0
LINE
  5
2d3
100
AcDbEntity
  8
RelayWing
 62
7
100
AcDbLine
 10
81.903211
 20
155.698310
 30
0.0
 11
81.897269
 21
155.691577
 31
0.0
  0
LINE
  5
2d4
100
AcDbEntity
  8
RelayWing
 62
7
100
AcDbLine
 10
81.897269
 20
155.691577
 30
0.0
 11
81.889340
 21
155.686426
 31
0.0
  0
SPLINE
  5
2d5
100
AcDbEntity
  8
RelayWing
 62
7
100
AcDbSpline
 70
8
 71
3
 72
8
 73
4
 74
0
 40
0
 40
0
 40
0
 40
0
 40
1
 40
1
 40
1
 40
1
 10
81.889340
 20
155.686426
 30
0.0
 10
81.880193
 20
155.680869
 30
0.0
 10
81.865691
 20
155.674704
 30
0.0
 10
81.847751
 20
155.676529
 30
0.0
  0
SPLINE
  5
2d6
100
AcDbEntity
  8
RelayWing
 62
7
100
AcDbSpline
 70
8
 71
3
 72
8
 73
4
 74
0
 40
0
 40
0
 40
0
 40
0
 40
1
 40
1
 40
1
 40
1
 10
81.847751
 20
155.676529
 30
0.0
 10
81.829803
 20
155.678354
 30
0.0
 10
81.813175
 20
155.689894
 30
0.0
 10
81.804972
 20
155.700293
 30
0.0
  0
SPLINE
  5
2d7
100
AcDbEntity
  8
RelayWing
 62
7
100
AcDbSpline
 70
8
 71
3
 72
8
 73
4
 74
0
 40
0
 40
0
 40
0
 40
0
 40
1
 40
1
 40
1
 40
1
 10
81.804972
 20
155.700293
 30
0.0
 10
81.788565
 20
155.721107
 30
0.0
 10
81.789660
 20
155.734555
 30
0.0
 10
81.789133
 20
155.745845
 30
0.0
  0
SPLINE
  5
2d8
100
AcDbEntity
  8
RelayWing
 62
7
100
AcDbSpline
 70
8
 71
3
 72
8
 73
4
 74
0
 40
0
 40
0
 40
0
 40
0
 40
1
 40
1
 40
1
 40
1
 10
81.789133
 20
155.745845
 30
0.0
 10
81.788728
 20
155.757121
 30
0.0
 10
81.789539
 20
155.767011
 30
0.0
 10
81.791911
 20
155.777137
 30
0.0
  0
SPLINE
  5
2d9
100
AcDbEntity
  8
RelayWing
 62
7
100
AcDbSpline
 70
8
 71
3
 72
8
 73
4
 74
0
 40
0
 40
0
 40
0
 40
0
 40
1
 40
1
 40
1
 40
1
 10
81.791911
 20
155.777137
 30
0.0
 10
81.793737
 20
155.785939
 30
0.0
 10
81.796880
 20
155.795714
 30
0.0
 10
81.807365
 20
155.809616
 30
0.0
  0
SPLINE
  5
2da
100
AcDbEntity
  8
RelayWing
 62
7
100
AcDbSpline
 70
8
 71
3
 72
8
 73
4
 74
0
 40
0
 40
0
 40
0
 40
0
 40
1
 40
1
 40
1
 40
1
 10
81.807365
 20
155.809616
 30
0.0
 10
81.825090
 20
155.841723
 30
0.0
 10
81.847771
 20
155.865997
 30
0.0
 10
81.865194
 20
155.884480
 30
0.0
  0
SPLINE
  5
2db
100
AcDbEntity
  8
RelayWing
 62
7
100
AcDbSpline
 70
8
 71
3
 72
8
 73
4
 74
0
 40
0
 40
0
 40
0
 40
0
 40
1
 40
1
 40
1
 40
1
 10
81.865194
 20
155.884480
 30
0.0
 10
81.870447
 20
155.890037
 30
0.0
 10
81.870589
 20
155.893099
 30
0.0
 10
81.874705
 20
155.897946
 30
0.0
  0
SPLINE
  5
2dc
100
AcDbEntity
  8
RelayWing
 62
7
100
AcDbSpline
 70
8
 71
3
 72
8
 73
4
 74
0
 40
0
 40
0
 40
0
 40
0
 40
1
 40
1
 40
1
 40
1
 10
81.874705
 20
155.897946
 30
0.0
 10
81.864038
 20
155.898758
 30
0.0
 10
81.850876
 20
155.901110
 30
0.0
 10
81.835492
 20
155.904679
 30
0.0
  0
SPLINE
  5
2dd
100
AcDbEntity
  8
RelayWing
 62
7
100
AcDbSpline
 70
8
 71
3
 72
8
 73
4
 74
0
 40
0
 40
0
 40
0
 40
0
 40
1
 40
1
 40
1
 40
1
 10
81.835492
 20
155.904679
 30
0.0
 10
81.833464
 20
155.904728
 30
0.0
 10
81.832348
 20
155.905693
 30
0.0
 10
81.830340
 20
155.905896
 30
0.0
  0
SPLINE
  5
2de
100
AcDbEntity
  8
RelayWing
 62
7
100
AcDbSpline
 70
8
 71
3
 72
8
 73
4
 74
0
 40
0
 40
0
 40
0
 40
0
 40
1
 40
1
 40
1
 40
1
 10
81.830340
 20
155.905896
 30
0.0
 10
81.800166
 20
155.907721
 30
0.0
 10
81.775367
 20
155.916503
 30
0.0
 10
81.757062
 20
155.923317
 30
0.0
  0
SPLINE
  5
2df
100
AcDbEntity
  8
RelayWing
 62
7
100
AcDbSpline
 70
8
 71
3
 72
8
 73
4
 74
0
 40
0
 40
0
 40
0
 40
0
 40
1
 40
1
 40
1
 40
1
 10
81.757062
 20
155.923317
 30
0.0
 10
81.738992
 20
155.930030
 30
0.0
 10
81.727305
 20
155.932930
 30
0.0
 10
81.719432
 20
155.933619
 30
0.0
  0
LINE
  5
2e0
100
AcDbEntity
  8
RelayWing
 62
7
100
AcDbLine
 10
81.719432
 20
155.933619
 30
0.0
 11
81.719410
 21
155.933528
 31
0.0
  0
SPLINE
  5
2e1
100
AcDbEntity
  8
RelayWing
 62
7
100
AcDbSpline
 70
8
 71
3
 72
8
 73
4
 74
0
 40
0
 40
0
 40
0
 40
0
 40
1
 40
1
 40
1
 40
1
 10
81.834674
 20
155.784992
 30
0.0
 10
81.833660
 20
155.784586
 30
0.0
 10
81.830679
 20
155.784383
 30
0.0
 10
81.829929
 20
155.783775
 30
0.0
  0
LINE
  5
2e2
100
AcDbEntity
  8
RelayWing
 62
7
100
AcDbLine
 10
81.829929
 20
155.783775
 30
0.0
 11
81.817254
 21
155.773087
 31
0.0
  0
SPLINE
  5
2e3
100
AcDbEntity
  8
RelayWing
 62
7
100
AcDbSpline
 70
8
 71
3
 72
8
 73
4
 74
0
 40
0
 40
0
 40
0
 40
0
 40
1
 40
1
 40
1
 40
1
 10
81.817254
 20
155.773087
 30
0.0
 10
81.822222
 20
155.777366
 30
0.0
 10
81.830537
 20
155.780064
 30
0.0
 10
81.834674
 20
155.784971
 30
0.0
  0
LINE
  5
2e4
100
AcDbEntity
  8
RelayWing
 62
7
100
AcDbLine
 10
81.834674
 20
155.784971
 30
0.0
 11
81.834674
 21
155.784992
 31
0.0
  0
SPLINE
  5
2e5
100
AcDbEntity
  8
RelayWing
 62
7
100
AcDbSpline
 70
8
 71
3
 72
8
 73
4
 74
0
 40
0
 40
0
 40
0
 40
0
 40
1
 40
1
 40
1
 40
1
 10
81.416395
 20
155.506139
 30
0.0
 10
81.417409
 20
155.505952
 30
0.0
 10
81.417815
 20
155.504719
 30
0.0
 10
81.418768
 20
155.504516
 30
0.0
  0
SPLINE
  5
2e6
100
AcDbEntity
  8
RelayWing
 62
7
100
AcDbSpline
 70
8
 71
3
 72
8
 73
4
 74
0
 40
0
 40
0
 40
0
 40
0
 40
1
 40
1
 40
1
 40
1
 10
81.418768
 20
155.504516
 30
0.0
 10
81.421060
 20
155.503502
 30
0.0
 10
81.423878
 20
155.503908
 30
0.0
 10
81.426292
 20
155.502894
 30
0.0
  0
LINE
  5
2e7
100
AcDbEntity
  8
RelayWing
 62
7
100
AcDbLine
 10
81.426292
 20
155.502894
 30
0.0
 11
81.416395
 21
155.506058
 31
0.0
  0
LINE
  5
2e8
100
AcDbEntity
  8
RelayWing
 62
7
100
AcDbLine
 10
81.416395
 20
155.506058
 30
0.0
 11
81.416395
 21
155.506139
 31
0.0
  0
SPLINE
  5
2e9
100
AcDbEntity
  8
RelayWing
 62
7
100
AcDbSpline
 70
8
 71
3
 72
8
 73
4
 74
0
 40
0
 40
0
 40
0
 40
0
 40
1
 40
1
 40
1
 40
1
 10
82.805510
 20
155.417413
 30
0.0
 10
82.804090
 20
155.416399
 30
0.0
 10
82.802367
 20
155.416399
 30
0.0
 10
82.801555
 20
155.415385
 30
0.0
  0
LINE
  5
2ea
100
AcDbEntity
  8
RelayWing
 62
7
100
AcDbLine
 10
82.801555
 20
155.415385
 30
0.0
 11
82.794437
 21
155.403501
 31
0.0
  0
SPLINE
  5
2eb
100
AcDbEntity
  8
RelayWing
 62
7
100
AcDbSpline
 70
8
 71
3
 72
8
 73
4
 74
0
 40
0
 40
0
 40
0
 40
0
 40
1
 40
1
 40
1
 40
1
 10
82.794437
 20
155.403501
 30
0.0
 10
82.797662
 20
155.408794
 30
0.0
 10
82.802569
 20
155.411714
 30
0.0
 10
82.805530
 20
155.417372
 30
0.0
  0
LINE
  5
2ec
100
AcDbEntity
  8
RelayWing
 62
7
100
AcDbLine
 10
82.805530
 20
155.417372
 30
0.0
 11
82.805510
 21
155.417413
 31
0.0
  0
LINE
  5
2ed
100
AcDbEntity
  8
RelayWing
 62
7
100
AcDbLine
 10
82.796790
 20
155.242338
 30
0.0
 11
82.796790
 21
155.239560
 31
0.0
  0
SPLINE
  5
2ee
100
AcDbEntity
  8
RelayWing
 62
7
100
AcDbSpline
 70
8
 71
3
 72
8
 73
4
 74
0
 40
0
 40
0
 40
0
 40
0
 40
1
 40
1
 40
1
 40
1
 10
82.796790
 20
155.239560
 30
0.0
 10
82.796816
 20
155.239965
 30
0.0
 10
82.797195
 20
155.240168
 30
0.0
 10
82.797195
 20
155.240776
 30
0.0
  0
SPLINE
  5
2ef
100
AcDbEntity
  8
RelayWing
 62
7
100
AcDbSpline
 70
8
 71
3
 72
8
 73
4
 74
0
 40
0
 40
0
 40
0
 40
0
 40
1
 40
1
 40
1
 40
1
 10
82.797195
 20
155.240776
 30
0.0
 10
82.797252
 20
155.241182
 30
0.0
 10
82.796790
 20
155.241790
 30
0.0
 10
82.796790
 20
155.242399
 30
0.0
  0
LINE
  5
2f0
100
AcDbEntity
  8
RelayWing
 62
7
100
AcDbLine
 10
82.796790
 20
155.242399
 30
0.0
 11
82.796790
 21
155.242338
 31
0.0
  0
SPLINE
  5
2f1
100
AcDbEntity
  8
RelayWing
 62
7
100
AcDbSpline
 70
8
 71
3
 72
8
 73
4
 74
0
 40
0
 40
0
 40
0
 40
0
 40
1
 40
1
 40
1
 40
1
 10
78.917409
 20
155.215404
 30
0.0
 10
78.898630
 20
155.215404
 30
0.0
 10
78.874845
 20
155.212078
 30
0.0
 10
78.857994
 20
155.207474
 30
0.0
  0
SPLINE
  5
2f2
100
AcDbEntity
  8
RelayWing
 62
7
100
AcDbSpline
 70
8
 71
3
 72
8
 73
4
 74
0
 40
0
 40
0
 40
0
 40
0
 40
1
 40
1
 40
1
 40
1
 10
78.857994
 20
155.207474
 30
0.0
 10
78.896068
 20
155.168327
 30
0.0
 10
78.950981
 20
155.138422
 30
0.0
 10
79.018413
 20
155.101320
 30
0.0
  0
SPLINE
  5
2f3
100
AcDbEntity
  8
RelayWing
 62
7
100
AcDbSpline
 70
8
 71
3
 72
8
 73
4
 74
0
 40
0
 40
0
 40
0
 40
0
 40
1
 40
1
 40
1
 40
1
 10
79.018413
 20
155.101320
 30
0.0
 10
79.112805
 20
155.062116
 30
0.0
 10
79.204922
 20
155.020292
 30
0.0
 10
79.296870
 20
154.985262
 30
0.0
  0
SPLINE
  5
2f4
100
AcDbEntity
  8
RelayWing
 62
7
100
AcDbSpline
 70
8
 71
3
 72
8
 73
4
 74
0
 40
0
 40
0
 40
0
 40
0
 40
1
 40
1
 40
1
 40
1
 10
79.296870
 20
154.985262
 30
0.0
 10
79.424879
 20
154.954596
 30
0.0
 10
79.557935
 20
154.944107
 30
0.0
 10
79.685838
 20
154.957535
 30
0.0
  0
SPLINE
  5
2f5
100
AcDbEntity
  8
RelayWing
 62
7
100
AcDbSpline
 70
8
 71
3
 72
8
 73
4
 74
0
 40
0
 40
0
 40
0
 40
0
 40
1
 40
1
 40
1
 40
1
 10
79.685838
 20
154.957535
 30
0.0
 10
79.695025
 20
154.966742
 30
0.0
 10
79.702894
 20
154.992954
 30
0.0
 10
79.710000
 20
155.022099
 30
0.0
  0
SPLINE
  5
2f6
100
AcDbEntity
  8
RelayWing
 62
7
100
AcDbSpline
 70
8
 71
3
 72
8
 73
4
 74
0
 40
0
 40
0
 40
0
 40
0
 40
1
 40
1
 40
1
 40
1
 10
79.710000
 20
155.022099
 30
0.0
 10
79.696899
 20
155.045802
 30
0.0
 10
79.661488
 20
155.071289
 30
0.0
 10
79.615730
 20
155.102508
 30
0.0
  0
SPLINE
  5
2f7
100
AcDbEntity
  8
RelayWing
 62
7
100
AcDbSpline
 70
8
 71
3
 72
8
 73
4
 74
0
 40
0
 40
0
 40
0
 40
0
 40
1
 40
1
 40
1
 40
1
 10
79.615730
 20
155.102508
 30
0.0
 10
79.423861
 20
155.186561
 30
0.0
 10
79.198329
 20
155.186770
 30
0.0
 10
78.972071
 20
155.214603
 30
0.0
  0
SPLINE
  5
2f8
100
AcDbEntity
  8
RelayWing
 62
7
100
AcDbSpline
 70
8
 71
3
 72
8
 73
4
 74
0
 40
0
 40
0
 40
0
 40
0
 40
1
 40
1
 40
1
 40
1
 10
78.972071
 20
155.214603
 30
0.0
 10
78.971665
 20
155.214631
 30
0.0
 10
78.971057
 20
155.214578
 30
0.0
 10
78.970448
 20
155.214603
 30
0.0
  0
SPLINE
  5
2f9
100
AcDbEntity
  8
RelayWing
 62
7
100
AcDbSpline
 70
8
 71
3
 72
8
 73
4
 74
0
 40
0
 40
0
 40
0
 40
0
 40
1
 40
1
 40
1
 40
1
 10
78.970448
 20
155.214603
 30
0.0
 10
78.952804
 20
155.215617
 30
0.0
 10
78.935781
 20
155.215820
 30
0.0
 10
78.919350
 20
155.215414
 30
0.0
  0
LINE
  5
2fa
100
AcDbEntity
  8
RelayWing
 62
7
100
AcDbLine
 10
78.919350
 20
155.215414
 30
0.0
 11
78.918539
 21
155.215414
 31
0.0
  0
LINE
  5
2fb
100
AcDbEntity
  8
RelayWing
 62
7
100
AcDbLine
 10
78.918539
 20
155.215414
 30
0.0
 11
78.917322
 21
155.215414
 31
0.0
  0
LINE
  5
2fc
100
AcDbEntity
  8
RelayWing
 62
7
100
AcDbLine
 10
78.917322
 20
155.215414
 30
0.0
 11
78.917409
 21
155.215404
 31
0.0
  0
LINE
  5
2fd
100
AcDbEntity
  8
RelayWing
 62
7
100
AcDbLine
 10
78.839377
 20
155.201147
 30
0.0
 11
78.838160
 21
155.200741
 31
0.0
  0
SPLINE
  5
2fe
100
AcDbEntity
  8
RelayWing
 62
7
100
AcDbSpline
 70
8
 71
3
 72
8
 73
4
 74
0
 40
0
 40
0
 40
0
 40
0
 40
1
 40
1
 40
1
 40
1
 10
78.838160
 20
155.200741
 30
0.0
 10
78.838566
 20
155.201147
 30
0.0
 10
78.838769
 20
155.205487
 30
0.0
 10
78.839377
 20
155.200741
 30
0.0
  0
LINE
  5
2ff
100
AcDbEntity
  8
RelayWing
 62
7
100
AcDbLine
 10
78.839377
 20
155.200741
 30
0.0
 11
78.839377
 21
155.201147
 31
0.0
  0
LINE
  5
300
100
AcDbEntity
  8
RelayWing
 62
7
100
AcDbLine
 10
78.839377
 20
155.201147
 30
0.0
 11
78.839377
 21
155.201147
 31
0.0
  0
SPLINE
  5
301
100
AcDbEntity
  8
RelayWing
 62
7
100
AcDbSpline
 70
8
 71
3
 72
8
 73
4
 74
0
 40
0
 40
0
 40
0
 40
0
 40
1
 40
1
 40
1
 40
1
 10
83.851202
 20
155.085884
 30
0.0
 10
83.738785
 20
155.077143
 30
0.0
 10
83.628471
 20
155.063227
 30
0.0
 10
83.527195
 20
155.031618
 30
0.0
  0
LINE
  5
302
100
AcDbEntity
  8
RelayWing
 62
7
100
AcDbLine
 10
83.527195
 20
155.031618
 30
0.0
 11
83.523626
 21
155.030807
 31
0.0
  0
LINE
  5
303
100
AcDbEntity
  8
RelayWing
 62
7
100
AcDbLine
 10
83.523626
 20
155.030807
 30
0.0
 11
83.520462
 21
155.030402
 31
0.0
  0
SPLINE
  5
304
100
AcDbEntity
  8
RelayWing
 62
7
100
AcDbSpline
 70
8
 71
3
 72
8
 73
4
 74
0
 40
0
 40
0
 40
0
 40
0
 40
1
 40
1
 40
1
 40
1
 10
83.520462
 20
155.030402
 30
0.0
 10
83.378174
 20
155.003500
 30
0.0
 10
83.233834
 20
155.005915
 30
0.0
 10
83.091489
 20
155.013366
 30
0.0
  0
SPLINE
  5
305
100
AcDbEntity
  8
RelayWing
 62
7
100
AcDbSpline
 70
8
 71
3
 72
8
 73
4
 74
0
 40
0
 40
0
 40
0
 40
0
 40
1
 40
1
 40
1
 40
1
 10
83.091489
 20
155.013366
 30
0.0
 10
83.099216
 20
155.010304
 30
0.0
 10
83.103840
 20
155.010811
 30
0.0
 10
83.111688
 20
155.007039
 30
0.0
  0
LINE
  5
306
100
AcDbEntity
  8
RelayWing
 62
7
100
AcDbLine
 10
83.111688
 20
155.007039
 30
0.0
 11
83.109316
 21
155.008661
 31
0.0
  0
SPLINE
  5
307
100
AcDbEntity
  8
RelayWing
 62
7
100
AcDbSpline
 70
8
 71
3
 72
8
 73
4
 74
0
 40
0
 40
0
 40
0
 40
0
 40
1
 40
1
 40
1
 40
1
 10
83.109316
 20
155.008661
 30
0.0
 10
83.223039
 20
154.961297
 30
0.0
 10
83.338346
 20
154.924924
 30
0.0
 10
83.456693
 20
154.918349
 30
0.0
  0
LINE
  5
308
100
AcDbEntity
  8
RelayWing
 62
7
100
AcDbLine
 10
83.456693
 20
154.918349
 30
0.0
 11
83.457910
 21
154.918349
 31
0.0
  0
LINE
  5
309
100
AcDbEntity
  8
RelayWing
 62
7
100
AcDbLine
 10
83.457910
 20
154.918349
 30
0.0
 11
83.458316
 21
154.918349
 31
0.0
  0
SPLINE
  5
30a
100
AcDbEntity
  8
RelayWing
 62
7
100
AcDbSpline
 70
8
 71
3
 72
8
 73
4
 74
0
 40
0
 40
0
 40
0
 40
0
 40
1
 40
1
 40
1
 40
1
 10
83.458316
 20
154.918349
 30
0.0
 10
83.595217
 20
154.907114
 30
0.0
 10
83.731987
 20
154.907905
 30
0.0
 10
83.862336
 20
154.925873
 30
0.0
  0
SPLINE
  5
30b
100
AcDbEntity
  8
RelayWing
 62
7
100
AcDbSpline
 70
8
 71
3
 72
8
 73
4
 74
0
 40
0
 40
0
 40
0
 40
0
 40
1
 40
1
 40
1
 40
1
 10
83.862336
 20
154.925873
 30
0.0
 10
83.863147
 20
154.966947
 30
0.0
 10
83.859659
 20
155.011010
 30
0.0
 10
83.858767
 20
155.067677
 30
0.0
  0
LINE
  5
30c
100
AcDbEntity
  8
RelayWing
 62
7
100
AcDbLine
 10
83.858767
 20
155.067677
 30
0.0
 11
83.858767
 21
155.070455
 31
0.0
  0
LINE
  5
30d
100
AcDbEntity
  8
RelayWing
 62
7
100
AcDbLine
 10
83.858767
 20
155.070455
 30
0.0
 11
83.859578
 21
155.073233
 31
0.0
  0
SPLINE
  5
30e
100
AcDbEntity
  8
RelayWing
 62
7
100
AcDbSpline
 70
8
 71
3
 72
8
 73
4
 74
0
 40
0
 40
0
 40
0
 40
0
 40
1
 40
1
 40
1
 40
1
 10
83.859578
 20
155.073233
 30
0.0
 10
83.859983
 20
155.078283
 30
0.0
 10
83.858969
 20
155.082238
 30
0.0
 10
83.857955
 20
155.085909
 30
0.0
  0
LINE
  5
30f
100
AcDbEntity
  8
RelayWing
 62
7
100
AcDbLine
 10
83.857955
 20
155.085909
 30
0.0
 11
83.851222
 21
155.085909
 31
0.0
  0
LINE
  5
310
100
AcDbEntity
  8
RelayWing
 62
7
100
AcDbLine
 10
83.851222
 20
155.085909
 30
0.0
 11
83.851202
 21
155.085884
 31
0.0
  0
LINE
  5
311
100
AcDbEntity
  8
RelayWing
 62
7
100
AcDbLine
 10
85.453022
 20
154.778511
 30
0.0
 11
85.457768
 21
154.776483
 31
0.0
  0
SPLINE
  5
312
100
AcDbEntity
  8
RelayWing
 62
7
100
AcDbSpline
 70
8
 71
3
 72
8
 73
4
 74
0
 40
0
 40
0
 40
0
 40
0
 40
1
 40
1
 40
1
 40
1
 10
85.457768
 20
154.776483
 30
0.0
 10
85.456956
 20
154.777092
 30
0.0
 10
85.456348
 20
154.777903
 30
0.0
 10
85.455395
 20
154.778511
 30
0.0
  0
SPLINE
  5
313
100
AcDbEntity
  8
RelayWing
 62
7
100
AcDbSpline
 70
8
 71
3
 72
8
 73
4
 74
0
 40
0
 40
0
 40
0
 40
0
 40
1
 40
1
 40
1
 40
1
 10
85.455395
 20
154.778511
 30
0.0
 10
85.454584
 20
154.778714
 30
0.0
 10
85.453772
 20
154.778309
 30
0.0
 10
85.453022
 20
154.778511
 30
0.0
  0
LINE
  5
314
100
AcDbEntity
  8
RelayWing
 62
7
100
AcDbLine
 10
85.453022
 20
154.778511
 30
0.0
 11
85.453022
 21
154.778511
 31
0.0
  0
SPLINE
  5
315
100
AcDbEntity
  8
RelayWing
 62
7
100
AcDbSpline
 70
8
 71
3
 72
8
 73
4
 74
0
 40
0
 40
0
 40
0
 40
0
 40
1
 40
1
 40
1
 40
1
 10
120.959368
 20
162.128250
 30
0.0
 10
120.518633
 20
162.128250
 30
0.0
 10
120.159420
 20
161.768346
 30
0.0
 10
120.159420
 20
161.327610
 30
0.0
  0
LINE
  5
316
100
AcDbEntity
  8
RelayWing
 62
7
100
AcDbLine
 10
120.159420
 20
161.327610
 30
0.0
 11
120.159420
 21
151.474636
 31
0.0
  0
SPLINE
  5
317
100
AcDbEntity
  8
RelayWing
 62
7
100
AcDbSpline
 70
8
 71
3
 72
8
 73
4
 74
0
 40
0
 40
0
 40
0
 40
0
 40
1
 40
1
 40
1
 40
1
 10
120.159420
 20
151.474636
 30
0.0
 10
120.159420
 20
151.033900
 30
0.0
 10
120.518633
 20
150.674688
 30
0.0
 10
120.959368
 20
150.674688
 30
0.0
  0
LINE
  5
318
100
AcDbEntity
  8
RelayWing
 62
7
100
AcDbLine
 10
120.959368
 20
150.674688
 30
0.0
 11
127.771013
 21
150.674688
 31
0.0
  0
SPLINE
  5
319
100
AcDbEntity
  8
RelayWing
 62
7
100
AcDbSpline
 70
8
 71
3
 72
8
 73
4
 74
0
 40
0
 40
0
 40
0
 40
0
 40
1
 40
1
 40
1
 40
1
 10
127.771013
 20
150.674688
 30
0.0
 10
128.211749
 20
150.674688
 30
0.0
 10
128.571653
 20
151.033900
 30
0.0
 10
128.571653
 20
151.474636
 30
0.0
  0
LINE
  5
31a
100
AcDbEntity
  8
RelayWing
 62
7
100
AcDbLine
 10
128.571653
 20
151.474636
 30
0.0
 11
128.571653
 21
161.327610
 31
0.0
  0
SPLINE
  5
31b
100
AcDbEntity
  8
RelayWing
 62
7
100
AcDbSpline
 70
8
 71
3
 72
8
 73
4
 74
0
 40
0
 40
0
 40
0
 40
0
 40
1
 40
1
 40
1
 40
1
 10
128.571653
 20
161.327610
 30
0.0
 10
128.571653
 20
161.768346
 30
0.0
 10
128.211749
 20
162.128250
 30
0.0
 10
127.771013
 20
162.128250
 30
0.0
  0
LINE
  5
31c
100
AcDbEntity
  8
RelayWing
 62
7
100
AcDbLine
 10
127.771013
 20
162.128250
 30
0.0
 11
120.959368
 21
162.128250
 31
0.0
  0
LINE
  5
31d
100
AcDbEntity
  8
RelayWing
 62
7
100
AcDbLine
 10
120.959368
 20
162.128250
 30
0.0
 11
120.959368
 21
162.128250
 31
0.0
  0
LINE
  5
31e
100
AcDbEntity
  8
RelayWing
 62
7
100
AcDbLine
 10
120.959368
 20
161.833349
 30
0.0
 11
127.771013
 21
161.833349
 31
0.0
  0
SPLINE
  5
31f
100
AcDbEntity
  8
RelayWing
 62
7
100
AcDbSpline
 70
8
 71
3
 72
8
 73
4
 74
0
 40
0
 40
0
 40
0
 40
0
 40
1
 40
1
 40
1
 40
1
 10
127.771013
 20
161.833349
 30
0.0
 10
128.053726
 20
161.833349
 30
0.0
 10
128.276752
 20
161.610323
 30
0.0
 10
128.276752
 20
161.327610
 30
0.0
  0
LINE
  5
320
100
AcDbEntity
  8
RelayWing
 62
7
100
AcDbLine
 10
128.276752
 20
161.327610
 30
0.0
 11
128.276752
 21
151.474636
 31
0.0
  0
SPLINE
  5
321
100
AcDbEntity
  8
RelayWing
 62
7
100
AcDbSpline
 70
8
 71
3
 72
8
 73
4
 74
0
 40
0
 40
0
 40
0
 40
0
 40
1
 40
1
 40
1
 40
1
 10
128.276752
 20
151.474636
 30
0.0
 10
128.276752
 20
151.191924
 30
0.0
 10
128.053726
 20
150.968898
 30
0.0
 10
127.771013
 20
150.968898
 30
0.0
  0
LINE
  5
322
100
AcDbEntity
  8
RelayWing
 62
7
100
AcDbLine
 10
127.771013
 20
150.968898
 30
0.0
 11
120.959368
 21
150.968898
 31
0.0
  0
SPLINE
  5
323
100
AcDbEntity
  8
RelayWing
 62
7
100
AcDbSpline
 70
8
 71
3
 72
8
 73
4
 74
0
 40
0
 40
0
 40
0
 40
0
 40
1
 40
1
 40
1
 40
1
 10
120.959368
 20
150.968898
 30
0.0
 10
120.676656
 20
150.968898
 30
0.0
 10
120.453630
 20
151.191924
 30
0.0
 10
120.453630
 20
151.474636
 30
0.0
  0
LINE
  5
324
100
AcDbEntity
  8
RelayWing
 62
7
100
AcDbLine
 10
120.453630
 20
151.474636
 30
0.0
 11
120.453630
 21
161.327610
 31
0.0
  0
SPLINE
  5
325
100
AcDbEntity
  8
RelayWing
 62
7
100
AcDbSpline
 70
8
 71
3
 72
8
 73
4
 74
0
 40
0
 40
0
 40
0
 40
0
 40
1
 40
1
 40
1
 40
1
 10
120.453630
 20
161.327610
 30
0.0
 10
120.453630
 20
161.610323
 30
0.0
 10
120.676656
 20
161.833349
 30
0.0
 10
120.959368
 20
161.833349
 30
0.0
  0
LINE
  5
326
100
AcDbEntity
  8
RelayWing
 62
7
100
AcDbLine
 10
120.959368
 20
161.833349
 30
0.0
 11
120.959368
 21
161.833349
 31
0.0
  0
SPLINE
  5
327
100
AcDbEntity
  8
RelayWing
 62
7
100
AcDbSpline
 70
8
 71
3
 72
8
 73
4
 74
0
 40
0
 40
0
 40
0
 40
0
 40
1
 40
1
 40
1
 40
1
 10
89.483604
 20
127.998139
 30
0.0
 10
88.875334
 20
127.998139
 30
0.0
 10
88.379579
 20
127.502568
 30
0.0
 10
88.379579
 20
126.894291
 30
0.0
  0
LINE
  5
328
100
AcDbEntity
  8
RelayWing
 62
7
100
AcDbLine
 10
88.379579
 20
126.894291
 30
0.0
 11
88.379579
 21
122.918256
 31
0.0
  0
LINE
  5
329
100
AcDbEntity
  8
RelayWing
 62
7
100
AcDbLine
 10
88.379579
 20
122.918256
 30
0.0
 11
86.754208
 21
122.918256
 31
0.0
  0
SPLINE
  5
32a
100
AcDbEntity
  8
RelayWing
 62
7
100
AcDbSpline
 70
8
 71
3
 72
8
 73
4
 74
0
 40
0
 40
0
 40
0
 40
0
 40
1
 40
1
 40
1
 40
1
 10
86.754208
 20
122.918256
 30
0.0
 10
86.701630
 20
123.478097
 30
0.0
 10
86.228837
 20
123.918346
 30
0.0
 10
85.655570
 20
123.918346
 30
0.0
  0
LINE
  5
32b
100
AcDbEntity
  8
RelayWing
 62
7
100
AcDbLine
 10
85.655570
 20
123.918346
 30
0.0
 11
78.876320
 21
123.918346
 31
0.0
  0
SPLINE
  5
32c
100
AcDbEntity
  8
RelayWing
 62
7
100
AcDbSpline
 70
8
 71
3
 72
8
 73
4
 74
0
 40
0
 40
0
 40
0
 40
0
 40
1
 40
1
 40
1
 40
1
 10
78.876320
 20
123.918346
 30
0.0
 10
78.268047
 20
123.918346
 30
0.0
 10
77.772292
 20
123.422781
 30
0.0
 10
77.772292
 20
122.814500
 30
0.0
  0
LINE
  5
32d
100
AcDbEntity
  8
RelayWing
 62
7
100
AcDbLine
 10
77.772292
 20
122.814500
 30
0.0
 11
77.772292
 21
118.735278
 31
0.0
  0
LINE
  5
32e
100
AcDbEntity
  8
RelayWing
 62
7
100
AcDbLine
 10
77.772292
 20
118.735278
 30
0.0
 11
74.822195
 21
118.735278
 31
0.0
  0
LINE
  5
32f
100
AcDbEntity
  8
RelayWing
 62
7
100
AcDbLine
 10
74.822195
 20
118.735278
 30
0.0
 11
74.822195
 21
118.335351
 31
0.0
  0
LINE
  5
330
100
AcDbEntity
  8
RelayWing
 62
7
100
AcDbLine
 10
74.822195
 20
118.335351
 30
0.0
 11
77.772659
 21
118.335351
 31
0.0
  0
SPLINE
  5
331
100
AcDbEntity
  8
RelayWing
 62
7
100
AcDbSpline
 70
8
 71
3
 72
8
 73
4
 74
0
 40
0
 40
0
 40
0
 40
0
 40
1
 40
1
 40
1
 40
1
 10
77.772659
 20
118.335351
 30
0.0
 10
77.776786
 20
117.730602
 30
0.0
 10
78.270615
 20
117.239130
 30
0.0
 10
78.876320
 20
117.239130
 30
0.0
  0
LINE
  5
332
100
AcDbEntity
  8
RelayWing
 62
7
100
AcDbLine
 10
78.876320
 20
117.239130
 30
0.0
 11
85.655570
 21
117.239130
 31
0.0
  0
SPLINE
  5
333
100
AcDbEntity
  8
RelayWing
 62
7
100
AcDbSpline
 70
8
 71
3
 72
8
 73
4
 74
0
 40
0
 40
0
 40
0
 40
0
 40
1
 40
1
 40
1
 40
1
 10
85.655570
 20
117.239130
 30
0.0
 10
86.263843
 20
117.239130
 30
0.0
 10
86.759602
 20
117.734698
 30
0.0
 10
86.759602
 20
118.342975
 30
0.0
  0
LINE
  5
334
100
AcDbEntity
  8
RelayWing
 62
7
100
AcDbLine
 10
86.759602
 20
118.342975
 30
0.0
 11
86.759602
 21
118.432591
 31
0.0
  0
LINE
  5
335
100
AcDbEntity
  8
RelayWing
 62
7
100
AcDbLine
 10
86.759602
 20
118.432591
 30
0.0
 11
100.202827
 21
118.432591
 31
0.0
  0
LINE
  5
336
100
AcDbEntity
  8
RelayWing
 62
7
100
AcDbLine
 10
100.202827
 20
118.432591
 30
0.0
 11
100.202827
 21
118.832338
 31
0.0
  0
LINE
  5
337
100
AcDbEntity
  8
RelayWing
 62
7
100
AcDbLine
 10
100.202827
 20
118.832338
 30
0.0
 11
86.759602
 21
118.832338
 31
0.0
  0
LINE
  5
338
100
AcDbEntity
  8
RelayWing
 62
7
100
AcDbLine
 10
86.759602
 20
118.832338
 30
0.0
 11
86.759602
 21
122.518513
 31
0.0
  0
LINE
  5
339
100
AcDbEntity
  8
RelayWing
 62
7
100
AcDbLine
 10
86.759602
 20
122.518513
 30
0.0
 11
88.379579
 21
122.518513
 31
0.0
  0
LINE
  5
33a
100
AcDbEntity
  8
RelayWing
 62
7
100
AcDbLine
 10
88.379579
 20
122.518513
 30
0.0
 11
88.379579
 21
122.422755
 31
0.0
  0
SPLINE
  5
33b
100
AcDbEntity
  8
RelayWing
 62
7
100
AcDbSpline
 70
8
 71
3
 72
8
 73
4
 74
0
 40
0
 40
0
 40
0
 40
0
 40
1
 40
1
 40
1
 40
1
 10
88.379579
 20
122.422755
 30
0.0
 10
88.379579
 20
121.814481
 30
0.0
 10
88.875334
 20
121.318910
 30
0.0
 10
89.483604
 20
121.318910
 30
0.0
  0
LINE
  5
33c
100
AcDbEntity
  8
RelayWing
 62
7
100
AcDbLine
 10
89.483604
 20
121.318910
 30
0.0
 11
96.262860
 21
121.318910
 31
0.0
  0
SPLINE
  5
33d
100
AcDbEntity
  8
RelayWing
 62
7
100
AcDbSpline
 70
8
 71
3
 72
8
 73
4
 74
0
 40
0
 40
0
 40
0
 40
0
 40
1
 40
1
 40
1
 40
1
 10
96.262860
 20
121.318910
 30
0.0
 10
96.871134
 20
121.318910
 30
0.0
 10
97.366892
 20
121.814481
 30
0.0
 10
97.366892
 20
122.422755
 30
0.0
  0
LINE
  5
33e
100
AcDbEntity
  8
RelayWing
 62
7
100
AcDbLine
 10
97.366892
 20
122.422755
 30
0.0
 11
97.366892
 21
122.539150
 31
0.0
  0
LINE
  5
33f
100
AcDbEntity
  8
RelayWing
 62
7
100
AcDbLine
 10
97.366892
 20
122.539150
 30
0.0
 11
100.342831
 21
122.539150
 31
0.0
  0
LINE
  5
340
100
AcDbEntity
  8
RelayWing
 62
7
100
AcDbLine
 10
100.342831
 20
122.539150
 30
0.0
 11
100.342831
 21
122.938883
 31
0.0
  0
LINE
  5
341
100
AcDbEntity
  8
RelayWing
 62
7
100
AcDbLine
 10
100.342831
 20
122.938883
 30
0.0
 11
97.366892
 21
122.938883
 31
0.0
  0
LINE
  5
342
100
AcDbEntity
  8
RelayWing
 62
7
100
AcDbLine
 10
97.366892
 20
122.938883
 30
0.0
 11
97.366892
 21
126.598293
 31
0.0
  0
LINE
  5
343
100
AcDbEntity
  8
RelayWing
 62
7
100
AcDbLine
 10
97.366892
 20
126.598293
 30
0.0
 11
100.274406
 21
126.598293
 31
0.0
  0
LINE
  5
344
100
AcDbEntity
  8
RelayWing
 62
7
100
AcDbLine
 10
100.274406
 20
126.598293
 30
0.0
 11
100.274406
 21
126.998036
 31
0.0
  0
LINE
  5
345
100
AcDbEntity
  8
RelayWing
 62
7
100
AcDbLine
 10
100.274406
 20
126.998036
 30
0.0
 11
97.361685
 21
126.998036
 31
0.0
  0
SPLINE
  5
346
100
AcDbEntity
  8
RelayWing
 62
7
100
AcDbSpline
 70
8
 71
3
 72
8
 73
4
 74
0
 40
0
 40
0
 40
0
 40
0
 40
1
 40
1
 40
1
 40
1
 10
97.361685
 20
126.998036
 30
0.0
 10
97.309107
 20
127.557883
 30
0.0
 10
96.836131
 20
127.998139
 30
0.0
 10
96.262860
 20
127.998139
 30
0.0
  0
LINE
  5
347
100
AcDbEntity
  8
RelayWing
 62
7
100
AcDbLine
 10
96.262860
 20
127.998139
 30
0.0
 11
89.483604
 21
127.998139
 31
0.0
  0
LINE
  5
348
100
AcDbEntity
  8
RelayWing
 62
7
100
AcDbLine
 10
89.483604
 20
127.998139
 30
0.0
 11
89.483604
 21
127.998139
 31
0.0
  0
LINE
  5
349
100
AcDbEntity
  8
RelayWing
 62
7
100
AcDbLine
 10
89.483604
 20
127.617358
 30
0.0
 11
96.262860
 21
127.617358
 31
0.0
  0
SPLINE
  5
34a
100
AcDbEntity
  8
RelayWing
 62
7
100
AcDbSpline
 70
8
 71
3
 72
8
 73
4
 74
0
 40
0
 40
0
 40
0
 40
0
 40
1
 40
1
 40
1
 40
1
 10
96.262860
 20
127.617358
 30
0.0
 10
96.631372
 20
127.617358
 30
0.0
 10
96.928682
 20
127.351346
 30
0.0
 10
96.978117
 20
126.998036
 30
0.0
  0
LINE
  5
34b
100
AcDbEntity
  8
RelayWing
 62
7
100
AcDbLine
 10
96.978117
 20
126.998036
 30
0.0
 11
95.269639
 21
126.998036
 31
0.0
  0
SPLINE
  5
34c
100
AcDbEntity
  8
RelayWing
 62
7
100
AcDbSpline
 70
8
 71
3
 72
8
 73
4
 74
0
 40
0
 40
0
 40
0
 40
0
 40
1
 40
1
 40
1
 40
1
 10
95.269639
 20
126.998036
 30
0.0
 10
95.199409
 20
127.068353
 30
0.0
 10
95.104078
 20
127.107825
 30
0.0
 10
95.004696
 20
127.107735
 30
0.0
  0
SPLINE
  5
34d
100
AcDbEntity
  8
RelayWing
 62
7
100
AcDbSpline
 70
8
 71
3
 72
8
 73
4
 74
0
 40
0
 40
0
 40
0
 40
0
 40
1
 40
1
 40
1
 40
1
 10
95.004696
 20
127.107735
 30
0.0
 10
94.802576
 20
127.107165
 30
0.0
 10
94.637483
 20
126.946104
 30
0.0
 10
94.631916
 20
126.744060
 30
0.0
  0
LINE
  5
34e
100
AcDbEntity
  8
RelayWing
 62
7
100
AcDbLine
 10
94.631916
 20
126.744060
 30
0.0
 11
90.061838
 21
122.993179
 31
0.0
  0
SPLINE
  5
34f
100
AcDbEntity
  8
RelayWing
 62
7
100
AcDbSpline
 70
8
 71
3
 72
8
 73
4
 74
0
 40
0
 40
0
 40
0
 40
0
 40
1
 40
1
 40
1
 40
1
 10
90.061838
 20
122.993179
 30
0.0
 10
90.012673
 20
123.016022
 30
0.0
 10
89.959129
 20
123.027903
 30
0.0
 10
89.904916
 20
123.027998
 30
0.0
  0
SPLINE
  5
350
100
AcDbEntity
  8
RelayWing
 62
7
100
AcDbSpline
 70
8
 71
3
 72
8
 73
4
 74
0
 40
0
 40
0
 40
0
 40
0
 40
1
 40
1
 40
1
 40
1
 10
89.904916
 20
123.027998
 30
0.0
 10
89.805988
 20
123.027741
 30
0.0
 10
89.711191
 20
122.988297
 30
0.0
 10
89.641281
 20
122.918302
 30
0.0
  0
LINE
  5
351
100
AcDbEntity
  8
RelayWing
 62
7
100
AcDbLine
 10
89.641281
 20
122.918302
 30
0.0
 11
88.760360
 21
122.918302
 31
0.0
  0
LINE
  5
352
100
AcDbEntity
  8
RelayWing
 62
7
100
AcDbLine
 10
88.760360
 20
122.918302
 30
0.0
 11
88.760360
 21
126.894330
 31
0.0
  0
SPLINE
  5
353
100
AcDbEntity
  8
RelayWing
 62
7
100
AcDbSpline
 70
8
 71
3
 72
8
 73
4
 74
0
 40
0
 40
0
 40
0
 40
0
 40
1
 40
1
 40
1
 40
1
 10
88.760360
 20
126.894330
 30
0.0
 10
88.760360
 20
127.298249
 30
0.0
 10
89.079694
 20
127.617408
 30
0.0
 10
89.483604
 20
127.617408
 30
0.0
  0
LINE
  5
354
100
AcDbEntity
  8
RelayWing
 62
7
100
AcDbLine
 10
89.483604
 20
127.617408
 30
0.0
 11
89.483604
 21
127.617358
 31
0.0
  0
LINE
  5
355
100
AcDbEntity
  8
RelayWing
 62
7
100
AcDbLine
 10
95.353494
 20
126.598293
 30
0.0
 11
96.986115
 21
126.598293
 31
0.0
  0
LINE
  5
356
100
AcDbEntity
  8
RelayWing
 62
7
100
AcDbLine
 10
96.986115
 20
126.598293
 30
0.0
 11
96.986115
 21
122.938883
 31
0.0
  0
LINE
  5
357
100
AcDbEntity
  8
RelayWing
 62
7
100
AcDbLine
 10
96.986115
 20
122.938883
 30
0.0
 11
95.247326
 21
122.938883
 31
0.0
  0
SPLINE
  5
358
100
AcDbEntity
  8
RelayWing
 62
7
100
AcDbSpline
 70
8
 71
3
 72
8
 73
4
 74
0
 40
0
 40
0
 40
0
 40
0
 40
1
 40
1
 40
1
 40
1
 10
95.247326
 20
122.938883
 30
0.0
 10
95.179605
 20
122.996463
 30
0.0
 10
95.093588
 20
123.028039
 30
0.0
 10
95.004696
 20
123.027949
 30
0.0
  0
SPLINE
  5
359
100
AcDbEntity
  8
RelayWing
 62
7
100
AcDbSpline
 70
8
 71
3
 72
8
 73
4
 74
0
 40
0
 40
0
 40
0
 40
0
 40
1
 40
1
 40
1
 40
1
 10
95.004696
 20
123.027949
 30
0.0
 10
94.798217
 20
123.027595
 30
0.0
 10
94.631094
 20
122.859972
 30
0.0
 10
94.631358
 20
122.653493
 30
0.0
  0
SPLINE
  5
35a
100
AcDbEntity
  8
RelayWing
 62
7
100
AcDbSpline
 70
8
 71
3
 72
8
 73
4
 74
0
 40
0
 40
0
 40
0
 40
0
 40
1
 40
1
 40
1
 40
1
 10
94.631358
 20
122.653493
 30
0.0
 10
94.631608
 20
122.447085
 30
0.0
 10
94.799036
 20
122.279908
 30
0.0
 10
95.005444
 20
122.279968
 30
0.0
  0
SPLINE
  5
35b
100
AcDbEntity
  8
RelayWing
 62
7
100
AcDbSpline
 70
8
 71
3
 72
8
 73
4
 74
0
 40
0
 40
0
 40
0
 40
0
 40
1
 40
1
 40
1
 40
1
 10
95.005444
 20
122.279968
 30
0.0
 10
95.167666
 20
122.280078
 30
0.0
 10
95.311319
 20
122.384760
 30
0.0
 10
95.361114
 20
122.539150
 30
0.0
  0
LINE
  5
35c
100
AcDbEntity
  8
RelayWing
 62
7
100
AcDbLine
 10
95.361114
 20
122.539150
 30
0.0
 11
96.986115
 21
122.539150
 31
0.0
  0
LINE
  5
35d
100
AcDbEntity
  8
RelayWing
 62
7
100
AcDbLine
 10
96.986115
 20
122.539150
 30
0.0
 11
96.986115
 21
122.422755
 31
0.0
  0
SPLINE
  5
35e
100
AcDbEntity
  8
RelayWing
 62
7
100
AcDbSpline
 70
8
 71
3
 72
8
 73
4
 74
0
 40
0
 40
0
 40
0
 40
0
 40
1
 40
1
 40
1
 40
1
 10
96.986115
 20
122.422755
 30
0.0
 10
96.986115
 20
122.018849
 30
0.0
 10
96.666773
 20
121.699691
 30
0.0
 10
96.262860
 20
121.699691
 30
0.0
  0
LINE
  5
35f
100
AcDbEntity
  8
RelayWing
 62
7
100
AcDbLine
 10
96.262860
 20
121.699691
 30
0.0
 11
89.483604
 21
121.699691
 31
0.0
  0
SPLINE
  5
360
100
AcDbEntity
  8
RelayWing
 62
7
100
AcDbSpline
 70
8
 71
3
 72
8
 73
4
 74
0
 40
0
 40
0
 40
0
 40
0
 40
1
 40
1
 40
1
 40
1
 10
89.483604
 20
121.699691
 30
0.0
 10
89.079694
 20
121.699691
 30
0.0
 10
88.760360
 20
122.018849
 30
0.0
 10
88.760360
 20
122.422755
 30
0.0
  0
LINE
  5
361
100
AcDbEntity
  8
RelayWing
 62
7
100
AcDbLine
 10
88.760360
 20
122.422755
 30
0.0
 11
88.760360
 21
122.518513
 31
0.0
  0
SPLINE
  5
362
100
AcDbEntity
  8
RelayWing
 62
7
100
AcDbSpline
 70
8
 71
3
 72
8
 73
4
 74
0
 40
0
 40
0
 40
0
 40
0
 40
1
 40
1
 40
1
 40
1
 10
88.760360
 20
122.518513
 30
0.0
 10
88.760360
 20
122.518513
 30
0.0
 10
89.557052
 20
122.518513
 30
0.0
 10
89.557052
 20
122.518513
 30
0.0
  0
SPLINE
  5
363
100
AcDbEntity
  8
RelayWing
 62
7
100
AcDbSpline
 70
8
 71
3
 72
8
 73
4
 74
0
 40
0
 40
0
 40
0
 40
0
 40
1
 40
1
 40
1
 40
1
 10
89.557052
 20
122.518513
 30
0.0
 10
89.557052
 20
122.518458
 30
0.0
 10
89.557052
 20
122.518402
 30
0.0
 10
89.557052
 20
122.518347
 30
0.0
  0
SPLINE
  5
364
100
AcDbEntity
  8
RelayWing
 62
7
100
AcDbSpline
 70
8
 71
3
 72
8
 73
4
 74
0
 40
0
 40
0
 40
0
 40
0
 40
1
 40
1
 40
1
 40
1
 10
89.557052
 20
122.518347
 30
0.0
 10
89.612989
 20
122.374611
 30
0.0
 10
89.751430
 20
122.279959
 30
0.0
 10
89.905667
 20
122.280000
 30
0.0
  0
SPLINE
  5
365
100
AcDbEntity
  8
RelayWing
 62
7
100
AcDbSpline
 70
8
 71
3
 72
8
 73
4
 74
0
 40
0
 40
0
 40
0
 40
0
 40
1
 40
1
 40
1
 40
1
 10
89.905667
 20
122.280000
 30
0.0
 10
90.004855
 20
122.280022
 30
0.0
 10
90.099972
 20
122.319446
 30
0.0
 10
90.170092
 20
122.389600
 30
0.0
  0
SPLINE
  5
366
100
AcDbEntity
  8
RelayWing
 62
7
100
AcDbSpline
 70
8
 71
3
 72
8
 73
4
 74
0
 40
0
 40
0
 40
0
 40
0
 40
1
 40
1
 40
1
 40
1
 10
90.170092
 20
122.389600
 30
0.0
 10
90.240211
 20
122.459754
 30
0.0
 10
90.279589
 20
122.554890
 30
0.0
 10
90.279562
 20
122.654078
 30
0.0
  0
LINE
  5
367
100
AcDbEntity
  8
RelayWing
 62
7
100
AcDbLine
 10
90.279562
 20
122.654078
 30
0.0
 11
90.279562
 21
122.654431
 31
0.0
  0
LINE
  5
368
100
AcDbEntity
  8
RelayWing
 62
7
100
AcDbLine
 10
90.279562
 20
122.654431
 30
0.0
 11
94.840891
 21
126.398250
 31
0.0
  0
SPLINE
  5
369
100
AcDbEntity
  8
RelayWing
 62
7
100
AcDbSpline
 70
8
 71
3
 72
8
 73
4
 74
0
 40
0
 40
0
 40
0
 40
0
 40
1
 40
1
 40
1
 40
1
 10
94.840891
 20
126.398250
 30
0.0
 10
94.892070
 20
126.372962
 30
0.0
 10
94.948359
 20
126.359727
 30
0.0
 10
95.005444
 20
126.359557
 30
0.0
  0
SPLINE
  5
36a
100
AcDbEntity
  8
RelayWing
 62
7
100
AcDbSpline
 70
8
 71
3
 72
8
 73
4
 74
0
 40
0
 40
0
 40
0
 40
0
 40
1
 40
1
 40
1
 40
1
 10
95.005444
 20
126.359557
 30
0.0
 10
95.159525
 20
126.359781
 30
0.0
 10
95.297697
 20
126.454483
 30
0.0
 10
95.353494
 20
126.598106
 30
0.0
  0
LINE
  5
36b
100
AcDbEntity
  8
RelayWing
 62
7
100
AcDbLine
 10
95.353494
 20
126.598106
 30
0.0
 11
95.353494
 21
126.598293
 31
0.0
  0
LINE
  5
36c
100
AcDbEntity
  8
RelayWing
 62
7
100
AcDbLine
 10
78.876320
 20
123.537578
 30
0.0
 11
85.655570
 21
123.537578
 31
0.0
  0
SPLINE
  5
36d
100
AcDbEntity
  8
RelayWing
 62
7
100
AcDbSpline
 70
8
 71
3
 72
8
 73
4
 74
0
 40
0
 40
0
 40
0
 40
0
 40
1
 40
1
 40
1
 40
1
 10
85.655570
 20
123.537578
 30
0.0
 10
86.024120
 20
123.537578
 30
0.0
 10
86.321448
 20
123.271612
 30
0.0
 10
86.370830
 20
122.918256
 30
0.0
  0
LINE
  5
36e
100
AcDbEntity
  8
RelayWing
 62
7
100
AcDbLine
 10
86.370830
 20
122.918256
 30
0.0
 11
84.662169
 21
122.918256
 31
0.0
  0
SPLINE
  5
36f
100
AcDbEntity
  8
RelayWing
 62
7
100
AcDbSpline
 70
8
 71
3
 72
8
 73
4
 74
0
 40
0
 40
0
 40
0
 40
0
 40
1
 40
1
 40
1
 40
1
 10
84.662169
 20
122.918256
 30
0.0
 10
84.591937
 20
122.988571
 30
0.0
 10
84.496607
 20
123.028040
 30
0.0
 10
84.397226
 20
123.027949
 30
0.0
  0
SPLINE
  5
370
100
AcDbEntity
  8
RelayWing
 62
7
100
AcDbSpline
 70
8
 71
3
 72
8
 73
4
 74
0
 40
0
 40
0
 40
0
 40
0
 40
1
 40
1
 40
1
 40
1
 10
84.397226
 20
123.027949
 30
0.0
 10
84.195033
 20
123.027381
 30
0.0
 10
84.029905
 20
122.866210
 30
0.0
 10
84.024435
 20
122.664090
 30
0.0
  0
LINE
  5
371
100
AcDbEntity
  8
RelayWing
 62
7
100
AcDbLine
 10
84.024435
 20
122.664090
 30
0.0
 11
79.454738
 21
118.913396
 31
0.0
  0
SPLINE
  5
372
100
AcDbEntity
  8
RelayWing
 62
7
100
AcDbSpline
 70
8
 71
3
 72
8
 73
4
 74
0
 40
0
 40
0
 40
0
 40
0
 40
1
 40
1
 40
1
 40
1
 10
79.454738
 20
118.913396
 30
0.0
 10
79.405517
 20
118.936265
 30
0.0
 10
79.351907
 20
118.948146
 30
0.0
 10
79.297632
 20
118.948215
 30
0.0
  0
SPLINE
  5
373
100
AcDbEntity
  8
RelayWing
 62
7
100
AcDbSpline
 70
8
 71
3
 72
8
 73
4
 74
0
 40
0
 40
0
 40
0
 40
0
 40
1
 40
1
 40
1
 40
1
 10
79.297632
 20
118.948215
 30
0.0
 10
79.153927
 20
118.947767
 30
0.0
 10
79.023189
 20
118.865015
 30
0.0
 10
78.961290
 20
118.735324
 30
0.0
  0
LINE
  5
374
100
AcDbEntity
  8
RelayWing
 62
7
100
AcDbLine
 10
78.961290
 20
118.735324
 30
0.0
 11
78.153066
 21
118.735324
 31
0.0
  0
LINE
  5
375
100
AcDbEntity
  8
RelayWing
 62
7
100
AcDbLine
 10
78.153066
 20
118.735324
 30
0.0
 11
78.153066
 21
122.814553
 31
0.0
  0
SPLINE
  5
376
100
AcDbEntity
  8
RelayWing
 62
7
100
AcDbSpline
 70
8
 71
3
 72
8
 73
4
 74
0
 40
0
 40
0
 40
0
 40
0
 40
1
 40
1
 40
1
 40
1
 10
78.153066
 20
122.814553
 30
0.0
 10
78.153066
 20
123.218466
 30
0.0
 10
78.472407
 20
123.537628
 30
0.0
 10
78.876320
 20
123.537628
 30
0.0
  0
LINE
  5
377
100
AcDbEntity
  8
RelayWing
 62
7
100
AcDbLine
 10
78.876320
 20
123.537628
 30
0.0
 11
78.876320
 21
123.537578
 31
0.0
  0
LINE
  5
378
100
AcDbEntity
  8
RelayWing
 62
7
100
AcDbLine
 10
84.746020
 20
122.518513
 30
0.0
 11
86.378828
 21
122.518513
 31
0.0
  0
LINE
  5
379
100
AcDbEntity
  8
RelayWing
 62
7
100
AcDbLine
 10
86.378828
 20
122.518513
 30
0.0
 11
86.378828
 21
118.832338
 31
0.0
  0
LINE
  5
37a
100
AcDbEntity
  8
RelayWing
 62
7
100
AcDbLine
 10
86.378828
 20
118.832338
 30
0.0
 11
84.668117
 21
118.832338
 31
0.0
  0
SPLINE
  5
37b
100
AcDbEntity
  8
RelayWing
 62
7
100
AcDbSpline
 70
8
 71
3
 72
8
 73
4
 74
0
 40
0
 40
0
 40
0
 40
0
 40
1
 40
1
 40
1
 40
1
 10
84.668117
 20
118.832338
 30
0.0
 10
84.597472
 20
118.906386
 30
0.0
 10
84.499567
 20
118.948248
 30
0.0
 10
84.397226
 20
118.948165
 30
0.0
  0
SPLINE
  5
37c
100
AcDbEntity
  8
RelayWing
 62
7
100
AcDbSpline
 70
8
 71
3
 72
8
 73
4
 74
0
 40
0
 40
0
 40
0
 40
0
 40
1
 40
1
 40
1
 40
1
 10
84.397226
 20
118.948165
 30
0.0
 10
84.190817
 20
118.947814
 30
0.0
 10
84.023721
 20
118.780302
 30
0.0
 10
84.023884
 20
118.573893
 30
0.0
  0
SPLINE
  5
37d
100
AcDbEntity
  8
RelayWing
 62
7
100
AcDbSpline
 70
8
 71
3
 72
8
 73
4
 74
0
 40
0
 40
0
 40
0
 40
0
 40
1
 40
1
 40
1
 40
1
 10
84.023884
 20
118.573893
 30
0.0
 10
84.023956
 20
118.474703
 30
0.0
 10
84.063429
 20
118.379605
 30
0.0
 10
84.133619
 20
118.309521
 30
0.0
  0
SPLINE
  5
37e
100
AcDbEntity
  8
RelayWing
 62
7
100
AcDbSpline
 70
8
 71
3
 72
8
 73
4
 74
0
 40
0
 40
0
 40
0
 40
0
 40
1
 40
1
 40
1
 40
1
 10
84.133619
 20
118.309521
 30
0.0
 10
84.203810
 20
118.239436
 30
0.0
 10
84.298967
 20
118.200106
 30
0.0
 10
84.398157
 20
118.200185
 30
0.0
  0
SPLINE
  5
37f
100
AcDbEntity
  8
RelayWing
 62
7
100
AcDbSpline
 70
8
 71
3
 72
8
 73
4
 74
0
 40
0
 40
0
 40
0
 40
0
 40
1
 40
1
 40
1
 40
1
 10
84.398157
 20
118.200185
 30
0.0
 10
84.549837
 20
118.200394
 30
0.0
 10
84.686368
 20
118.292199
 30
0.0
 10
84.743787
 20
118.432591
 30
0.0
  0
LINE
  5
380
100
AcDbEntity
  8
RelayWing
 62
7
100
AcDbLine
 10
84.743787
 20
118.432591
 30
0.0
 11
86.378828
 21
118.432591
 31
0.0
  0
LINE
  5
381
100
AcDbEntity
  8
RelayWing
 62
7
100
AcDbLine
 10
86.378828
 20
118.432591
 30
0.0
 11
86.378828
 21
118.342975
 31
0.0
  0
SPLINE
  5
382
100
AcDbEntity
  8
RelayWing
 62
7
100
AcDbSpline
 70
8
 71
3
 72
8
 73
4
 74
0
 40
0
 40
0
 40
0
 40
0
 40
1
 40
1
 40
1
 40
1
 10
86.378828
 20
118.342975
 30
0.0
 10
86.378828
 20
117.939062
 30
0.0
 10
86.059486
 20
117.619911
 30
0.0
 10
85.655570
 20
117.619911
 30
0.0
  0
LINE
  5
383
100
AcDbEntity
  8
RelayWing
 62
7
100
AcDbLine
 10
85.655570
 20
117.619911
 30
0.0
 11
78.876320
 21
117.619911
 31
0.0
  0
SPLINE
  5
384
100
AcDbEntity
  8
RelayWing
 62
7
100
AcDbSpline
 70
8
 71
3
 72
8
 73
4
 74
0
 40
0
 40
0
 40
0
 40
0
 40
1
 40
1
 40
1
 40
1
 10
78.876320
 20
117.619911
 30
0.0
 10
78.474983
 20
117.619911
 30
0.0
 10
78.157476
 20
117.935100
 30
0.0
 10
78.153443
 20
118.335351
 30
0.0
  0
LINE
  5
385
100
AcDbEntity
  8
RelayWing
 62
7
100
AcDbLine
 10
78.153443
 20
118.335351
 30
0.0
 11
79.010930
 21
118.335351
 31
0.0
  0
SPLINE
  5
386
100
AcDbEntity
  8
RelayWing
 62
7
100
AcDbSpline
 70
8
 71
3
 72
8
 73
4
 74
0
 40
0
 40
0
 40
0
 40
0
 40
1
 40
1
 40
1
 40
1
 10
79.010930
 20
118.335351
 30
0.0
 10
79.081900
 20
118.249823
 30
0.0
 10
79.187234
 20
118.200291
 30
0.0
 10
79.298373
 20
118.200185
 30
0.0
  0
SPLINE
  5
387
100
AcDbEntity
  8
RelayWing
 62
7
100
AcDbSpline
 70
8
 71
3
 72
8
 73
4
 74
0
 40
0
 40
0
 40
0
 40
0
 40
1
 40
1
 40
1
 40
1
 10
79.298373
 20
118.200185
 30
0.0
 10
79.504851
 20
118.200332
 30
0.0
 10
79.672140
 20
118.367786
 30
0.0
 10
79.672085
 20
118.574263
 30
0.0
  0
LINE
  5
388
100
AcDbEntity
  8
RelayWing
 62
7
100
AcDbLine
 10
79.672085
 20
118.574263
 30
0.0
 11
79.672085
 21
118.574595
 31
0.0
  0
LINE
  5
389
100
AcDbEntity
  8
RelayWing
 62
7
100
AcDbLine
 10
79.672085
 20
118.574595
 30
0.0
 11
84.233417
 21
122.318407
 31
0.0
  0
SPLINE
  5
38a
100
AcDbEntity
  8
RelayWing
 62
7
100
AcDbSpline
 70
8
 71
3
 72
8
 73
4
 74
0
 40
0
 40
0
 40
0
 40
0
 40
1
 40
1
 40
1
 40
1
 10
84.233417
 20
122.318407
 30
0.0
 10
84.284669
 20
122.293162
 30
0.0
 10
84.341025
 20
122.279996
 30
0.0
 10
84.398157
 20
122.279919
 30
0.0
  0
SPLINE
  5
38b
100
AcDbEntity
  8
RelayWing
 62
7
100
AcDbSpline
 70
8
 71
3
 72
8
 73
4
 74
0
 40
0
 40
0
 40
0
 40
0
 40
1
 40
1
 40
1
 40
1
 10
84.398157
 20
122.279919
 30
0.0
 10
84.552168
 20
122.280219
 30
0.0
 10
84.690247
 20
122.374905
 30
0.0
 10
84.746021
 20
122.518463
 30
0.0
  0
LINE
  5
38c
100
AcDbEntity
  8
RelayWing
 62
7
100
AcDbLine
 10
84.746021
 20
122.518463
 30
0.0
 11
84.746020
 21
122.518513
 31
0.0
  0
ENDSEC
  0
SECTION
  2
OBJECTS
  0
DICTIONARY
  5
C
330
0
100
AcDbDictionary
  3
ACAD_GROUP
350
D
  3
ACAD_MLINESTYLE
350
17
  0
DICTIONARY
  5
D
330
C
100
AcDbDictionary
  0
DICTIONARY
  5
1A
330
C
100
AcDbDictionary
  0
DICTIONARY
  5
17
330
C
100
AcDbDictionary
  3
STANDARD
350
18
  0
DICTIONARY
  5
19
330
C
100
AcDbDictionary
  0
ENDSEC
  0
EOF
