<?xml version="1.0" encoding="UTF-8" standalone="no"?>
<svg
   xmlns:dc="http://purl.org/dc/elements/1.1/"
   xmlns:cc="http://creativecommons.org/ns#"
   xmlns:rdf="http://www.w3.org/1999/02/22-rdf-syntax-ns#"
   xmlns:svg="http://www.w3.org/2000/svg"
   xmlns="http://www.w3.org/2000/svg"
   viewBox="0 0 184.23924 198.86425"
   height="56.123909mm"
   width="51.996407mm"
   xml:space="preserve"
   version="1.1"
   id="svg7707"><metadata
     id="metadata7713"><rdf:RDF><cc:Work
         rdf:about=""><dc:format>image/svg+xml</dc:format><dc:type
           rdf:resource="http://purl.org/dc/dcmitype/StillImage" /><dc:title></dc:title></cc:Work></rdf:RDF></metadata><defs
     id="defs7711" /><g
     transform="matrix(1.25,0,0,-1.25,-272.64288,594.50712)"
     id="g7715"><path
       id="path6825"
       d="m 243.51869,460.48777 c -7.12184,-0.0207 -13.3161,-4.90741 -14.99495,-11.82867 l -0.17179,-0.70736 1.2115,-0.18526 a 14.393548,14.393548 0 0 0 14.1012,11.63779 14.393548,14.393548 0 0 0 14.41559,-14.36282 l 0,-0.0303 a 14.393548,14.393548 0 0 0 -0.0966,-1.59998 l 0.92855,-0.1426 0.0595,0.7141 c 0.028,0.33848 0.0449,0.67766 0.0505,1.01725 l 0,0.006 0,0.0382 c -0.0182,8.53633 -6.965,15.45759 -15.50133,15.44407 l -0.001,0 -0.001,0 z m -14.03721,-22.04163 0.70175,-1.207 c 2.7667,-4.76451 7.85958,-7.6998 13.36914,-7.70464 l 0.001,0 0.001,0 c 3.85622,0.008 7.57158,1.45641 10.41618,4.06003 l 1.02848,0.94204 -1.24631,0.19087 a 14.393548,14.393548 0 0 0 -10.05913,-4.11056 14.393548,14.393548 0 0 0 -12.67974,7.5946 l -1.53262,0.23466 z"
       style="color:#000000;font-style:normal;font-variant:normal;font-weight:normal;font-stretch:normal;font-size:medium;line-height:normal;font-family:sans-serif;text-indent:0;text-align:start;text-decoration:none;text-decoration-line:none;text-decoration-style:solid;text-decoration-color:#000000;letter-spacing:normal;word-spacing:normal;text-transform:none;direction:ltr;block-progression:tb;writing-mode:lr-tb;baseline-shift:baseline;text-anchor:start;white-space:normal;clip-rule:nonzero;display:inline;overflow:visible;visibility:visible;opacity:1;isolation:auto;mix-blend-mode:normal;color-interpolation:sRGB;color-interpolation-filters:linearRGB;solid-color:#000000;solid-opacity:1;fill:#000000;fill-opacity:1;fill-rule:nonzero;stroke:none;stroke-width:2.32400012;stroke-linecap:butt;stroke-linejoin:miter;stroke-miterlimit:4;stroke-dasharray:none;stroke-dashoffset:0;stroke-opacity:1;color-rendering:auto;image-rendering:auto;shape-rendering:auto;text-rendering:auto;enable-background:accumulate" /><path
       id="path3127"
       d="m 244.61511,458.51561 c -0.59024,-0.11782 -0.98449,-0.7091 -1.24855,-1.28112 l 0.001,0 c -0.51264,-1.1269 -1.39305,-1.98348 -1.96715,-2.99674 l -0.002,-0.002 c -0.30422,-0.56086 -0.73047,-1.00073 -1.24742,-1.35634 -1.07663,-0.77322 -2.31255,-1.282 -3.23254,-2.16924 l -0.003,-0.003 -0.005,-0.005 c -0.59063,-0.50625 -1.07665,-1.15226 -1.64602,-1.72237 l -0.008,-0.008 -0.008,-0.006 c -1.18301,-0.91784 -2.62182,-1.39429 -4.03085,-1.75269 l -0.003,0 -0.001,0 c -1.01103,-0.22949 -2.02599,-0.41719 -2.97429,-0.7635 -0.0434,-0.20315 0.0265,-0.47923 0.027,-0.79157 0.0995,-1.20657 0.28812,-2.41413 0.35592,-3.64235 0.25458,-0.0454 0.57753,-0.01 0.91845,-0.0315 0.52567,0.0141 1.1089,-0.0851 1.54272,-0.46146 l 0,-0.001 c 0.21028,-0.0321 0.48281,0.0619 0.79719,0.055 0.10988,0.016 0.22134,0.0257 0.30653,0.0483 0.0879,0.0233 0.13356,0.05 0.15943,0.0988 l 0.0225,0.0426 0.0404,0.0225 c 0.52372,0.29757 1.10917,0.28539 1.59886,0.41543 l 0.0112,0.003 0.0112,0.001 c 0.77523,0.0945 1.52231,0.36826 2.25008,0.66807 -0.0336,0.0302 -0.0706,0.0615 -0.10442,0.10666 -0.0367,0.0491 -0.0752,0.12266 -0.064,0.21221 l 0.0292,0.23354 0.20772,-0.11003 c 0.57717,-0.30714 1.0869,-0.70937 1.67297,-0.88027 l 0.0101,-0.003 0.008,-0.005 c 0.87506,-0.3756 1.86083,-0.33619 2.84517,-0.33796 -0.12948,0.0356 -0.21732,0.12866 -0.26835,0.21333 -0.0555,0.0921 -0.0943,0.18334 -0.12015,0.22568 l -0.005,0.009 -0.005,0.0101 c -0.0925,0.20345 0.0214,0.36564 0.0606,0.55803 5.7e-4,0.005 -0.004,0.011 -0.003,0.0157 0.005,0.0271 0.008,0.0423 0.0135,0.0685 0.0442,0.17065 0.009,0.37187 0.0539,0.50638 l 0.007,0.0191 0.009,0.0135 c 0.007,0.0119 0.0163,0.0303 0.0438,0.0561 0.0137,0.0129 0.033,0.0306 0.0662,0.0426 0.0333,0.012 0.0848,0.0131 0.12576,-0.003 l 0.0943,-0.0382 0.008,-0.10106 c 0.0158,-0.23814 -0.0663,-0.44873 -0.10106,-0.62651 -0.0347,-0.17778 -0.0406,-0.29413 0.0707,-0.41993 l 0.003,-0.003 0.002,-0.005 c 0.001,-0.002 0.0793,-0.0621 0.1426,-0.14372 0.0317,-0.0408 0.0705,-0.0969 0.0685,-0.18301 -0.002,-0.0862 -0.0645,-0.16848 -0.13024,-0.20996 l -0.005,-0.003 c 1.7676,0.11633 3.54089,0.19345 5.26031,0.54904 l 0.001,0 c 0.59085,0.12045 1.14455,0.46221 1.52138,0.92744 0.11565,0.20966 0.13451,0.50263 0.0483,0.74216 -0.0868,0.24104 -0.25633,0.41217 -0.51088,0.44126 -0.73711,-0.0325 -1.48463,-0.24343 -2.27365,-0.29192 l -0.0146,0 -0.0124,0.001 c -0.0388,0.003 -0.13618,-0.014 -0.24477,-0.0292 -0.10857,-0.0152 -0.24812,-0.0309 -0.37725,0.0606 l -0.14821,0.10442 0.12126,0.13474 c 0.1006,0.11157 0.21853,0.10911 0.31101,0.11677 0.0925,0.008 0.1784,0.0143 0.19986,0.0213 l 0.0146,0.006 0.0157,0.001 c 1.10577,0.14369 2.22604,0.23212 3.22579,0.64448 0.2142,0.15489 0.42726,0.33238 0.50751,0.51649 0.006,0.21541 0.0133,0.44944 -0.0281,0.64336 -0.044,0.20662 -0.12376,0.35497 -0.31326,0.44687 l -0.0112,0.006 -0.0101,0.008 c -0.40923,0.27666 -0.97509,0.13661 -1.55171,0.13698 l -0.0112,0 c -0.79912,-0.053 -1.62951,-0.19792 -2.46454,-0.13136 l -0.21221,0.0168 0.073,0.20099 c 0.0304,0.0833 0.10368,0.14304 0.16842,0.16842 0.0647,0.0254 0.1238,0.0282 0.17852,0.0303 0.10943,0.004 0.21544,0.003 0.2268,0.006 l 0.0179,0.005 0.0168,0 c 0.82507,0.023 1.66009,0.039 2.43872,0.22344 0.58175,0.19811 1.17022,0.38196 1.62469,0.72645 0.0721,0.16475 0.13024,0.35131 0.13361,0.52547 0.003,0.18859 -0.044,0.35488 -0.16617,0.48953 l -0.001,0.003 -0.003,0.002 c -0.51602,0.62589 -1.45971,0.80144 -2.24223,0.57824 l -0.0101,-0.002 -0.0101,-0.002 c -1.0073,-0.15291 -2.02902,-0.22541 -3.04054,-0.26723 l -0.20435,-0.009 0.0382,0.20098 c 0.0177,0.0908 0.0968,0.15193 0.1527,0.17404 0.0558,0.0221 0.10383,0.0264 0.14933,0.0303 0.091,0.008 0.18881,0.0199 0.17067,0.0134 l 0.0191,0.006 0.0179,0.002 c 1.42935,0.1564 2.93771,0.10322 4.10607,0.8915 l 0.008,0.005 0.007,0.005 c 0.21195,0.11466 0.31772,0.38901 0.17516,0.5861 l -0.007,0.0134 -0.007,0.0124 c -0.19849,0.40903 -0.60538,0.65888 -1.05767,0.76014 l -0.002,0 -0.003,0.002 c -1.07031,0.2733 -2.22575,0.1561 -3.37512,0.18189 -0.85268,0 -1.70507,-0.03 -2.55549,-0.0808 l -0.0146,-0.002 -0.0124,0.002 c -0.0285,0.003 -0.0522,0.003 -0.0943,0.0236 -0.021,0.0101 -0.0527,0.0266 -0.0786,0.0741 -0.0259,0.0475 -0.0206,0.1207 -0.002,0.15719 0.037,0.073 0.0654,0.0742 0.0865,0.0853 0.021,0.0111 0.0405,0.018 0.0595,0.0247 0.0381,0.0135 0.0768,0.0232 0.11452,0.0315 0.0377,0.008 0.0634,0.0157 0.11116,0.0157 0.97613,0.0857 1.95277,0.11054 2.92601,0.13025 0.0638,0.22408 0.0572,0.5248 0.17516,0.83536 0.35222,1.09401 0.87416,2.12134 1.04195,3.21457 0.0182,0.50339 -0.28794,1.04105 -0.73094,1.26988 -0.0229,0.004 -0.0452,0.008 -0.064,0.007 z m -4.40249,-5.98114 0,-0.42779 -0.006,-0.0213 c -0.0702,-0.26 -0.19692,-0.48672 -0.28743,-0.70511 -0.0905,-0.21839 -0.14541,-0.42005 -0.10779,-0.64 l 0.002,-0.0191 0,-0.0179 c -0.007,-0.11422 0.0781,-0.21663 0.20884,-0.35929 0.0654,-0.0714 0.138,-0.14929 0.19424,-0.24702 0.0386,-0.067 0.0413,-0.15853 0.0494,-0.24589 0.003,-0.04 0.0292,-0.07 0.0225,-0.11228 l -0.0382,-0.23803 0.10217,0.1134 -0.0629,-0.50975 c -0.0306,-0.24726 -0.14966,-0.46836 -0.21333,-0.66919 -0.0637,-0.20081 -0.081,-0.35004 0.027,-0.5075 l 0.006,-0.008 0.005,-0.008 c 0.0368,-0.0701 0.13274,-0.17919 0.21558,-0.30877 0.0547,-0.0856 0.046,-0.21452 0.0516,-0.33348 0.005,-0.0104 0.0163,-0.0249 0.0213,-0.0348 l -0.0157,0 c -0.002,-0.0494 0.0429,-0.0851 0.0213,-0.13586 l -0.13586,-0.31887 -0.15719,0.30877 c -0.0761,0.15002 -0.17025,0.33301 -0.27396,0.45361 l -0.005,0.006 -0.003,0.007 c -0.25348,0.35847 -0.32133,0.84754 -0.073,1.2463 2.5e-4,4.2e-4 -2.6e-4,0.002 0,0.002 0.0636,0.12889 0.12258,0.28815 0.24926,0.42891 l 0.15607,0.17291 -0.17291,0.27396 c -0.10279,0.16264 -0.27561,0.32896 -0.42105,0.52996 -0.14488,0.20022 -0.26111,0.45511 -0.2066,0.75789 0.0557,0.35404 0.24102,0.69757 0.45137,1.01052 0.0246,0.0619 0.0624,0.13189 0.0786,0.192 l -0.003,-0.0225 c 0.0236,0.028 0.0183,0.0724 0.0438,0.0988 l 0.27733,0.28856 z m -0.72196,-1.81107 0.002,-0.0371 c -0.001,0.009 0.006,0.0147 0.005,0.0236 2e-4,0.006 -0.007,0.007 -0.007,0.0135 z m 1.00266,-4.41484 0.0831,-0.046 c 0.0802,-0.0454 0.14397,-0.15422 0.13922,-0.24028 -0.005,-0.0861 -0.0393,-0.14007 -0.0674,-0.18751 -0.0281,-0.0474 -0.0555,-0.0878 -0.0719,-0.11789 -0.0163,-0.0301 -0.0157,-0.0467 -0.0168,-0.0303 l 0.005,-0.0404 -0.0168,-0.0382 c -0.12323,-0.27446 -0.0824,-0.60273 0.13362,-0.8028 l 0.0124,-0.0112 0.009,-0.0124 c 0.0279,-0.0388 0.0851,-0.11373 0.12575,-0.2066 0.0203,-0.0464 0.0405,-0.0979 0.0382,-0.16617 -0.002,-0.0682 -0.0432,-0.1555 -0.11003,-0.20211 l -0.11228,-0.0786 -0.0954,0.0965 c -0.41811,0.4237 -0.62089,1.0901 -0.3548,1.67073 0.0143,0.0339 0.0297,0.0913 0.0573,0.15719 0.028,0.067 0.0707,0.15089 0.16169,0.2066 l 0.0808,0.0494 z m -0.2414,-0.56701 -0.0146,-0.0786 c -5.8e-4,0.0116 0.006,0.0162 0.007,0.027 0.006,0.0166 3.9e-4,0.0354 0.008,0.0516 z m 10.69015,-1.74146 c -0.84451,-0.0111 -1.69827,-0.22325 -2.59029,-0.23803 l -0.005,0 -0.002,0 c -0.0325,5.7e-4 -0.0255,-0.003 -0.0213,0 0.004,0.003 -0.001,-4.6e-4 -0.008,-0.0258 -0.0136,-0.0506 -0.0114,-0.15752 -0.0584,-0.28071 l -0.002,-0.0101 -0.006,-0.009 c -0.2431,-0.44199 -0.67199,-0.71558 -1.10596,-0.91508 1.02177,0.28226 2.02511,0.66895 3.11352,0.8421 0.001,2.8e-4 0.003,-2.9e-4 0.005,0 0.80337,0.17024 1.66192,0.25332 2.48699,0.0808 l 0.006,-0.001 0.005,-0.002 c 0.41245,-0.11335 0.82834,-0.35111 1.17782,-0.65123 0.0747,-0.0428 0.1601,-0.0681 0.23242,-0.11339 l -0.009,-0.0112 c 0.013,-0.0158 0.0391,-0.0117 0.0517,-0.0281 l -0.21446,-0.23579 c -0.66596,0.41684 -1.41555,0.72305 -2.18721,0.68378 l -0.008,0 -0.008,0 c -0.97511,0.04 -1.94305,-0.25576 -2.9159,-0.50301 l -0.006,-0.001 c -0.002,-5.7e-4 -0.005,-4e-4 -0.008,-0.001 -0.8551,-0.2952 -1.71489,-0.58577 -2.62173,-0.73992 -1.2648,-0.28881 -2.56735,-0.43089 -3.86579,-0.38288 l -0.0202,0 -0.0179,0.006 c -0.88298,0.25335 -1.88641,0.15968 -2.68349,-0.28407 -0.36068,-0.31277 -0.74648,-0.64506 -0.7736,-1.0689 l 0,-0.005 -0.001,-0.005 c -0.007,-0.0641 0.0106,-0.12573 0.0325,-0.15495 0.022,-0.0293 0.0336,-0.0418 0.0988,-0.0314 l 0.0225,0.005 0.0225,-0.005 c 0.61812,-0.0784 1.24078,-0.0268 1.847,0.1235 l 0.0112,0.003 0.0112,0.001 c 0.25082,0.0255 0.5977,0.14322 0.9308,0.002 l 0.0629,-0.0258 0.0236,-0.0651 c 0.0574,-0.14845 0.0581,-0.29331 0.064,-0.41432 0.004,-0.0873 0.0198,-0.14063 0.0359,-0.19648 1.22225,0.0167 2.43905,-0.0594 3.64909,-0.16842 -0.0264,0.0789 -0.0703,0.20523 0.002,0.34021 0.0153,0.0756 0.035,0.14812 0.0685,0.21557 0.0216,0.0434 0.0446,0.0843 0.073,0.12126 0.0143,0.0185 0.0282,0.036 0.0516,0.055 0.0235,0.019 0.0582,0.046 0.12464,0.046 l 0.22905,0 -0.0775,-0.21445 c -0.0435,-0.12255 -0.0854,-0.28498 -0.082,-0.40421 0.001,-0.0596 0.0147,-0.10621 0.0337,-0.1381 0.019,-0.0319 0.0413,-0.0547 0.0977,-0.0752 l 0.007,-0.003 0.009,-0.002 c 0.005,-0.002 0.003,-0.002 0.006,-0.003 5.8e-4,0.002 -5.6e-4,-0.001 0.008,0.0168 0.025,0.0537 0.0445,0.1674 0.0561,0.24814 l 0,0.005 0.002,0.005 c 0.0457,0.22379 0.0583,0.5461 0.0786,0.7635 l 0.31663,0.027 c 0.006,-0.0215 -0.005,-0.0349 -0.001,-0.0562 l 0.006,0 c -0.001,-0.0181 -0.005,-0.0528 -0.007,-0.073 0.0486,-0.35182 -0.0191,-0.67264 -0.0258,-0.9409 0.0595,-0.0254 0.13071,-0.0378 0.20772,-0.0427 2e-4,0.003 -0.006,0.008 -0.006,0.0112 0.007,0.048 0.026,0.0808 0.0483,0.11228 0.0879,0.21354 0.0402,0.4821 0.0112,0.76126 l 0.30316,0.0943 c 0.0106,-0.0194 -0.007,-0.0439 0.002,-0.064 l 0.0157,0.003 c 0.005,-0.0476 -0.0134,-0.11904 -0.007,-0.17179 0.0746,-0.25047 0.12151,-0.51284 0.0371,-0.75789 0.0635,0.003 0.12067,0.009 0.18639,0.006 1.70803,0.0703 3.4302,0.21253 5.15138,0.15607 l 0.0325,-0.32 c -0.014,-0.003 -0.0286,-2.6e-4 -0.0426,-0.003 l 0,-0.001 c -0.0195,5.8e-4 -0.0389,-0.003 -0.0584,-0.002 -0.56239,-0.10904 -1.15,-0.0654 -1.67746,-0.0988 l -0.005,0 -0.006,0 c -1.28394,-0.009 -2.57009,-0.14084 -3.87028,-0.16617 l -0.009,0 -0.007,0 c -1.40918,0.10968 -2.8041,0.33035 -4.19364,0.2953 -0.97662,-0.0831 -2.00768,-0.26963 -3.02482,0.0314 -0.21055,0.044 -0.38386,0.17876 -0.57824,0.27284 -0.0832,0.0241 -0.16178,0.0443 -0.26498,0.0853 l -0.0539,0.0213 -0.0281,0.0505 c -0.001,0.002 5.8e-4,0.005 0,0.007 -0.0564,0.0387 -0.13285,0.0447 -0.18526,0.0876 l -0.0135,0.0112 -0.0112,0.0158 c -0.1192,0.15492 -0.14149,0.3309 -0.15157,0.47718 -0.008,0.11336 -0.0205,0.19644 -0.0371,0.27509 -0.45306,0.17114 -0.99517,0.1637 -1.53936,0.23803 -5.7e-4,1.4e-4 -0.003,-1.2e-4 -0.003,0 -0.56665,0.0201 -1.1001,0.15609 -1.60223,0.11565 -0.1474,-0.047 -0.20872,-0.15034 -0.26385,-0.32786 -0.0563,-0.18131 -0.08,-0.41034 -0.18077,-0.61417 l -0.0662,-0.13361 -0.13923,0.055 c -0.0863,0.0341 -0.16172,0.12671 -0.17403,0.21221 -0.0123,0.0855 0.011,0.14789 0.0314,0.2021 0.0204,0.0542 0.0425,0.10155 0.0573,0.1381 0.0148,0.0366 0.0172,0.0629 0.0179,0.0494 l -0.001,0.0258 0.007,0.0247 c 0.0256,0.0955 0.0558,0.20586 0.055,0.26835 -4e-4,0.0313 -0.006,0.0439 -0.008,0.046 -0.001,0.002 -4.4e-4,0.009 -0.0382,0.0157 l -0.0157,0.003 -0.0135,0.006 c -0.83976,0.32351 -1.76524,0.42153 -2.68685,0.53445 -0.32135,0.034 -0.6287,0.0111 -0.80955,-0.21109 l -0.0225,-0.0292 -0.0169,-0.008 c -0.005,-0.004 -0.0177,-0.0138 -0.0281,-0.0247 -0.0208,-0.0218 -0.0468,-0.0516 -0.0786,-0.082 -0.0318,-0.0304 -0.0619,-0.0655 -0.13586,-0.0887 -0.037,-0.0116 -0.0957,-0.0155 -0.14933,0.0112 -0.0536,0.0267 -0.0848,0.0736 -0.0999,0.11115 l -0.0135,0.0348 0.002,0.0382 c 0.0135,0.17604 0.1209,0.27515 0.17179,0.35368 0.02,0.0308 0.0252,0.0479 0.0303,0.0618 -0.69249,0.3838 -1.56307,0.3265 -2.36686,0.192 -0.44262,-0.1082 -0.78065,-0.52437 -0.88589,-0.96673 0.0236,-0.003 0.0262,-0.0163 0.073,-0.0146 0.10096,0.003 0.23612,0.0321 0.38737,-0.0191 0.59237,-0.0774 1.24019,-0.11446 1.82454,-0.36716 l 0.0281,-0.0112 0.0213,-0.0202 c 0.0639,-0.0616 0.18205,-0.14388 0.28856,-0.25038 0.1065,-0.1065 0.21366,-0.26263 0.18526,-0.45586 l -0.002,-0.0225 c 0.046,-0.0195 0.10255,-0.0385 0.16505,-0.0662 0.99185,-0.34609 2.05389,-0.55159 3.05289,-0.99031 l 0.0191,-0.008 c 0.67947,-0.20744 1.34403,-0.44259 2.0143,-0.64898 l 0.005,-0.002 c 0.002,-5.6e-4 0.003,-4e-4 0.006,-0.001 1.51995,-0.35401 3.02525,-0.75389 4.53386,-1.11718 l 0.006,-0.001 c 2.02964,-0.40599 4.09752,-0.61533 6.16528,-0.82526 l 0,-0.001 0.002,0 c 0.95256,-0.0225 1.91647,0.0471 2.86987,0.15045 1.55245,0.35203 3.14256,0.78675 4.79322,0.68716 l -0.003,0.002 c 1.56794,-0.0714 3.08593,-0.45213 4.61133,-0.51873 l 0.009,0 0.008,-0.001 c 0.0657,-0.01 0.0923,0.006 0.1235,0.0382 0.0312,0.0324 0.0595,0.0925 0.0651,0.16056 l 0.002,0.0382 0.0202,0.0325 c 0.0881,0.145 0.10503,0.39921 0.2313,0.6355 l 0.005,0.009 0.006,0.007 c 0.0826,0.1179 0.11377,0.34085 0.29305,0.53332 0.0367,0.0942 0.0895,0.1682 0.13474,0.22793 0.0529,0.07 0.0917,0.12652 0.10554,0.1774 l 0.006,0.0247 0.0146,0.0191 c 0.19319,0.30164 0.3368,0.68496 0.67367,0.95775 l 0.002,0.001 0.002,0.001 c 0.0532,0.0401 0.0934,0.10444 0.14259,0.192 0.0407,0.0725 0.0956,0.15927 0.17628,0.23691 0.0343,0.10113 0.11197,0.16795 0.16057,0.20323 0.0586,0.0425 0.078,0.0599 0.0831,0.0741 l 0.0101,0.027 0.0179,0.0225 c 0.12005,0.1452 0.22142,0.34493 0.3155,0.52435 l 0.0281,0.055 0.055,0.0191 c 0.003,0.004 0.009,0.0234 0.0179,0.0539 0.0147,0.052 0.0405,0.14976 0.12126,0.22569 0.17762,0.3498 0.25183,0.74937 0.27284,1.13963 -1.31177,-0.0249 -2.63967,-0.0624 -3.96123,0.073 l -0.0146,0.001 -0.0134,0.005 c -0.31516,0.091 -0.67769,0.1459 -1.01277,0.30989 l -0.0191,0.0101 -0.0179,0.0158 c -0.42741,0.38784 -0.84903,0.77313 -1.34735,1.0094 l -0.005,0.002 -0.006,0.003 c -0.92279,0.52025 -1.94694,0.8658 -2.99899,0.88252 l -0.007,0 -0.006,0 c -0.4232,0.0364 -0.84638,0.059 -1.26539,0.0505 l -0.001,0 z m 0.85108,-0.59059 c 0.003,1.5e-4 0.006,-0.002 0.009,-0.002 0.002,-9e-5 0.004,0.002 0.007,0.002 l -0.0157,0 z m -15.1353,-0.79719 c -0.0483,-0.0432 -0.08,-0.0972 -0.15607,-0.11115 l 0.0247,0.006 c -0.12135,-0.0422 -0.22756,-0.10329 -0.34469,-0.1527 0.16497,-0.0328 0.3146,-0.0777 0.43676,-0.0539 l 0.0112,0.001 0.0124,0.002 c 0.20148,0.009 0.39637,-0.003 0.59284,-0.0112 -0.0486,0.0202 -0.0771,0.0251 -0.128,0.055 -0.001,5.7e-4 -0.003,0.001 -0.005,0.002 -0.19001,0.0916 -0.31942,0.20584 -0.44463,0.26273 z m -1.15199,-0.51536 c -0.34674,-0.10052 -0.70007,-0.20325 -1.07452,-0.25375 -0.58255,-0.0777 -1.15225,-0.17663 -1.67184,-0.40645 -5.8e-4,-5.7e-4 -0.002,5.6e-4 -0.002,0 -0.008,-0.006 -0.0121,-0.007 -0.0202,-0.0124 0.0177,-0.005 0.0259,0.001 0.0449,-0.007 0.65368,-0.12377 1.37883,-0.14732 2.03226,-0.49852 0.0267,-0.0142 0.0467,-0.0212 0.0651,-0.0281 l 0.0337,0.0225 c 0.32568,0.20541 0.69869,0.15533 1.00154,0.0999 l -0.002,0.001 c 0.80918,-0.12843 1.66365,-0.10856 2.5117,-0.32336 0.0776,-0.005 0.13428,-0.0271 0.16729,-0.0359 0.007,-0.002 0.006,-0.003 0.009,-0.003 0.16592,0.30363 0.40213,0.54744 0.61753,0.7635 l 0.003,0.003 0.002,0.003 c 0.16047,0.14598 0.36125,0.21749 0.56028,0.28968 -0.44369,0.003 -0.89414,0.0175 -1.33837,0.1179 -0.60887,0.0356 -1.21469,0.0743 -1.80995,0.0562 -0.23207,-0.0311 -0.42357,-0.23472 -0.60856,-0.45585 l -0.0169,-0.0191 -0.0225,-0.0146 c -0.0259,-0.0158 -0.067,-0.0332 -0.11789,-0.0281 -0.0509,0.005 -0.098,0.0379 -0.12127,0.0674 -0.0465,0.059 -0.0434,0.0971 -0.0449,0.12912 -0.001,0.032 0.001,0.06 0.008,0.0887 0.005,0.0249 0.0141,0.0527 0.0438,0.0921 0.0502,0.091 0.11454,0.15982 0.16392,0.21221 0.0149,0.0158 0.0153,0.0244 0.027,0.0382 -0.0302,0.002 -0.0675,0.009 -0.11115,0.0191 -0.006,1.4e-4 -0.009,0.003 -0.0146,0.003 -0.0855,0.005 -0.15583,0.0301 -0.20771,0.0494 -0.0512,0.019 -0.0844,0.0273 -0.10667,0.0292 z m 0.32673,-0.42105 c -0.003,-0.001 -0.0113,-0.002 -0.0135,-0.003 l -0.0359,-0.0303 c 0.0141,0.0121 0.0377,0.0198 0.0494,0.0337 z m -1.18567,-0.79045 c 0.003,-5.3e-4 0.004,-0.004 0.007,-0.005 0.007,-0.003 0.0145,-0.002 0.0213,-0.005 l -0.0281,0.009 z m 3.93765,-0.25151 c -0.004,-0.003 -0.009,-0.003 -0.0112,-0.006 l -0.0202,-0.0337 c 0.009,0.015 0.0231,0.0233 0.0314,0.0393 z m -0.0247,-0.49627 0,-0.008 c 7e-5,0.001 0.001,0.002 0.001,0.003 1.6e-4,0.001 -0.001,0.003 -0.001,0.005 z m -10.99667,-0.0763 c -0.0532,0 -0.12066,-0.009 -0.16842,-0.0225 0.10792,-0.11097 0.26358,-0.19574 0.45473,-0.30091 0.26756,-0.11113 0.52868,-0.22968 0.78932,-0.32898 0.36286,-0.0869 0.74003,-0.11666 1.10259,-0.0786 0.026,0.0261 0.0483,0.1004 0.0685,0.18302 -0.0371,0.0672 -0.13751,0.13943 -0.26722,0.22793 -0.54388,0.23826 -1.18319,0.23885 -1.82455,0.31775 -0.001,8e-5 -0.003,-7e-5 -0.005,0 -0.05,0.003 -0.0983,0.003 -0.14484,0.002 l -0.002,0 -0.003,0 z m -0.2212,-0.0404 -0.003,-0.001 c 0.001,0.001 0.002,0.0134 0.003,0 l 0,0.001 z m 14.20675,-0.32673 c -0.31866,-0.0248 -0.63136,-0.0642 -0.91844,-0.15383 l -0.0101,-0.002 -0.009,-0.001 c -0.40333,-0.0763 -0.81249,-0.0694 -1.21598,-0.0483 0.0219,-0.009 0.035,-0.007 0.0573,-0.0179 l -0.007,0.005 c 0.32236,-0.13426 0.64922,-0.23737 0.98469,-0.256 l 0.003,0 0.001,0 c 0.38807,-0.0319 0.77576,-0.0296 1.14525,0.0213 0.002,0.11643 -0.008,0.24133 -0.0101,0.40197 l 0,0.008 0.002,0.008 c 0.001,0.0143 -0.002,0.0255 -0.005,0.0359 l -0.0191,0 z m 4.54059,-0.8713 0.0135,-0.006 c -0.002,0.002 -0.004,0.004 -0.007,0.006 -0.002,5.8e-4 -0.005,-5.7e-4 -0.007,0 z"
       style="fill:#000000;fill-opacity:1;fill-rule:nonzero;stroke:none;stroke-width:0.85039371;stroke-linecap:butt;stroke-linejoin:miter;stroke-miterlimit:4;stroke-dasharray:none;stroke-opacity:1" /></g></svg>