G04 EAGLE Gerber X2 export*
G75*
%MOMM*%
%FSLAX34Y34*%
%LPD*%
%AMOC8*
5,1,8,0,0,1.08239X$1,22.5*%
G01*
%ADD10C,3.810000*%
%ADD11C,1.778000*%
%ADD12C,2.000000*%
%ADD13P,1.649562X8X292.500000*%
%ADD14C,1.524000*%
%ADD15C,1.473200*%
%ADD16P,1.429621X8X112.500000*%
%ADD17P,1.814519X8X22.500000*%
%ADD18C,0.203200*%
%ADD19C,0.406400*%
%ADD20C,0.756400*%


D10*
X25400Y508000D03*
X25400Y330200D03*
D11*
X165100Y520700D03*
X190500Y520700D03*
X215900Y520700D03*
X241300Y520700D03*
X266700Y520700D03*
X292100Y520700D03*
X317500Y520700D03*
X342900Y520700D03*
X368300Y520700D03*
X393700Y520700D03*
X419100Y520700D03*
X444500Y520700D03*
X165100Y317500D03*
X190500Y317500D03*
X215900Y317500D03*
X241300Y317500D03*
X266700Y317500D03*
X292100Y317500D03*
X317500Y317500D03*
X342900Y317500D03*
X368300Y317500D03*
X393700Y317500D03*
X419100Y317500D03*
X444500Y317500D03*
X139700Y317500D03*
X114300Y317500D03*
X88900Y317500D03*
X63500Y317500D03*
D12*
X482600Y660400D03*
X457200Y660400D03*
X432100Y660400D03*
X406700Y660400D03*
X381300Y660400D03*
X355900Y660400D03*
X317500Y660400D03*
X292100Y660400D03*
X267000Y660400D03*
X241600Y660400D03*
X216200Y660400D03*
X190800Y660400D03*
X25400Y177800D03*
X50800Y177800D03*
X75900Y177800D03*
X101300Y177800D03*
X126700Y177800D03*
X152100Y177800D03*
X190500Y177800D03*
X215900Y177800D03*
X241000Y177800D03*
X266400Y177800D03*
X291800Y177800D03*
X317200Y177800D03*
X355600Y177800D03*
X381000Y177800D03*
X406100Y177800D03*
X431500Y177800D03*
X456900Y177800D03*
X482300Y177800D03*
D13*
X292100Y457200D03*
X317500Y457200D03*
X292100Y431800D03*
X317500Y431800D03*
X292100Y406400D03*
X317500Y406400D03*
X292100Y381000D03*
X317500Y381000D03*
D14*
X63500Y350520D02*
X63500Y335280D01*
X88900Y335280D02*
X88900Y350520D01*
X114300Y350520D02*
X114300Y335280D01*
X139700Y335280D02*
X139700Y350520D01*
X165100Y350520D02*
X165100Y335280D01*
X190500Y335280D02*
X190500Y350520D01*
X215900Y350520D02*
X215900Y335280D01*
X241300Y335280D02*
X241300Y350520D01*
X266700Y350520D02*
X266700Y335280D01*
X292100Y335280D02*
X292100Y350520D01*
X317500Y350520D02*
X317500Y335280D01*
X342900Y335280D02*
X342900Y350520D01*
X368300Y350520D02*
X368300Y335280D01*
X393700Y335280D02*
X393700Y350520D01*
X419100Y350520D02*
X419100Y335280D01*
X444500Y335280D02*
X444500Y350520D01*
X444500Y487680D02*
X444500Y502920D01*
X419100Y502920D02*
X419100Y487680D01*
X393700Y487680D02*
X393700Y502920D01*
X368300Y502920D02*
X368300Y487680D01*
X342900Y487680D02*
X342900Y502920D01*
X317500Y502920D02*
X317500Y487680D01*
X292100Y487680D02*
X292100Y502920D01*
X266700Y502920D02*
X266700Y487680D01*
X241300Y487680D02*
X241300Y502920D01*
X215900Y502920D02*
X215900Y487680D01*
X190500Y487680D02*
X190500Y502920D01*
X165100Y502920D02*
X165100Y487680D01*
D12*
X139700Y660400D03*
X114300Y660400D03*
D15*
X533400Y622300D03*
X533400Y596900D03*
X533400Y571500D03*
X533400Y546100D03*
X533400Y520700D03*
X533400Y495300D03*
X533400Y469900D03*
X533400Y444500D03*
X533400Y419100D03*
X533400Y393700D03*
X533400Y368300D03*
X533400Y342900D03*
X685800Y342900D03*
X685800Y368300D03*
X685800Y393700D03*
X685800Y419100D03*
X685800Y444500D03*
X685800Y469900D03*
X685800Y495300D03*
X685800Y520700D03*
X685800Y546100D03*
X685800Y571500D03*
X685800Y596900D03*
X533400Y647700D03*
X685800Y622300D03*
X685800Y647700D03*
X533400Y673100D03*
X685800Y673100D03*
X533400Y317500D03*
X685800Y317500D03*
X533400Y292100D03*
X533400Y266700D03*
X533400Y241300D03*
X533400Y215900D03*
X533400Y190500D03*
X533400Y165100D03*
X533400Y139700D03*
X533400Y114300D03*
X533400Y88900D03*
X685800Y88900D03*
X685800Y114300D03*
X685800Y139700D03*
X685800Y165100D03*
X685800Y190500D03*
X685800Y215900D03*
X685800Y241300D03*
X685800Y266700D03*
X685800Y292100D03*
X558800Y215900D03*
X609600Y215900D03*
X635000Y215900D03*
X584200Y215900D03*
X660400Y215900D03*
X660400Y647700D03*
X660400Y596900D03*
X660400Y571500D03*
X660400Y546100D03*
X565150Y609600D03*
X565150Y584200D03*
X565150Y558800D03*
X565150Y533400D03*
X565150Y508000D03*
D16*
X114300Y495300D03*
X114300Y596900D03*
D17*
X38100Y101600D03*
X63500Y101600D03*
X241300Y101600D03*
X266700Y101600D03*
X101600Y101600D03*
X203200Y101600D03*
D18*
X139700Y342900D02*
X133096Y349504D01*
D19*
X482600Y622300D02*
X533400Y673100D01*
X482600Y622300D02*
X63500Y622300D01*
D20*
X63500Y622300D03*
D19*
X101600Y660400D01*
X114300Y660400D01*
D20*
X190500Y196718D03*
D19*
X190500Y279400D01*
D20*
X190500Y279400D03*
X139700Y279400D03*
D19*
X139700Y317500D01*
X88900Y317500D02*
X88900Y609600D01*
X548986Y609600D01*
X671830Y659130D02*
X685800Y673100D01*
X598516Y659130D02*
X548986Y609600D01*
X598516Y659130D02*
X671830Y659130D01*
D18*
X418592Y521208D02*
X410464Y521208D01*
X418592Y521208D02*
X419100Y520700D01*
D19*
X660400Y520700D02*
X685800Y495300D01*
X660400Y520700D02*
X660400Y533400D01*
X569885Y521970D02*
X560416Y521970D01*
X581315Y533400D02*
X660400Y533400D01*
X581315Y533400D02*
X569885Y521970D01*
X560416Y521970D02*
X548732Y533654D01*
X432054Y533654D01*
X419100Y520700D01*
X444500Y495300D02*
X469900Y469900D01*
X528666Y481330D02*
X538135Y481330D01*
X517236Y469900D02*
X469900Y469900D01*
X549565Y469900D02*
X685800Y469900D01*
X528666Y481330D02*
X517236Y469900D01*
X538135Y481330D02*
X549565Y469900D01*
X386811Y660400D02*
X381300Y660400D01*
X451990Y660400D02*
X457200Y660400D01*
X400875Y674464D02*
X386811Y660400D01*
X400875Y674464D02*
X437926Y674464D01*
X451990Y660400D01*
D20*
X444500Y114300D03*
X622300Y127000D03*
D19*
X450610Y120410D02*
X444500Y114300D01*
X513855Y127000D02*
X622300Y127000D01*
X507265Y120410D02*
X450610Y120410D01*
X507265Y120410D02*
X513855Y127000D01*
D20*
X609600Y241300D03*
X609600Y393700D03*
D19*
X617446Y333450D02*
X617446Y326950D01*
X609600Y319104D02*
X609600Y241300D01*
X609600Y341296D02*
X609600Y393700D01*
X617446Y326950D02*
X609600Y319104D01*
X617446Y333450D02*
X609600Y341296D01*
X221711Y660400D02*
X216200Y660400D01*
X286890Y660400D02*
X292100Y660400D01*
X235775Y674464D02*
X221711Y660400D01*
X235775Y674464D02*
X272826Y674464D01*
X286890Y660400D01*
X56011Y177800D02*
X50800Y177800D01*
X121190Y177800D02*
X126700Y177800D01*
X70075Y191864D02*
X56011Y177800D01*
X70075Y191864D02*
X107126Y191864D01*
X121190Y177800D01*
X152100Y177800D02*
X152400Y190800D01*
X152400Y279400D01*
X214630Y300990D01*
X571500Y306070D01*
D20*
X571500Y306070D03*
D19*
X215900Y203200D02*
X215900Y177800D01*
X215900Y203200D02*
X291800Y203200D01*
X291800Y177800D01*
X241000Y177800D02*
X329900Y88900D01*
X533400Y88900D01*
X549565Y88900D02*
X685800Y88900D01*
X549565Y88900D02*
X538135Y100330D01*
X343870Y100330D02*
X266400Y177800D01*
X343870Y100330D02*
X538135Y100330D01*
X355300Y127000D02*
X317200Y177800D01*
X515966Y151130D02*
X538135Y151130D01*
X504536Y127000D02*
X355300Y127000D01*
X549565Y139700D02*
X685800Y139700D01*
X515966Y151130D02*
X504536Y127000D01*
X538135Y151130D02*
X549565Y139700D01*
X538135Y176530D02*
X515966Y176530D01*
X549565Y165100D02*
X685800Y165100D01*
X549565Y165100D02*
X538135Y176530D01*
X490472Y138336D02*
X369664Y138336D01*
X490472Y138336D02*
X515966Y176530D01*
X369664Y138336D02*
X355600Y177800D01*
X381000Y177800D02*
X381000Y279400D01*
D20*
X584200Y266700D03*
D19*
X550835Y280670D02*
X541366Y280670D01*
X517236Y279400D02*
X381000Y279400D01*
X549565Y266700D02*
X584200Y266700D01*
X541366Y280670D02*
X517236Y279400D01*
X550835Y280670D02*
X549565Y266700D01*
X391020Y177800D02*
X381000Y177800D01*
X391020Y177800D02*
X391020Y162720D01*
X446580Y162720D02*
X446580Y177800D01*
X456900Y177800D01*
X446580Y162720D02*
X391020Y162720D01*
D20*
X596900Y279400D03*
D19*
X596900Y254000D01*
X418800Y254000D02*
X406100Y177800D01*
X418800Y254000D02*
X596900Y254000D01*
X431800Y178100D02*
X431500Y177800D01*
X431800Y178100D02*
X431800Y241300D01*
X517236Y241300D01*
X646096Y241300D02*
X685800Y241300D01*
X528666Y229870D02*
X517236Y241300D01*
X528666Y229870D02*
X634666Y229870D01*
X646096Y241300D01*
X507700Y203200D02*
X482300Y177800D01*
X507700Y203200D02*
X622300Y203200D01*
D20*
X622300Y203200D03*
X622300Y254000D03*
D19*
X628904Y260604D01*
X685800Y384465D02*
X685800Y393700D01*
X628904Y327569D02*
X628904Y260604D01*
X628904Y327569D02*
X685800Y384465D01*
X538135Y433070D02*
X528666Y433070D01*
X300976Y457200D02*
X292100Y457200D01*
X300976Y457200D02*
X312660Y445516D01*
X516220Y445516D02*
X528666Y433070D01*
X538135Y433070D02*
X549565Y444500D01*
X673100Y444500D01*
X516220Y445516D02*
X312660Y445516D01*
X685800Y431800D02*
X685800Y419100D01*
X674370Y443230D02*
X673100Y444500D01*
X674370Y443230D02*
X674370Y439766D01*
X681066Y433070D01*
X684530Y433070D01*
X685800Y431800D01*
X673100Y457200D02*
X317500Y457200D01*
X673100Y457200D02*
X685800Y444500D01*
X160260Y475996D02*
X152146Y484110D01*
X152146Y526066D01*
X177800Y551720D01*
X177800Y596900D01*
X247904Y475996D02*
X292100Y431800D01*
X247904Y475996D02*
X160260Y475996D01*
X528666Y585470D02*
X538135Y585470D01*
X517236Y596900D02*
X177800Y596900D01*
X549565Y596900D02*
X635000Y596900D01*
X528666Y585470D02*
X517236Y596900D01*
X538135Y585470D02*
X549565Y596900D01*
X635000Y596900D02*
X635000Y571500D01*
X665135Y557530D02*
X671830Y550835D01*
X648970Y557530D02*
X635000Y571500D01*
X671830Y534670D02*
X685800Y520700D01*
X665135Y557530D02*
X648970Y557530D01*
X671830Y550835D02*
X671830Y534670D01*
X538135Y382270D02*
X528666Y382270D01*
X538135Y382270D02*
X544830Y388966D01*
X300976Y406400D02*
X292100Y406400D01*
X300976Y406400D02*
X312660Y418084D01*
X544830Y392430D02*
X544830Y388966D01*
X492852Y418084D02*
X312660Y418084D01*
X492852Y418084D02*
X528666Y382270D01*
D20*
X647700Y431800D03*
D19*
X646096Y431800D01*
X638250Y423954D01*
X576354Y423954D01*
X544830Y392430D01*
D20*
X622300Y416108D03*
D19*
X538135Y356870D02*
X528666Y356870D01*
X305816Y394716D02*
X292100Y381000D01*
X305816Y394716D02*
X490820Y394716D01*
X528666Y356870D01*
X597373Y416108D02*
X622300Y416108D01*
X597373Y416108D02*
X538135Y356870D01*
D20*
X660400Y622300D03*
D19*
X674370Y608330D01*
X685800Y580736D02*
X685800Y571500D01*
X674370Y592166D02*
X674370Y608330D01*
X674370Y592166D02*
X685800Y580736D01*
D20*
X635000Y431800D03*
D19*
X538135Y407670D02*
X528666Y407670D01*
X504536Y431800D02*
X317500Y431800D01*
X562265Y431800D02*
X635000Y431800D01*
X528666Y407670D02*
X504536Y431800D01*
X538135Y407670D02*
X562265Y431800D01*
D20*
X609600Y330200D03*
D19*
X479136Y381000D02*
X317500Y381000D01*
X608330Y331470D02*
X609600Y330200D01*
X528666Y331470D02*
X479136Y381000D01*
X528666Y331470D02*
X608330Y331470D01*
D20*
X165100Y228600D03*
D19*
X169324Y228600D01*
X169324Y158496D01*
X11938Y158496D02*
X11938Y88138D01*
X11938Y158496D02*
X169324Y158496D01*
D20*
X139700Y228600D03*
X79982Y558800D03*
D19*
X79982Y364236D01*
X49530Y364236D01*
X49530Y228600D01*
X139700Y228600D01*
D20*
X139700Y558800D03*
D19*
X165100Y558800D01*
D20*
X165100Y558800D03*
X190500Y558800D03*
D19*
X552704Y558800D01*
X552704Y571246D01*
X577596Y571246D01*
X660400Y551434D02*
X660400Y546100D01*
X597408Y551434D02*
X577596Y571246D01*
X597408Y551434D02*
X660400Y551434D01*
X241300Y101600D02*
X227838Y88138D01*
X11938Y88138D01*
D20*
X596900Y622300D03*
D19*
X637525Y602996D02*
X641096Y599425D01*
X641096Y590804D02*
X660400Y571500D01*
X641096Y590804D02*
X641096Y599425D01*
X637525Y602996D02*
X616204Y602996D01*
X596900Y622300D01*
D20*
X76200Y266700D03*
D19*
X139700Y266700D01*
X139700Y254000D01*
D20*
X139700Y254000D03*
X177800Y254000D03*
D19*
X177800Y192880D01*
X175420Y192880D01*
X175420Y162720D01*
X177800Y162720D01*
X177800Y152400D01*
X38100Y152400D02*
X38100Y101600D01*
X38100Y152400D02*
X177800Y152400D01*
M02*
