G04 EAGLE Gerber X2 export*
G75*
%MOMM*%
%FSLAX34Y34*%
%LPD*%
%AMOC8*
5,1,8,0,0,1.08239X$1,22.5*%
G01*
%ADD10C,3.810000*%
%ADD11C,1.778000*%
%ADD12C,2.000000*%
%ADD13C,1.000000*%
%ADD14P,1.649562X8X292.500000*%
%ADD15C,1.524000*%
%ADD16C,1.473200*%
%ADD17P,1.429621X8X112.500000*%
%ADD18P,1.814519X8X22.500000*%
%ADD19R,2.000000X2.000000*%
%ADD20C,0.203200*%
%ADD21C,0.756400*%
%ADD22C,0.406400*%


D10*
X25400Y508000D03*
X25400Y330200D03*
D11*
X165100Y520700D03*
X190500Y520700D03*
X215900Y520700D03*
X241300Y520700D03*
X266700Y520700D03*
X292100Y520700D03*
X317500Y520700D03*
X342900Y520700D03*
X368300Y520700D03*
X393700Y520700D03*
X419100Y520700D03*
X444500Y520700D03*
X165100Y317500D03*
X190500Y317500D03*
X215900Y317500D03*
X241300Y317500D03*
X266700Y317500D03*
X292100Y317500D03*
X317500Y317500D03*
X342900Y317500D03*
X368300Y317500D03*
X393700Y317500D03*
X419100Y317500D03*
X444500Y317500D03*
X139700Y317500D03*
X114300Y317500D03*
X88900Y317500D03*
X63500Y317500D03*
D12*
X482600Y660400D03*
X457200Y660400D03*
X432100Y660400D03*
X406700Y660400D03*
X381300Y660400D03*
X355900Y660400D03*
X317500Y660400D03*
X292100Y660400D03*
X267000Y660400D03*
X241600Y660400D03*
X216200Y660400D03*
X190800Y660400D03*
X25400Y177800D03*
X50800Y177800D03*
X75900Y177800D03*
X101300Y177800D03*
X126700Y177800D03*
X152100Y177800D03*
X190500Y177800D03*
X215900Y177800D03*
X241000Y177800D03*
X266400Y177800D03*
X291800Y177800D03*
X317200Y177800D03*
X355600Y177800D03*
X381000Y177800D03*
X406100Y177800D03*
X431500Y177800D03*
X456900Y177800D03*
X482300Y177800D03*
D13*
X19050Y679450D03*
X501650Y92710D03*
D14*
X292100Y457200D03*
X317500Y457200D03*
X292100Y431800D03*
X317500Y431800D03*
X292100Y406400D03*
X317500Y406400D03*
X292100Y381000D03*
X317500Y381000D03*
D15*
X63500Y350520D02*
X63500Y335280D01*
X88900Y335280D02*
X88900Y350520D01*
X114300Y350520D02*
X114300Y335280D01*
X139700Y335280D02*
X139700Y350520D01*
X165100Y350520D02*
X165100Y335280D01*
X190500Y335280D02*
X190500Y350520D01*
X215900Y350520D02*
X215900Y335280D01*
X241300Y335280D02*
X241300Y350520D01*
X266700Y350520D02*
X266700Y335280D01*
X292100Y335280D02*
X292100Y350520D01*
X317500Y350520D02*
X317500Y335280D01*
X342900Y335280D02*
X342900Y350520D01*
X368300Y350520D02*
X368300Y335280D01*
X393700Y335280D02*
X393700Y350520D01*
X419100Y350520D02*
X419100Y335280D01*
X444500Y335280D02*
X444500Y350520D01*
X444500Y487680D02*
X444500Y502920D01*
X419100Y502920D02*
X419100Y487680D01*
X393700Y487680D02*
X393700Y502920D01*
X368300Y502920D02*
X368300Y487680D01*
X342900Y487680D02*
X342900Y502920D01*
X317500Y502920D02*
X317500Y487680D01*
X292100Y487680D02*
X292100Y502920D01*
X266700Y502920D02*
X266700Y487680D01*
X241300Y487680D02*
X241300Y502920D01*
X215900Y502920D02*
X215900Y487680D01*
X190500Y487680D02*
X190500Y502920D01*
X165100Y502920D02*
X165100Y487680D01*
D12*
X139700Y660400D03*
X114300Y660400D03*
D16*
X533400Y622300D03*
X533400Y596900D03*
X533400Y571500D03*
X533400Y546100D03*
X533400Y520700D03*
X533400Y495300D03*
X533400Y469900D03*
X533400Y444500D03*
X533400Y419100D03*
X533400Y393700D03*
X533400Y368300D03*
X533400Y342900D03*
X685800Y342900D03*
X685800Y368300D03*
X685800Y393700D03*
X685800Y419100D03*
X685800Y444500D03*
X685800Y469900D03*
X685800Y495300D03*
X685800Y520700D03*
X685800Y546100D03*
X685800Y571500D03*
X685800Y596900D03*
X533400Y647700D03*
X685800Y622300D03*
X685800Y647700D03*
X533400Y673100D03*
X685800Y673100D03*
X533400Y317500D03*
X685800Y317500D03*
X533400Y292100D03*
X533400Y266700D03*
X533400Y241300D03*
X533400Y215900D03*
X533400Y190500D03*
X533400Y165100D03*
X533400Y139700D03*
X533400Y114300D03*
X533400Y88900D03*
X685800Y88900D03*
X685800Y114300D03*
X685800Y139700D03*
X685800Y165100D03*
X685800Y190500D03*
X685800Y215900D03*
X685800Y241300D03*
X685800Y266700D03*
X685800Y292100D03*
X558800Y215900D03*
X609600Y215900D03*
X635000Y215900D03*
X584200Y215900D03*
X660400Y215900D03*
X660400Y647700D03*
X660400Y596900D03*
X660400Y571500D03*
X660400Y546100D03*
X565150Y609600D03*
X565150Y584200D03*
X565150Y558800D03*
X565150Y533400D03*
X565150Y508000D03*
D17*
X114300Y495300D03*
X114300Y596900D03*
D18*
X38100Y101600D03*
X63500Y101600D03*
X241300Y101600D03*
X266700Y101600D03*
X101600Y101600D03*
X203200Y101600D03*
D19*
X312900Y101600D03*
X372900Y101600D03*
D20*
X140208Y318008D02*
X140208Y342392D01*
X140208Y318008D02*
X139700Y317500D01*
X140208Y342392D02*
X139700Y342900D01*
D21*
X63500Y622300D03*
D22*
X63500Y381000D01*
X138952Y342392D02*
X140208Y342392D01*
X138952Y342392D02*
X119140Y362204D01*
X82296Y362204D01*
X63500Y381000D01*
D21*
X190500Y196718D03*
D22*
X190500Y162720D02*
X190500Y127000D01*
X190500Y162720D02*
X175420Y162720D01*
X175420Y192880D01*
X190500Y192880D01*
X190500Y196718D01*
D21*
X190500Y279400D03*
D22*
X139700Y279400D01*
D21*
X139700Y279400D03*
D22*
X203200Y114300D02*
X203200Y101600D01*
X203200Y114300D02*
X190500Y127000D01*
D20*
X89408Y318008D02*
X89408Y342392D01*
X88900Y342900D01*
X89408Y318008D02*
X88900Y317500D01*
X64008Y318008D02*
X64008Y342392D01*
X64008Y318008D02*
X63500Y317500D01*
X64008Y342392D02*
X63500Y342900D01*
X419608Y495808D02*
X419608Y520192D01*
X419100Y520700D01*
X419608Y495808D02*
X419100Y495300D01*
X114808Y342392D02*
X114808Y318008D01*
X114808Y342392D02*
X114300Y342900D01*
X114808Y318008D02*
X114300Y317500D01*
X165608Y318008D02*
X165608Y342392D01*
X165100Y342900D01*
X165608Y318008D02*
X165100Y317500D01*
X191008Y318008D02*
X191008Y342392D01*
X190500Y342900D01*
X191008Y318008D02*
X190500Y317500D01*
X216408Y318008D02*
X216408Y342392D01*
X215900Y342900D01*
X216408Y318008D02*
X215900Y317500D01*
X241808Y318008D02*
X241808Y342392D01*
X241300Y342900D01*
X241808Y318008D02*
X241300Y317500D01*
X267208Y318008D02*
X267208Y342392D01*
X266700Y342900D01*
X267208Y318008D02*
X266700Y317500D01*
X292608Y318008D02*
X292608Y342392D01*
X292100Y342900D01*
X292608Y318008D02*
X292100Y317500D01*
X318008Y318008D02*
X318008Y342392D01*
X317500Y342900D01*
X318008Y318008D02*
X317500Y317500D01*
X343408Y318008D02*
X343408Y342392D01*
X342900Y342900D01*
X343408Y318008D02*
X342900Y317500D01*
X368808Y318008D02*
X368808Y342392D01*
X368300Y342900D01*
X368808Y318008D02*
X368300Y317500D01*
X394208Y318008D02*
X394208Y342392D01*
X393700Y342900D01*
X394208Y318008D02*
X393700Y317500D01*
X419608Y318008D02*
X419608Y342392D01*
X419100Y342900D01*
X419608Y318008D02*
X419100Y317500D01*
X445008Y318008D02*
X445008Y342392D01*
X444500Y342900D01*
X445008Y318008D02*
X444500Y317500D01*
X394208Y495808D02*
X394208Y520192D01*
X394208Y495808D02*
X393700Y495300D01*
X394208Y520192D02*
X393700Y520700D01*
X368808Y520192D02*
X368808Y495808D01*
X368300Y495300D01*
X368808Y520192D02*
X368300Y520700D01*
X343408Y520192D02*
X343408Y495808D01*
X342900Y495300D01*
X343408Y520192D02*
X342900Y520700D01*
X318008Y520192D02*
X318008Y495808D01*
X317500Y495300D01*
X318008Y520192D02*
X317500Y520700D01*
X292608Y520192D02*
X292608Y495808D01*
X292100Y495300D01*
X292608Y520192D02*
X292100Y520700D01*
X267208Y520192D02*
X267208Y495808D01*
X266700Y495300D01*
X267208Y520192D02*
X266700Y520700D01*
X241808Y520192D02*
X241808Y495808D01*
X241300Y495300D01*
X241808Y520192D02*
X241300Y520700D01*
X216408Y520192D02*
X216408Y495808D01*
X215900Y495300D01*
X216408Y520192D02*
X215900Y520700D01*
X191008Y520192D02*
X191008Y495808D01*
X190500Y495300D01*
X191008Y520192D02*
X190500Y520700D01*
X165608Y520192D02*
X165608Y495808D01*
X165100Y495300D01*
X165608Y520192D02*
X165100Y520700D01*
X445008Y520192D02*
X445008Y495808D01*
X445008Y520192D02*
X444500Y520700D01*
X445008Y495808D02*
X444500Y495300D01*
X482600Y660400D02*
X520700Y660400D01*
X533400Y647700D01*
X464147Y660400D02*
X457200Y660400D01*
X464147Y660400D02*
X477195Y647352D01*
X508348Y647352D02*
X533400Y622300D01*
X508348Y647352D02*
X477195Y647352D01*
X482600Y643288D02*
X449212Y643288D01*
X432100Y660400D01*
X482600Y643288D02*
X528988Y596900D01*
X533400Y596900D01*
X432100Y635000D02*
X406700Y660400D01*
X432100Y635000D02*
X482600Y635000D01*
X533400Y584200D02*
X533400Y571500D01*
X522986Y594614D02*
X482600Y635000D01*
X522986Y594614D02*
X522986Y592586D01*
X529086Y586486D01*
X531114Y586486D01*
X533400Y584200D01*
D22*
X431800Y101600D02*
X372900Y101600D01*
X431800Y101600D02*
X444500Y114300D01*
D21*
X444500Y114300D03*
X622300Y127000D03*
X609600Y241300D03*
D22*
X598170Y220635D02*
X598170Y211166D01*
X622300Y187036D02*
X622300Y127000D01*
X609600Y232065D02*
X609600Y241300D01*
X598170Y211166D02*
X622300Y187036D01*
X598170Y220635D02*
X609600Y232065D01*
D21*
X609600Y393700D03*
D22*
X560070Y519430D02*
X533400Y546100D01*
X560070Y519430D02*
X569885Y519430D01*
X609600Y479715D01*
X609600Y393700D01*
D20*
X406700Y609600D02*
X355900Y660400D01*
X406700Y609600D02*
X482600Y609600D01*
X518922Y573278D01*
X533400Y531372D02*
X533400Y520700D01*
X518922Y545850D02*
X518922Y573278D01*
X518922Y545850D02*
X533400Y531372D01*
X381000Y596900D02*
X317500Y660400D01*
X381000Y596900D02*
X482600Y596900D01*
X514858Y564642D01*
X533400Y505972D02*
X533400Y495300D01*
X514858Y524514D02*
X514858Y564642D01*
X514858Y524514D02*
X533400Y505972D01*
X368300Y584200D02*
X292100Y660400D01*
X368300Y584200D02*
X482600Y584200D01*
X510794Y556006D01*
X533400Y480572D02*
X533400Y469900D01*
X510794Y503178D02*
X510794Y556006D01*
X510794Y503178D02*
X533400Y480572D01*
X355900Y571500D02*
X267000Y660400D01*
X355900Y571500D02*
X482600Y571500D01*
X506730Y547370D01*
X533400Y455172D02*
X533400Y444500D01*
X506730Y481842D02*
X506730Y547370D01*
X506730Y481842D02*
X533400Y455172D01*
X343200Y558800D02*
X241600Y660400D01*
X343200Y558800D02*
X444500Y558800D01*
X458724Y544576D01*
X458724Y498110D01*
X533400Y423434D02*
X533400Y419100D01*
X533400Y423434D02*
X458724Y498110D01*
X317800Y533400D02*
X190800Y660400D01*
X317800Y533400D02*
X406400Y533400D01*
X407162Y532638D01*
X407162Y484531D01*
X418745Y472948D01*
X428752Y472948D01*
X533400Y368300D01*
D22*
X139700Y292100D02*
X25400Y177800D01*
X139700Y292100D02*
X533400Y292100D01*
X139700Y266700D02*
X50800Y177800D01*
X139700Y266700D02*
X533400Y266700D01*
X139400Y241300D02*
X75900Y177800D01*
X139400Y241300D02*
X533400Y241300D01*
X139400Y215900D02*
X101300Y177800D01*
X139400Y215900D02*
X533400Y215900D01*
D21*
X571500Y306070D03*
D22*
X571500Y203200D01*
X533400Y165100D01*
X228600Y139700D02*
X190500Y177800D01*
X448579Y139700D02*
X480075Y108204D01*
X523332Y108204D02*
X528666Y102870D01*
X538135Y102870D01*
X544830Y109566D01*
X544830Y119035D01*
X523332Y108204D02*
X480075Y108204D01*
X533400Y130465D02*
X544830Y119035D01*
X533400Y130465D02*
X533400Y139700D01*
X448579Y139700D02*
X228600Y139700D01*
X241300Y152400D02*
X215900Y177800D01*
X241300Y152400D02*
X444500Y152400D01*
X482600Y114300D01*
X533400Y114300D01*
D21*
X584200Y266700D03*
D22*
X671830Y204470D02*
X685800Y190500D01*
X671830Y204470D02*
X671830Y220635D01*
X625765Y266700D01*
X584200Y266700D01*
X622300Y279400D02*
X685800Y215900D01*
X622300Y279400D02*
X596900Y279400D01*
D21*
X596900Y279400D03*
X622300Y203200D03*
D22*
X622300Y254000D01*
D21*
X622300Y254000D03*
D22*
X419100Y457200D02*
X334024Y457200D01*
X322340Y468884D01*
X643621Y266700D02*
X685800Y266700D01*
X521970Y354330D02*
X419100Y457200D01*
X521970Y354330D02*
X555991Y354330D01*
X643621Y266700D01*
X140716Y468884D02*
X114300Y495300D01*
X140716Y468884D02*
X322340Y468884D01*
X114300Y596900D02*
X114300Y635000D01*
X139700Y660400D01*
D21*
X647700Y431800D03*
D22*
X647700Y508000D01*
X685800Y546100D01*
D21*
X622300Y416108D03*
D22*
X622300Y584200D01*
X660400Y622300D01*
D21*
X660400Y622300D03*
X635000Y431800D03*
D22*
X671830Y582930D02*
X685800Y596900D01*
X671830Y582930D02*
X655666Y582930D01*
X635000Y562265D01*
X635000Y431800D01*
X461279Y406400D02*
X317500Y406400D01*
X461279Y406400D02*
X519445Y348234D01*
X528066Y348234D02*
X533400Y342900D01*
X528066Y348234D02*
X519445Y348234D01*
D21*
X609600Y330200D03*
D22*
X673100Y330200D01*
X685800Y342900D01*
D21*
X165100Y228600D03*
D22*
X139700Y228600D01*
D21*
X139700Y228600D03*
X79982Y558800D03*
D22*
X139700Y558800D01*
D21*
X139700Y558800D03*
X165100Y558800D03*
D22*
X190500Y558800D01*
D21*
X190500Y558800D03*
X596900Y622300D03*
D22*
X538135Y659130D02*
X529154Y659130D01*
X108475Y674464D02*
X107111Y673100D01*
X513820Y674464D02*
X529154Y659130D01*
X513820Y674464D02*
X108475Y674464D01*
X574965Y622300D02*
X596900Y622300D01*
X574965Y622300D02*
X538135Y659130D01*
D21*
X76200Y266700D03*
D22*
X76200Y303530D02*
X49530Y303530D01*
X76200Y303530D02*
X76200Y266700D01*
X49530Y303530D02*
X49530Y673100D01*
X107111Y673100D01*
D21*
X139700Y254000D03*
D22*
X177800Y254000D01*
D21*
X177800Y254000D03*
D22*
X101600Y101600D02*
X63500Y101600D01*
X258901Y101600D02*
X266700Y101600D01*
X185599Y101600D02*
X101600Y101600D01*
X246455Y89154D02*
X258901Y101600D01*
X198045Y89154D02*
X185599Y101600D01*
X198045Y89154D02*
X246455Y89154D01*
M02*
