M48
;GenerationSoftware,Autodesk,EAGLE,9.0.1*%
;CreationDate,2018-05-28T22:08:03Z*%
FMAT,2
ICI,OFF
METRIC,TZ,000.000
T8C0.350
T7C0.813
T6C0.965
T5C1.000
T4C1.016
T3C1.200
T2C2.500
T1C2.540
%
G90
M71
T1
X48260Y50800
X48260Y33020
T2
X2540Y33020
X2540Y50800
T3
X15210Y17780
X13970Y66040
X40670Y66040
X45720Y66040
X48260Y66040
X12670Y17780
X10130Y17780
X7590Y17780
X43150Y17780
X5080Y17780
X2540Y17780
X19080Y66040
X43210Y66040
X21620Y66040
X24160Y66040
X26700Y66040
X29210Y66040
X31750Y66040
X35590Y66040
X38130Y66040
X19050Y17780
X21590Y17780
X24100Y17780
X26640Y17780
X29180Y17780
X31720Y17780
X35560Y17780
X38100Y17780
X40610Y17780
X45690Y17780
X48230Y17780
X11430Y66040
T4
X44450Y34290
X41910Y34290
X39370Y34290
X36830Y34290
X34290Y34290
X31750Y34290
X29210Y34290
X26670Y34290
X24130Y34290
X21590Y34290
X19050Y34290
X16510Y34290
X13970Y34290
X11430Y34290
X8890Y34290
X41910Y49530
X16510Y49530
X19050Y49530
X21590Y49530
X24130Y49530
X26670Y49530
X29210Y49530
X31750Y49530
X34290Y49530
X36830Y49530
X39370Y49530
X29210Y45720
X31750Y45720
X29210Y43180
X31750Y43180
X29210Y40640
X31750Y40640
X29210Y38100
X31750Y38100
X6350Y34290
X44450Y49530
T5
X26670Y52070
X24130Y52070
X21590Y52070
X19050Y52070
X16510Y52070
X26670Y31750
X34290Y31750
X36830Y31750
X39370Y31750
X41910Y31750
X44450Y31750
X13970Y31750
X11430Y31750
X8890Y31750
X6350Y31750
X31750Y52070
X29210Y31750
X24130Y31750
X31750Y31750
X21590Y31750
X19050Y31750
X16510Y31750
X44450Y52070
X41910Y52070
X39370Y52070
X36830Y52070
X34290Y52070
X29210Y52070
T6
X68580Y24130
X53340Y62230
X53340Y59690
X53340Y57150
X53340Y54610
X53340Y52070
X53340Y49530
X53340Y46990
X53340Y44450
X53340Y41910
X53340Y39370
X53340Y36830
X53340Y34290
X68580Y34290
X68580Y36830
X68580Y39370
X68580Y41910
X68580Y44450
X68580Y46990
X68580Y49530
X68580Y52070
X68580Y54610
X68580Y57150
X68580Y59690
X53340Y64770
X68580Y62230
X68580Y64770
X53340Y67310
X68580Y67310
X53340Y31750
X68580Y31750
X53340Y29210
X53340Y26670
X53340Y24130
X53340Y21590
X53340Y19050
X53340Y16510
X53340Y13970
X53340Y11430
X53340Y8890
X68580Y8890
X68580Y11430
X68580Y13970
X68580Y16510
X68580Y19050
X68580Y21590
X68580Y26670
X68580Y29210
X55880Y21590
X60960Y21590
X63500Y21590
X58420Y21590
X66040Y21590
X66040Y64770
X66040Y59690
X66040Y57150
X66040Y54610
X56515Y60960
X56515Y58420
X56515Y55880
X56515Y53340
X56515Y50800
T7
X20320Y10160
X11430Y49530
X11430Y59690
X3810Y10160
X6350Y10160
X24130Y10160
X26670Y10160
X10160Y10160
T8
X62230Y20320
X59690Y27940
X58420Y26670
X6350Y62230
X57150Y30607
X60960Y39370
X60960Y24130
X62230Y12700
X44450Y11430
X13970Y27940
X13970Y22860
X19050Y19672
X59690Y62230
X17780Y25400
X13970Y25400
X7620Y26670
X19050Y55880
X16510Y55880
X13970Y55880
X7998Y55880
X16510Y22860
X60960Y33020
X63500Y43180
X66040Y62230
X62230Y41611
X64770Y43180
X62230Y25400
X19050Y27940
M30