G04 EAGLE Gerber X2 export*
G75*
%MOMM*%
%FSLAX34Y34*%
%LPD*%
%AMOC8*
5,1,8,0,0,1.08239X$1,22.5*%
G01*
%ADD10C,0.406400*%

G36*
X485729Y578232D02*
X485729Y578232D01*
X485794Y578234D01*
X485832Y578249D01*
X485861Y578254D01*
X485894Y578275D01*
X485948Y578298D01*
X487101Y579024D01*
X487688Y579302D01*
X488307Y579520D01*
X488948Y579682D01*
X489606Y579791D01*
X490273Y579853D01*
X491661Y579886D01*
X493773Y579904D01*
X493793Y579908D01*
X493819Y579906D01*
X494520Y579977D01*
X494580Y579996D01*
X494642Y580005D01*
X494674Y580025D01*
X494710Y580036D01*
X494758Y580076D01*
X494812Y580109D01*
X494833Y580140D01*
X494862Y580164D01*
X494891Y580220D01*
X494927Y580271D01*
X494938Y580313D01*
X494952Y580342D01*
X494955Y580380D01*
X494968Y580433D01*
X495199Y583220D01*
X495334Y584620D01*
X495952Y590225D01*
X495951Y590227D01*
X495952Y590230D01*
X496164Y592335D01*
X496164Y592341D01*
X496165Y592347D01*
X496380Y595160D01*
X496378Y595177D01*
X496382Y595200D01*
X496379Y595904D01*
X496370Y595946D01*
X496371Y595989D01*
X496350Y596043D01*
X496339Y596099D01*
X496314Y596134D01*
X496298Y596174D01*
X496250Y596226D01*
X496226Y596262D01*
X496206Y596275D01*
X496185Y596297D01*
X495695Y596677D01*
X495693Y596678D01*
X495548Y596755D01*
X494880Y596981D01*
X494874Y596981D01*
X494867Y596985D01*
X493518Y597398D01*
X493511Y597398D01*
X493503Y597402D01*
X492142Y597773D01*
X492137Y597774D01*
X492131Y597776D01*
X490761Y598115D01*
X490756Y598115D01*
X490750Y598118D01*
X485937Y599194D01*
X484578Y599526D01*
X483229Y599896D01*
X481889Y600293D01*
X479897Y600951D01*
X478592Y601438D01*
X477306Y601970D01*
X476042Y602553D01*
X475425Y602862D01*
X474204Y603528D01*
X473614Y603880D01*
X472450Y604639D01*
X471894Y605037D01*
X471373Y605443D01*
X470908Y605920D01*
X469955Y606945D01*
X468070Y609039D01*
X468066Y609043D01*
X468062Y609048D01*
X467094Y610074D01*
X467085Y610080D01*
X467078Y610090D01*
X466065Y611071D01*
X466059Y611075D01*
X466054Y611082D01*
X465010Y612031D01*
X465004Y612034D01*
X464999Y612041D01*
X464464Y612500D01*
X464454Y612505D01*
X464445Y612515D01*
X463330Y613380D01*
X463322Y613384D01*
X463314Y613392D01*
X462739Y613801D01*
X462733Y613804D01*
X462726Y613810D01*
X461552Y614591D01*
X461545Y614594D01*
X461538Y614600D01*
X460339Y615343D01*
X460336Y615345D01*
X460332Y615348D01*
X456703Y617510D01*
X455032Y618578D01*
X454976Y618599D01*
X454924Y618629D01*
X454917Y618630D01*
X454854Y618692D01*
X454844Y618703D01*
X454842Y618704D01*
X454841Y618705D01*
X453794Y619435D01*
X453249Y619848D01*
X452723Y620284D01*
X452221Y620743D01*
X451744Y621226D01*
X451292Y621733D01*
X450868Y622264D01*
X450475Y622815D01*
X450109Y623392D01*
X449399Y624601D01*
X449392Y624609D01*
X449387Y624621D01*
X448615Y625802D01*
X448609Y625808D01*
X448605Y625818D01*
X447789Y626969D01*
X447786Y626972D01*
X447784Y626976D01*
X445694Y629811D01*
X444892Y630955D01*
X444511Y631530D01*
X443786Y632716D01*
X443455Y633314D01*
X442528Y635197D01*
X442521Y635206D01*
X442516Y635220D01*
X442171Y635836D01*
X442163Y635845D01*
X442157Y635860D01*
X441778Y636455D01*
X441767Y636466D01*
X441759Y636483D01*
X441340Y637050D01*
X441326Y637063D01*
X441313Y637083D01*
X440848Y637613D01*
X440830Y637627D01*
X440812Y637650D01*
X440294Y638129D01*
X440270Y638143D01*
X440244Y638169D01*
X439670Y638577D01*
X439640Y638590D01*
X439604Y638616D01*
X438974Y638932D01*
X438939Y638941D01*
X438893Y638964D01*
X438218Y639165D01*
X438173Y639169D01*
X438086Y639185D01*
X437982Y639187D01*
X437941Y639180D01*
X437899Y639182D01*
X437830Y639160D01*
X437786Y639152D01*
X437768Y639140D01*
X437741Y639131D01*
X437123Y638808D01*
X437090Y638782D01*
X437033Y638748D01*
X436493Y638295D01*
X436473Y638271D01*
X436440Y638244D01*
X435973Y637717D01*
X435958Y637692D01*
X435931Y637663D01*
X435539Y637077D01*
X435529Y637051D01*
X435506Y637020D01*
X435196Y636387D01*
X435188Y636359D01*
X435170Y636325D01*
X434947Y635657D01*
X434943Y635627D01*
X434929Y635589D01*
X434802Y634895D01*
X434803Y634860D01*
X434794Y634812D01*
X434785Y634108D01*
X434793Y634071D01*
X434793Y634015D01*
X434917Y633320D01*
X434920Y633313D01*
X434920Y633303D01*
X435068Y632613D01*
X435071Y632607D01*
X435071Y632598D01*
X435241Y631914D01*
X435245Y631905D01*
X435246Y631894D01*
X435640Y630540D01*
X435645Y630530D01*
X435647Y630517D01*
X436335Y628516D01*
X436339Y628510D01*
X436340Y628502D01*
X437829Y624548D01*
X438518Y622569D01*
X438700Y621927D01*
X438821Y621266D01*
X438922Y620577D01*
X438925Y620568D01*
X438926Y620555D01*
X439059Y619863D01*
X439073Y619831D01*
X439077Y619796D01*
X439110Y619740D01*
X439135Y619679D01*
X439160Y619655D01*
X439177Y619625D01*
X439230Y619585D01*
X439277Y619539D01*
X439309Y619526D01*
X439337Y619506D01*
X439420Y619482D01*
X439462Y619466D01*
X439478Y619466D01*
X439497Y619461D01*
X440160Y619391D01*
X440177Y619392D01*
X440199Y619388D01*
X443722Y619296D01*
X446529Y619176D01*
X447932Y619092D01*
X449991Y618934D01*
X450501Y618800D01*
X450667Y618638D01*
X450646Y618569D01*
X450323Y618498D01*
X448278Y618607D01*
X448275Y618606D01*
X448271Y618607D01*
X446157Y618692D01*
X446153Y618691D01*
X446148Y618692D01*
X442622Y618768D01*
X442616Y618767D01*
X442610Y618768D01*
X439791Y618760D01*
X435560Y618781D01*
X435553Y618779D01*
X435545Y618781D01*
X434135Y618744D01*
X434128Y618742D01*
X434121Y618743D01*
X433417Y618706D01*
X433409Y618704D01*
X433399Y618704D01*
X431994Y618579D01*
X431984Y618576D01*
X431972Y618576D01*
X431273Y618483D01*
X431266Y618480D01*
X431256Y618480D01*
X430561Y618363D01*
X430553Y618360D01*
X430542Y618359D01*
X429851Y618215D01*
X429844Y618212D01*
X429833Y618211D01*
X429150Y618042D01*
X429136Y618035D01*
X429117Y618032D01*
X428446Y617817D01*
X428425Y617805D01*
X428396Y617798D01*
X427752Y617511D01*
X427730Y617496D01*
X427699Y617484D01*
X427093Y617123D01*
X427072Y617103D01*
X427038Y617085D01*
X426487Y616645D01*
X426467Y616621D01*
X426433Y616595D01*
X425952Y616080D01*
X425935Y616051D01*
X425903Y616017D01*
X425510Y615432D01*
X425501Y615410D01*
X425483Y615385D01*
X425157Y614761D01*
X425150Y614736D01*
X425135Y614713D01*
X425113Y614609D01*
X425102Y614570D01*
X425103Y614561D01*
X425101Y614551D01*
X425073Y613855D01*
X425079Y613815D01*
X425076Y613774D01*
X425097Y613702D01*
X425104Y613659D01*
X425116Y613641D01*
X425123Y613615D01*
X425432Y612987D01*
X425445Y612969D01*
X425453Y612948D01*
X425534Y612854D01*
X425553Y612829D01*
X425557Y612827D01*
X425561Y612822D01*
X426101Y612375D01*
X426126Y612362D01*
X426152Y612338D01*
X426748Y611961D01*
X426760Y611956D01*
X426773Y611946D01*
X427389Y611603D01*
X427401Y611600D01*
X427414Y611591D01*
X428048Y611283D01*
X428059Y611280D01*
X428071Y611272D01*
X428721Y610997D01*
X428732Y610995D01*
X428744Y610988D01*
X429406Y610745D01*
X429416Y610744D01*
X429427Y610738D01*
X430099Y610525D01*
X430108Y610524D01*
X430118Y610519D01*
X430798Y610333D01*
X430807Y610332D01*
X430816Y610328D01*
X431502Y610167D01*
X431513Y610166D01*
X431525Y610162D01*
X432911Y609902D01*
X432920Y609902D01*
X432929Y609899D01*
X433627Y609795D01*
X433633Y609795D01*
X433641Y609793D01*
X435041Y609625D01*
X435049Y609625D01*
X435058Y609623D01*
X439974Y609198D01*
X441341Y609057D01*
X441895Y608977D01*
X442196Y608738D01*
X442224Y608627D01*
X440311Y608716D01*
X438209Y608845D01*
X435410Y609080D01*
X433319Y609314D01*
X431939Y609500D01*
X431266Y609623D01*
X430585Y609771D01*
X430567Y609772D01*
X430545Y609778D01*
X429846Y609872D01*
X429828Y609870D01*
X429806Y609875D01*
X429101Y609912D01*
X429083Y609909D01*
X429061Y609912D01*
X428356Y609892D01*
X428338Y609888D01*
X428315Y609889D01*
X427615Y609811D01*
X427597Y609805D01*
X427573Y609805D01*
X426881Y609668D01*
X426863Y609660D01*
X426838Y609657D01*
X426161Y609460D01*
X426143Y609450D01*
X426117Y609444D01*
X425462Y609184D01*
X425443Y609172D01*
X425416Y609163D01*
X424790Y608838D01*
X424772Y608823D01*
X424744Y608811D01*
X424157Y608421D01*
X424139Y608403D01*
X424111Y608386D01*
X423573Y607931D01*
X423557Y607911D01*
X423530Y607891D01*
X423050Y607376D01*
X423030Y607345D01*
X422995Y607306D01*
X422614Y606717D01*
X422602Y606686D01*
X422551Y606575D01*
X422369Y605897D01*
X422366Y605852D01*
X422352Y605774D01*
X422341Y605070D01*
X422349Y605031D01*
X422350Y604972D01*
X422479Y604279D01*
X422490Y604252D01*
X422496Y604212D01*
X422719Y603544D01*
X422729Y603527D01*
X422733Y603507D01*
X422808Y603389D01*
X422818Y603371D01*
X422821Y603370D01*
X422822Y603367D01*
X423278Y602863D01*
X423314Y602837D01*
X423329Y602823D01*
X423336Y602813D01*
X423347Y602807D01*
X423382Y602775D01*
X423979Y602399D01*
X423993Y602394D01*
X424008Y602383D01*
X424628Y602047D01*
X424640Y602044D01*
X424652Y602035D01*
X425289Y601733D01*
X425299Y601731D01*
X425309Y601725D01*
X425958Y601450D01*
X425968Y601448D01*
X425978Y601442D01*
X427300Y600950D01*
X427306Y600949D01*
X427313Y600945D01*
X428648Y600489D01*
X428664Y600486D01*
X428683Y600478D01*
X429365Y600300D01*
X429379Y600299D01*
X429396Y600293D01*
X430088Y600159D01*
X430098Y600159D01*
X430110Y600155D01*
X431505Y599947D01*
X431516Y599948D01*
X431529Y599944D01*
X432933Y599805D01*
X432942Y599806D01*
X432953Y599803D01*
X435065Y599680D01*
X435071Y599680D01*
X435077Y599679D01*
X438551Y599559D01*
X439035Y599447D01*
X439332Y599125D01*
X439343Y599095D01*
X438689Y599052D01*
X438004Y599031D01*
X436617Y599052D01*
X435228Y599138D01*
X431021Y599522D01*
X431011Y599521D01*
X431000Y599524D01*
X428182Y599662D01*
X428175Y599661D01*
X428167Y599663D01*
X427461Y599675D01*
X427445Y599672D01*
X427424Y599674D01*
X426720Y599634D01*
X426694Y599627D01*
X426658Y599626D01*
X425965Y599498D01*
X425930Y599484D01*
X425878Y599474D01*
X425220Y599223D01*
X425191Y599205D01*
X425146Y599188D01*
X424538Y598831D01*
X424505Y598802D01*
X424446Y598762D01*
X423939Y598279D01*
X423933Y598271D01*
X423925Y598265D01*
X423831Y598128D01*
X423534Y597492D01*
X423524Y597450D01*
X423498Y597384D01*
X423352Y596695D01*
X423352Y596666D01*
X423343Y596628D01*
X423291Y595925D01*
X423293Y595909D01*
X423290Y595889D01*
X423289Y595184D01*
X423290Y595181D01*
X423290Y595179D01*
X423294Y595159D01*
X423296Y595153D01*
X423295Y595111D01*
X423395Y594427D01*
X423409Y594388D01*
X423413Y594347D01*
X423447Y594281D01*
X423462Y594240D01*
X423477Y594224D01*
X423489Y594199D01*
X423912Y593636D01*
X423938Y593613D01*
X423967Y593574D01*
X424478Y593089D01*
X424495Y593078D01*
X424512Y593060D01*
X425064Y592621D01*
X425099Y592603D01*
X425145Y592568D01*
X425767Y592247D01*
X425794Y592240D01*
X425826Y592222D01*
X426489Y591981D01*
X426496Y591980D01*
X426505Y591975D01*
X427176Y591757D01*
X427186Y591756D01*
X427198Y591751D01*
X428558Y591377D01*
X428569Y591376D01*
X428583Y591371D01*
X429960Y591068D01*
X429970Y591068D01*
X429980Y591064D01*
X431369Y590816D01*
X431375Y590817D01*
X431383Y590814D01*
X432778Y590607D01*
X432783Y590607D01*
X432789Y590605D01*
X437677Y589988D01*
X438236Y589899D01*
X438527Y589672D01*
X438345Y589555D01*
X437826Y589474D01*
X437195Y589551D01*
X437186Y589550D01*
X437175Y589553D01*
X435779Y589666D01*
X435092Y589742D01*
X433708Y589940D01*
X430927Y590387D01*
X430919Y590387D01*
X430909Y590390D01*
X429509Y590564D01*
X429499Y590563D01*
X429487Y590566D01*
X428784Y590622D01*
X428745Y590617D01*
X428689Y590620D01*
X427995Y590542D01*
X427982Y590538D01*
X427968Y590539D01*
X427811Y590485D01*
X427195Y590149D01*
X427193Y590147D01*
X427191Y590146D01*
X427086Y590062D01*
X427069Y590051D01*
X427067Y590047D01*
X427061Y590042D01*
X426595Y589517D01*
X426573Y589479D01*
X426518Y589402D01*
X426213Y588769D01*
X426202Y588727D01*
X426175Y588662D01*
X426020Y587976D01*
X426019Y587934D01*
X426008Y587873D01*
X425997Y587169D01*
X426005Y587129D01*
X426006Y587067D01*
X426139Y586375D01*
X426156Y586334D01*
X426183Y586247D01*
X426495Y585622D01*
X426522Y585587D01*
X426572Y585509D01*
X427046Y584987D01*
X427060Y584977D01*
X427073Y584960D01*
X427585Y584475D01*
X427600Y584466D01*
X427614Y584451D01*
X428161Y584006D01*
X428176Y583999D01*
X428190Y583984D01*
X428769Y583581D01*
X428784Y583574D01*
X428800Y583561D01*
X429406Y583201D01*
X429422Y583196D01*
X429438Y583184D01*
X430069Y582870D01*
X430086Y582865D01*
X430104Y582854D01*
X430757Y582588D01*
X430773Y582585D01*
X430792Y582575D01*
X431464Y582360D01*
X431482Y582358D01*
X431502Y582349D01*
X432189Y582188D01*
X432197Y582187D01*
X432206Y582184D01*
X432897Y582047D01*
X432901Y582047D01*
X432906Y582045D01*
X434294Y581794D01*
X434300Y581794D01*
X434307Y581791D01*
X436398Y581469D01*
X436403Y581469D01*
X436409Y581467D01*
X437808Y581284D01*
X437812Y581284D01*
X437818Y581283D01*
X439921Y581049D01*
X439925Y581049D01*
X439930Y581048D01*
X442037Y580854D01*
X442040Y580854D01*
X442044Y580853D01*
X444153Y580688D01*
X444156Y580689D01*
X444160Y580688D01*
X450494Y580272D01*
X450586Y580285D01*
X450679Y580295D01*
X450685Y580298D01*
X450691Y580299D01*
X450771Y580346D01*
X450852Y580392D01*
X450857Y580397D01*
X450862Y580401D01*
X450917Y580475D01*
X450965Y580537D01*
X451004Y580484D01*
X451036Y580426D01*
X451063Y580405D01*
X451083Y580378D01*
X451140Y580344D01*
X451193Y580303D01*
X451225Y580294D01*
X451254Y580277D01*
X451341Y580262D01*
X451385Y580251D01*
X451400Y580253D01*
X451418Y580250D01*
X454240Y580259D01*
X454246Y580260D01*
X454254Y580259D01*
X455664Y580304D01*
X455671Y580306D01*
X455679Y580305D01*
X456384Y580349D01*
X456390Y580351D01*
X456397Y580350D01*
X457099Y580414D01*
X457107Y580416D01*
X457116Y580416D01*
X457816Y580503D01*
X457824Y580505D01*
X457834Y580505D01*
X458531Y580618D01*
X458539Y580622D01*
X458551Y580622D01*
X459242Y580764D01*
X459252Y580769D01*
X459266Y580770D01*
X459949Y580946D01*
X459960Y580951D01*
X459975Y580953D01*
X460647Y581166D01*
X460656Y581171D01*
X460669Y581173D01*
X461991Y581659D01*
X461997Y581662D01*
X462004Y581664D01*
X462659Y581924D01*
X462671Y581932D01*
X462688Y581937D01*
X463326Y582239D01*
X463334Y582245D01*
X463346Y582249D01*
X463969Y582580D01*
X463975Y582584D01*
X463984Y582588D01*
X464595Y582939D01*
X464598Y582941D01*
X464603Y582943D01*
X467017Y584385D01*
X467548Y584674D01*
X467474Y584260D01*
X467107Y583842D01*
X467061Y583762D01*
X467013Y583683D01*
X467012Y583676D01*
X467008Y583669D01*
X466997Y583578D01*
X466983Y583486D01*
X466985Y583479D01*
X466984Y583472D01*
X467010Y583383D01*
X467033Y583294D01*
X467037Y583288D01*
X467040Y583281D01*
X467098Y583209D01*
X467154Y583136D01*
X467161Y583132D01*
X467165Y583127D01*
X467196Y583110D01*
X467296Y583049D01*
X468605Y582523D01*
X468610Y582522D01*
X468616Y582519D01*
X469937Y582025D01*
X469945Y582024D01*
X469953Y582019D01*
X471291Y581570D01*
X471301Y581569D01*
X471313Y581564D01*
X472669Y581177D01*
X472682Y581176D01*
X472697Y581170D01*
X474074Y580863D01*
X474087Y580863D01*
X474102Y580857D01*
X475480Y580632D01*
X476155Y580484D01*
X476166Y580484D01*
X476179Y580479D01*
X478255Y580127D01*
X478921Y579985D01*
X479567Y579808D01*
X480189Y579583D01*
X480732Y579326D01*
X481167Y578908D01*
X481189Y578895D01*
X481206Y578875D01*
X481302Y578823D01*
X481335Y578802D01*
X481344Y578801D01*
X481353Y578796D01*
X482016Y578572D01*
X482054Y578567D01*
X482106Y578550D01*
X482804Y578452D01*
X482825Y578453D01*
X482850Y578448D01*
X483536Y578415D01*
X484918Y578248D01*
X484937Y578249D01*
X484961Y578244D01*
X485665Y578221D01*
X485729Y578232D01*
G37*
G36*
X431770Y557633D02*
X431770Y557633D01*
X431782Y557632D01*
X432483Y557658D01*
X432498Y557662D01*
X432516Y557660D01*
X437427Y558168D01*
X437429Y558169D01*
X437431Y558168D01*
X440235Y558476D01*
X440237Y558477D01*
X440240Y558477D01*
X443742Y558899D01*
X443745Y558900D01*
X443750Y558900D01*
X447244Y559377D01*
X447248Y559378D01*
X447254Y559378D01*
X450738Y559929D01*
X450742Y559930D01*
X450748Y559930D01*
X452831Y560303D01*
X452834Y560304D01*
X452838Y560304D01*
X454223Y560573D01*
X454234Y560578D01*
X454248Y560579D01*
X465881Y563471D01*
X469996Y564461D01*
X470004Y564465D01*
X470016Y564467D01*
X470693Y564660D01*
X470700Y564663D01*
X470710Y564665D01*
X477422Y566833D01*
X477437Y566841D01*
X477458Y566846D01*
X478755Y567378D01*
X479402Y567619D01*
X480724Y568070D01*
X482061Y568485D01*
X486795Y569872D01*
X486802Y569875D01*
X486810Y569877D01*
X488151Y570316D01*
X488162Y570322D01*
X488178Y570326D01*
X488834Y570584D01*
X488915Y570636D01*
X489001Y570691D01*
X489001Y570692D01*
X489048Y570761D01*
X489113Y570856D01*
X489113Y570859D01*
X489150Y571018D01*
X489186Y571609D01*
X489416Y572088D01*
X489818Y572531D01*
X490318Y572956D01*
X490811Y573321D01*
X491391Y573543D01*
X492036Y573745D01*
X492695Y573911D01*
X493367Y574049D01*
X494043Y574162D01*
X496832Y574515D01*
X496843Y574518D01*
X496856Y574518D01*
X497497Y574631D01*
X498149Y574608D01*
X498172Y574612D01*
X498195Y574609D01*
X498269Y574628D01*
X498345Y574641D01*
X498365Y574654D01*
X498388Y574660D01*
X498484Y574729D01*
X498513Y574748D01*
X498516Y574753D01*
X498522Y574757D01*
X498846Y575086D01*
X498847Y575088D01*
X498849Y575089D01*
X498901Y575170D01*
X498955Y575253D01*
X498955Y575255D01*
X498956Y575257D01*
X498973Y575354D01*
X498989Y575449D01*
X498989Y575451D01*
X498989Y575453D01*
X498956Y575616D01*
X498703Y576273D01*
X498689Y576295D01*
X498685Y576314D01*
X498679Y576321D01*
X498674Y576336D01*
X498333Y576952D01*
X498314Y576976D01*
X498295Y577011D01*
X497871Y577574D01*
X497848Y577595D01*
X497823Y577630D01*
X497320Y578124D01*
X497291Y578143D01*
X497258Y578176D01*
X496682Y578582D01*
X496648Y578597D01*
X496603Y578627D01*
X495964Y578922D01*
X495923Y578932D01*
X495863Y578956D01*
X495176Y579109D01*
X495160Y579109D01*
X495141Y579115D01*
X494443Y579218D01*
X494433Y579217D01*
X494422Y579220D01*
X493020Y579368D01*
X493008Y579367D01*
X492995Y579370D01*
X492290Y579408D01*
X492281Y579407D01*
X492269Y579409D01*
X491564Y579418D01*
X491554Y579416D01*
X491541Y579418D01*
X490836Y579393D01*
X490823Y579390D01*
X490807Y579392D01*
X490105Y579327D01*
X490091Y579323D01*
X490073Y579323D01*
X489377Y579213D01*
X489361Y579207D01*
X489341Y579206D01*
X488654Y579046D01*
X488637Y579038D01*
X488614Y579035D01*
X487943Y578818D01*
X487926Y578809D01*
X487901Y578803D01*
X487252Y578527D01*
X487170Y578470D01*
X487090Y578416D01*
X487089Y578415D01*
X487088Y578414D01*
X487082Y578404D01*
X486995Y578279D01*
X486783Y577826D01*
X486765Y577754D01*
X486740Y577683D01*
X486742Y577658D01*
X486736Y577633D01*
X486748Y577559D01*
X486753Y577485D01*
X486765Y577459D01*
X486768Y577437D01*
X486787Y577407D01*
X486791Y577391D01*
X486803Y577374D01*
X486822Y577333D01*
X487170Y576822D01*
X487271Y576440D01*
X487169Y576281D01*
X486944Y576277D01*
X486568Y576592D01*
X486089Y577071D01*
X486055Y577094D01*
X486010Y577136D01*
X485425Y577522D01*
X485396Y577533D01*
X485350Y577555D01*
X485318Y577574D01*
X485305Y577576D01*
X485284Y577586D01*
X484606Y577774D01*
X484565Y577777D01*
X484505Y577791D01*
X483802Y577837D01*
X483775Y577833D01*
X483740Y577837D01*
X483036Y577796D01*
X483022Y577792D01*
X483003Y577793D01*
X480204Y577443D01*
X480199Y577441D01*
X480194Y577441D01*
X478798Y577237D01*
X478792Y577235D01*
X478783Y577235D01*
X477394Y576991D01*
X477385Y576987D01*
X477374Y576987D01*
X475996Y576685D01*
X475988Y576681D01*
X475977Y576680D01*
X475294Y576502D01*
X475288Y576499D01*
X475280Y576498D01*
X474603Y576300D01*
X474595Y576295D01*
X474583Y576293D01*
X473249Y575841D01*
X473244Y575839D01*
X473240Y575838D01*
X473158Y575788D01*
X473077Y575741D01*
X473074Y575737D01*
X473070Y575734D01*
X473014Y575657D01*
X472958Y575582D01*
X472957Y575577D01*
X472954Y575573D01*
X472912Y575412D01*
X472855Y574775D01*
X472859Y574741D01*
X472866Y574621D01*
X473019Y573936D01*
X473033Y573906D01*
X473042Y573862D01*
X473274Y573274D01*
X473367Y572803D01*
X473204Y572483D01*
X473042Y572398D01*
X472975Y572461D01*
X472771Y572983D01*
X472436Y574321D01*
X472426Y574341D01*
X472421Y574369D01*
X472181Y575031D01*
X472177Y575039D01*
X472175Y575047D01*
X472089Y575189D01*
X471633Y575714D01*
X471572Y575761D01*
X471516Y575813D01*
X471492Y575823D01*
X471475Y575835D01*
X471432Y575846D01*
X471362Y575875D01*
X470685Y576022D01*
X470642Y576022D01*
X470576Y576033D01*
X469871Y576030D01*
X469858Y576027D01*
X469842Y576029D01*
X469138Y575984D01*
X469128Y575981D01*
X469115Y575982D01*
X466318Y575672D01*
X464920Y575557D01*
X464915Y575556D01*
X464910Y575556D01*
X462103Y575271D01*
X462094Y575268D01*
X462082Y575269D01*
X461384Y575167D01*
X461372Y575163D01*
X461356Y575162D01*
X460665Y575022D01*
X460649Y575015D01*
X460627Y575012D01*
X459949Y574818D01*
X459932Y574809D01*
X459913Y574806D01*
X459844Y574763D01*
X459773Y574726D01*
X459760Y574711D01*
X459744Y574701D01*
X459658Y574587D01*
X459646Y574572D01*
X459646Y574570D01*
X459644Y574568D01*
X459357Y574015D01*
X459353Y574002D01*
X459345Y573992D01*
X459303Y573831D01*
X459238Y573150D01*
X459127Y572540D01*
X458914Y572074D01*
X457998Y571394D01*
X457404Y571191D01*
X457393Y571184D01*
X457377Y571181D01*
X456728Y570915D01*
X456705Y570900D01*
X456672Y570888D01*
X456071Y570551D01*
X455486Y570269D01*
X454860Y570084D01*
X454199Y569921D01*
X453531Y569792D01*
X452856Y569697D01*
X452175Y569632D01*
X451491Y569594D01*
X450802Y569582D01*
X450113Y569592D01*
X449421Y569620D01*
X448028Y569720D01*
X444523Y570053D01*
X444502Y570050D01*
X444475Y570055D01*
X442360Y570053D01*
X442350Y570051D01*
X442339Y570052D01*
X440225Y569963D01*
X440218Y569961D01*
X440210Y569962D01*
X438099Y569809D01*
X438094Y569807D01*
X438087Y569807D01*
X431771Y569191D01*
X429695Y569012D01*
X428318Y569050D01*
X426208Y569140D01*
X421283Y569415D01*
X421281Y569415D01*
X421279Y569415D01*
X419166Y569517D01*
X419161Y569516D01*
X419156Y569517D01*
X414926Y569641D01*
X414924Y569641D01*
X414921Y569641D01*
X412812Y569680D01*
X412121Y569711D01*
X411439Y569761D01*
X410320Y569909D01*
X410279Y569991D01*
X410291Y570105D01*
X412665Y570144D01*
X414069Y570135D01*
X416175Y570090D01*
X418987Y569988D01*
X426029Y569637D01*
X426031Y569637D01*
X426034Y569636D01*
X428148Y569550D01*
X428167Y569554D01*
X428185Y569550D01*
X428326Y569579D01*
X428344Y569582D01*
X428346Y569583D01*
X428348Y569584D01*
X428790Y569755D01*
X428833Y569783D01*
X428880Y569801D01*
X428916Y569836D01*
X428957Y569863D01*
X428986Y569905D01*
X429023Y569941D01*
X429042Y569986D01*
X429070Y570027D01*
X429080Y570077D01*
X429099Y570124D01*
X429101Y570183D01*
X429109Y570222D01*
X429103Y570251D01*
X429104Y570290D01*
X429013Y570938D01*
X429050Y571556D01*
X429182Y572214D01*
X429182Y572227D01*
X429187Y572242D01*
X429273Y572852D01*
X429351Y572693D01*
X429294Y572134D01*
X429296Y572117D01*
X429292Y572096D01*
X429273Y571392D01*
X429280Y571355D01*
X429279Y571301D01*
X429388Y570606D01*
X429403Y570566D01*
X429418Y570499D01*
X429663Y569884D01*
X429698Y569830D01*
X429725Y569771D01*
X429752Y569748D01*
X429771Y569718D01*
X429825Y569682D01*
X429873Y569639D01*
X429907Y569627D01*
X429937Y569607D01*
X430000Y569595D01*
X430061Y569574D01*
X430102Y569575D01*
X430132Y569570D01*
X430170Y569578D01*
X430228Y569580D01*
X430915Y569723D01*
X430978Y569749D01*
X431043Y569768D01*
X431068Y569788D01*
X431098Y569801D01*
X431145Y569850D01*
X431198Y569892D01*
X431213Y569921D01*
X431236Y569944D01*
X431260Y570008D01*
X431292Y570068D01*
X431297Y570104D01*
X431307Y570130D01*
X431305Y570171D01*
X431313Y570233D01*
X431283Y570927D01*
X431282Y570934D01*
X431282Y570943D01*
X431180Y572328D01*
X431187Y573004D01*
X431205Y573421D01*
X431250Y573447D01*
X431381Y573436D01*
X431533Y571751D01*
X431538Y571736D01*
X431537Y571716D01*
X431649Y571021D01*
X431653Y571011D01*
X431653Y570998D01*
X431797Y570308D01*
X431801Y570299D01*
X431801Y570289D01*
X431840Y570208D01*
X431875Y570126D01*
X431882Y570119D01*
X431887Y570109D01*
X431954Y570049D01*
X432019Y569988D01*
X432028Y569984D01*
X432036Y569978D01*
X432121Y569949D01*
X432204Y569917D01*
X432215Y569918D01*
X432224Y569914D01*
X432391Y569922D01*
X432878Y570027D01*
X432888Y570031D01*
X432900Y570032D01*
X432979Y570071D01*
X433060Y570107D01*
X433068Y570115D01*
X433078Y570120D01*
X433136Y570186D01*
X433197Y570251D01*
X433201Y570262D01*
X433208Y570270D01*
X433264Y570427D01*
X433386Y571110D01*
X433386Y571113D01*
X433387Y571116D01*
X433387Y571282D01*
X433268Y571977D01*
X433258Y572003D01*
X433253Y572041D01*
X433060Y572659D01*
X433353Y572531D01*
X433604Y572121D01*
X433780Y571533D01*
X433904Y570900D01*
X433945Y570423D01*
X433947Y570417D01*
X433946Y570410D01*
X433975Y570322D01*
X434002Y570233D01*
X434006Y570227D01*
X434008Y570221D01*
X434068Y570151D01*
X434128Y570079D01*
X434134Y570076D01*
X434138Y570071D01*
X434221Y570030D01*
X434304Y569987D01*
X434311Y569986D01*
X434317Y569983D01*
X434483Y569969D01*
X437992Y570251D01*
X441502Y570454D01*
X444306Y570540D01*
X447121Y570547D01*
X447172Y570558D01*
X447225Y570558D01*
X447269Y570578D01*
X447316Y570587D01*
X447359Y570617D01*
X447407Y570638D01*
X447440Y570673D01*
X447480Y570700D01*
X447508Y570744D01*
X447544Y570782D01*
X447565Y570835D01*
X447586Y570868D01*
X447591Y570898D01*
X447607Y570936D01*
X447758Y571602D01*
X447758Y571636D01*
X447769Y571681D01*
X447811Y572348D01*
X447921Y572859D01*
X448170Y573114D01*
X448665Y573235D01*
X449283Y573256D01*
X449934Y573188D01*
X451296Y572956D01*
X451974Y572808D01*
X451983Y572808D01*
X451992Y572805D01*
X452686Y572679D01*
X452694Y572680D01*
X452704Y572676D01*
X453403Y572577D01*
X453411Y572578D01*
X453421Y572575D01*
X454123Y572502D01*
X454132Y572503D01*
X454143Y572500D01*
X454846Y572455D01*
X454856Y572456D01*
X454867Y572454D01*
X455572Y572438D01*
X455581Y572439D01*
X455593Y572438D01*
X456298Y572451D01*
X456307Y572453D01*
X456319Y572451D01*
X457023Y572495D01*
X457033Y572497D01*
X457046Y572496D01*
X457747Y572571D01*
X457778Y572581D01*
X457896Y572611D01*
X458462Y572862D01*
X458463Y572862D01*
X458541Y572918D01*
X458624Y572977D01*
X458625Y572978D01*
X458670Y573052D01*
X458728Y573146D01*
X458728Y573147D01*
X458729Y573147D01*
X458759Y573311D01*
X458769Y574008D01*
X458762Y574045D01*
X458749Y574157D01*
X458550Y574832D01*
X458531Y574869D01*
X458510Y574929D01*
X458173Y575548D01*
X458152Y575573D01*
X458132Y575611D01*
X457706Y576172D01*
X457689Y576187D01*
X457674Y576210D01*
X457193Y576727D01*
X457182Y576735D01*
X457171Y576749D01*
X456659Y577234D01*
X456653Y577239D01*
X456647Y577246D01*
X456118Y577713D01*
X456092Y577728D01*
X456062Y577756D01*
X455476Y578141D01*
X455448Y578153D01*
X455414Y578176D01*
X454775Y578476D01*
X454762Y578479D01*
X454747Y578488D01*
X454091Y578747D01*
X454078Y578750D01*
X454063Y578757D01*
X453393Y578977D01*
X453380Y578978D01*
X453365Y578985D01*
X452683Y579166D01*
X452671Y579166D01*
X452656Y579172D01*
X451965Y579314D01*
X451952Y579314D01*
X451937Y579319D01*
X451240Y579421D01*
X451227Y579421D01*
X451213Y579424D01*
X450511Y579489D01*
X450498Y579488D01*
X450483Y579491D01*
X449779Y579517D01*
X449766Y579515D01*
X449752Y579518D01*
X449047Y579506D01*
X449035Y579503D01*
X449020Y579505D01*
X448316Y579455D01*
X448304Y579452D01*
X448289Y579453D01*
X447589Y579364D01*
X447577Y579360D01*
X447562Y579360D01*
X446868Y579234D01*
X446856Y579229D01*
X446841Y579228D01*
X446184Y579070D01*
X445547Y578996D01*
X443467Y578982D01*
X442075Y579023D01*
X439980Y579159D01*
X438591Y579297D01*
X437204Y579471D01*
X435823Y579681D01*
X434448Y579926D01*
X432384Y580357D01*
X432380Y580357D01*
X432376Y580359D01*
X431001Y580625D01*
X429645Y580944D01*
X428298Y581307D01*
X426958Y581708D01*
X425623Y582136D01*
X423622Y582813D01*
X423614Y582814D01*
X423604Y582818D01*
X422930Y583019D01*
X422921Y583020D01*
X422912Y583024D01*
X420180Y583728D01*
X420176Y583728D01*
X420171Y583730D01*
X418799Y584058D01*
X418792Y584059D01*
X418785Y584062D01*
X417404Y584349D01*
X417397Y584349D01*
X417388Y584352D01*
X416694Y584474D01*
X416684Y584474D01*
X416673Y584477D01*
X415275Y584663D01*
X415264Y584662D01*
X415251Y584665D01*
X414548Y584724D01*
X414539Y584723D01*
X414529Y584725D01*
X413824Y584757D01*
X413813Y584755D01*
X413799Y584758D01*
X411684Y584748D01*
X411665Y584744D01*
X411641Y584746D01*
X410939Y584682D01*
X410924Y584678D01*
X410905Y584678D01*
X410209Y584566D01*
X410196Y584561D01*
X410178Y584561D01*
X409490Y584406D01*
X409478Y584400D01*
X409462Y584398D01*
X408784Y584204D01*
X408773Y584198D01*
X408759Y584196D01*
X408092Y583965D01*
X408083Y583959D01*
X408069Y583956D01*
X407415Y583693D01*
X407407Y583688D01*
X407395Y583685D01*
X406753Y583393D01*
X406745Y583388D01*
X406734Y583385D01*
X406104Y583068D01*
X406098Y583062D01*
X406088Y583059D01*
X405470Y582719D01*
X405464Y582714D01*
X405456Y582710D01*
X405117Y582509D01*
X405030Y582566D01*
X405143Y582634D01*
X405150Y582640D01*
X405160Y582644D01*
X405745Y583028D01*
X405757Y583040D01*
X405774Y583049D01*
X406324Y583468D01*
X406884Y583846D01*
X407464Y584191D01*
X408063Y584497D01*
X408679Y584761D01*
X409301Y584975D01*
X409945Y585117D01*
X410615Y585219D01*
X411295Y585292D01*
X411979Y585336D01*
X412664Y585354D01*
X413353Y585346D01*
X414040Y585315D01*
X414725Y585262D01*
X416106Y585096D01*
X416787Y584988D01*
X418855Y584608D01*
X420222Y584324D01*
X421576Y583989D01*
X422922Y583616D01*
X427640Y582180D01*
X427643Y582180D01*
X427647Y582178D01*
X429002Y581787D01*
X429058Y581783D01*
X429113Y581768D01*
X429157Y581775D01*
X429201Y581771D01*
X429254Y581789D01*
X429309Y581797D01*
X429347Y581820D01*
X429389Y581834D01*
X429432Y581871D01*
X429479Y581900D01*
X429505Y581936D01*
X429539Y581965D01*
X429563Y582016D01*
X429596Y582061D01*
X429606Y582105D01*
X429625Y582145D01*
X429627Y582201D01*
X429640Y582255D01*
X429632Y582299D01*
X429634Y582343D01*
X429615Y582396D01*
X429605Y582451D01*
X429581Y582488D01*
X429565Y582530D01*
X429527Y582571D01*
X429496Y582617D01*
X429454Y582648D01*
X429429Y582674D01*
X429393Y582692D01*
X429361Y582715D01*
X428770Y583006D01*
X428176Y583333D01*
X427612Y583693D01*
X427083Y584093D01*
X426598Y584534D01*
X426168Y585019D01*
X425816Y585526D01*
X425599Y586076D01*
X425484Y586720D01*
X425464Y586769D01*
X425454Y586821D01*
X425428Y586861D01*
X425410Y586905D01*
X425373Y586942D01*
X425344Y586986D01*
X425304Y587013D01*
X425270Y587047D01*
X425222Y587067D01*
X425178Y587095D01*
X425122Y587108D01*
X425086Y587122D01*
X425056Y587122D01*
X425015Y587131D01*
X423660Y587193D01*
X422973Y587248D01*
X421583Y587399D01*
X418085Y587831D01*
X418075Y587830D01*
X418064Y587833D01*
X416658Y587946D01*
X416648Y587945D01*
X416636Y587948D01*
X415932Y587974D01*
X415930Y587974D01*
X415928Y587974D01*
X415442Y587990D01*
X415435Y587988D01*
X415426Y587990D01*
X414721Y587989D01*
X414714Y587988D01*
X414706Y587989D01*
X413296Y587945D01*
X413288Y587943D01*
X413279Y587944D01*
X411173Y587806D01*
X410476Y587779D01*
X410468Y587777D01*
X410457Y587778D01*
X409754Y587724D01*
X409746Y587722D01*
X409735Y587722D01*
X409034Y587641D01*
X409027Y587639D01*
X409017Y587639D01*
X408319Y587534D01*
X408312Y587531D01*
X408301Y587530D01*
X407608Y587399D01*
X407601Y587396D01*
X407592Y587396D01*
X406904Y587241D01*
X406897Y587238D01*
X406888Y587237D01*
X406205Y587060D01*
X406195Y587055D01*
X406182Y587053D01*
X404835Y586634D01*
X404824Y586627D01*
X404807Y586624D01*
X403488Y586124D01*
X403477Y586118D01*
X403462Y586114D01*
X402173Y585541D01*
X402166Y585536D01*
X402155Y585533D01*
X401522Y585221D01*
X401517Y585217D01*
X401509Y585214D01*
X399640Y584223D01*
X399629Y584213D01*
X399612Y584206D01*
X399012Y583835D01*
X399003Y583827D01*
X398990Y583821D01*
X398411Y583418D01*
X398404Y583411D01*
X398393Y583406D01*
X397832Y582979D01*
X397825Y582971D01*
X397813Y582964D01*
X396732Y582059D01*
X396727Y582053D01*
X396719Y582048D01*
X395703Y581138D01*
X395185Y580823D01*
X394585Y580597D01*
X393937Y580402D01*
X391937Y579900D01*
X389876Y579730D01*
X388480Y579653D01*
X387078Y579604D01*
X385676Y579576D01*
X383568Y579569D01*
X378636Y579643D01*
X378605Y579637D01*
X378482Y579621D01*
X377959Y579460D01*
X377909Y579433D01*
X377855Y579415D01*
X377822Y579386D01*
X377784Y579365D01*
X377749Y579321D01*
X377706Y579284D01*
X377687Y579244D01*
X377660Y579210D01*
X377645Y579155D01*
X377621Y579104D01*
X377617Y579053D01*
X377607Y579018D01*
X377611Y578985D01*
X377608Y578938D01*
X377671Y578236D01*
X377674Y578224D01*
X377674Y578209D01*
X377776Y577511D01*
X377780Y577497D01*
X377781Y577480D01*
X377927Y576790D01*
X377933Y576775D01*
X377935Y576755D01*
X378130Y576077D01*
X378138Y576061D01*
X378143Y576038D01*
X378393Y575379D01*
X378412Y575349D01*
X378429Y575302D01*
X378768Y574727D01*
X379034Y574112D01*
X379060Y574075D01*
X379096Y574007D01*
X379470Y573518D01*
X379782Y572931D01*
X379788Y572924D01*
X379792Y572913D01*
X380149Y572305D01*
X380163Y572289D01*
X380175Y572264D01*
X380589Y571694D01*
X380613Y571672D01*
X380638Y571636D01*
X381101Y571167D01*
X381915Y570102D01*
X382264Y569522D01*
X382292Y569492D01*
X382326Y569440D01*
X382801Y568927D01*
X382808Y568921D01*
X382815Y568912D01*
X383293Y568437D01*
X383695Y567925D01*
X384056Y567364D01*
X385081Y565537D01*
X385088Y565528D01*
X385093Y565515D01*
X385842Y564324D01*
X385847Y564319D01*
X385850Y564312D01*
X386225Y563752D01*
X386531Y563171D01*
X386798Y562540D01*
X386809Y562525D01*
X386816Y562503D01*
X387126Y561914D01*
X387339Y561296D01*
X387529Y560631D01*
X387543Y560604D01*
X387553Y560565D01*
X387826Y559952D01*
X388018Y559318D01*
X388048Y559262D01*
X388070Y559202D01*
X388095Y559175D01*
X388113Y559143D01*
X388162Y559103D01*
X388206Y559057D01*
X388243Y559038D01*
X388268Y559019D01*
X388305Y559008D01*
X388355Y558984D01*
X388988Y558798D01*
X388991Y558798D01*
X388994Y558796D01*
X389160Y558779D01*
X390568Y558867D01*
X390574Y558868D01*
X390583Y558868D01*
X391987Y558997D01*
X391992Y558999D01*
X391999Y558998D01*
X393400Y559160D01*
X393404Y559161D01*
X393410Y559161D01*
X395507Y559444D01*
X395509Y559445D01*
X395511Y559445D01*
X399698Y560046D01*
X401089Y560228D01*
X402480Y560386D01*
X403873Y560513D01*
X405265Y560601D01*
X406634Y560645D01*
X408022Y560631D01*
X409411Y560555D01*
X410797Y560425D01*
X412181Y560248D01*
X413560Y560030D01*
X414937Y559778D01*
X416311Y559499D01*
X418373Y559042D01*
X421805Y558252D01*
X421821Y558251D01*
X421839Y558245D01*
X422535Y558135D01*
X422549Y558136D01*
X422567Y558131D01*
X425376Y557870D01*
X425382Y557870D01*
X425389Y557869D01*
X427500Y557728D01*
X427506Y557728D01*
X427514Y557727D01*
X429628Y557644D01*
X429636Y557645D01*
X429645Y557644D01*
X431761Y557631D01*
X431770Y557633D01*
G37*
G36*
X264403Y597417D02*
X264403Y597417D01*
X264411Y597415D01*
X264500Y597436D01*
X264590Y597455D01*
X264597Y597459D01*
X264605Y597461D01*
X264678Y597515D01*
X264754Y597567D01*
X264758Y597574D01*
X264765Y597579D01*
X264811Y597658D01*
X264861Y597735D01*
X264862Y597743D01*
X264866Y597750D01*
X264894Y597914D01*
X264894Y620462D01*
X267803Y615209D01*
X267808Y615204D01*
X267811Y615196D01*
X268529Y613984D01*
X268534Y613978D01*
X268538Y613970D01*
X269297Y612782D01*
X269303Y612775D01*
X269307Y612765D01*
X270112Y611608D01*
X270120Y611601D01*
X270126Y611589D01*
X270986Y610472D01*
X270994Y610466D01*
X271000Y610455D01*
X271454Y609916D01*
X271460Y609911D01*
X271465Y609904D01*
X271937Y609380D01*
X271944Y609375D01*
X271950Y609366D01*
X272441Y608861D01*
X272449Y608855D01*
X272457Y608846D01*
X272969Y608363D01*
X272979Y608357D01*
X272989Y608346D01*
X273526Y607890D01*
X273537Y607883D01*
X273548Y607872D01*
X274111Y607447D01*
X274124Y607440D01*
X274139Y607427D01*
X274729Y607043D01*
X274745Y607036D01*
X274763Y607022D01*
X275381Y606686D01*
X275401Y606680D01*
X275422Y606666D01*
X276069Y606386D01*
X276092Y606382D01*
X276118Y606368D01*
X276790Y606158D01*
X276816Y606156D01*
X276847Y606144D01*
X277540Y606015D01*
X277567Y606015D01*
X277602Y606007D01*
X278305Y605966D01*
X278334Y605970D01*
X278371Y605966D01*
X279074Y606018D01*
X279100Y606026D01*
X279137Y606027D01*
X279827Y606168D01*
X279850Y606178D01*
X279883Y606183D01*
X280552Y606404D01*
X280572Y606415D01*
X280600Y606423D01*
X281243Y606711D01*
X281259Y606723D01*
X281283Y606732D01*
X281897Y607078D01*
X281910Y607089D01*
X281930Y607098D01*
X282515Y607490D01*
X282525Y607501D01*
X282542Y607509D01*
X283100Y607939D01*
X283108Y607949D01*
X283122Y607958D01*
X283655Y608419D01*
X283661Y608428D01*
X283673Y608435D01*
X284182Y608922D01*
X284188Y608930D01*
X284197Y608937D01*
X284685Y609446D01*
X284690Y609453D01*
X284698Y609459D01*
X285167Y609986D01*
X285170Y609992D01*
X285177Y609998D01*
X285628Y610540D01*
X285633Y610548D01*
X285642Y610556D01*
X286497Y611676D01*
X286502Y611685D01*
X286511Y611695D01*
X287313Y612854D01*
X287316Y612862D01*
X287323Y612870D01*
X288080Y614059D01*
X288083Y614066D01*
X288088Y614073D01*
X288806Y615286D01*
X288807Y615290D01*
X288810Y615294D01*
X289853Y617133D01*
X289854Y617135D01*
X289856Y617137D01*
X291697Y620462D01*
X291697Y598529D01*
X291703Y598498D01*
X291703Y598457D01*
X291793Y597842D01*
X291817Y597774D01*
X291834Y597704D01*
X291850Y597682D01*
X291860Y597655D01*
X291909Y597602D01*
X291952Y597544D01*
X291976Y597530D01*
X291995Y597509D01*
X292061Y597479D01*
X292123Y597443D01*
X292154Y597438D01*
X292177Y597427D01*
X292220Y597426D01*
X292287Y597415D01*
X301448Y597415D01*
X301466Y597419D01*
X301489Y597417D01*
X302140Y597470D01*
X302224Y597495D01*
X302309Y597515D01*
X302319Y597522D01*
X302331Y597526D01*
X302399Y597581D01*
X302469Y597633D01*
X302476Y597643D01*
X302485Y597651D01*
X302526Y597729D01*
X302571Y597804D01*
X302573Y597817D01*
X302578Y597827D01*
X302582Y597869D01*
X302599Y597968D01*
X302599Y629681D01*
X302598Y629686D01*
X302598Y629693D01*
X302581Y630397D01*
X302577Y630415D01*
X302579Y630438D01*
X302503Y631139D01*
X302497Y631158D01*
X302497Y631183D01*
X302359Y631874D01*
X302351Y631893D01*
X302348Y631920D01*
X302145Y632595D01*
X302134Y632614D01*
X302128Y632641D01*
X301860Y633292D01*
X301848Y633310D01*
X301839Y633336D01*
X301510Y633958D01*
X301496Y633975D01*
X301485Y634000D01*
X301097Y634588D01*
X301083Y634602D01*
X301071Y634624D01*
X300632Y635175D01*
X300617Y635187D01*
X300604Y635206D01*
X300121Y635718D01*
X300112Y635725D01*
X300109Y635728D01*
X300104Y635731D01*
X300093Y635746D01*
X299571Y636219D01*
X299561Y636224D01*
X299559Y636227D01*
X299550Y636233D01*
X299537Y636246D01*
X298977Y636672D01*
X298958Y636681D01*
X298939Y636698D01*
X298342Y637072D01*
X298322Y637079D01*
X298300Y637095D01*
X297669Y637409D01*
X297649Y637415D01*
X297625Y637429D01*
X296967Y637680D01*
X296945Y637684D01*
X296920Y637695D01*
X296241Y637881D01*
X296220Y637883D01*
X296195Y637891D01*
X295501Y638012D01*
X295481Y638012D01*
X295457Y638018D01*
X294755Y638077D01*
X294736Y638075D01*
X294711Y638079D01*
X294007Y638076D01*
X293983Y638071D01*
X293950Y638073D01*
X293251Y637991D01*
X293227Y637983D01*
X293196Y637981D01*
X292510Y637821D01*
X292489Y637812D01*
X292461Y637807D01*
X291795Y637577D01*
X291777Y637567D01*
X291752Y637561D01*
X291110Y637272D01*
X291096Y637261D01*
X291075Y637254D01*
X290457Y636916D01*
X290445Y636906D01*
X290427Y636898D01*
X289834Y636517D01*
X289824Y636508D01*
X289809Y636500D01*
X289240Y636085D01*
X289232Y636076D01*
X289220Y636069D01*
X288673Y635624D01*
X288667Y635616D01*
X288656Y635609D01*
X288130Y635140D01*
X288125Y635132D01*
X288116Y635126D01*
X287609Y634636D01*
X287605Y634630D01*
X287597Y634624D01*
X287108Y634116D01*
X287104Y634110D01*
X287097Y634104D01*
X286625Y633581D01*
X286620Y633573D01*
X286612Y633566D01*
X285711Y632482D01*
X285707Y632475D01*
X285699Y632468D01*
X285269Y631911D01*
X285266Y631904D01*
X285260Y631899D01*
X284432Y630758D01*
X284429Y630751D01*
X284422Y630743D01*
X283635Y629574D01*
X283632Y629567D01*
X283625Y629559D01*
X282508Y627764D01*
X282505Y627755D01*
X282497Y627745D01*
X278298Y620278D01*
X276122Y624163D01*
X276121Y624164D01*
X276120Y624167D01*
X274372Y627226D01*
X274369Y627230D01*
X274367Y627235D01*
X273642Y628444D01*
X273639Y628447D01*
X273636Y628453D01*
X272886Y629646D01*
X272881Y629651D01*
X272877Y629660D01*
X271695Y631412D01*
X271688Y631419D01*
X271682Y631430D01*
X270844Y632562D01*
X270838Y632567D01*
X270834Y632576D01*
X270396Y633128D01*
X270388Y633134D01*
X270382Y633144D01*
X269460Y634210D01*
X269450Y634217D01*
X269441Y634230D01*
X268952Y634737D01*
X268945Y634741D01*
X268938Y634750D01*
X268430Y635238D01*
X268421Y635243D01*
X268414Y635252D01*
X267885Y635718D01*
X267875Y635724D01*
X267874Y635725D01*
X267872Y635728D01*
X267871Y635729D01*
X267866Y635734D01*
X267314Y636173D01*
X267303Y636178D01*
X267293Y636189D01*
X266718Y636597D01*
X266705Y636602D01*
X266691Y636614D01*
X266092Y636984D01*
X266076Y636990D01*
X266060Y637002D01*
X265435Y637328D01*
X265418Y637333D01*
X265398Y637345D01*
X264749Y637618D01*
X264729Y637622D01*
X264706Y637634D01*
X264034Y637847D01*
X264012Y637849D01*
X263985Y637859D01*
X263296Y638003D01*
X263272Y638003D01*
X263242Y638011D01*
X262541Y638079D01*
X262518Y638076D01*
X262488Y638081D01*
X261784Y638074D01*
X261765Y638070D01*
X261742Y638072D01*
X261040Y638006D01*
X261021Y638000D01*
X260996Y637999D01*
X260303Y637870D01*
X260284Y637862D01*
X260257Y637859D01*
X259580Y637665D01*
X259561Y637655D01*
X259534Y637649D01*
X258879Y637390D01*
X258861Y637378D01*
X258834Y637370D01*
X258208Y637048D01*
X258191Y637034D01*
X258167Y637024D01*
X257574Y636643D01*
X257559Y636629D01*
X257536Y636617D01*
X256981Y636184D01*
X256969Y636170D01*
X256949Y636157D01*
X256431Y635680D01*
X256421Y635665D01*
X256403Y635651D01*
X255925Y635134D01*
X255915Y635118D01*
X255898Y635102D01*
X255465Y634547D01*
X255456Y634529D01*
X255438Y634510D01*
X255058Y633917D01*
X255050Y633897D01*
X255034Y633875D01*
X254711Y633249D01*
X254706Y633228D01*
X254691Y633205D01*
X254431Y632550D01*
X254430Y632545D01*
X254429Y632542D01*
X254426Y632525D01*
X254416Y632503D01*
X254221Y631826D01*
X254220Y631806D01*
X254211Y631781D01*
X254081Y631089D01*
X254081Y631069D01*
X254074Y631044D01*
X254007Y630343D01*
X254009Y630325D01*
X254005Y630304D01*
X253993Y629599D01*
X253994Y629595D01*
X253993Y629591D01*
X253993Y598582D01*
X253995Y598570D01*
X253994Y598555D01*
X254030Y597887D01*
X254054Y597795D01*
X254076Y597704D01*
X254079Y597700D01*
X254080Y597695D01*
X254138Y597619D01*
X254194Y597544D01*
X254198Y597541D01*
X254202Y597537D01*
X254284Y597491D01*
X254365Y597443D01*
X254371Y597442D01*
X254375Y597439D01*
X254406Y597436D01*
X254529Y597415D01*
X264395Y597415D01*
X264403Y597417D01*
G37*
G36*
X353828Y597415D02*
X353828Y597415D01*
X353836Y597417D01*
X353844Y597415D01*
X353933Y597436D01*
X354023Y597455D01*
X354030Y597459D01*
X354038Y597461D01*
X354111Y597515D01*
X354187Y597567D01*
X354191Y597574D01*
X354198Y597579D01*
X354244Y597658D01*
X354294Y597735D01*
X354295Y597743D01*
X354299Y597750D01*
X354327Y597914D01*
X354327Y603327D01*
X354395Y603381D01*
X365373Y603381D01*
X365682Y603180D01*
X369087Y597937D01*
X369116Y597907D01*
X369137Y597872D01*
X369195Y597827D01*
X369226Y597795D01*
X369246Y597787D01*
X369268Y597770D01*
X369815Y597475D01*
X369853Y597463D01*
X369888Y597443D01*
X369963Y597430D01*
X370005Y597417D01*
X370026Y597420D01*
X370052Y597415D01*
X381354Y597415D01*
X381437Y597432D01*
X381522Y597444D01*
X381534Y597452D01*
X381549Y597455D01*
X381619Y597503D01*
X381692Y597547D01*
X381700Y597559D01*
X381713Y597567D01*
X381759Y597639D01*
X381808Y597708D01*
X381812Y597722D01*
X381820Y597735D01*
X381834Y597819D01*
X381853Y597902D01*
X381851Y597918D01*
X381853Y597931D01*
X381843Y597973D01*
X381829Y598066D01*
X381681Y598531D01*
X381659Y598570D01*
X381624Y598651D01*
X358964Y633628D01*
X358579Y634221D01*
X358573Y634227D01*
X358568Y634237D01*
X358160Y634814D01*
X358148Y634825D01*
X358138Y634842D01*
X357690Y635388D01*
X357676Y635399D01*
X357663Y635418D01*
X357172Y635926D01*
X357156Y635937D01*
X357140Y635956D01*
X356607Y636418D01*
X356589Y636429D01*
X356570Y636448D01*
X355995Y636858D01*
X355975Y636866D01*
X355953Y636884D01*
X355340Y637235D01*
X355319Y637242D01*
X355295Y637258D01*
X354650Y637545D01*
X354628Y637549D01*
X354603Y637563D01*
X353932Y637783D01*
X353910Y637785D01*
X353885Y637796D01*
X353196Y637950D01*
X353176Y637950D01*
X353152Y637958D01*
X352451Y638049D01*
X352433Y638048D01*
X352410Y638053D01*
X351704Y638085D01*
X351686Y638082D01*
X351664Y638085D01*
X350958Y638061D01*
X350939Y638056D01*
X350914Y638057D01*
X350213Y637969D01*
X350193Y637962D01*
X350165Y637961D01*
X349476Y637806D01*
X349456Y637796D01*
X349428Y637792D01*
X348758Y637568D01*
X348739Y637557D01*
X348711Y637550D01*
X348068Y637260D01*
X348050Y637247D01*
X348024Y637237D01*
X347412Y636886D01*
X347396Y636872D01*
X347372Y636860D01*
X346796Y636452D01*
X346783Y636437D01*
X346761Y636424D01*
X346224Y635967D01*
X346214Y635954D01*
X346198Y635943D01*
X345693Y635449D01*
X345686Y635437D01*
X345672Y635427D01*
X345199Y634903D01*
X345190Y634886D01*
X345172Y634870D01*
X344745Y634308D01*
X344736Y634290D01*
X344719Y634270D01*
X344345Y633671D01*
X344337Y633651D01*
X344321Y633629D01*
X344008Y632996D01*
X344002Y632974D01*
X343987Y632950D01*
X343739Y632289D01*
X343736Y632267D01*
X343724Y632241D01*
X343543Y631559D01*
X343542Y631537D01*
X343533Y631510D01*
X343421Y630813D01*
X343422Y630793D01*
X343415Y630768D01*
X343368Y630063D01*
X343370Y630048D01*
X343367Y630029D01*
X343364Y615902D01*
X343373Y615860D01*
X343371Y615817D01*
X343392Y615764D01*
X343404Y615707D01*
X343428Y615672D01*
X343443Y615632D01*
X343484Y615591D01*
X343516Y615543D01*
X343552Y615520D01*
X343582Y615489D01*
X343647Y615460D01*
X343684Y615436D01*
X343706Y615432D01*
X343733Y615420D01*
X344289Y615270D01*
X344334Y615267D01*
X344420Y615252D01*
X353602Y615252D01*
X353702Y615272D01*
X353795Y615291D01*
X353796Y615292D01*
X353797Y615292D01*
X353880Y615348D01*
X353960Y615403D01*
X353961Y615404D01*
X353966Y615412D01*
X354055Y615540D01*
X354280Y616021D01*
X354286Y616046D01*
X354299Y616068D01*
X354318Y616176D01*
X354327Y616214D01*
X354325Y616222D01*
X354327Y616232D01*
X354327Y620726D01*
X358561Y614283D01*
X344166Y614283D01*
X344118Y614273D01*
X344070Y614273D01*
X344022Y614253D01*
X343971Y614243D01*
X343931Y614216D01*
X343886Y614197D01*
X343841Y614154D01*
X343807Y614130D01*
X343792Y614107D01*
X343766Y614082D01*
X343464Y613678D01*
X343431Y613609D01*
X343430Y613607D01*
X343407Y613571D01*
X343406Y613567D01*
X343392Y613543D01*
X343388Y613517D01*
X343379Y613498D01*
X343377Y613454D01*
X343364Y613379D01*
X343364Y598545D01*
X343370Y598520D01*
X343368Y598486D01*
X343443Y597855D01*
X343468Y597780D01*
X343486Y597704D01*
X343499Y597687D01*
X343506Y597666D01*
X343558Y597607D01*
X343604Y597544D01*
X343623Y597533D01*
X343637Y597517D01*
X343708Y597483D01*
X343775Y597443D01*
X343799Y597439D01*
X343816Y597430D01*
X343861Y597428D01*
X343939Y597415D01*
X353828Y597415D01*
G37*
G36*
X226957Y550090D02*
X226957Y550090D01*
X227027Y550095D01*
X227054Y550109D01*
X227083Y550115D01*
X227141Y550155D01*
X227204Y550188D01*
X227222Y550211D01*
X227247Y550228D01*
X227285Y550287D01*
X227330Y550341D01*
X227340Y550373D01*
X227354Y550395D01*
X227361Y550437D01*
X227382Y550499D01*
X227475Y551112D01*
X227474Y551144D01*
X227481Y551187D01*
X227481Y572357D01*
X227463Y572447D01*
X227447Y572538D01*
X227443Y572545D01*
X227441Y572552D01*
X227389Y572628D01*
X227340Y572705D01*
X227333Y572710D01*
X227329Y572716D01*
X227251Y572766D01*
X227175Y572817D01*
X227167Y572819D01*
X227161Y572823D01*
X227125Y572829D01*
X227013Y572855D01*
X226350Y572898D01*
X226336Y572896D01*
X226318Y572899D01*
X219261Y572899D01*
X219196Y572885D01*
X219130Y572881D01*
X219100Y572866D01*
X219067Y572859D01*
X219012Y572821D01*
X218952Y572791D01*
X218930Y572766D01*
X218903Y572747D01*
X218867Y572691D01*
X218824Y572640D01*
X218811Y572603D01*
X218796Y572579D01*
X218789Y572539D01*
X218769Y572482D01*
X218667Y571879D01*
X218668Y571844D01*
X218660Y571796D01*
X218660Y571356D01*
X218585Y571305D01*
X211937Y571305D01*
X211885Y571377D01*
X211885Y573295D01*
X211908Y573445D01*
X226300Y573445D01*
X226307Y573447D01*
X226317Y573446D01*
X226998Y573469D01*
X226999Y573469D01*
X227102Y573494D01*
X227192Y573515D01*
X227192Y573516D01*
X227272Y573574D01*
X227352Y573633D01*
X227352Y573634D01*
X227403Y573719D01*
X227453Y573804D01*
X227453Y573805D01*
X227454Y573809D01*
X227481Y573968D01*
X227481Y581025D01*
X227480Y581029D01*
X227481Y581034D01*
X227469Y581727D01*
X227468Y581731D01*
X227468Y581735D01*
X227446Y581828D01*
X227426Y581921D01*
X227423Y581925D01*
X227422Y581928D01*
X227366Y582005D01*
X227310Y582083D01*
X227307Y582085D01*
X227304Y582089D01*
X227222Y582137D01*
X227141Y582187D01*
X227137Y582188D01*
X227133Y582190D01*
X226969Y582218D01*
X207916Y582218D01*
X207912Y582217D01*
X207906Y582218D01*
X207201Y582204D01*
X207164Y582195D01*
X207111Y582194D01*
X206421Y582052D01*
X206380Y582035D01*
X206307Y582014D01*
X205671Y581713D01*
X205636Y581686D01*
X205572Y581650D01*
X205024Y581209D01*
X204998Y581178D01*
X204953Y581140D01*
X204502Y580599D01*
X204486Y580570D01*
X204457Y580537D01*
X204093Y579933D01*
X204085Y579909D01*
X204066Y579882D01*
X203774Y579241D01*
X203770Y579225D01*
X203762Y579212D01*
X203761Y579205D01*
X203757Y579198D01*
X203524Y578532D01*
X203522Y578515D01*
X203513Y578496D01*
X203331Y577815D01*
X203330Y577802D01*
X203325Y577788D01*
X203181Y577097D01*
X203181Y577087D01*
X203176Y577074D01*
X203064Y576378D01*
X203065Y576369D01*
X203062Y576359D01*
X202976Y575659D01*
X202976Y575651D01*
X202974Y575643D01*
X202911Y574940D01*
X202912Y574931D01*
X202909Y574920D01*
X202838Y573511D01*
X202840Y573500D01*
X202838Y573487D01*
X202832Y571370D01*
X202834Y571362D01*
X202832Y571352D01*
X202879Y569942D01*
X202881Y569933D01*
X202880Y569922D01*
X203081Y567182D01*
X202970Y566698D01*
X201824Y565036D01*
X200198Y562733D01*
X200194Y562725D01*
X200186Y562717D01*
X199803Y562125D01*
X199799Y562114D01*
X199789Y562103D01*
X199436Y561492D01*
X199433Y561483D01*
X199426Y561475D01*
X199098Y560850D01*
X199095Y560839D01*
X199087Y560828D01*
X198790Y560188D01*
X198787Y560175D01*
X198779Y560161D01*
X198520Y559505D01*
X198517Y559489D01*
X198508Y559471D01*
X198296Y558798D01*
X198294Y558778D01*
X198285Y558755D01*
X198134Y558066D01*
X198133Y558042D01*
X198125Y558012D01*
X198051Y557311D01*
X198053Y557285D01*
X198048Y557250D01*
X198059Y556545D01*
X198064Y556523D01*
X198062Y556495D01*
X198145Y555794D01*
X198152Y555772D01*
X198154Y555741D01*
X198311Y555054D01*
X198321Y555031D01*
X198327Y554999D01*
X198562Y554334D01*
X198575Y554312D01*
X198584Y554280D01*
X198895Y553647D01*
X198911Y553627D01*
X198924Y553597D01*
X199306Y553004D01*
X199323Y552987D01*
X199338Y552960D01*
X199783Y552412D01*
X199800Y552398D01*
X199816Y552375D01*
X200314Y551875D01*
X200332Y551862D01*
X200351Y551840D01*
X200896Y551393D01*
X200917Y551382D01*
X200940Y551362D01*
X201530Y550976D01*
X201554Y550966D01*
X201581Y550947D01*
X202212Y550632D01*
X202237Y550626D01*
X202265Y550610D01*
X202929Y550371D01*
X202954Y550367D01*
X202984Y550354D01*
X203671Y550194D01*
X203695Y550193D01*
X203724Y550184D01*
X204424Y550098D01*
X204443Y550100D01*
X204467Y550095D01*
X204994Y550076D01*
X205002Y550077D01*
X205012Y550076D01*
X226888Y550076D01*
X226957Y550090D01*
G37*
G36*
X157562Y597415D02*
X157562Y597415D01*
X177337Y597423D01*
X177363Y597428D01*
X177397Y597427D01*
X178098Y597512D01*
X178128Y597522D01*
X178170Y597526D01*
X178850Y597714D01*
X178879Y597728D01*
X178922Y597740D01*
X179566Y598029D01*
X179592Y598047D01*
X179631Y598064D01*
X180225Y598446D01*
X180246Y598466D01*
X180279Y598486D01*
X180816Y598945D01*
X180832Y598966D01*
X180860Y598987D01*
X181336Y599508D01*
X181351Y599532D01*
X181377Y599559D01*
X181781Y600138D01*
X181793Y600167D01*
X181818Y600201D01*
X182133Y600832D01*
X182142Y600863D01*
X182162Y600903D01*
X182377Y601574D01*
X182381Y601606D01*
X182395Y601647D01*
X182507Y602344D01*
X182506Y602372D01*
X182514Y602408D01*
X182535Y603114D01*
X182533Y603121D01*
X182535Y603129D01*
X182535Y626436D01*
X182534Y626442D01*
X182535Y626449D01*
X182515Y627155D01*
X182509Y627183D01*
X182509Y627222D01*
X182395Y627918D01*
X182383Y627949D01*
X182376Y627993D01*
X182156Y628664D01*
X182140Y628692D01*
X182126Y628735D01*
X181805Y629363D01*
X181786Y629388D01*
X181768Y629425D01*
X181359Y630000D01*
X181338Y630019D01*
X181318Y630050D01*
X180839Y630568D01*
X180818Y630584D01*
X180795Y630611D01*
X180256Y631066D01*
X180230Y631080D01*
X180201Y631107D01*
X179606Y631485D01*
X179576Y631496D01*
X179540Y631520D01*
X178895Y631805D01*
X178863Y631812D01*
X178823Y631831D01*
X178142Y632015D01*
X178111Y632017D01*
X178070Y632028D01*
X177369Y632111D01*
X177344Y632109D01*
X177311Y632114D01*
X157536Y632120D01*
X157532Y632119D01*
X157527Y632120D01*
X156821Y632108D01*
X156795Y632102D01*
X156761Y632103D01*
X156062Y632006D01*
X156032Y631996D01*
X155988Y631990D01*
X155312Y631789D01*
X155282Y631773D01*
X155238Y631760D01*
X154602Y631453D01*
X154576Y631433D01*
X154535Y631414D01*
X153955Y631013D01*
X153934Y630991D01*
X153901Y630969D01*
X153382Y630491D01*
X153370Y630474D01*
X153350Y630459D01*
X152877Y629936D01*
X152861Y629909D01*
X152833Y629879D01*
X152439Y629294D01*
X152426Y629263D01*
X152400Y629226D01*
X152102Y628587D01*
X152097Y628564D01*
X152087Y628548D01*
X152084Y628533D01*
X152075Y628512D01*
X151882Y627834D01*
X151879Y627801D01*
X151867Y627760D01*
X151779Y627059D01*
X151781Y627033D01*
X151775Y626998D01*
X151766Y622054D01*
X151771Y622029D01*
X151769Y622004D01*
X151791Y621932D01*
X151806Y621859D01*
X151820Y621838D01*
X151828Y621814D01*
X151896Y621727D01*
X151918Y621695D01*
X151925Y621691D01*
X151931Y621683D01*
X152302Y621348D01*
X152396Y621292D01*
X152472Y621246D01*
X152473Y621246D01*
X152474Y621246D01*
X152637Y621219D01*
X171509Y621219D01*
X171572Y621160D01*
X171572Y608348D01*
X171445Y608316D01*
X150318Y608316D01*
X150292Y608311D01*
X150265Y608314D01*
X150195Y608291D01*
X150123Y608277D01*
X150101Y608262D01*
X150075Y608254D01*
X150020Y608206D01*
X149959Y608164D01*
X149945Y608142D01*
X149924Y608124D01*
X149892Y608059D01*
X149852Y607997D01*
X149848Y607970D01*
X149836Y607946D01*
X149831Y607873D01*
X149819Y607801D01*
X149825Y607775D01*
X149823Y607748D01*
X149856Y607646D01*
X149865Y607607D01*
X149870Y607600D01*
X149874Y607589D01*
X150140Y607071D01*
X150156Y607051D01*
X150169Y607021D01*
X156464Y597636D01*
X156507Y597593D01*
X156544Y597544D01*
X156578Y597524D01*
X156606Y597497D01*
X156662Y597474D01*
X156715Y597443D01*
X156759Y597435D01*
X156790Y597423D01*
X156827Y597424D01*
X156879Y597415D01*
X157562Y597415D01*
X157562Y597415D01*
G37*
G36*
X388020Y584455D02*
X388020Y584455D01*
X388043Y584455D01*
X390833Y584883D01*
X390860Y584893D01*
X390888Y584895D01*
X390953Y584927D01*
X391020Y584952D01*
X391041Y584972D01*
X391066Y584984D01*
X391112Y585039D01*
X391165Y585088D01*
X391176Y585114D01*
X391195Y585136D01*
X391228Y585232D01*
X391245Y585270D01*
X391245Y585281D01*
X391250Y585293D01*
X391346Y585861D01*
X391345Y585906D01*
X391346Y585923D01*
X391353Y585963D01*
X391350Y585975D01*
X391351Y585990D01*
X391223Y587389D01*
X391135Y588784D01*
X391085Y590181D01*
X391076Y591578D01*
X391110Y592974D01*
X391181Y594370D01*
X391292Y595764D01*
X391441Y597154D01*
X391629Y598539D01*
X391854Y599919D01*
X392118Y601291D01*
X392421Y602656D01*
X392762Y604011D01*
X393140Y605357D01*
X393555Y606691D01*
X394009Y608012D01*
X394758Y609971D01*
X395588Y611897D01*
X396498Y613785D01*
X397486Y615634D01*
X398552Y617440D01*
X399690Y619200D01*
X400903Y620911D01*
X402184Y622571D01*
X403535Y624177D01*
X404469Y625214D01*
X405432Y626225D01*
X406932Y627693D01*
X408491Y629099D01*
X409559Y629995D01*
X410653Y630865D01*
X412341Y632114D01*
X413492Y632903D01*
X414665Y633662D01*
X416464Y634740D01*
X418307Y635741D01*
X420191Y636666D01*
X421465Y637235D01*
X422755Y637770D01*
X424721Y638507D01*
X426045Y638949D01*
X427381Y639355D01*
X429408Y639894D01*
X431456Y640348D01*
X433519Y640715D01*
X435597Y640996D01*
X437685Y641189D01*
X439780Y641297D01*
X441177Y641320D01*
X442574Y641307D01*
X443971Y641253D01*
X445365Y641161D01*
X447452Y640951D01*
X449528Y640653D01*
X451588Y640270D01*
X453633Y639800D01*
X455654Y639246D01*
X457653Y638607D01*
X458966Y638135D01*
X460267Y637627D01*
X462193Y636796D01*
X464083Y635886D01*
X465933Y634897D01*
X467141Y634196D01*
X468330Y633461D01*
X469498Y632695D01*
X470645Y631895D01*
X471769Y631065D01*
X472871Y630202D01*
X473946Y629311D01*
X474997Y628391D01*
X476527Y626954D01*
X477994Y625456D01*
X478936Y624424D01*
X479849Y623368D01*
X481166Y621732D01*
X482003Y620615D01*
X482809Y619474D01*
X483585Y618310D01*
X484326Y617125D01*
X485035Y615920D01*
X485710Y614696D01*
X486349Y613454D01*
X486955Y612195D01*
X487797Y610272D01*
X488312Y608975D01*
X488792Y607663D01*
X489443Y605666D01*
X489829Y604325D01*
X490178Y602973D01*
X490635Y600915D01*
X490660Y600858D01*
X490676Y600799D01*
X490700Y600768D01*
X490716Y600733D01*
X490761Y600691D01*
X490799Y600642D01*
X490837Y600620D01*
X490861Y600597D01*
X490896Y600584D01*
X490942Y600557D01*
X491432Y600367D01*
X491478Y600359D01*
X491522Y600342D01*
X491587Y600341D01*
X491628Y600333D01*
X491654Y600339D01*
X491688Y600339D01*
X495177Y600873D01*
X495201Y600881D01*
X495226Y600882D01*
X495293Y600915D01*
X495364Y600941D01*
X495382Y600958D01*
X495405Y600969D01*
X495481Y601051D01*
X495509Y601077D01*
X495512Y601084D01*
X495518Y601091D01*
X495781Y601489D01*
X495789Y601509D01*
X495803Y601526D01*
X495826Y601601D01*
X495855Y601674D01*
X495855Y601695D01*
X495861Y601716D01*
X495852Y601843D01*
X495852Y601872D01*
X495850Y601876D01*
X495849Y601882D01*
X495350Y603940D01*
X495349Y603942D01*
X495348Y603945D01*
X495000Y605313D01*
X494997Y605320D01*
X494996Y605328D01*
X494408Y607363D01*
X494405Y607369D01*
X494404Y607378D01*
X493968Y608721D01*
X493965Y608726D01*
X493964Y608733D01*
X493494Y610065D01*
X493491Y610070D01*
X493490Y610077D01*
X492986Y611395D01*
X492983Y611401D01*
X492981Y611408D01*
X492443Y612713D01*
X492439Y612719D01*
X492436Y612727D01*
X491566Y614658D01*
X491561Y614665D01*
X491558Y614675D01*
X490614Y616571D01*
X490609Y616577D01*
X490606Y616585D01*
X489935Y617827D01*
X489931Y617832D01*
X489929Y617838D01*
X489227Y619063D01*
X489223Y619068D01*
X489220Y619075D01*
X488486Y620280D01*
X488482Y620285D01*
X488479Y620291D01*
X487715Y621478D01*
X487709Y621483D01*
X487705Y621491D01*
X486500Y623233D01*
X486494Y623239D01*
X486489Y623248D01*
X485218Y624941D01*
X485211Y624947D01*
X485206Y624957D01*
X483870Y626599D01*
X483863Y626605D01*
X483857Y626614D01*
X482459Y628204D01*
X482453Y628209D01*
X482448Y628216D01*
X481482Y629245D01*
X481477Y629249D01*
X481473Y629254D01*
X480480Y630259D01*
X480474Y630263D01*
X480469Y630270D01*
X478933Y631727D01*
X478926Y631731D01*
X478921Y631738D01*
X477865Y632676D01*
X477860Y632679D01*
X477856Y632684D01*
X476777Y633595D01*
X476772Y633598D01*
X476767Y633603D01*
X475665Y634485D01*
X475660Y634488D01*
X475655Y634493D01*
X474531Y635347D01*
X474524Y635350D01*
X474518Y635357D01*
X472791Y636582D01*
X472784Y636585D01*
X472778Y636591D01*
X471601Y637371D01*
X471595Y637373D01*
X471590Y637378D01*
X470394Y638127D01*
X470387Y638130D01*
X470380Y638135D01*
X468549Y639200D01*
X468541Y639203D01*
X468533Y639210D01*
X466662Y640203D01*
X466654Y640205D01*
X466645Y640212D01*
X464738Y641132D01*
X464730Y641134D01*
X464721Y641140D01*
X462780Y641986D01*
X462772Y641987D01*
X462764Y641992D01*
X461452Y642513D01*
X461447Y642514D01*
X461441Y642518D01*
X460116Y643006D01*
X460110Y643006D01*
X460103Y643010D01*
X458766Y643462D01*
X458760Y643463D01*
X458754Y643466D01*
X457406Y643885D01*
X457398Y643885D01*
X457390Y643889D01*
X455348Y644450D01*
X455339Y644450D01*
X455329Y644455D01*
X453267Y644935D01*
X453258Y644936D01*
X453248Y644939D01*
X451169Y645340D01*
X451161Y645340D01*
X451153Y645343D01*
X449759Y645564D01*
X449753Y645564D01*
X449746Y645566D01*
X448347Y645752D01*
X448339Y645752D01*
X448330Y645754D01*
X446223Y645964D01*
X446215Y645963D01*
X446204Y645966D01*
X444090Y646094D01*
X444082Y646093D01*
X444071Y646095D01*
X441954Y646142D01*
X441949Y646141D01*
X441942Y646143D01*
X441354Y646141D01*
X441350Y646140D01*
X441345Y646141D01*
X439933Y646111D01*
X439928Y646109D01*
X439921Y646110D01*
X438511Y646044D01*
X438505Y646042D01*
X438498Y646043D01*
X437090Y645940D01*
X437084Y645939D01*
X437077Y645939D01*
X435672Y645800D01*
X435667Y645799D01*
X435659Y645799D01*
X434259Y645624D01*
X434253Y645622D01*
X434246Y645622D01*
X432850Y645411D01*
X432844Y645409D01*
X432837Y645409D01*
X431447Y645161D01*
X431442Y645158D01*
X431435Y645158D01*
X430052Y644874D01*
X430046Y644872D01*
X430039Y644871D01*
X428664Y644552D01*
X428659Y644549D01*
X428651Y644548D01*
X427285Y644193D01*
X427280Y644190D01*
X427273Y644189D01*
X425916Y643798D01*
X425911Y643796D01*
X425904Y643795D01*
X424558Y643368D01*
X424553Y643366D01*
X424546Y643364D01*
X423211Y642904D01*
X423206Y642901D01*
X423199Y642899D01*
X421877Y642404D01*
X421872Y642401D01*
X421865Y642399D01*
X420557Y641870D01*
X420552Y641866D01*
X420544Y641864D01*
X419250Y641301D01*
X419245Y641297D01*
X419238Y641295D01*
X417959Y640698D01*
X417954Y640694D01*
X417948Y640692D01*
X416684Y640062D01*
X416680Y640058D01*
X416673Y640056D01*
X415427Y639393D01*
X415422Y639389D01*
X415415Y639387D01*
X414186Y638692D01*
X414182Y638688D01*
X414175Y638685D01*
X412965Y637959D01*
X412960Y637955D01*
X412954Y637953D01*
X411762Y637195D01*
X411758Y637191D01*
X411752Y637188D01*
X410580Y636401D01*
X410576Y636397D01*
X410569Y636393D01*
X409419Y635575D01*
X409415Y635571D01*
X409408Y635568D01*
X408279Y634720D01*
X408275Y634716D01*
X408269Y634713D01*
X407162Y633837D01*
X407157Y633831D01*
X407150Y633827D01*
X405532Y632461D01*
X405527Y632455D01*
X405520Y632450D01*
X404471Y631505D01*
X404467Y631501D01*
X404461Y631497D01*
X403437Y630525D01*
X403433Y630521D01*
X403428Y630516D01*
X402429Y629519D01*
X402426Y629514D01*
X402420Y629509D01*
X401447Y628486D01*
X401444Y628481D01*
X401439Y628477D01*
X400492Y627429D01*
X400489Y627424D01*
X400484Y627420D01*
X399565Y626348D01*
X399562Y626343D01*
X399556Y626339D01*
X398665Y625244D01*
X398662Y625239D01*
X398657Y625234D01*
X397794Y624117D01*
X397791Y624112D01*
X397786Y624107D01*
X396952Y622968D01*
X396949Y622961D01*
X396942Y622954D01*
X395748Y621206D01*
X395745Y621199D01*
X395739Y621193D01*
X394980Y620002D01*
X394978Y619997D01*
X394973Y619992D01*
X394245Y618782D01*
X394243Y618776D01*
X394239Y618771D01*
X393542Y617543D01*
X393541Y617537D01*
X393536Y617532D01*
X392872Y616286D01*
X392870Y616281D01*
X392866Y616275D01*
X392234Y615012D01*
X392232Y615007D01*
X392228Y615001D01*
X391629Y613722D01*
X391628Y613716D01*
X391624Y613710D01*
X391059Y612416D01*
X391058Y612411D01*
X391054Y612405D01*
X390522Y611097D01*
X390522Y611092D01*
X390519Y611089D01*
X390519Y611087D01*
X390518Y611085D01*
X390020Y609764D01*
X390019Y609758D01*
X390016Y609751D01*
X389553Y608418D01*
X389552Y608412D01*
X389549Y608405D01*
X389121Y607060D01*
X389120Y607054D01*
X389117Y607048D01*
X388724Y605692D01*
X388724Y605686D01*
X388721Y605679D01*
X388363Y604314D01*
X388363Y604308D01*
X388360Y604301D01*
X388039Y602926D01*
X388038Y602920D01*
X388036Y602913D01*
X387750Y601531D01*
X387750Y601525D01*
X387748Y601518D01*
X387499Y600128D01*
X387499Y600123D01*
X387497Y600116D01*
X387284Y598720D01*
X387284Y598713D01*
X387281Y598704D01*
X387030Y596602D01*
X387030Y596594D01*
X387028Y596586D01*
X386905Y595179D01*
X386906Y595174D01*
X386904Y595167D01*
X386818Y593758D01*
X386819Y593750D01*
X386817Y593742D01*
X386754Y591625D01*
X386756Y591616D01*
X386754Y591605D01*
X386771Y590193D01*
X386772Y590186D01*
X386771Y590177D01*
X386834Y588767D01*
X386835Y588759D01*
X386835Y588750D01*
X387110Y585231D01*
X387112Y585225D01*
X387111Y585218D01*
X387139Y585129D01*
X387164Y585040D01*
X387169Y585035D01*
X387171Y585028D01*
X387274Y584898D01*
X387634Y584576D01*
X387666Y584558D01*
X387692Y584531D01*
X387750Y584508D01*
X387805Y584476D01*
X387842Y584471D01*
X387876Y584457D01*
X387958Y584456D01*
X388002Y584450D01*
X388020Y584455D01*
G37*
G36*
X339938Y550079D02*
X339938Y550079D01*
X339962Y550077D01*
X340665Y550138D01*
X340701Y550148D01*
X340756Y550154D01*
X341436Y550343D01*
X341471Y550361D01*
X341526Y550378D01*
X342157Y550694D01*
X342187Y550718D01*
X342235Y550743D01*
X342797Y551169D01*
X342819Y551195D01*
X342857Y551223D01*
X343344Y551734D01*
X343362Y551764D01*
X343396Y551799D01*
X343791Y552384D01*
X343806Y552420D01*
X343836Y552467D01*
X344114Y553116D01*
X344122Y553154D01*
X344143Y553207D01*
X344290Y553898D01*
X344291Y553933D01*
X344301Y553982D01*
X344329Y554688D01*
X344328Y554697D01*
X344329Y554708D01*
X344329Y576618D01*
X344316Y576685D01*
X344311Y576753D01*
X344295Y576786D01*
X344290Y576813D01*
X344267Y576847D01*
X344240Y576904D01*
X343950Y577320D01*
X343909Y577359D01*
X343875Y577405D01*
X343837Y577427D01*
X343806Y577457D01*
X343753Y577477D01*
X343704Y577506D01*
X343654Y577515D01*
X343620Y577528D01*
X343586Y577526D01*
X343540Y577534D01*
X336472Y577534D01*
X336436Y577527D01*
X336399Y577529D01*
X336321Y577503D01*
X336277Y577494D01*
X336262Y577484D01*
X336241Y577477D01*
X335777Y577234D01*
X335708Y577179D01*
X335638Y577127D01*
X335632Y577116D01*
X335622Y577109D01*
X335581Y577031D01*
X335537Y576956D01*
X335534Y576943D01*
X335529Y576933D01*
X335526Y576891D01*
X335509Y576792D01*
X335509Y558865D01*
X335342Y558848D01*
X333474Y558848D01*
X333417Y558913D01*
X333417Y576395D01*
X333413Y576418D01*
X333414Y576447D01*
X333347Y577087D01*
X333322Y577165D01*
X333304Y577245D01*
X333293Y577259D01*
X333287Y577277D01*
X333234Y577339D01*
X333186Y577405D01*
X333170Y577414D01*
X333158Y577428D01*
X333085Y577464D01*
X333015Y577506D01*
X332995Y577510D01*
X332980Y577517D01*
X332936Y577520D01*
X332851Y577534D01*
X325783Y577534D01*
X325760Y577529D01*
X325730Y577531D01*
X325091Y577463D01*
X325013Y577438D01*
X324934Y577420D01*
X324919Y577409D01*
X324902Y577403D01*
X324840Y577350D01*
X324774Y577302D01*
X324765Y577286D01*
X324750Y577274D01*
X324714Y577201D01*
X324673Y577131D01*
X324669Y577110D01*
X324662Y577096D01*
X324659Y577051D01*
X324645Y576967D01*
X324645Y558893D01*
X324557Y558848D01*
X322627Y558848D01*
X322505Y558882D01*
X322505Y576879D01*
X322497Y576918D01*
X322499Y576958D01*
X322477Y577014D01*
X322465Y577074D01*
X322443Y577107D01*
X322429Y577144D01*
X322387Y577188D01*
X322353Y577238D01*
X322319Y577259D01*
X322292Y577288D01*
X322223Y577321D01*
X322185Y577345D01*
X322165Y577348D01*
X322141Y577359D01*
X321590Y577515D01*
X321547Y577518D01*
X321455Y577534D01*
X314387Y577534D01*
X314347Y577526D01*
X314307Y577528D01*
X314251Y577506D01*
X314192Y577494D01*
X314159Y577472D01*
X314121Y577457D01*
X314078Y577416D01*
X314028Y577382D01*
X314006Y577348D01*
X313977Y577320D01*
X313945Y577252D01*
X313921Y577214D01*
X313917Y577194D01*
X313906Y577170D01*
X313751Y576618D01*
X313748Y576574D01*
X313732Y576483D01*
X313732Y551038D01*
X313740Y551002D01*
X313738Y550965D01*
X313763Y550888D01*
X313772Y550844D01*
X313782Y550828D01*
X313790Y550807D01*
X314033Y550343D01*
X314088Y550275D01*
X314140Y550205D01*
X314150Y550198D01*
X314158Y550189D01*
X314236Y550148D01*
X314311Y550103D01*
X314324Y550101D01*
X314334Y550096D01*
X314376Y550092D01*
X314475Y550076D01*
X339919Y550076D01*
X339938Y550079D01*
G37*
G36*
X245573Y597415D02*
X245573Y597415D01*
X245576Y597416D01*
X245578Y597415D01*
X245621Y597416D01*
X245635Y597419D01*
X245653Y597417D01*
X246355Y597469D01*
X246385Y597477D01*
X246426Y597479D01*
X247114Y597631D01*
X247144Y597644D01*
X247187Y597653D01*
X247844Y597907D01*
X247871Y597925D01*
X247912Y597940D01*
X248523Y598290D01*
X248546Y598310D01*
X248581Y598329D01*
X249137Y598762D01*
X249155Y598783D01*
X249184Y598804D01*
X249682Y599303D01*
X249697Y599326D01*
X249723Y599350D01*
X250154Y599908D01*
X250167Y599935D01*
X250193Y599967D01*
X250541Y600580D01*
X250551Y600610D01*
X250573Y600648D01*
X250824Y601306D01*
X250829Y601338D01*
X250845Y601379D01*
X250994Y602068D01*
X250994Y602098D01*
X251004Y602138D01*
X251053Y602841D01*
X251051Y602856D01*
X251055Y602876D01*
X251055Y614159D01*
X251055Y614160D01*
X251054Y614865D01*
X251050Y614884D01*
X251052Y614907D01*
X250992Y615609D01*
X250983Y615639D01*
X250981Y615680D01*
X250821Y616366D01*
X250808Y616396D01*
X250798Y616439D01*
X250536Y617093D01*
X250535Y617096D01*
X250534Y617096D01*
X250519Y617119D01*
X250503Y617160D01*
X250146Y617767D01*
X250126Y617790D01*
X250106Y617825D01*
X249668Y618376D01*
X249647Y618394D01*
X249626Y618423D01*
X249122Y618915D01*
X249099Y618930D01*
X249074Y618957D01*
X248512Y619382D01*
X248484Y619395D01*
X248452Y619420D01*
X247835Y619761D01*
X247804Y619770D01*
X247766Y619792D01*
X247105Y620035D01*
X247073Y620040D01*
X247033Y620056D01*
X246342Y620196D01*
X246312Y620196D01*
X246273Y620205D01*
X245569Y620248D01*
X245556Y620246D01*
X245539Y620249D01*
X239897Y620249D01*
X239869Y620243D01*
X239830Y620244D01*
X239173Y620155D01*
X239147Y620146D01*
X239119Y620145D01*
X239054Y620114D01*
X238985Y620090D01*
X238964Y620071D01*
X238940Y620059D01*
X238868Y619984D01*
X238837Y619956D01*
X238833Y619947D01*
X238825Y619938D01*
X232539Y610568D01*
X232528Y610541D01*
X232473Y610425D01*
X232348Y609982D01*
X232342Y609906D01*
X232330Y609830D01*
X232335Y609808D01*
X232333Y609784D01*
X232358Y609711D01*
X232376Y609637D01*
X232390Y609618D01*
X232397Y609596D01*
X232448Y609538D01*
X232494Y609477D01*
X232514Y609465D01*
X232529Y609447D01*
X232599Y609414D01*
X232665Y609375D01*
X232690Y609371D01*
X232709Y609362D01*
X232753Y609360D01*
X232829Y609348D01*
X240089Y609348D01*
X240092Y608473D01*
X240072Y608316D01*
X231362Y608316D01*
X231188Y608330D01*
X231188Y619152D01*
X231180Y619188D01*
X231180Y619240D01*
X231072Y619838D01*
X231048Y619897D01*
X231034Y619959D01*
X231012Y619989D01*
X230999Y620023D01*
X230954Y620068D01*
X230916Y620120D01*
X230884Y620138D01*
X230859Y620164D01*
X230800Y620188D01*
X230745Y620221D01*
X230704Y620228D01*
X230675Y620240D01*
X230636Y620239D01*
X230581Y620249D01*
X221413Y620249D01*
X221386Y620243D01*
X221351Y620245D01*
X220724Y620167D01*
X220651Y620142D01*
X220576Y620124D01*
X220557Y620111D01*
X220535Y620103D01*
X220477Y620052D01*
X220415Y620006D01*
X220404Y619987D01*
X220387Y619971D01*
X220353Y619902D01*
X220314Y619835D01*
X220310Y619810D01*
X220301Y619792D01*
X220299Y619747D01*
X220286Y619671D01*
X220286Y598514D01*
X220293Y598479D01*
X220294Y598428D01*
X220399Y597828D01*
X220423Y597767D01*
X220438Y597704D01*
X220458Y597676D01*
X220471Y597643D01*
X220517Y597596D01*
X220555Y597544D01*
X220586Y597526D01*
X220610Y597501D01*
X220671Y597476D01*
X220726Y597443D01*
X220766Y597436D01*
X220794Y597424D01*
X220833Y597425D01*
X220891Y597415D01*
X245573Y597415D01*
G37*
G36*
X329971Y597417D02*
X329971Y597417D01*
X329979Y597415D01*
X330068Y597436D01*
X330157Y597455D01*
X330164Y597459D01*
X330173Y597461D01*
X330246Y597515D01*
X330321Y597567D01*
X330326Y597574D01*
X330333Y597579D01*
X330379Y597658D01*
X330428Y597735D01*
X330430Y597743D01*
X330434Y597750D01*
X330462Y597914D01*
X330462Y627141D01*
X330550Y627185D01*
X339586Y627185D01*
X339648Y627198D01*
X339711Y627201D01*
X339745Y627217D01*
X339781Y627225D01*
X339833Y627260D01*
X339890Y627288D01*
X339919Y627319D01*
X339945Y627337D01*
X339966Y627369D01*
X340003Y627410D01*
X340283Y627835D01*
X340306Y627892D01*
X340337Y627945D01*
X340344Y627989D01*
X340357Y628019D01*
X340356Y628057D01*
X340365Y628109D01*
X340365Y637262D01*
X340358Y637294D01*
X340361Y637326D01*
X340339Y637390D01*
X340325Y637457D01*
X340307Y637484D01*
X340297Y637514D01*
X340238Y637585D01*
X340213Y637621D01*
X340201Y637629D01*
X340190Y637642D01*
X339811Y637966D01*
X339729Y638012D01*
X339650Y638059D01*
X339642Y638060D01*
X339637Y638063D01*
X339602Y638067D01*
X339486Y638086D01*
X320475Y638086D01*
X320409Y638073D01*
X320341Y638068D01*
X320308Y638052D01*
X320280Y638047D01*
X320247Y638024D01*
X320190Y637997D01*
X319775Y637708D01*
X319735Y637667D01*
X319690Y637634D01*
X319668Y637596D01*
X319637Y637565D01*
X319617Y637511D01*
X319588Y637462D01*
X319580Y637413D01*
X319567Y637379D01*
X319568Y637345D01*
X319560Y637298D01*
X319560Y598573D01*
X319564Y598558D01*
X319562Y598539D01*
X319607Y597880D01*
X319631Y597792D01*
X319652Y597704D01*
X319658Y597697D01*
X319660Y597688D01*
X319717Y597617D01*
X319770Y597544D01*
X319778Y597540D01*
X319784Y597533D01*
X319863Y597489D01*
X319941Y597443D01*
X319951Y597441D01*
X319958Y597437D01*
X319997Y597433D01*
X320105Y597415D01*
X329963Y597415D01*
X329971Y597417D01*
G37*
G36*
X110010Y597430D02*
X110010Y597430D01*
X110085Y597437D01*
X110110Y597450D01*
X110132Y597455D01*
X110168Y597480D01*
X110233Y597512D01*
X110740Y597885D01*
X110742Y597887D01*
X110745Y597889D01*
X110859Y598009D01*
X117153Y607392D01*
X117181Y607459D01*
X117216Y607524D01*
X117218Y607551D01*
X117229Y607576D01*
X117228Y607649D01*
X117235Y607722D01*
X117227Y607748D01*
X117226Y607775D01*
X117197Y607842D01*
X117175Y607912D01*
X117158Y607932D01*
X117147Y607957D01*
X117094Y608007D01*
X117046Y608063D01*
X117020Y608077D01*
X117003Y608094D01*
X116962Y608109D01*
X116900Y608142D01*
X116470Y608290D01*
X116459Y608291D01*
X116308Y608316D01*
X101128Y608316D01*
X112960Y619352D01*
X113017Y619431D01*
X113075Y619513D01*
X113075Y619514D01*
X113093Y619592D01*
X113118Y619707D01*
X113118Y619708D01*
X113102Y619798D01*
X113083Y619902D01*
X113082Y619903D01*
X113029Y619984D01*
X112973Y620069D01*
X112897Y620120D01*
X112808Y620179D01*
X112807Y620179D01*
X112804Y620180D01*
X112646Y620215D01*
X112023Y620248D01*
X112011Y620246D01*
X111997Y620249D01*
X98580Y620249D01*
X98536Y620240D01*
X98490Y620241D01*
X98427Y620218D01*
X98385Y620209D01*
X98365Y620195D01*
X98334Y620184D01*
X97750Y619852D01*
X97721Y619827D01*
X97673Y619798D01*
X88538Y612010D01*
X88527Y611997D01*
X88510Y611985D01*
X88009Y611487D01*
X88003Y611479D01*
X87994Y611471D01*
X87037Y610433D01*
X87032Y610424D01*
X87023Y610416D01*
X86567Y609877D01*
X86563Y609869D01*
X86556Y609862D01*
X86121Y609306D01*
X86116Y609297D01*
X86106Y609287D01*
X85699Y608711D01*
X85693Y608698D01*
X85681Y608684D01*
X85311Y608083D01*
X85304Y608065D01*
X85289Y608045D01*
X84973Y607414D01*
X84966Y607386D01*
X84948Y607354D01*
X84717Y606687D01*
X84712Y606647D01*
X84694Y606588D01*
X84604Y605889D01*
X84606Y605861D01*
X84600Y605825D01*
X84600Y603001D01*
X84602Y602987D01*
X84600Y602970D01*
X84644Y602266D01*
X84653Y602232D01*
X84656Y602183D01*
X84817Y601496D01*
X84831Y601465D01*
X84842Y601419D01*
X85113Y600767D01*
X85130Y600741D01*
X85146Y600702D01*
X85509Y600097D01*
X85527Y600077D01*
X85544Y600046D01*
X85980Y599491D01*
X85997Y599476D01*
X86014Y599452D01*
X86505Y598945D01*
X86523Y598932D01*
X86542Y598910D01*
X87082Y598455D01*
X87105Y598443D01*
X87131Y598419D01*
X87723Y598034D01*
X87752Y598023D01*
X87787Y597999D01*
X88428Y597705D01*
X88462Y597697D01*
X88507Y597677D01*
X89187Y597494D01*
X89224Y597491D01*
X89274Y597478D01*
X89976Y597417D01*
X89995Y597419D01*
X90019Y597415D01*
X109937Y597415D01*
X110010Y597430D01*
G37*
G36*
X442917Y535960D02*
X442917Y535960D01*
X442925Y535962D01*
X442934Y535960D01*
X445049Y536045D01*
X445057Y536047D01*
X445066Y536046D01*
X446474Y536148D01*
X446481Y536150D01*
X446490Y536150D01*
X448596Y536371D01*
X448603Y536373D01*
X448612Y536373D01*
X450010Y536566D01*
X450016Y536568D01*
X450023Y536568D01*
X451416Y536797D01*
X451423Y536800D01*
X451432Y536800D01*
X453509Y537211D01*
X453516Y537214D01*
X453525Y537214D01*
X454900Y537533D01*
X454907Y537536D01*
X454916Y537537D01*
X456962Y538082D01*
X456969Y538085D01*
X456978Y538086D01*
X458329Y538493D01*
X458336Y538497D01*
X458345Y538498D01*
X460351Y539174D01*
X460358Y539178D01*
X460367Y539179D01*
X461689Y539673D01*
X461694Y539676D01*
X461701Y539678D01*
X463011Y540205D01*
X463017Y540209D01*
X463025Y540212D01*
X464963Y541066D01*
X464969Y541070D01*
X464978Y541073D01*
X466250Y541684D01*
X466255Y541687D01*
X466262Y541690D01*
X467518Y542333D01*
X467523Y542337D01*
X467530Y542339D01*
X468769Y543015D01*
X468773Y543019D01*
X468780Y543022D01*
X470002Y543729D01*
X470007Y543734D01*
X470016Y543738D01*
X471812Y544858D01*
X471818Y544863D01*
X471826Y544867D01*
X472999Y545651D01*
X473004Y545657D01*
X473013Y545661D01*
X474734Y546894D01*
X474739Y546900D01*
X474746Y546904D01*
X475867Y547763D01*
X475871Y547768D01*
X475877Y547771D01*
X476974Y548659D01*
X476978Y548663D01*
X476984Y548667D01*
X478059Y549583D01*
X478063Y549589D01*
X478071Y549594D01*
X479637Y551019D01*
X479642Y551026D01*
X479651Y551032D01*
X481161Y552517D01*
X481165Y552523D01*
X481172Y552529D01*
X482146Y553550D01*
X482149Y553555D01*
X482155Y553560D01*
X483102Y554607D01*
X483105Y554612D01*
X483110Y554617D01*
X484030Y555688D01*
X484033Y555694D01*
X484040Y555700D01*
X485367Y557350D01*
X485371Y557357D01*
X485377Y557363D01*
X486225Y558491D01*
X486228Y558497D01*
X486233Y558502D01*
X487052Y559652D01*
X487054Y559657D01*
X487059Y559662D01*
X487848Y560833D01*
X487851Y560840D01*
X487857Y560846D01*
X488983Y562639D01*
X488986Y562647D01*
X488992Y562654D01*
X491836Y567532D01*
X491836Y567533D01*
X491895Y567635D01*
X491920Y567708D01*
X491951Y567778D01*
X491951Y567801D01*
X491959Y567823D01*
X491953Y567900D01*
X491954Y567977D01*
X491946Y567998D01*
X491944Y568021D01*
X491908Y568090D01*
X491879Y568161D01*
X491863Y568178D01*
X491853Y568198D01*
X491793Y568247D01*
X491739Y568302D01*
X491717Y568311D01*
X491700Y568325D01*
X491626Y568347D01*
X491554Y568376D01*
X491529Y568377D01*
X491509Y568383D01*
X491465Y568378D01*
X491388Y568379D01*
X486506Y567631D01*
X486466Y567617D01*
X486401Y567603D01*
X485794Y567368D01*
X485788Y567365D01*
X485782Y567364D01*
X485724Y567324D01*
X485719Y567320D01*
X485642Y567276D01*
X485635Y567266D01*
X485626Y567261D01*
X485621Y567253D01*
X485618Y567251D01*
X485603Y567226D01*
X485538Y567146D01*
X484853Y565920D01*
X484138Y564717D01*
X483391Y563539D01*
X482207Y561807D01*
X480952Y560125D01*
X480078Y559035D01*
X479174Y557971D01*
X478240Y556931D01*
X477278Y555918D01*
X475780Y554447D01*
X474750Y553504D01*
X473694Y552589D01*
X472613Y551704D01*
X470943Y550431D01*
X469804Y549624D01*
X468642Y548848D01*
X467458Y548104D01*
X466254Y547393D01*
X465032Y546717D01*
X463791Y546075D01*
X461894Y545175D01*
X460613Y544621D01*
X459314Y544101D01*
X458003Y543619D01*
X456678Y543173D01*
X455342Y542764D01*
X453996Y542392D01*
X451954Y541905D01*
X450584Y541628D01*
X449208Y541389D01*
X447825Y541189D01*
X446437Y541027D01*
X444344Y540857D01*
X442949Y540792D01*
X441552Y540766D01*
X440155Y540780D01*
X438758Y540833D01*
X437363Y540926D01*
X435971Y541056D01*
X434584Y541225D01*
X433202Y541433D01*
X431826Y541680D01*
X430458Y541963D01*
X429097Y542286D01*
X427747Y542646D01*
X426405Y543044D01*
X425080Y543477D01*
X423107Y544200D01*
X421815Y544724D01*
X419898Y545581D01*
X418644Y546195D01*
X417406Y546843D01*
X416187Y547527D01*
X414987Y548244D01*
X413807Y548993D01*
X412650Y549775D01*
X410952Y551011D01*
X409852Y551870D01*
X408775Y552762D01*
X407725Y553682D01*
X406187Y555125D01*
X406151Y555147D01*
X406122Y555177D01*
X406068Y555199D01*
X406018Y555230D01*
X405976Y555236D01*
X405937Y555252D01*
X405865Y555253D01*
X405822Y555260D01*
X405800Y555254D01*
X405771Y555255D01*
X401587Y554620D01*
X401528Y554599D01*
X401466Y554586D01*
X401435Y554565D01*
X401400Y554552D01*
X401354Y554509D01*
X401302Y554473D01*
X401282Y554442D01*
X401255Y554416D01*
X401229Y554359D01*
X401195Y554306D01*
X401189Y554269D01*
X401174Y554234D01*
X401173Y554172D01*
X401162Y554109D01*
X401171Y554067D01*
X401171Y554036D01*
X401185Y554000D01*
X401196Y553946D01*
X401336Y553585D01*
X401353Y553559D01*
X401362Y553528D01*
X401419Y553455D01*
X401443Y553418D01*
X401454Y553410D01*
X401464Y553397D01*
X405110Y550062D01*
X405112Y550061D01*
X405114Y550059D01*
X405116Y550057D01*
X405118Y550055D01*
X406180Y549125D01*
X406186Y549121D01*
X406192Y549114D01*
X407831Y547772D01*
X407837Y547769D01*
X407843Y547762D01*
X408963Y546903D01*
X408968Y546901D01*
X408973Y546895D01*
X410115Y546065D01*
X410121Y546063D01*
X410126Y546058D01*
X411289Y545257D01*
X411295Y545254D01*
X411302Y545248D01*
X413085Y544106D01*
X413092Y544103D01*
X413098Y544097D01*
X414311Y543374D01*
X414316Y543372D01*
X414322Y543367D01*
X415552Y542675D01*
X415558Y542673D01*
X415564Y542669D01*
X416812Y542009D01*
X416818Y542008D01*
X416823Y542003D01*
X418088Y541376D01*
X418095Y541374D01*
X418103Y541369D01*
X420029Y540490D01*
X420036Y540489D01*
X420044Y540484D01*
X421346Y539939D01*
X421353Y539938D01*
X421361Y539933D01*
X423341Y539181D01*
X423349Y539180D01*
X423359Y539175D01*
X425365Y538499D01*
X425373Y538498D01*
X425381Y538494D01*
X426732Y538086D01*
X426738Y538086D01*
X426745Y538083D01*
X428107Y537712D01*
X428113Y537711D01*
X428119Y537708D01*
X429491Y537372D01*
X429498Y537372D01*
X429506Y537369D01*
X431578Y536930D01*
X431585Y536930D01*
X431594Y536927D01*
X432984Y536680D01*
X432991Y536680D01*
X433000Y536677D01*
X435095Y536374D01*
X435103Y536375D01*
X435111Y536372D01*
X436514Y536215D01*
X436520Y536216D01*
X436527Y536214D01*
X437933Y536093D01*
X437939Y536094D01*
X437946Y536092D01*
X439356Y536008D01*
X439363Y536009D01*
X439372Y536008D01*
X441489Y535951D01*
X441496Y535952D01*
X441505Y535950D01*
X442917Y535960D01*
G37*
G36*
X237854Y550077D02*
X237854Y550077D01*
X237862Y550076D01*
X237951Y550097D01*
X238041Y550115D01*
X238047Y550120D01*
X238056Y550122D01*
X238129Y550176D01*
X238204Y550228D01*
X238209Y550235D01*
X238216Y550240D01*
X238262Y550318D01*
X238311Y550395D01*
X238313Y550404D01*
X238317Y550411D01*
X238345Y550575D01*
X238345Y568705D01*
X238411Y568762D01*
X253058Y568762D01*
X253147Y568780D01*
X253236Y568794D01*
X253244Y568800D01*
X253253Y568801D01*
X253285Y568823D01*
X253379Y568879D01*
X253763Y569201D01*
X253784Y569228D01*
X253812Y569248D01*
X253845Y569305D01*
X253887Y569357D01*
X253896Y569390D01*
X253913Y569419D01*
X253928Y569505D01*
X253940Y569548D01*
X253938Y569564D01*
X253941Y569583D01*
X253941Y585826D01*
X253932Y585868D01*
X253928Y585937D01*
X253798Y586512D01*
X253776Y586561D01*
X253764Y586612D01*
X253736Y586650D01*
X253716Y586694D01*
X253677Y586730D01*
X253646Y586772D01*
X253605Y586796D01*
X253570Y586829D01*
X253520Y586847D01*
X253475Y586873D01*
X253420Y586883D01*
X253383Y586896D01*
X253352Y586894D01*
X253311Y586901D01*
X246249Y586901D01*
X246223Y586896D01*
X246188Y586897D01*
X245559Y586821D01*
X245485Y586796D01*
X245410Y586778D01*
X245392Y586765D01*
X245370Y586758D01*
X245312Y586706D01*
X245249Y586660D01*
X245238Y586641D01*
X245221Y586626D01*
X245188Y586556D01*
X245148Y586489D01*
X245144Y586465D01*
X245135Y586447D01*
X245133Y586402D01*
X245120Y586325D01*
X245120Y577560D01*
X244977Y577534D01*
X234430Y577534D01*
X234427Y577533D01*
X234424Y577534D01*
X233718Y577526D01*
X233690Y577520D01*
X233652Y577521D01*
X232954Y577419D01*
X232918Y577406D01*
X232864Y577398D01*
X232197Y577169D01*
X232164Y577150D01*
X232111Y577131D01*
X231499Y576782D01*
X231471Y576758D01*
X231427Y576732D01*
X230884Y576281D01*
X230862Y576254D01*
X230825Y576223D01*
X230365Y575689D01*
X230346Y575655D01*
X230310Y575611D01*
X229959Y574999D01*
X229947Y574961D01*
X229919Y574909D01*
X229696Y574240D01*
X229692Y574201D01*
X229675Y574148D01*
X229582Y573449D01*
X229584Y573421D01*
X229578Y573383D01*
X229573Y550784D01*
X229574Y550776D01*
X229573Y550767D01*
X229594Y550679D01*
X229612Y550590D01*
X229617Y550582D01*
X229619Y550573D01*
X229673Y550500D01*
X229725Y550426D01*
X229732Y550421D01*
X229737Y550414D01*
X229878Y550324D01*
X230375Y550115D01*
X230390Y550112D01*
X230405Y550103D01*
X230569Y550076D01*
X237846Y550076D01*
X237854Y550077D01*
G37*
G36*
X216857Y597417D02*
X216857Y597417D01*
X216866Y597415D01*
X216954Y597436D01*
X217044Y597455D01*
X217051Y597459D01*
X217059Y597461D01*
X217132Y597515D01*
X217208Y597567D01*
X217213Y597574D01*
X217219Y597579D01*
X217266Y597658D01*
X217315Y597735D01*
X217316Y597743D01*
X217321Y597750D01*
X217348Y597914D01*
X217348Y637129D01*
X217340Y637169D01*
X217342Y637209D01*
X217318Y637280D01*
X217309Y637324D01*
X217297Y637341D01*
X217288Y637367D01*
X217040Y637825D01*
X216986Y637890D01*
X216936Y637957D01*
X216922Y637965D01*
X216912Y637977D01*
X216837Y638016D01*
X216765Y638059D01*
X216748Y638062D01*
X216735Y638068D01*
X216691Y638071D01*
X216601Y638086D01*
X207415Y638086D01*
X207392Y638082D01*
X207258Y638061D01*
X206727Y637885D01*
X206703Y637870D01*
X206675Y637864D01*
X206617Y637821D01*
X206555Y637786D01*
X206538Y637763D01*
X206515Y637746D01*
X206478Y637684D01*
X206435Y637627D01*
X206428Y637599D01*
X206413Y637575D01*
X206396Y637475D01*
X206386Y637434D01*
X206388Y637424D01*
X206386Y637411D01*
X206386Y598549D01*
X206391Y598525D01*
X206389Y598492D01*
X206461Y597858D01*
X206486Y597782D01*
X206504Y597704D01*
X206516Y597688D01*
X206522Y597669D01*
X206575Y597608D01*
X206622Y597544D01*
X206639Y597534D01*
X206653Y597519D01*
X206725Y597483D01*
X206793Y597443D01*
X206815Y597439D01*
X206831Y597431D01*
X206876Y597429D01*
X206957Y597415D01*
X216849Y597415D01*
X216857Y597417D01*
G37*
G36*
X195938Y597428D02*
X195938Y597428D01*
X196002Y597432D01*
X196035Y597448D01*
X196070Y597455D01*
X196123Y597491D01*
X196181Y597520D01*
X196209Y597550D01*
X196234Y597567D01*
X196255Y597600D01*
X196293Y597642D01*
X205154Y611265D01*
X205167Y611298D01*
X205217Y611404D01*
X205398Y612057D01*
X205401Y612102D01*
X205416Y612190D01*
X205416Y621376D01*
X205413Y621389D01*
X205414Y621396D01*
X205414Y621399D01*
X205415Y621407D01*
X205377Y621569D01*
X205113Y622198D01*
X205092Y622228D01*
X205072Y622275D01*
X198950Y631779D01*
X198934Y631796D01*
X198924Y631817D01*
X198865Y631866D01*
X198811Y631922D01*
X198790Y631931D01*
X198772Y631946D01*
X198659Y631986D01*
X198628Y631999D01*
X198622Y631999D01*
X198615Y632001D01*
X197970Y632113D01*
X197934Y632112D01*
X197884Y632120D01*
X187286Y632120D01*
X187265Y632116D01*
X187237Y632118D01*
X186638Y632059D01*
X186611Y632051D01*
X186584Y632051D01*
X186517Y632022D01*
X186448Y632001D01*
X186427Y631983D01*
X186401Y631972D01*
X186351Y631920D01*
X186296Y631873D01*
X186283Y631848D01*
X186264Y631828D01*
X186238Y631761D01*
X186205Y631696D01*
X186203Y631668D01*
X186194Y631642D01*
X186196Y631570D01*
X186191Y631498D01*
X186200Y631471D01*
X186202Y631444D01*
X186242Y631349D01*
X186256Y631310D01*
X186263Y631302D01*
X186268Y631291D01*
X195705Y616744D01*
X183950Y598653D01*
X183933Y598611D01*
X183924Y598593D01*
X183894Y598536D01*
X183741Y598070D01*
X183731Y597984D01*
X183717Y597898D01*
X183720Y597885D01*
X183718Y597873D01*
X183743Y597789D01*
X183763Y597704D01*
X183770Y597694D01*
X183774Y597682D01*
X183829Y597614D01*
X183880Y597544D01*
X183892Y597538D01*
X183900Y597528D01*
X183977Y597487D01*
X184052Y597443D01*
X184065Y597441D01*
X184076Y597435D01*
X184119Y597432D01*
X184216Y597415D01*
X195521Y597415D01*
X195875Y597415D01*
X195938Y597428D01*
G37*
G36*
X166099Y550076D02*
X166099Y550076D01*
X166104Y550076D01*
X166240Y550078D01*
X166262Y550083D01*
X166291Y550082D01*
X166990Y550165D01*
X167026Y550177D01*
X167082Y550185D01*
X167753Y550398D01*
X167787Y550417D01*
X167842Y550436D01*
X168459Y550775D01*
X168487Y550799D01*
X168533Y550824D01*
X169081Y551267D01*
X169102Y551293D01*
X169138Y551322D01*
X169609Y551846D01*
X169627Y551877D01*
X169661Y551914D01*
X170035Y552511D01*
X170048Y552547D01*
X170077Y552596D01*
X170332Y553252D01*
X170338Y553291D01*
X170358Y553345D01*
X170482Y554038D01*
X170481Y554071D01*
X170489Y554115D01*
X170505Y554820D01*
X170504Y554825D01*
X170505Y554831D01*
X170501Y563999D01*
X170495Y564027D01*
X170496Y564066D01*
X170402Y564764D01*
X170389Y564800D01*
X170380Y564855D01*
X170157Y565523D01*
X170137Y565557D01*
X170117Y565611D01*
X169770Y566223D01*
X169746Y566251D01*
X169719Y566296D01*
X169269Y566837D01*
X169243Y566858D01*
X169214Y566894D01*
X168684Y567358D01*
X168653Y567375D01*
X168614Y567409D01*
X168012Y567774D01*
X167976Y567788D01*
X167926Y567816D01*
X167265Y568060D01*
X167227Y568065D01*
X167173Y568084D01*
X166478Y568198D01*
X166444Y568196D01*
X166399Y568204D01*
X161462Y568215D01*
X161401Y568203D01*
X161339Y568200D01*
X161299Y568182D01*
X161267Y568176D01*
X161236Y568155D01*
X161186Y568133D01*
X160664Y567789D01*
X160653Y567778D01*
X160639Y567771D01*
X160524Y567650D01*
X155810Y560622D01*
X155797Y560590D01*
X155776Y560562D01*
X155751Y560479D01*
X155734Y560438D01*
X155734Y560422D01*
X155729Y560403D01*
X155681Y560001D01*
X155684Y559963D01*
X155678Y559925D01*
X155692Y559865D01*
X155697Y559803D01*
X155715Y559769D01*
X155724Y559732D01*
X155761Y559682D01*
X155789Y559627D01*
X155819Y559603D01*
X155842Y559572D01*
X155895Y559540D01*
X155943Y559501D01*
X155980Y559490D01*
X156013Y559470D01*
X156091Y559457D01*
X156134Y559445D01*
X156153Y559447D01*
X156177Y559443D01*
X161622Y559443D01*
X161685Y559385D01*
X161685Y558967D01*
X161650Y558848D01*
X155036Y558848D01*
X154909Y558879D01*
X154909Y567658D01*
X154892Y567742D01*
X154880Y567827D01*
X154872Y567839D01*
X154870Y567853D01*
X154821Y567924D01*
X154777Y567997D01*
X154765Y568005D01*
X154757Y568017D01*
X154685Y568063D01*
X154615Y568113D01*
X154600Y568117D01*
X154590Y568124D01*
X154547Y568131D01*
X154454Y568156D01*
X153807Y568213D01*
X153787Y568211D01*
X153762Y568215D01*
X146710Y568215D01*
X146632Y568199D01*
X146554Y568190D01*
X146535Y568180D01*
X146515Y568175D01*
X146450Y568131D01*
X146381Y568092D01*
X146368Y568075D01*
X146351Y568063D01*
X146308Y567996D01*
X146260Y567933D01*
X146254Y567911D01*
X146244Y567895D01*
X146236Y567851D01*
X146214Y567774D01*
X146140Y567142D01*
X146142Y567117D01*
X146137Y567084D01*
X146137Y550863D01*
X146148Y550807D01*
X146150Y550750D01*
X146168Y550711D01*
X146176Y550668D01*
X146209Y550621D01*
X146233Y550569D01*
X146269Y550534D01*
X146289Y550504D01*
X146318Y550486D01*
X146352Y550453D01*
X146769Y550164D01*
X146831Y550138D01*
X146889Y550103D01*
X146926Y550097D01*
X146952Y550086D01*
X146992Y550086D01*
X147053Y550076D01*
X166095Y550076D01*
X166099Y550076D01*
G37*
G36*
X134187Y568763D02*
X134187Y568763D01*
X134195Y568762D01*
X134284Y568783D01*
X134374Y568801D01*
X134380Y568806D01*
X134389Y568808D01*
X134462Y568862D01*
X134537Y568914D01*
X134542Y568921D01*
X134549Y568926D01*
X134595Y569004D01*
X134644Y569081D01*
X134646Y569090D01*
X134650Y569097D01*
X134678Y569261D01*
X134678Y577010D01*
X134657Y577110D01*
X134639Y577203D01*
X134638Y577204D01*
X134638Y577205D01*
X134582Y577287D01*
X134527Y577368D01*
X134526Y577368D01*
X134526Y577369D01*
X134446Y577420D01*
X134360Y577475D01*
X134359Y577476D01*
X134358Y577476D01*
X134351Y577477D01*
X134197Y577509D01*
X133517Y577534D01*
X133509Y577532D01*
X133499Y577534D01*
X125750Y577534D01*
X125714Y577527D01*
X125677Y577529D01*
X125599Y577503D01*
X125555Y577494D01*
X125540Y577484D01*
X125519Y577478D01*
X124968Y577190D01*
X124935Y577164D01*
X124898Y577146D01*
X124865Y577112D01*
X124843Y577097D01*
X124834Y577082D01*
X124813Y577065D01*
X124803Y577046D01*
X124784Y577026D01*
X120965Y571333D01*
X120965Y572795D01*
X120964Y572799D01*
X120965Y572805D01*
X120951Y573511D01*
X120944Y573544D01*
X120943Y573590D01*
X120818Y574284D01*
X120803Y574322D01*
X120791Y574380D01*
X120531Y575036D01*
X120510Y575068D01*
X120487Y575121D01*
X120107Y575715D01*
X120082Y575741D01*
X120056Y575782D01*
X119581Y576305D01*
X119554Y576324D01*
X119523Y576358D01*
X118972Y576800D01*
X118939Y576817D01*
X118897Y576849D01*
X118276Y577184D01*
X118239Y577196D01*
X118189Y577221D01*
X118187Y577222D01*
X117513Y577431D01*
X117475Y577435D01*
X117421Y577450D01*
X116720Y577529D01*
X116695Y577527D01*
X116664Y577532D01*
X105464Y577534D01*
X105369Y577577D01*
X105369Y585739D01*
X105368Y585746D01*
X105369Y585753D01*
X105367Y585761D01*
X105368Y585772D01*
X105324Y586435D01*
X105300Y586523D01*
X105279Y586612D01*
X105274Y586619D01*
X105272Y586627D01*
X105215Y586699D01*
X105161Y586772D01*
X105154Y586776D01*
X105149Y586783D01*
X105069Y586827D01*
X104990Y586873D01*
X104981Y586875D01*
X104974Y586879D01*
X104937Y586882D01*
X104826Y586901D01*
X97758Y586901D01*
X97743Y586898D01*
X97724Y586900D01*
X97062Y586855D01*
X96974Y586831D01*
X96886Y586810D01*
X96879Y586804D01*
X96870Y586802D01*
X96799Y586745D01*
X96726Y586692D01*
X96722Y586684D01*
X96714Y586679D01*
X96671Y586598D01*
X96625Y586521D01*
X96623Y586511D01*
X96619Y586504D01*
X96615Y586466D01*
X96597Y586357D01*
X96597Y569393D01*
X96607Y569342D01*
X96608Y569290D01*
X96627Y569245D01*
X96636Y569198D01*
X96666Y569155D01*
X96687Y569107D01*
X96722Y569074D01*
X96749Y569034D01*
X96793Y569006D01*
X96831Y568970D01*
X96884Y568948D01*
X96917Y568927D01*
X96947Y568922D01*
X96984Y568906D01*
X97559Y568774D01*
X97603Y568773D01*
X97671Y568762D01*
X134179Y568762D01*
X134187Y568763D01*
G37*
G36*
X366940Y550084D02*
X366940Y550084D01*
X367034Y550095D01*
X367647Y550269D01*
X367728Y550311D01*
X367811Y550351D01*
X367817Y550357D01*
X367824Y550361D01*
X367848Y550390D01*
X367925Y550471D01*
X372646Y557510D01*
X372650Y557518D01*
X372657Y557526D01*
X373002Y558087D01*
X373018Y558130D01*
X373043Y558169D01*
X373052Y558223D01*
X373071Y558274D01*
X373068Y558320D01*
X373076Y558365D01*
X373064Y558418D01*
X373061Y558472D01*
X373041Y558514D01*
X373030Y558559D01*
X372998Y558602D01*
X372974Y558651D01*
X372939Y558682D01*
X372912Y558719D01*
X372866Y558746D01*
X372825Y558782D01*
X372781Y558797D01*
X372741Y558820D01*
X372676Y558831D01*
X372636Y558844D01*
X372610Y558842D01*
X372577Y558848D01*
X357733Y558848D01*
X370157Y572057D01*
X370207Y572139D01*
X370259Y572220D01*
X370260Y572223D01*
X370262Y572226D01*
X370276Y572321D01*
X370292Y572416D01*
X370291Y572419D01*
X370292Y572423D01*
X370268Y572516D01*
X370246Y572609D01*
X370244Y572612D01*
X370243Y572616D01*
X370185Y572693D01*
X370128Y572770D01*
X370125Y572771D01*
X370123Y572774D01*
X370040Y572822D01*
X369957Y572871D01*
X369953Y572872D01*
X369951Y572873D01*
X369927Y572876D01*
X369793Y572899D01*
X359199Y572899D01*
X359198Y572898D01*
X359198Y572899D01*
X359101Y572879D01*
X359004Y572859D01*
X359003Y572858D01*
X358863Y572768D01*
X358354Y572304D01*
X358346Y572293D01*
X358331Y572282D01*
X349998Y563639D01*
X349995Y563634D01*
X349990Y563630D01*
X349512Y563111D01*
X349505Y563100D01*
X349493Y563090D01*
X348149Y561452D01*
X348144Y561443D01*
X348135Y561435D01*
X347289Y560304D01*
X347284Y560295D01*
X347276Y560287D01*
X346877Y559704D01*
X346874Y559695D01*
X346866Y559687D01*
X346491Y559089D01*
X346487Y559076D01*
X346476Y559063D01*
X346137Y558444D01*
X346131Y558423D01*
X346116Y558401D01*
X345839Y557752D01*
X345838Y557747D01*
X345836Y557744D01*
X345830Y557712D01*
X345809Y557660D01*
X345662Y556972D01*
X345661Y556931D01*
X345651Y556868D01*
X345649Y554749D01*
X345650Y554741D01*
X345649Y554732D01*
X345672Y554053D01*
X345673Y554026D01*
X345681Y553993D01*
X345682Y553944D01*
X345822Y553253D01*
X345837Y553217D01*
X345850Y553161D01*
X346120Y552509D01*
X346142Y552477D01*
X346164Y552426D01*
X346552Y551837D01*
X346577Y551812D01*
X346604Y551771D01*
X347086Y551255D01*
X347113Y551236D01*
X347144Y551202D01*
X347700Y550768D01*
X347733Y550752D01*
X347776Y550720D01*
X348401Y550393D01*
X348439Y550382D01*
X348492Y550357D01*
X349169Y550159D01*
X349208Y550156D01*
X349264Y550141D01*
X349966Y550078D01*
X349985Y550080D01*
X350011Y550076D01*
X366897Y550076D01*
X366940Y550084D01*
G37*
G36*
X146246Y597417D02*
X146246Y597417D01*
X146254Y597415D01*
X146343Y597436D01*
X146433Y597455D01*
X146440Y597459D01*
X146448Y597461D01*
X146521Y597515D01*
X146597Y597567D01*
X146601Y597574D01*
X146608Y597579D01*
X146654Y597658D01*
X146704Y597735D01*
X146705Y597743D01*
X146709Y597750D01*
X146737Y597914D01*
X146737Y630963D01*
X146734Y630978D01*
X146736Y630998D01*
X146689Y631656D01*
X146665Y631743D01*
X146644Y631831D01*
X146638Y631838D01*
X146635Y631848D01*
X146579Y631919D01*
X146526Y631991D01*
X146518Y631996D01*
X146511Y632003D01*
X146432Y632046D01*
X146355Y632092D01*
X146344Y632094D01*
X146337Y632098D01*
X146297Y632102D01*
X146191Y632120D01*
X136319Y632120D01*
X136231Y632102D01*
X136141Y632087D01*
X136134Y632082D01*
X136125Y632080D01*
X136050Y632029D01*
X135973Y631981D01*
X135968Y631973D01*
X135961Y631968D01*
X135912Y631892D01*
X135860Y631817D01*
X135858Y631807D01*
X135854Y631800D01*
X135847Y631762D01*
X135821Y631655D01*
X135776Y630996D01*
X135778Y630981D01*
X135774Y630961D01*
X135774Y598527D01*
X135781Y598495D01*
X135780Y598452D01*
X135873Y597840D01*
X135897Y597773D01*
X135913Y597704D01*
X135931Y597681D01*
X135941Y597653D01*
X135989Y597601D01*
X136031Y597544D01*
X136057Y597529D01*
X136077Y597508D01*
X136142Y597479D01*
X136202Y597443D01*
X136235Y597437D01*
X136259Y597427D01*
X136301Y597426D01*
X136366Y597415D01*
X146238Y597415D01*
X146246Y597417D01*
G37*
G36*
X116569Y550078D02*
X116569Y550078D01*
X116587Y550077D01*
X117116Y550110D01*
X117148Y550119D01*
X117194Y550122D01*
X117882Y550277D01*
X117918Y550293D01*
X117975Y550308D01*
X118620Y550594D01*
X118651Y550616D01*
X118701Y550640D01*
X119282Y551041D01*
X119306Y551066D01*
X119346Y551094D01*
X119852Y551586D01*
X119871Y551614D01*
X119906Y551647D01*
X120326Y552214D01*
X120342Y552248D01*
X120373Y552293D01*
X120682Y552927D01*
X120692Y552965D01*
X120716Y553018D01*
X120896Y553700D01*
X120898Y553738D01*
X120911Y553791D01*
X120964Y554495D01*
X120962Y554511D01*
X120965Y554532D01*
X120965Y567255D01*
X120957Y567293D01*
X120959Y567332D01*
X120934Y567406D01*
X120926Y567450D01*
X120914Y567466D01*
X120906Y567490D01*
X120661Y567951D01*
X120606Y568017D01*
X120555Y568086D01*
X120543Y568093D01*
X120534Y568104D01*
X120458Y568144D01*
X120384Y568187D01*
X120369Y568190D01*
X120358Y568196D01*
X120314Y568199D01*
X120220Y568215D01*
X113152Y568215D01*
X113142Y568213D01*
X113133Y568215D01*
X112970Y568181D01*
X112462Y567982D01*
X112449Y567974D01*
X112434Y567970D01*
X112366Y567920D01*
X112295Y567874D01*
X112286Y567861D01*
X112274Y567852D01*
X112231Y567780D01*
X112183Y567710D01*
X112180Y567694D01*
X112172Y567681D01*
X112145Y567517D01*
X112145Y559042D01*
X112139Y558848D01*
X105563Y558848D01*
X105369Y558854D01*
X105369Y567559D01*
X105368Y567563D01*
X105369Y567566D01*
X105362Y567597D01*
X105361Y567598D01*
X105363Y567637D01*
X105342Y567694D01*
X105330Y567754D01*
X105307Y567786D01*
X105294Y567823D01*
X105252Y567868D01*
X105217Y567918D01*
X105184Y567939D01*
X105157Y567968D01*
X105087Y568001D01*
X105050Y568025D01*
X105030Y568028D01*
X105007Y568039D01*
X104457Y568196D01*
X104413Y568199D01*
X104320Y568215D01*
X97252Y568215D01*
X97212Y568207D01*
X97172Y568209D01*
X97116Y568188D01*
X97057Y568175D01*
X97024Y568153D01*
X96986Y568139D01*
X96943Y568097D01*
X96893Y568063D01*
X96871Y568029D01*
X96842Y568002D01*
X96810Y567933D01*
X96786Y567895D01*
X96782Y567875D01*
X96771Y567851D01*
X96616Y567300D01*
X96612Y567256D01*
X96597Y567164D01*
X96597Y550907D01*
X96602Y550880D01*
X96600Y550853D01*
X96622Y550784D01*
X96637Y550712D01*
X96652Y550690D01*
X96660Y550664D01*
X96726Y550582D01*
X96749Y550549D01*
X96757Y550543D01*
X96765Y550534D01*
X97139Y550202D01*
X97224Y550152D01*
X97307Y550103D01*
X97309Y550103D01*
X97311Y550102D01*
X97329Y550099D01*
X97471Y550076D01*
X116555Y550076D01*
X116569Y550078D01*
G37*
G36*
X192209Y550077D02*
X192209Y550077D01*
X192215Y550076D01*
X192920Y550091D01*
X192952Y550098D01*
X192997Y550098D01*
X193691Y550222D01*
X193727Y550236D01*
X193784Y550247D01*
X194441Y550501D01*
X194474Y550522D01*
X194526Y550544D01*
X195124Y550918D01*
X195150Y550943D01*
X195192Y550970D01*
X195717Y551441D01*
X195737Y551468D01*
X195771Y551498D01*
X196215Y552046D01*
X196232Y552079D01*
X196265Y552120D01*
X196604Y552738D01*
X196616Y552776D01*
X196642Y552827D01*
X196855Y553499D01*
X196859Y553537D01*
X196875Y553591D01*
X196959Y554291D01*
X196957Y554317D01*
X196963Y554350D01*
X196965Y567059D01*
X196964Y567063D01*
X196965Y567067D01*
X196962Y567078D01*
X196964Y567096D01*
X196915Y567753D01*
X196890Y567839D01*
X196870Y567926D01*
X196864Y567934D01*
X196861Y567944D01*
X196805Y568014D01*
X196752Y568086D01*
X196743Y568091D01*
X196736Y568099D01*
X196658Y568142D01*
X196581Y568187D01*
X196570Y568189D01*
X196561Y568194D01*
X196521Y568197D01*
X196417Y568215D01*
X188651Y568215D01*
X188643Y568213D01*
X188634Y568215D01*
X188545Y568194D01*
X188456Y568175D01*
X188449Y568171D01*
X188441Y568169D01*
X188367Y568115D01*
X188292Y568063D01*
X188287Y568056D01*
X188281Y568051D01*
X188234Y567973D01*
X188185Y567895D01*
X188183Y567887D01*
X188179Y567880D01*
X188151Y567716D01*
X188145Y558888D01*
X188041Y558848D01*
X181410Y558848D01*
X181369Y558948D01*
X181369Y567324D01*
X181352Y567407D01*
X181340Y567490D01*
X181332Y567505D01*
X181329Y567519D01*
X181304Y567555D01*
X181260Y567636D01*
X180946Y568028D01*
X180915Y568054D01*
X180891Y568086D01*
X180839Y568117D01*
X180793Y568155D01*
X180754Y568167D01*
X180720Y568187D01*
X180645Y568200D01*
X180603Y568213D01*
X180582Y568211D01*
X180556Y568215D01*
X173496Y568215D01*
X173418Y568199D01*
X173339Y568190D01*
X173319Y568179D01*
X173301Y568175D01*
X173264Y568150D01*
X173192Y568112D01*
X172792Y567806D01*
X172762Y567771D01*
X172726Y567744D01*
X172698Y567697D01*
X172662Y567656D01*
X172648Y567612D01*
X172624Y567573D01*
X172613Y567507D01*
X172600Y567467D01*
X172602Y567442D01*
X172597Y567409D01*
X172597Y554701D01*
X172599Y554692D01*
X172597Y554680D01*
X172626Y553976D01*
X172634Y553941D01*
X172637Y553891D01*
X172785Y553202D01*
X172801Y553166D01*
X172815Y553110D01*
X173093Y552462D01*
X173115Y552431D01*
X173138Y552379D01*
X173533Y551795D01*
X173558Y551771D01*
X173585Y551731D01*
X174072Y551220D01*
X174083Y551212D01*
X174090Y551203D01*
X174107Y551193D01*
X174132Y551167D01*
X174694Y550741D01*
X174728Y550725D01*
X174771Y550693D01*
X175402Y550377D01*
X175440Y550367D01*
X175492Y550342D01*
X176171Y550154D01*
X176209Y550151D01*
X176262Y550138D01*
X176964Y550077D01*
X176983Y550080D01*
X177007Y550076D01*
X192204Y550076D01*
X192209Y550077D01*
G37*
G36*
X295506Y550077D02*
X295506Y550077D01*
X295514Y550076D01*
X295602Y550097D01*
X295692Y550115D01*
X295699Y550120D01*
X295707Y550122D01*
X295781Y550176D01*
X295856Y550228D01*
X295861Y550235D01*
X295867Y550240D01*
X295914Y550318D01*
X295963Y550395D01*
X295965Y550404D01*
X295969Y550411D01*
X295997Y550575D01*
X295997Y568748D01*
X296170Y568762D01*
X298266Y568762D01*
X298267Y568762D01*
X298362Y568781D01*
X298461Y568801D01*
X298462Y568801D01*
X298462Y568802D01*
X298602Y568891D01*
X298972Y569227D01*
X298986Y569247D01*
X299006Y569261D01*
X299044Y569326D01*
X299089Y569387D01*
X299095Y569411D01*
X299107Y569432D01*
X299126Y569545D01*
X299135Y569581D01*
X299134Y569588D01*
X299135Y569596D01*
X299135Y576648D01*
X299118Y576733D01*
X299104Y576820D01*
X299098Y576832D01*
X299096Y576842D01*
X299072Y576877D01*
X299022Y576964D01*
X298704Y577352D01*
X298675Y577375D01*
X298653Y577405D01*
X298598Y577437D01*
X298549Y577477D01*
X298514Y577487D01*
X298482Y577506D01*
X298401Y577520D01*
X298358Y577532D01*
X298340Y577530D01*
X298318Y577534D01*
X295997Y577534D01*
X295997Y586201D01*
X295986Y586256D01*
X295984Y586311D01*
X295966Y586352D01*
X295957Y586396D01*
X295926Y586442D01*
X295903Y586493D01*
X295870Y586523D01*
X295845Y586560D01*
X295798Y586590D01*
X295757Y586628D01*
X295715Y586643D01*
X295677Y586667D01*
X295622Y586676D01*
X295570Y586695D01*
X295517Y586694D01*
X295481Y586700D01*
X295449Y586693D01*
X295403Y586692D01*
X294984Y586611D01*
X294969Y586605D01*
X294952Y586604D01*
X294802Y586536D01*
X294801Y586536D01*
X294800Y586536D01*
X287774Y581822D01*
X287757Y581806D01*
X287737Y581795D01*
X287657Y581704D01*
X287634Y581680D01*
X287632Y581675D01*
X287627Y581670D01*
X287299Y581140D01*
X287280Y581088D01*
X287252Y581041D01*
X287243Y580989D01*
X287230Y580953D01*
X287232Y580921D01*
X287224Y580877D01*
X287224Y551262D01*
X287225Y551257D01*
X287224Y551250D01*
X287242Y550562D01*
X287242Y550560D01*
X287242Y550558D01*
X287264Y550465D01*
X287287Y550368D01*
X287288Y550367D01*
X287288Y550365D01*
X287345Y550287D01*
X287403Y550207D01*
X287405Y550206D01*
X287406Y550205D01*
X287489Y550155D01*
X287573Y550104D01*
X287575Y550104D01*
X287577Y550103D01*
X287741Y550076D01*
X295497Y550076D01*
X295506Y550077D01*
G37*
G36*
X250610Y621230D02*
X250610Y621230D01*
X250666Y621231D01*
X250707Y621249D01*
X250750Y621258D01*
X250796Y621290D01*
X250847Y621313D01*
X250878Y621346D01*
X250914Y621371D01*
X250944Y621418D01*
X250982Y621459D01*
X250997Y621501D01*
X251021Y621538D01*
X251031Y621593D01*
X251050Y621646D01*
X251047Y621691D01*
X251055Y621735D01*
X251042Y621789D01*
X251039Y621844D01*
X251017Y621892D01*
X251009Y621928D01*
X250989Y621955D01*
X250970Y621996D01*
X244684Y631367D01*
X244672Y631379D01*
X244661Y631399D01*
X244240Y631931D01*
X244208Y631958D01*
X244183Y631991D01*
X244133Y632021D01*
X244088Y632059D01*
X244048Y632071D01*
X244012Y632092D01*
X243940Y632105D01*
X243898Y632118D01*
X243876Y632115D01*
X243848Y632120D01*
X226217Y632120D01*
X226216Y632120D01*
X226214Y632120D01*
X225508Y632114D01*
X225486Y632110D01*
X225457Y632111D01*
X224757Y632033D01*
X224727Y632024D01*
X224686Y632020D01*
X224005Y631843D01*
X223975Y631829D01*
X223932Y631818D01*
X223285Y631538D01*
X223258Y631519D01*
X223216Y631501D01*
X222622Y631123D01*
X222599Y631101D01*
X222563Y631079D01*
X222030Y630618D01*
X222017Y630601D01*
X221994Y630584D01*
X221509Y630072D01*
X221498Y630054D01*
X221496Y630053D01*
X221491Y630045D01*
X221468Y630022D01*
X221054Y629452D01*
X221040Y629422D01*
X221014Y629387D01*
X220692Y628760D01*
X220683Y628728D01*
X220662Y628686D01*
X220444Y628016D01*
X220440Y627984D01*
X220426Y627942D01*
X220313Y627246D01*
X220315Y627218D01*
X220307Y627181D01*
X220287Y626477D01*
X220288Y626470D01*
X220286Y626462D01*
X220286Y622231D01*
X220288Y622225D01*
X220287Y622218D01*
X220318Y622055D01*
X220511Y621542D01*
X220521Y621526D01*
X220525Y621508D01*
X220573Y621443D01*
X220617Y621374D01*
X220632Y621363D01*
X220643Y621348D01*
X220713Y621307D01*
X220780Y621260D01*
X220798Y621256D01*
X220814Y621246D01*
X220958Y621222D01*
X220974Y621219D01*
X220976Y621219D01*
X220978Y621219D01*
X250556Y621219D01*
X250610Y621230D01*
G37*
G36*
X114877Y621220D02*
X114877Y621220D01*
X114885Y621219D01*
X114974Y621240D01*
X115064Y621258D01*
X115071Y621263D01*
X115079Y621265D01*
X115152Y621319D01*
X115228Y621371D01*
X115232Y621378D01*
X115239Y621383D01*
X115285Y621461D01*
X115335Y621538D01*
X115336Y621547D01*
X115340Y621554D01*
X115368Y621718D01*
X115368Y626661D01*
X115365Y626675D01*
X115367Y626692D01*
X115323Y627396D01*
X115314Y627427D01*
X115313Y627469D01*
X115165Y628159D01*
X115152Y628189D01*
X115143Y628234D01*
X114889Y628892D01*
X114882Y628905D01*
X114878Y628917D01*
X114867Y628933D01*
X114857Y628961D01*
X114506Y629573D01*
X114486Y629596D01*
X114467Y629631D01*
X114034Y630188D01*
X114014Y630206D01*
X113993Y630235D01*
X113494Y630734D01*
X113472Y630749D01*
X113447Y630776D01*
X112890Y631209D01*
X112863Y631222D01*
X112832Y631248D01*
X112220Y631598D01*
X112189Y631608D01*
X112151Y631630D01*
X111493Y631884D01*
X111461Y631889D01*
X111420Y631906D01*
X110731Y632057D01*
X110701Y632057D01*
X110661Y632067D01*
X109957Y632118D01*
X109941Y632116D01*
X109921Y632120D01*
X92268Y632120D01*
X92225Y632111D01*
X92152Y632106D01*
X91526Y631957D01*
X91523Y631956D01*
X91521Y631956D01*
X91433Y631914D01*
X91345Y631873D01*
X91343Y631871D01*
X91341Y631870D01*
X91227Y631750D01*
X84933Y622367D01*
X84906Y622301D01*
X84871Y622239D01*
X84867Y622207D01*
X84857Y622183D01*
X84858Y622140D01*
X84849Y622074D01*
X84859Y621704D01*
X84859Y621703D01*
X84859Y621701D01*
X84881Y621609D01*
X84904Y621510D01*
X84905Y621509D01*
X84905Y621508D01*
X84961Y621432D01*
X85022Y621349D01*
X85023Y621349D01*
X85023Y621348D01*
X85105Y621299D01*
X85192Y621247D01*
X85193Y621247D01*
X85194Y621246D01*
X85358Y621219D01*
X114869Y621219D01*
X114877Y621220D01*
G37*
G36*
X274508Y550076D02*
X274508Y550076D01*
X274530Y550081D01*
X274558Y550079D01*
X275259Y550149D01*
X275296Y550161D01*
X275351Y550167D01*
X276027Y550367D01*
X276061Y550386D01*
X276116Y550404D01*
X276741Y550730D01*
X276770Y550753D01*
X276817Y550779D01*
X277372Y551213D01*
X277394Y551239D01*
X277431Y551267D01*
X277910Y551784D01*
X277929Y551814D01*
X277962Y551850D01*
X278348Y552440D01*
X278362Y552476D01*
X278392Y552524D01*
X278659Y553176D01*
X278666Y553214D01*
X278687Y553268D01*
X278824Y553959D01*
X278824Y553994D01*
X278833Y554041D01*
X278855Y554746D01*
X278854Y554753D01*
X278856Y554761D01*
X278856Y567466D01*
X278839Y567547D01*
X278828Y567629D01*
X278819Y567644D01*
X278816Y567661D01*
X278769Y567729D01*
X278727Y567800D01*
X278712Y567812D01*
X278704Y567825D01*
X278666Y567849D01*
X278597Y567903D01*
X278141Y568154D01*
X278101Y568166D01*
X278065Y568187D01*
X277993Y568199D01*
X277951Y568213D01*
X277929Y568210D01*
X277901Y568215D01*
X270843Y568215D01*
X270800Y568206D01*
X270756Y568207D01*
X270703Y568187D01*
X270648Y568175D01*
X270612Y568151D01*
X270571Y568135D01*
X270520Y568087D01*
X270484Y568063D01*
X270471Y568043D01*
X270448Y568022D01*
X270140Y567625D01*
X270104Y567552D01*
X270063Y567482D01*
X270059Y567462D01*
X270052Y567446D01*
X270049Y567401D01*
X270035Y567318D01*
X270035Y558947D01*
X269994Y558848D01*
X255507Y558848D01*
X255502Y558847D01*
X255497Y558848D01*
X255334Y558817D01*
X254917Y558663D01*
X254860Y558627D01*
X254798Y558600D01*
X254776Y558576D01*
X254748Y558558D01*
X254709Y558503D01*
X254663Y558454D01*
X254652Y558423D01*
X254633Y558396D01*
X254619Y558330D01*
X254596Y558267D01*
X254598Y558234D01*
X254591Y558202D01*
X254603Y558135D01*
X254607Y558068D01*
X254623Y558034D01*
X254628Y558006D01*
X254650Y557972D01*
X254675Y557916D01*
X259787Y550297D01*
X259830Y550254D01*
X259866Y550205D01*
X259900Y550185D01*
X259928Y550157D01*
X259985Y550134D01*
X260037Y550103D01*
X260082Y550096D01*
X260113Y550083D01*
X260150Y550084D01*
X260201Y550076D01*
X260392Y550076D01*
X274508Y550076D01*
G37*
G36*
X143554Y550077D02*
X143554Y550077D01*
X143562Y550076D01*
X143651Y550097D01*
X143741Y550115D01*
X143748Y550120D01*
X143756Y550122D01*
X143829Y550176D01*
X143905Y550228D01*
X143909Y550235D01*
X143916Y550240D01*
X143962Y550318D01*
X144012Y550395D01*
X144013Y550404D01*
X144017Y550411D01*
X144045Y550575D01*
X144045Y576870D01*
X144038Y576904D01*
X144040Y576939D01*
X144019Y577001D01*
X144006Y577065D01*
X143986Y577094D01*
X143974Y577127D01*
X143930Y577175D01*
X143893Y577229D01*
X143864Y577248D01*
X143840Y577274D01*
X143763Y577312D01*
X143725Y577336D01*
X143709Y577339D01*
X143691Y577348D01*
X143151Y577512D01*
X143111Y577516D01*
X143006Y577534D01*
X135961Y577534D01*
X135872Y577516D01*
X135783Y577501D01*
X135775Y577496D01*
X135766Y577494D01*
X135691Y577443D01*
X135615Y577394D01*
X135609Y577386D01*
X135602Y577382D01*
X135581Y577349D01*
X135516Y577261D01*
X135279Y576794D01*
X135270Y576761D01*
X135252Y576731D01*
X135238Y576645D01*
X135226Y576602D01*
X135228Y576586D01*
X135225Y576567D01*
X135225Y551206D01*
X135230Y551182D01*
X135228Y551149D01*
X135301Y550518D01*
X135325Y550442D01*
X135344Y550365D01*
X135356Y550348D01*
X135362Y550328D01*
X135415Y550269D01*
X135462Y550205D01*
X135479Y550194D01*
X135493Y550179D01*
X135564Y550144D01*
X135633Y550103D01*
X135655Y550099D01*
X135672Y550091D01*
X135717Y550089D01*
X135797Y550076D01*
X143546Y550076D01*
X143554Y550077D01*
G37*
G36*
X310329Y550077D02*
X310329Y550077D01*
X310337Y550076D01*
X310426Y550097D01*
X310516Y550115D01*
X310523Y550120D01*
X310531Y550122D01*
X310604Y550176D01*
X310680Y550228D01*
X310684Y550235D01*
X310691Y550240D01*
X310737Y550318D01*
X310787Y550395D01*
X310788Y550404D01*
X310792Y550411D01*
X310820Y550575D01*
X310820Y576682D01*
X310818Y576694D01*
X310819Y576706D01*
X310798Y576791D01*
X310780Y576876D01*
X310773Y576887D01*
X310770Y576899D01*
X310674Y577034D01*
X310322Y577387D01*
X310311Y577394D01*
X310303Y577405D01*
X310228Y577449D01*
X310156Y577497D01*
X310143Y577500D01*
X310132Y577506D01*
X309968Y577534D01*
X302912Y577534D01*
X302844Y577520D01*
X302775Y577515D01*
X302743Y577500D01*
X302718Y577494D01*
X302683Y577471D01*
X302625Y577443D01*
X302211Y577151D01*
X302173Y577111D01*
X302129Y577078D01*
X302106Y577039D01*
X302074Y577006D01*
X302055Y576954D01*
X302027Y576907D01*
X302018Y576855D01*
X302005Y576820D01*
X302007Y576787D01*
X301999Y576743D01*
X301999Y550636D01*
X302016Y550553D01*
X302028Y550470D01*
X302036Y550457D01*
X302039Y550441D01*
X302087Y550372D01*
X302130Y550299D01*
X302143Y550290D01*
X302152Y550277D01*
X302223Y550232D01*
X302291Y550182D01*
X302307Y550178D01*
X302319Y550170D01*
X302363Y550163D01*
X302451Y550139D01*
X303096Y550078D01*
X303117Y550080D01*
X303143Y550076D01*
X310321Y550076D01*
X310329Y550077D01*
G37*
G36*
X196474Y568763D02*
X196474Y568763D01*
X196482Y568762D01*
X196571Y568783D01*
X196661Y568801D01*
X196668Y568806D01*
X196676Y568808D01*
X196749Y568862D01*
X196825Y568914D01*
X196829Y568921D01*
X196836Y568926D01*
X196882Y569004D01*
X196932Y569081D01*
X196933Y569090D01*
X196937Y569097D01*
X196965Y569261D01*
X196965Y572791D01*
X196964Y572795D01*
X196965Y572801D01*
X196951Y573506D01*
X196944Y573539D01*
X196944Y573584D01*
X196820Y574278D01*
X196805Y574315D01*
X196793Y574374D01*
X196534Y575029D01*
X196513Y575062D01*
X196491Y575115D01*
X196112Y575709D01*
X196087Y575734D01*
X196061Y575776D01*
X195587Y576298D01*
X195560Y576318D01*
X195530Y576352D01*
X194980Y576794D01*
X194947Y576811D01*
X194906Y576844D01*
X194286Y577180D01*
X194248Y577192D01*
X194197Y577218D01*
X193524Y577428D01*
X193486Y577432D01*
X193432Y577448D01*
X192732Y577529D01*
X192708Y577527D01*
X192676Y577532D01*
X191970Y577534D01*
X191969Y577534D01*
X177142Y577534D01*
X177130Y577532D01*
X177116Y577533D01*
X176411Y577496D01*
X176377Y577487D01*
X176326Y577484D01*
X175639Y577326D01*
X175603Y577310D01*
X175546Y577295D01*
X174903Y577006D01*
X174871Y576983D01*
X174818Y576957D01*
X174244Y576548D01*
X174221Y576523D01*
X174183Y576497D01*
X173681Y576001D01*
X173663Y575974D01*
X173632Y575944D01*
X173210Y575379D01*
X173194Y575343D01*
X173160Y575295D01*
X172857Y574659D01*
X172847Y574620D01*
X172823Y574564D01*
X172653Y573880D01*
X172652Y573843D01*
X172640Y573790D01*
X172598Y573086D01*
X172600Y573072D01*
X172597Y573056D01*
X172597Y569526D01*
X172611Y569454D01*
X172618Y569382D01*
X172631Y569358D01*
X172636Y569331D01*
X172678Y569271D01*
X172712Y569206D01*
X172736Y569187D01*
X172749Y569167D01*
X172786Y569144D01*
X172839Y569098D01*
X173280Y568833D01*
X173328Y568816D01*
X173373Y568789D01*
X173430Y568780D01*
X173467Y568767D01*
X173497Y568768D01*
X173537Y568762D01*
X196466Y568762D01*
X196474Y568763D01*
G37*
G36*
X371072Y573447D02*
X371072Y573447D01*
X371081Y573446D01*
X371169Y573467D01*
X371258Y573485D01*
X371265Y573490D01*
X371274Y573492D01*
X371347Y573546D01*
X371422Y573597D01*
X371426Y573605D01*
X371434Y573610D01*
X371480Y573688D01*
X371529Y573765D01*
X371530Y573774D01*
X371535Y573782D01*
X371562Y573946D01*
X371550Y578183D01*
X371543Y578216D01*
X371543Y578263D01*
X371428Y578959D01*
X371414Y578995D01*
X371404Y579051D01*
X371158Y579712D01*
X371137Y579746D01*
X371115Y579801D01*
X370745Y580401D01*
X370719Y580428D01*
X370690Y580474D01*
X370217Y580996D01*
X370189Y581017D01*
X370156Y581053D01*
X369603Y581490D01*
X369570Y581507D01*
X369527Y581540D01*
X368904Y581870D01*
X368867Y581882D01*
X368831Y581900D01*
X368822Y581905D01*
X368820Y581905D01*
X368816Y581907D01*
X368142Y582113D01*
X368104Y582116D01*
X368053Y582131D01*
X367352Y582212D01*
X367328Y582210D01*
X367297Y582215D01*
X366591Y582218D01*
X366590Y582217D01*
X366589Y582218D01*
X351758Y582218D01*
X351735Y582213D01*
X351712Y582215D01*
X351596Y582185D01*
X351563Y582178D01*
X351558Y582175D01*
X351551Y582173D01*
X350982Y581914D01*
X350938Y581882D01*
X350889Y581859D01*
X350852Y581819D01*
X350821Y581797D01*
X350805Y581770D01*
X350775Y581738D01*
X346053Y574700D01*
X346037Y574661D01*
X346003Y574605D01*
X345815Y574128D01*
X345815Y574126D01*
X345814Y574124D01*
X345798Y574028D01*
X345781Y573932D01*
X345781Y573930D01*
X345781Y573928D01*
X345803Y573835D01*
X345825Y573738D01*
X345826Y573736D01*
X345827Y573734D01*
X345884Y573657D01*
X345942Y573577D01*
X345944Y573576D01*
X345945Y573574D01*
X346029Y573524D01*
X346112Y573474D01*
X346114Y573474D01*
X346116Y573473D01*
X346280Y573445D01*
X371063Y573445D01*
X371072Y573447D01*
G37*
G36*
X170061Y568773D02*
X170061Y568773D01*
X170116Y568774D01*
X170157Y568792D01*
X170201Y568801D01*
X170247Y568833D01*
X170298Y568856D01*
X170328Y568888D01*
X170365Y568914D01*
X170395Y568961D01*
X170433Y569002D01*
X170448Y569044D01*
X170472Y569081D01*
X170481Y569136D01*
X170500Y569189D01*
X170497Y569233D01*
X170505Y569277D01*
X170492Y569332D01*
X170489Y569387D01*
X170467Y569435D01*
X170459Y569471D01*
X170439Y569498D01*
X170420Y569539D01*
X165313Y577153D01*
X165245Y577220D01*
X165175Y577290D01*
X165173Y577291D01*
X165172Y577293D01*
X165157Y577298D01*
X165023Y577358D01*
X164403Y577518D01*
X164358Y577520D01*
X164278Y577534D01*
X150878Y577534D01*
X150873Y577533D01*
X150867Y577534D01*
X150163Y577518D01*
X150131Y577511D01*
X150088Y577511D01*
X149394Y577389D01*
X149357Y577375D01*
X149301Y577364D01*
X148644Y577111D01*
X148610Y577090D01*
X148555Y577067D01*
X147961Y576690D01*
X147934Y576664D01*
X147890Y576636D01*
X147371Y576159D01*
X147354Y576135D01*
X147325Y576110D01*
X146875Y575568D01*
X146857Y575534D01*
X146822Y575490D01*
X146483Y574873D01*
X146471Y574834D01*
X146444Y574780D01*
X146236Y574107D01*
X146232Y574068D01*
X146216Y574013D01*
X146141Y573313D01*
X146143Y573290D01*
X146138Y573260D01*
X146137Y569733D01*
X146143Y569703D01*
X146141Y569672D01*
X146168Y569581D01*
X146176Y569538D01*
X146184Y569528D01*
X146188Y569512D01*
X146421Y569040D01*
X146479Y568965D01*
X146534Y568891D01*
X146539Y568888D01*
X146543Y568883D01*
X146625Y568837D01*
X146705Y568789D01*
X146711Y568788D01*
X146716Y568786D01*
X146749Y568782D01*
X146869Y568762D01*
X170006Y568762D01*
X170061Y568773D01*
G37*
G36*
X278365Y568763D02*
X278365Y568763D01*
X278373Y568762D01*
X278461Y568783D01*
X278551Y568801D01*
X278558Y568806D01*
X278566Y568808D01*
X278640Y568862D01*
X278715Y568914D01*
X278720Y568921D01*
X278727Y568926D01*
X278773Y569004D01*
X278822Y569081D01*
X278824Y569090D01*
X278828Y569097D01*
X278856Y569261D01*
X278856Y572790D01*
X278855Y572794D01*
X278856Y572799D01*
X278842Y573505D01*
X278835Y573537D01*
X278835Y573583D01*
X278711Y574277D01*
X278696Y574314D01*
X278684Y574372D01*
X278426Y575027D01*
X278404Y575060D01*
X278382Y575113D01*
X278004Y575707D01*
X277979Y575733D01*
X277953Y575774D01*
X277479Y576297D01*
X277453Y576316D01*
X277422Y576350D01*
X276873Y576792D01*
X276840Y576809D01*
X276799Y576842D01*
X276180Y577179D01*
X276142Y577190D01*
X276090Y577217D01*
X275418Y577428D01*
X275380Y577431D01*
X275327Y577447D01*
X274627Y577529D01*
X274601Y577526D01*
X274569Y577532D01*
X260453Y577534D01*
X260378Y577519D01*
X260302Y577511D01*
X260278Y577499D01*
X260258Y577494D01*
X260221Y577469D01*
X260154Y577434D01*
X259649Y577057D01*
X259648Y577056D01*
X259534Y576935D01*
X254816Y569902D01*
X254785Y569827D01*
X254748Y569754D01*
X254746Y569733D01*
X254740Y569718D01*
X254740Y569673D01*
X254732Y569589D01*
X254758Y569226D01*
X254782Y569139D01*
X254803Y569051D01*
X254808Y569043D01*
X254811Y569034D01*
X254867Y568963D01*
X254921Y568891D01*
X254929Y568886D01*
X254935Y568879D01*
X255014Y568835D01*
X255092Y568789D01*
X255102Y568788D01*
X255109Y568784D01*
X255148Y568780D01*
X255256Y568762D01*
X278356Y568762D01*
X278365Y568763D01*
G37*
G36*
X134314Y621220D02*
X134314Y621220D01*
X134322Y621219D01*
X134410Y621240D01*
X134500Y621258D01*
X134507Y621263D01*
X134515Y621265D01*
X134588Y621319D01*
X134664Y621371D01*
X134669Y621378D01*
X134675Y621383D01*
X134722Y621461D01*
X134771Y621538D01*
X134773Y621547D01*
X134777Y621554D01*
X134805Y621718D01*
X134805Y631590D01*
X134785Y631683D01*
X134767Y631778D01*
X134766Y631781D01*
X134765Y631784D01*
X134711Y631863D01*
X134657Y631944D01*
X134654Y631946D01*
X134652Y631948D01*
X134572Y632000D01*
X134491Y632053D01*
X134487Y632054D01*
X134485Y632055D01*
X134462Y632059D01*
X134328Y632088D01*
X133655Y632120D01*
X133644Y632118D01*
X133632Y632120D01*
X123760Y632120D01*
X123745Y632117D01*
X123726Y632119D01*
X123046Y632073D01*
X123003Y632061D01*
X122959Y632059D01*
X122908Y632035D01*
X122854Y632020D01*
X122819Y631992D01*
X122779Y631973D01*
X122732Y631923D01*
X122698Y631896D01*
X122687Y631875D01*
X122665Y631853D01*
X116380Y622484D01*
X116366Y622448D01*
X116336Y622402D01*
X116127Y621915D01*
X116125Y621905D01*
X116120Y621898D01*
X116105Y621809D01*
X116087Y621720D01*
X116089Y621711D01*
X116087Y621701D01*
X116108Y621614D01*
X116126Y621525D01*
X116131Y621517D01*
X116133Y621508D01*
X116187Y621435D01*
X116238Y621361D01*
X116245Y621355D01*
X116251Y621348D01*
X116329Y621302D01*
X116405Y621253D01*
X116414Y621251D01*
X116422Y621246D01*
X116586Y621219D01*
X134305Y621219D01*
X134314Y621220D01*
G37*
G36*
X162859Y609352D02*
X162859Y609352D01*
X162887Y609350D01*
X163557Y609419D01*
X163591Y609430D01*
X163627Y609431D01*
X163685Y609459D01*
X163747Y609478D01*
X163774Y609501D01*
X163806Y609517D01*
X163864Y609578D01*
X163898Y609607D01*
X163906Y609622D01*
X163921Y609637D01*
X170216Y619022D01*
X170231Y619059D01*
X170279Y619154D01*
X170416Y619604D01*
X170424Y619686D01*
X170437Y619766D01*
X170433Y619784D01*
X170435Y619802D01*
X170410Y619880D01*
X170391Y619960D01*
X170381Y619974D01*
X170375Y619992D01*
X170322Y620054D01*
X170273Y620120D01*
X170258Y620129D01*
X170246Y620143D01*
X170173Y620180D01*
X170102Y620221D01*
X170083Y620225D01*
X170068Y620232D01*
X170023Y620235D01*
X169938Y620249D01*
X152282Y620249D01*
X152279Y620249D01*
X152277Y620249D01*
X152182Y620229D01*
X152087Y620209D01*
X152085Y620208D01*
X152082Y620208D01*
X152002Y620151D01*
X151923Y620097D01*
X151922Y620095D01*
X151919Y620093D01*
X151868Y620010D01*
X151816Y619929D01*
X151815Y619927D01*
X151814Y619925D01*
X151783Y619761D01*
X151766Y619071D01*
X151767Y619066D01*
X151766Y619060D01*
X151766Y614822D01*
X151769Y614809D01*
X151767Y614794D01*
X151807Y614089D01*
X151815Y614060D01*
X151816Y614020D01*
X151954Y613328D01*
X151967Y613298D01*
X151974Y613255D01*
X152215Y612592D01*
X152232Y612564D01*
X152247Y612522D01*
X152586Y611904D01*
X152605Y611880D01*
X152624Y611844D01*
X153048Y611279D01*
X153069Y611261D01*
X153090Y611231D01*
X153582Y610725D01*
X153606Y610709D01*
X153632Y610681D01*
X154187Y610245D01*
X154215Y610231D01*
X154248Y610204D01*
X154862Y609856D01*
X154893Y609845D01*
X154932Y609822D01*
X155593Y609574D01*
X155625Y609569D01*
X155666Y609552D01*
X156356Y609407D01*
X156386Y609407D01*
X156425Y609397D01*
X157129Y609349D01*
X157141Y609351D01*
X157156Y609348D01*
X157180Y609348D01*
X157183Y609348D01*
X157186Y609348D01*
X162836Y609348D01*
X162859Y609352D01*
G37*
G36*
X253450Y550077D02*
X253450Y550077D01*
X253458Y550076D01*
X253547Y550097D01*
X253636Y550115D01*
X253643Y550120D01*
X253652Y550122D01*
X253725Y550176D01*
X253800Y550228D01*
X253805Y550235D01*
X253812Y550240D01*
X253858Y550318D01*
X253907Y550395D01*
X253909Y550404D01*
X253913Y550411D01*
X253941Y550575D01*
X253941Y567309D01*
X253926Y567382D01*
X253919Y567456D01*
X253906Y567482D01*
X253901Y567504D01*
X253876Y567540D01*
X253844Y567605D01*
X253544Y568012D01*
X253507Y568045D01*
X253477Y568086D01*
X253434Y568111D01*
X253397Y568145D01*
X253350Y568162D01*
X253306Y568187D01*
X253247Y568197D01*
X253209Y568210D01*
X253180Y568209D01*
X253142Y568215D01*
X246080Y568215D01*
X246042Y568207D01*
X246003Y568209D01*
X245929Y568184D01*
X245885Y568175D01*
X245869Y568164D01*
X245845Y568156D01*
X245385Y567911D01*
X245318Y567856D01*
X245249Y567805D01*
X245242Y567793D01*
X245231Y567784D01*
X245192Y567708D01*
X245148Y567634D01*
X245145Y567619D01*
X245140Y567608D01*
X245136Y567564D01*
X245120Y567470D01*
X245120Y551227D01*
X245124Y551209D01*
X245122Y551186D01*
X245176Y550534D01*
X245200Y550450D01*
X245220Y550365D01*
X245228Y550355D01*
X245231Y550343D01*
X245287Y550275D01*
X245338Y550205D01*
X245349Y550198D01*
X245357Y550189D01*
X245434Y550148D01*
X245509Y550103D01*
X245523Y550101D01*
X245533Y550096D01*
X245575Y550092D01*
X245673Y550076D01*
X253442Y550076D01*
X253450Y550077D01*
G37*
G36*
X317878Y627186D02*
X317878Y627186D01*
X317882Y627185D01*
X317975Y627205D01*
X318069Y627225D01*
X318073Y627227D01*
X318076Y627228D01*
X318155Y627283D01*
X318233Y627337D01*
X318235Y627340D01*
X318239Y627343D01*
X318331Y627481D01*
X318548Y627968D01*
X318552Y627989D01*
X318563Y628007D01*
X318585Y628136D01*
X318591Y628162D01*
X318590Y628166D01*
X318591Y628171D01*
X318591Y637325D01*
X318576Y637398D01*
X318569Y637472D01*
X318556Y637494D01*
X318551Y637520D01*
X318509Y637581D01*
X318473Y637646D01*
X318451Y637665D01*
X318439Y637684D01*
X318402Y637707D01*
X318346Y637754D01*
X317905Y638016D01*
X317857Y638033D01*
X317814Y638059D01*
X317755Y638069D01*
X317717Y638082D01*
X317688Y638080D01*
X317650Y638086D01*
X304272Y638086D01*
X304246Y638081D01*
X304219Y638084D01*
X304149Y638061D01*
X304077Y638047D01*
X304055Y638032D01*
X304029Y638023D01*
X303973Y637976D01*
X303913Y637934D01*
X303899Y637912D01*
X303878Y637894D01*
X303846Y637828D01*
X303806Y637767D01*
X303802Y637740D01*
X303790Y637716D01*
X303785Y637643D01*
X303773Y637571D01*
X303779Y637544D01*
X303778Y637518D01*
X303810Y637416D01*
X303819Y637377D01*
X303824Y637370D01*
X303828Y637359D01*
X304094Y636842D01*
X304109Y636822D01*
X304123Y636792D01*
X310399Y627436D01*
X310419Y627406D01*
X310463Y627363D01*
X310498Y627314D01*
X310533Y627294D01*
X310561Y627266D01*
X310617Y627244D01*
X310670Y627213D01*
X310715Y627205D01*
X310746Y627193D01*
X310782Y627194D01*
X310834Y627185D01*
X317875Y627185D01*
X317878Y627186D01*
G37*
G36*
X459742Y575286D02*
X459742Y575286D01*
X459782Y575284D01*
X459791Y575288D01*
X459802Y575288D01*
X461172Y575569D01*
X462543Y575787D01*
X463929Y575943D01*
X467435Y576264D01*
X467441Y576266D01*
X467449Y576266D01*
X468149Y576350D01*
X468156Y576352D01*
X468164Y576352D01*
X469527Y576557D01*
X470182Y576611D01*
X470812Y576584D01*
X471408Y576456D01*
X472004Y576190D01*
X472047Y576181D01*
X472086Y576162D01*
X472156Y576156D01*
X472198Y576147D01*
X472221Y576151D01*
X472252Y576149D01*
X472874Y576205D01*
X472876Y576205D01*
X472878Y576205D01*
X473039Y576249D01*
X473663Y576538D01*
X474291Y576777D01*
X474937Y576978D01*
X475598Y577146D01*
X476270Y577287D01*
X476951Y577408D01*
X479734Y577844D01*
X479822Y577877D01*
X479911Y577908D01*
X479915Y577912D01*
X479921Y577914D01*
X479989Y577978D01*
X480059Y578041D01*
X480061Y578046D01*
X480065Y578050D01*
X480103Y578136D01*
X480142Y578222D01*
X480143Y578228D01*
X480145Y578232D01*
X480145Y578263D01*
X480154Y578388D01*
X480132Y578599D01*
X480105Y578686D01*
X480081Y578774D01*
X480076Y578781D01*
X480073Y578789D01*
X480014Y578858D01*
X479958Y578930D01*
X479950Y578935D01*
X479945Y578940D01*
X479911Y578957D01*
X479814Y579015D01*
X479156Y579267D01*
X479145Y579269D01*
X479133Y579276D01*
X478462Y579495D01*
X478452Y579497D01*
X478441Y579502D01*
X477762Y579691D01*
X477750Y579692D01*
X477736Y579698D01*
X476359Y580004D01*
X476349Y580004D01*
X476338Y580008D01*
X475644Y580131D01*
X475637Y580131D01*
X475630Y580134D01*
X473549Y580445D01*
X472875Y580576D01*
X472206Y580732D01*
X470854Y581099D01*
X470812Y581101D01*
X470750Y581115D01*
X469881Y581164D01*
X469847Y581159D01*
X469729Y581149D01*
X469048Y580973D01*
X469008Y580953D01*
X468927Y580924D01*
X468519Y580692D01*
X468480Y580658D01*
X468435Y580632D01*
X468406Y580594D01*
X468369Y580562D01*
X468347Y580515D01*
X468315Y580474D01*
X468303Y580427D01*
X468282Y580383D01*
X468280Y580331D01*
X468267Y580281D01*
X468274Y580233D01*
X468272Y580184D01*
X468290Y580136D01*
X468298Y580084D01*
X468326Y580034D01*
X468340Y579998D01*
X468360Y579975D01*
X468381Y579940D01*
X468788Y579447D01*
X468981Y579031D01*
X468927Y578805D01*
X468814Y578767D01*
X468520Y579005D01*
X468066Y579496D01*
X468046Y579511D01*
X468025Y579537D01*
X467490Y579996D01*
X467452Y580017D01*
X467397Y580059D01*
X466775Y580385D01*
X466768Y580388D01*
X466762Y580392D01*
X466602Y580439D01*
X465906Y580522D01*
X465882Y580521D01*
X465851Y580526D01*
X465146Y580533D01*
X465141Y580531D01*
X465134Y580533D01*
X463724Y580511D01*
X463718Y580510D01*
X463711Y580511D01*
X462302Y580456D01*
X462298Y580455D01*
X462294Y580455D01*
X460181Y580339D01*
X460165Y580335D01*
X460144Y580335D01*
X459446Y580244D01*
X459438Y580241D01*
X459426Y580241D01*
X458742Y580123D01*
X458063Y580036D01*
X457378Y579976D01*
X456690Y579937D01*
X455288Y579904D01*
X455228Y579891D01*
X455166Y579886D01*
X455132Y579869D01*
X455094Y579860D01*
X455044Y579824D01*
X454989Y579796D01*
X454964Y579766D01*
X454933Y579744D01*
X454901Y579691D01*
X454861Y579644D01*
X454850Y579607D01*
X454830Y579574D01*
X454821Y579513D01*
X454803Y579454D01*
X454807Y579415D01*
X454801Y579377D01*
X454817Y579317D01*
X454823Y579256D01*
X454842Y579222D01*
X454852Y579185D01*
X454889Y579136D01*
X454919Y579082D01*
X454953Y579053D01*
X454973Y579027D01*
X455006Y579009D01*
X455047Y578975D01*
X455360Y578790D01*
X455386Y578782D01*
X455415Y578762D01*
X456030Y578496D01*
X456559Y578174D01*
X457026Y577739D01*
X457497Y577247D01*
X457946Y576737D01*
X458359Y576208D01*
X458736Y575636D01*
X458738Y575634D01*
X458740Y575631D01*
X458809Y575563D01*
X458877Y575495D01*
X458880Y575494D01*
X458882Y575492D01*
X459035Y575426D01*
X459583Y575292D01*
X459610Y575291D01*
X459636Y575282D01*
X459742Y575286D01*
G37*
G36*
X310329Y579676D02*
X310329Y579676D01*
X310337Y579674D01*
X310426Y579695D01*
X310516Y579714D01*
X310523Y579718D01*
X310531Y579720D01*
X310604Y579774D01*
X310680Y579826D01*
X310684Y579833D01*
X310691Y579838D01*
X310737Y579916D01*
X310787Y579994D01*
X310788Y580002D01*
X310792Y580009D01*
X310820Y580173D01*
X310820Y586402D01*
X310818Y586410D01*
X310820Y586418D01*
X310799Y586507D01*
X310780Y586596D01*
X310776Y586603D01*
X310774Y586612D01*
X310720Y586685D01*
X310668Y586760D01*
X310661Y586765D01*
X310656Y586772D01*
X310577Y586818D01*
X310500Y586867D01*
X310492Y586869D01*
X310485Y586873D01*
X310321Y586901D01*
X302560Y586901D01*
X302477Y586884D01*
X302393Y586873D01*
X302380Y586865D01*
X302365Y586862D01*
X302295Y586814D01*
X302223Y586770D01*
X302214Y586758D01*
X302201Y586749D01*
X302155Y586678D01*
X302106Y586610D01*
X302101Y586593D01*
X302094Y586581D01*
X302086Y586538D01*
X302063Y586449D01*
X302002Y585804D01*
X302004Y585783D01*
X301999Y585757D01*
X301999Y580818D01*
X302004Y580798D01*
X302002Y580771D01*
X302062Y580126D01*
X302087Y580045D01*
X302106Y579963D01*
X302115Y579951D01*
X302120Y579936D01*
X302174Y579871D01*
X302224Y579803D01*
X302237Y579795D01*
X302247Y579783D01*
X302322Y579745D01*
X302395Y579702D01*
X302412Y579699D01*
X302424Y579693D01*
X302468Y579689D01*
X302559Y579674D01*
X310321Y579674D01*
X310329Y579676D01*
G37*
G36*
X286187Y568763D02*
X286187Y568763D01*
X286195Y568762D01*
X286284Y568783D01*
X286373Y568801D01*
X286380Y568806D01*
X286388Y568808D01*
X286462Y568862D01*
X286537Y568914D01*
X286542Y568921D01*
X286549Y568926D01*
X286595Y569004D01*
X286644Y569081D01*
X286646Y569090D01*
X286650Y569097D01*
X286678Y569261D01*
X286678Y577017D01*
X286677Y577019D01*
X286678Y577021D01*
X286658Y577117D01*
X286638Y577212D01*
X286637Y577214D01*
X286637Y577215D01*
X286581Y577295D01*
X286526Y577376D01*
X286524Y577377D01*
X286523Y577379D01*
X286440Y577431D01*
X286358Y577483D01*
X286356Y577483D01*
X286355Y577484D01*
X286191Y577516D01*
X285504Y577534D01*
X285450Y577524D01*
X285395Y577525D01*
X285345Y577506D01*
X285308Y577499D01*
X285281Y577481D01*
X285239Y577466D01*
X284702Y577151D01*
X284680Y577132D01*
X284653Y577119D01*
X284585Y577047D01*
X284553Y577019D01*
X284548Y577008D01*
X284539Y576998D01*
X279825Y569972D01*
X279824Y569968D01*
X279821Y569965D01*
X279755Y569812D01*
X279649Y569380D01*
X279646Y569312D01*
X279635Y569244D01*
X279642Y569213D01*
X279641Y569181D01*
X279665Y569117D01*
X279681Y569051D01*
X279700Y569025D01*
X279711Y568995D01*
X279759Y568946D01*
X279799Y568891D01*
X279827Y568874D01*
X279849Y568851D01*
X279911Y568824D01*
X279970Y568789D01*
X280006Y568783D01*
X280031Y568772D01*
X280073Y568772D01*
X280134Y568762D01*
X286179Y568762D01*
X286187Y568763D01*
G37*
%LPC*%
G36*
X208435Y558848D02*
X208435Y558848D01*
X210790Y562533D01*
X218660Y562530D01*
X218660Y558929D01*
X218613Y558848D01*
X208435Y558848D01*
G37*
%LPD*%
G36*
X492292Y570466D02*
X492292Y570466D01*
X492306Y570469D01*
X492323Y570468D01*
X493025Y570527D01*
X493038Y570531D01*
X493055Y570531D01*
X493753Y570632D01*
X493765Y570637D01*
X493781Y570637D01*
X494472Y570779D01*
X494503Y570792D01*
X494549Y570801D01*
X495208Y571051D01*
X495215Y571056D01*
X495225Y571058D01*
X497174Y571881D01*
X497187Y571890D01*
X497205Y571896D01*
X497834Y572213D01*
X497846Y572222D01*
X497864Y572229D01*
X498470Y572590D01*
X498490Y572608D01*
X498521Y572625D01*
X499077Y573057D01*
X499099Y573082D01*
X499121Y573097D01*
X499146Y573136D01*
X499198Y573192D01*
X499201Y573201D01*
X499207Y573208D01*
X499222Y573255D01*
X499228Y573265D01*
X499232Y573285D01*
X499234Y573294D01*
X499265Y573380D01*
X499265Y573389D01*
X499267Y573397D01*
X499259Y573487D01*
X499254Y573578D01*
X499250Y573586D01*
X499249Y573595D01*
X499206Y573675D01*
X499166Y573756D01*
X499159Y573762D01*
X499155Y573770D01*
X499084Y573827D01*
X499016Y573886D01*
X499006Y573890D01*
X499000Y573895D01*
X498963Y573905D01*
X498859Y573943D01*
X498112Y574076D01*
X498067Y574075D01*
X497988Y574083D01*
X497286Y574032D01*
X497279Y574030D01*
X497271Y574031D01*
X494464Y573744D01*
X494457Y573742D01*
X494447Y573742D01*
X493748Y573647D01*
X493740Y573644D01*
X493729Y573644D01*
X493034Y573520D01*
X493023Y573516D01*
X493007Y573515D01*
X492321Y573353D01*
X492307Y573346D01*
X492288Y573344D01*
X491614Y573135D01*
X491590Y573122D01*
X491556Y573113D01*
X490916Y572824D01*
X490882Y572799D01*
X490821Y572767D01*
X490259Y572343D01*
X490233Y572314D01*
X490204Y572294D01*
X490184Y572263D01*
X490152Y572232D01*
X490140Y572209D01*
X490127Y572194D01*
X490113Y572151D01*
X490112Y572151D01*
X490097Y572126D01*
X490095Y572114D01*
X490080Y572082D01*
X489908Y571485D01*
X489906Y571470D01*
X489900Y571455D01*
X489898Y571371D01*
X489892Y571287D01*
X489897Y571272D01*
X489896Y571257D01*
X489928Y571178D01*
X489954Y571098D01*
X489965Y571086D01*
X489970Y571072D01*
X490084Y570950D01*
X490567Y570580D01*
X490630Y570550D01*
X490688Y570512D01*
X490722Y570505D01*
X490746Y570493D01*
X490788Y570491D01*
X490850Y570478D01*
X491555Y570449D01*
X491570Y570452D01*
X491587Y570449D01*
X492292Y570466D01*
G37*
G36*
X465475Y581004D02*
X465475Y581004D01*
X466873Y580986D01*
X466913Y580994D01*
X466974Y580995D01*
X467667Y581130D01*
X467780Y581177D01*
X467850Y581206D01*
X467851Y581206D01*
X467922Y581278D01*
X467990Y581348D01*
X468022Y581429D01*
X468063Y581533D01*
X468060Y581638D01*
X468058Y581731D01*
X468058Y581732D01*
X467994Y581885D01*
X467845Y582123D01*
X467802Y582168D01*
X467766Y582220D01*
X467730Y582244D01*
X467707Y582267D01*
X467673Y582282D01*
X467628Y582313D01*
X467005Y582595D01*
X466571Y582839D01*
X466531Y582852D01*
X466474Y582881D01*
X466144Y582983D01*
X466115Y582985D01*
X466088Y582996D01*
X466017Y582995D01*
X465946Y583002D01*
X465918Y582994D01*
X465889Y582993D01*
X465797Y582956D01*
X465756Y582943D01*
X465748Y582936D01*
X465735Y582931D01*
X464560Y582207D01*
X463948Y581926D01*
X463869Y581868D01*
X463789Y581811D01*
X463788Y581810D01*
X463787Y581809D01*
X463737Y581724D01*
X463686Y581641D01*
X463686Y581639D01*
X463685Y581638D01*
X463672Y581539D01*
X463658Y581444D01*
X463658Y581443D01*
X463658Y581441D01*
X463684Y581345D01*
X463708Y581252D01*
X463709Y581250D01*
X463710Y581249D01*
X463770Y581171D01*
X463830Y581094D01*
X463831Y581094D01*
X463832Y581092D01*
X463918Y581045D01*
X464003Y580997D01*
X464005Y580997D01*
X464006Y580996D01*
X464018Y580995D01*
X464168Y580973D01*
X465475Y581004D01*
G37*
%LPC*%
G36*
X453860Y607881D02*
X453860Y607881D01*
X453950Y608449D01*
X454175Y608960D01*
X455043Y609977D01*
X455063Y610013D01*
X455102Y610062D01*
X455436Y610676D01*
X455442Y610694D01*
X455453Y610709D01*
X455490Y610850D01*
X455495Y610866D01*
X455495Y610868D01*
X455495Y610870D01*
X455558Y611571D01*
X455555Y611604D01*
X455559Y611649D01*
X455512Y612352D01*
X455502Y612389D01*
X455497Y612444D01*
X455319Y613126D01*
X455308Y613149D01*
X455301Y613181D01*
X455047Y613838D01*
X455040Y613848D01*
X455036Y613862D01*
X454464Y615136D01*
X454230Y615744D01*
X454127Y616235D01*
X454267Y616029D01*
X454484Y615570D01*
X454497Y615553D01*
X454506Y615528D01*
X455218Y614329D01*
X455529Y613732D01*
X455791Y613123D01*
X455992Y612501D01*
X456117Y611881D01*
X456130Y611281D01*
X456005Y610700D01*
X455758Y610140D01*
X455409Y609604D01*
X454095Y607979D01*
X454084Y607958D01*
X454063Y607935D01*
X453882Y607652D01*
X453860Y607881D01*
G37*
%LPD*%
%LPC*%
G36*
X453489Y598837D02*
X453489Y598837D01*
X453522Y599402D01*
X453639Y599951D01*
X454385Y601027D01*
X454402Y601064D01*
X454435Y601116D01*
X454708Y601759D01*
X454714Y601787D01*
X454728Y601813D01*
X454740Y601912D01*
X454748Y601953D01*
X454746Y601964D01*
X454747Y601978D01*
X454714Y602679D01*
X454703Y602722D01*
X454694Y602794D01*
X454497Y603471D01*
X454489Y603485D01*
X454486Y603505D01*
X454004Y604800D01*
X453849Y605429D01*
X453806Y605765D01*
X453915Y605645D01*
X454293Y605130D01*
X454904Y603934D01*
X455132Y603347D01*
X455238Y602747D01*
X455231Y602134D01*
X455116Y601526D01*
X454900Y600940D01*
X454589Y600385D01*
X454194Y599836D01*
X454186Y599817D01*
X454169Y599797D01*
X453812Y599189D01*
X453808Y599177D01*
X453799Y599165D01*
X453500Y598583D01*
X453489Y598837D01*
G37*
%LPD*%
%LPC*%
G36*
X452007Y588653D02*
X452007Y588653D01*
X451849Y588859D01*
X451878Y589253D01*
X452137Y589734D01*
X452555Y590235D01*
X452573Y590268D01*
X452607Y590310D01*
X452951Y590923D01*
X452962Y590958D01*
X452986Y591017D01*
X452989Y591022D01*
X452990Y591027D01*
X453004Y591064D01*
X453150Y591752D01*
X453150Y591796D01*
X453159Y591888D01*
X453112Y592590D01*
X453101Y592633D01*
X453088Y592714D01*
X452866Y593382D01*
X452858Y593394D01*
X452855Y593412D01*
X452615Y594003D01*
X452608Y594014D01*
X452604Y594029D01*
X452374Y594515D01*
X452441Y594853D01*
X452581Y594970D01*
X452803Y594853D01*
X453058Y594403D01*
X453289Y593793D01*
X453485Y593170D01*
X453581Y592548D01*
X453584Y591915D01*
X453499Y591284D01*
X453331Y590665D01*
X453086Y590070D01*
X452770Y589507D01*
X452390Y588984D01*
X452084Y588652D01*
X452007Y588653D01*
G37*
%LPD*%
%LPC*%
G36*
X450929Y581185D02*
X450929Y581185D01*
X450846Y581643D01*
X451088Y582026D01*
X451538Y582497D01*
X451555Y582524D01*
X451579Y582546D01*
X451621Y582628D01*
X451644Y582666D01*
X451646Y582679D01*
X451654Y582694D01*
X451860Y583357D01*
X451862Y583379D01*
X451871Y583400D01*
X451877Y583524D01*
X451880Y583555D01*
X451879Y583560D01*
X451879Y583566D01*
X451794Y584265D01*
X451785Y584289D01*
X451783Y584322D01*
X451619Y584999D01*
X451484Y585647D01*
X451451Y586183D01*
X451519Y586323D01*
X451602Y586322D01*
X451755Y586074D01*
X451849Y584791D01*
X451855Y584768D01*
X451856Y584738D01*
X451981Y584049D01*
X451991Y584025D01*
X451995Y583991D01*
X452188Y583364D01*
X452244Y582834D01*
X452049Y582320D01*
X451762Y581782D01*
X451359Y581340D01*
X451106Y581140D01*
X451085Y581114D01*
X451057Y581095D01*
X451021Y581039D01*
X450983Y580993D01*
X450929Y581185D01*
G37*
%LPD*%
D10*
X353286Y344932D02*
X353286Y391668D01*
X366268Y391668D02*
X340304Y391668D01*
X322862Y344932D02*
X309880Y344932D01*
X322862Y344932D02*
X323050Y344934D01*
X323238Y344941D01*
X323426Y344952D01*
X323614Y344968D01*
X323801Y344989D01*
X323987Y345014D01*
X324173Y345043D01*
X324358Y345077D01*
X324543Y345116D01*
X324726Y345158D01*
X324908Y345206D01*
X325089Y345257D01*
X325269Y345313D01*
X325447Y345374D01*
X325624Y345438D01*
X325799Y345507D01*
X325973Y345580D01*
X326144Y345657D01*
X326314Y345739D01*
X326482Y345824D01*
X326647Y345914D01*
X326811Y346007D01*
X326972Y346104D01*
X327130Y346206D01*
X327287Y346311D01*
X327440Y346420D01*
X327591Y346532D01*
X327739Y346648D01*
X327885Y346768D01*
X328027Y346891D01*
X328166Y347017D01*
X328303Y347147D01*
X328436Y347280D01*
X328566Y347417D01*
X328692Y347556D01*
X328815Y347698D01*
X328935Y347844D01*
X329051Y347992D01*
X329163Y348143D01*
X329272Y348296D01*
X329377Y348453D01*
X329479Y348611D01*
X329576Y348772D01*
X329669Y348936D01*
X329759Y349101D01*
X329844Y349269D01*
X329926Y349439D01*
X330003Y349610D01*
X330076Y349784D01*
X330145Y349959D01*
X330209Y350136D01*
X330270Y350314D01*
X330326Y350494D01*
X330377Y350675D01*
X330425Y350857D01*
X330467Y351040D01*
X330506Y351225D01*
X330540Y351410D01*
X330569Y351596D01*
X330594Y351782D01*
X330615Y351969D01*
X330631Y352157D01*
X330642Y352345D01*
X330649Y352533D01*
X330651Y352721D01*
X330652Y352721D02*
X330652Y365704D01*
X330649Y365957D01*
X330640Y366210D01*
X330624Y366462D01*
X330603Y366714D01*
X330575Y366966D01*
X330541Y367216D01*
X330501Y367466D01*
X330456Y367715D01*
X330404Y367962D01*
X330346Y368208D01*
X330282Y368453D01*
X330212Y368696D01*
X330136Y368937D01*
X330054Y369177D01*
X329967Y369414D01*
X329873Y369649D01*
X329775Y369882D01*
X329670Y370112D01*
X329560Y370340D01*
X329444Y370565D01*
X329323Y370787D01*
X329197Y371006D01*
X329065Y371222D01*
X328928Y371435D01*
X328786Y371644D01*
X328639Y371850D01*
X328486Y372052D01*
X328329Y372250D01*
X328168Y372444D01*
X328001Y372635D01*
X327830Y372821D01*
X327655Y373003D01*
X327475Y373181D01*
X327290Y373354D01*
X327102Y373523D01*
X326910Y373687D01*
X326713Y373847D01*
X326513Y374001D01*
X326309Y374151D01*
X326102Y374295D01*
X325891Y374435D01*
X325676Y374569D01*
X325459Y374699D01*
X325238Y374822D01*
X325015Y374941D01*
X324789Y375054D01*
X324560Y375161D01*
X324328Y375263D01*
X324094Y375359D01*
X323858Y375449D01*
X323619Y375534D01*
X323379Y375612D01*
X323137Y375685D01*
X322893Y375752D01*
X322648Y375813D01*
X322401Y375868D01*
X322152Y375917D01*
X321903Y375960D01*
X321653Y375997D01*
X321402Y376028D01*
X321150Y376052D01*
X320898Y376071D01*
X320645Y376083D01*
X320392Y376089D01*
X320140Y376089D01*
X319887Y376083D01*
X319634Y376071D01*
X319382Y376052D01*
X319130Y376028D01*
X318879Y375997D01*
X318629Y375960D01*
X318380Y375917D01*
X318131Y375868D01*
X317884Y375813D01*
X317639Y375752D01*
X317395Y375685D01*
X317153Y375612D01*
X316913Y375534D01*
X316674Y375449D01*
X316438Y375359D01*
X316204Y375263D01*
X315972Y375161D01*
X315743Y375054D01*
X315517Y374941D01*
X315294Y374822D01*
X315073Y374699D01*
X314856Y374569D01*
X314641Y374435D01*
X314430Y374295D01*
X314223Y374151D01*
X314019Y374001D01*
X313819Y373847D01*
X313622Y373687D01*
X313430Y373523D01*
X313242Y373354D01*
X313057Y373181D01*
X312877Y373003D01*
X312702Y372821D01*
X312531Y372635D01*
X312364Y372444D01*
X312203Y372250D01*
X312046Y372052D01*
X311893Y371850D01*
X311746Y371644D01*
X311604Y371435D01*
X311467Y371222D01*
X311335Y371006D01*
X311209Y370787D01*
X311088Y370565D01*
X310972Y370340D01*
X310862Y370112D01*
X310757Y369882D01*
X310659Y369649D01*
X310565Y369414D01*
X310478Y369177D01*
X310396Y368937D01*
X310320Y368696D01*
X310250Y368453D01*
X310186Y368208D01*
X310128Y367962D01*
X310076Y367715D01*
X310031Y367466D01*
X309991Y367216D01*
X309957Y366966D01*
X309929Y366714D01*
X309908Y366462D01*
X309892Y366210D01*
X309883Y365957D01*
X309880Y365704D01*
X309880Y360511D01*
X330652Y360511D01*
X293737Y363107D02*
X280755Y357914D01*
X293737Y363107D02*
X293889Y363170D01*
X294038Y363237D01*
X294187Y363307D01*
X294333Y363380D01*
X294478Y363457D01*
X294620Y363538D01*
X294761Y363622D01*
X294900Y363710D01*
X295036Y363800D01*
X295170Y363895D01*
X295302Y363992D01*
X295431Y364092D01*
X295558Y364196D01*
X295683Y364303D01*
X295805Y364413D01*
X295924Y364525D01*
X296040Y364641D01*
X296153Y364759D01*
X296264Y364880D01*
X296371Y365004D01*
X296476Y365130D01*
X296577Y365259D01*
X296675Y365390D01*
X296770Y365524D01*
X296862Y365659D01*
X296950Y365797D01*
X297035Y365938D01*
X297117Y366080D01*
X297195Y366224D01*
X297269Y366370D01*
X297340Y366518D01*
X297408Y366667D01*
X297471Y366818D01*
X297531Y366970D01*
X297588Y367124D01*
X297640Y367280D01*
X297689Y367436D01*
X297734Y367594D01*
X297775Y367752D01*
X297812Y367912D01*
X297845Y368073D01*
X297874Y368234D01*
X297900Y368396D01*
X297921Y368558D01*
X297939Y368721D01*
X297952Y368884D01*
X297962Y369048D01*
X297967Y369212D01*
X297969Y369376D01*
X297967Y369540D01*
X297960Y369703D01*
X297950Y369867D01*
X297935Y370030D01*
X297917Y370193D01*
X297895Y370355D01*
X297868Y370517D01*
X297838Y370678D01*
X297804Y370839D01*
X297766Y370998D01*
X297724Y371156D01*
X297679Y371314D01*
X297629Y371470D01*
X297576Y371625D01*
X297519Y371779D01*
X297458Y371931D01*
X297393Y372082D01*
X297325Y372231D01*
X297254Y372378D01*
X297178Y372524D01*
X297100Y372667D01*
X297017Y372809D01*
X296931Y372949D01*
X296842Y373086D01*
X296750Y373222D01*
X296654Y373355D01*
X296555Y373485D01*
X296453Y373614D01*
X296348Y373739D01*
X296240Y373862D01*
X296129Y373983D01*
X296015Y374101D01*
X295898Y374215D01*
X295778Y374327D01*
X295656Y374437D01*
X295531Y374543D01*
X295404Y374646D01*
X295274Y374745D01*
X295141Y374842D01*
X295007Y374936D01*
X294870Y375026D01*
X294731Y375112D01*
X294590Y375196D01*
X294447Y375276D01*
X294302Y375352D01*
X294155Y375425D01*
X294006Y375494D01*
X293856Y375560D01*
X293704Y375622D01*
X293551Y375680D01*
X293396Y375734D01*
X293241Y375785D01*
X293084Y375832D01*
X292925Y375875D01*
X292766Y375914D01*
X292606Y375949D01*
X292445Y375981D01*
X292284Y376008D01*
X292122Y376032D01*
X291959Y376051D01*
X291796Y376067D01*
X291632Y376078D01*
X291469Y376086D01*
X291305Y376090D01*
X291141Y376089D01*
X290432Y376070D01*
X289724Y376035D01*
X289017Y375982D01*
X288312Y375912D01*
X287608Y375826D01*
X286907Y375722D01*
X286208Y375602D01*
X285512Y375465D01*
X284820Y375311D01*
X284132Y375141D01*
X283448Y374954D01*
X282769Y374750D01*
X282095Y374531D01*
X281426Y374295D01*
X280763Y374043D01*
X280107Y373776D01*
X279457Y373493D01*
X280755Y357915D02*
X280603Y357852D01*
X280454Y357785D01*
X280305Y357715D01*
X280159Y357642D01*
X280014Y357565D01*
X279872Y357484D01*
X279731Y357400D01*
X279592Y357312D01*
X279456Y357222D01*
X279322Y357128D01*
X279190Y357030D01*
X279061Y356930D01*
X278934Y356826D01*
X278809Y356719D01*
X278688Y356609D01*
X278568Y356497D01*
X278452Y356381D01*
X278339Y356263D01*
X278228Y356142D01*
X278121Y356018D01*
X278016Y355892D01*
X277915Y355763D01*
X277817Y355632D01*
X277722Y355498D01*
X277630Y355363D01*
X277542Y355225D01*
X277457Y355084D01*
X277375Y354942D01*
X277297Y354798D01*
X277223Y354652D01*
X277152Y354505D01*
X277084Y354355D01*
X277021Y354204D01*
X276961Y354052D01*
X276904Y353898D01*
X276852Y353742D01*
X276803Y353586D01*
X276758Y353428D01*
X276717Y353270D01*
X276680Y353110D01*
X276647Y352949D01*
X276618Y352788D01*
X276592Y352626D01*
X276571Y352464D01*
X276553Y352301D01*
X276540Y352138D01*
X276530Y351974D01*
X276525Y351810D01*
X276523Y351646D01*
X276525Y351482D01*
X276532Y351319D01*
X276542Y351155D01*
X276557Y350992D01*
X276575Y350829D01*
X276597Y350667D01*
X276624Y350505D01*
X276654Y350344D01*
X276688Y350183D01*
X276726Y350024D01*
X276768Y349866D01*
X276813Y349708D01*
X276863Y349552D01*
X276916Y349397D01*
X276973Y349243D01*
X277034Y349091D01*
X277099Y348940D01*
X277167Y348791D01*
X277238Y348644D01*
X277314Y348498D01*
X277392Y348355D01*
X277475Y348213D01*
X277561Y348073D01*
X277650Y347936D01*
X277742Y347800D01*
X277838Y347667D01*
X277937Y347537D01*
X278039Y347408D01*
X278144Y347283D01*
X278252Y347160D01*
X278363Y347039D01*
X278477Y346921D01*
X278594Y346807D01*
X278714Y346695D01*
X278836Y346585D01*
X278961Y346479D01*
X279088Y346376D01*
X279218Y346277D01*
X279351Y346180D01*
X279485Y346086D01*
X279622Y345996D01*
X279761Y345910D01*
X279902Y345826D01*
X280045Y345746D01*
X280190Y345670D01*
X280337Y345597D01*
X280486Y345528D01*
X280636Y345462D01*
X280788Y345400D01*
X280941Y345342D01*
X281096Y345288D01*
X281251Y345237D01*
X281408Y345190D01*
X281567Y345147D01*
X281726Y345108D01*
X281886Y345073D01*
X282047Y345041D01*
X282208Y345014D01*
X282370Y344990D01*
X282533Y344971D01*
X282696Y344955D01*
X282860Y344944D01*
X283023Y344936D01*
X283187Y344932D01*
X283351Y344933D01*
X283351Y344932D02*
X284392Y344960D01*
X285432Y345011D01*
X286471Y345088D01*
X287507Y345189D01*
X288541Y345314D01*
X289572Y345464D01*
X290599Y345638D01*
X291621Y345837D01*
X292639Y346059D01*
X293651Y346306D01*
X294656Y346576D01*
X295655Y346870D01*
X296647Y347188D01*
X297631Y347529D01*
X267039Y376089D02*
X251460Y376089D01*
X261846Y391668D02*
X261846Y352721D01*
X261844Y352533D01*
X261837Y352345D01*
X261826Y352157D01*
X261810Y351969D01*
X261789Y351782D01*
X261764Y351596D01*
X261735Y351410D01*
X261701Y351225D01*
X261662Y351040D01*
X261620Y350857D01*
X261572Y350675D01*
X261521Y350494D01*
X261465Y350314D01*
X261404Y350136D01*
X261340Y349959D01*
X261271Y349784D01*
X261198Y349610D01*
X261121Y349439D01*
X261039Y349269D01*
X260954Y349101D01*
X260864Y348936D01*
X260771Y348772D01*
X260674Y348611D01*
X260572Y348453D01*
X260467Y348296D01*
X260358Y348143D01*
X260246Y347992D01*
X260130Y347844D01*
X260010Y347698D01*
X259887Y347556D01*
X259761Y347417D01*
X259631Y347280D01*
X259498Y347147D01*
X259361Y347017D01*
X259222Y346891D01*
X259080Y346768D01*
X258934Y346648D01*
X258786Y346532D01*
X258635Y346420D01*
X258482Y346311D01*
X258325Y346206D01*
X258167Y346104D01*
X258006Y346007D01*
X257842Y345914D01*
X257677Y345824D01*
X257509Y345739D01*
X257339Y345657D01*
X257168Y345580D01*
X256994Y345507D01*
X256819Y345438D01*
X256642Y345374D01*
X256464Y345313D01*
X256284Y345257D01*
X256103Y345206D01*
X255921Y345158D01*
X255738Y345116D01*
X255553Y345077D01*
X255368Y345043D01*
X255182Y345014D01*
X254996Y344989D01*
X254809Y344968D01*
X254621Y344952D01*
X254433Y344941D01*
X254245Y344934D01*
X254057Y344932D01*
X251460Y344932D01*
X232692Y344932D02*
X219710Y344932D01*
X232692Y344932D02*
X232880Y344934D01*
X233068Y344941D01*
X233256Y344952D01*
X233444Y344968D01*
X233631Y344989D01*
X233817Y345014D01*
X234003Y345043D01*
X234188Y345077D01*
X234373Y345116D01*
X234556Y345158D01*
X234738Y345206D01*
X234919Y345257D01*
X235099Y345313D01*
X235277Y345374D01*
X235454Y345438D01*
X235629Y345507D01*
X235803Y345580D01*
X235974Y345657D01*
X236144Y345739D01*
X236312Y345824D01*
X236477Y345914D01*
X236641Y346007D01*
X236802Y346104D01*
X236960Y346206D01*
X237117Y346311D01*
X237270Y346420D01*
X237421Y346532D01*
X237569Y346648D01*
X237715Y346768D01*
X237857Y346891D01*
X237996Y347017D01*
X238133Y347147D01*
X238266Y347280D01*
X238396Y347417D01*
X238522Y347556D01*
X238645Y347698D01*
X238765Y347844D01*
X238881Y347992D01*
X238993Y348143D01*
X239102Y348296D01*
X239207Y348453D01*
X239309Y348611D01*
X239406Y348772D01*
X239499Y348936D01*
X239589Y349101D01*
X239674Y349269D01*
X239756Y349439D01*
X239833Y349610D01*
X239906Y349784D01*
X239975Y349959D01*
X240039Y350136D01*
X240100Y350314D01*
X240156Y350494D01*
X240207Y350675D01*
X240255Y350857D01*
X240297Y351040D01*
X240336Y351225D01*
X240370Y351410D01*
X240399Y351596D01*
X240424Y351782D01*
X240445Y351969D01*
X240461Y352157D01*
X240472Y352345D01*
X240479Y352533D01*
X240481Y352721D01*
X240482Y352721D02*
X240482Y365704D01*
X240479Y365957D01*
X240470Y366210D01*
X240454Y366462D01*
X240433Y366714D01*
X240405Y366966D01*
X240371Y367216D01*
X240331Y367466D01*
X240286Y367715D01*
X240234Y367962D01*
X240176Y368208D01*
X240112Y368453D01*
X240042Y368696D01*
X239966Y368937D01*
X239884Y369177D01*
X239797Y369414D01*
X239703Y369649D01*
X239605Y369882D01*
X239500Y370112D01*
X239390Y370340D01*
X239274Y370565D01*
X239153Y370787D01*
X239027Y371006D01*
X238895Y371222D01*
X238758Y371435D01*
X238616Y371644D01*
X238469Y371850D01*
X238316Y372052D01*
X238159Y372250D01*
X237998Y372444D01*
X237831Y372635D01*
X237660Y372821D01*
X237485Y373003D01*
X237305Y373181D01*
X237120Y373354D01*
X236932Y373523D01*
X236740Y373687D01*
X236543Y373847D01*
X236343Y374001D01*
X236139Y374151D01*
X235932Y374295D01*
X235721Y374435D01*
X235506Y374569D01*
X235289Y374699D01*
X235068Y374822D01*
X234845Y374941D01*
X234619Y375054D01*
X234390Y375161D01*
X234158Y375263D01*
X233924Y375359D01*
X233688Y375449D01*
X233449Y375534D01*
X233209Y375612D01*
X232967Y375685D01*
X232723Y375752D01*
X232478Y375813D01*
X232231Y375868D01*
X231982Y375917D01*
X231733Y375960D01*
X231483Y375997D01*
X231232Y376028D01*
X230980Y376052D01*
X230728Y376071D01*
X230475Y376083D01*
X230222Y376089D01*
X229970Y376089D01*
X229717Y376083D01*
X229464Y376071D01*
X229212Y376052D01*
X228960Y376028D01*
X228709Y375997D01*
X228459Y375960D01*
X228210Y375917D01*
X227961Y375868D01*
X227714Y375813D01*
X227469Y375752D01*
X227225Y375685D01*
X226983Y375612D01*
X226743Y375534D01*
X226504Y375449D01*
X226268Y375359D01*
X226034Y375263D01*
X225802Y375161D01*
X225573Y375054D01*
X225347Y374941D01*
X225124Y374822D01*
X224903Y374699D01*
X224686Y374569D01*
X224471Y374435D01*
X224260Y374295D01*
X224053Y374151D01*
X223849Y374001D01*
X223649Y373847D01*
X223452Y373687D01*
X223260Y373523D01*
X223072Y373354D01*
X222887Y373181D01*
X222707Y373003D01*
X222532Y372821D01*
X222361Y372635D01*
X222194Y372444D01*
X222033Y372250D01*
X221876Y372052D01*
X221723Y371850D01*
X221576Y371644D01*
X221434Y371435D01*
X221297Y371222D01*
X221165Y371006D01*
X221039Y370787D01*
X220918Y370565D01*
X220802Y370340D01*
X220692Y370112D01*
X220587Y369882D01*
X220489Y369649D01*
X220395Y369414D01*
X220308Y369177D01*
X220226Y368937D01*
X220150Y368696D01*
X220080Y368453D01*
X220016Y368208D01*
X219958Y367962D01*
X219906Y367715D01*
X219861Y367466D01*
X219821Y367216D01*
X219787Y366966D01*
X219759Y366714D01*
X219738Y366462D01*
X219722Y366210D01*
X219713Y365957D01*
X219710Y365704D01*
X219710Y360511D01*
X240482Y360511D01*
X206237Y376089D02*
X206237Y344932D01*
X206237Y376089D02*
X190658Y376089D01*
X190658Y370896D01*
M02*
