G75*
%MOIN*%
%OFA0B0*%
%FSLAX25Y25*%
%IPPOS*%
%LPD*%
%AMOC8*
5,1,8,0,0,1.08239X$1,22.5*
%
%ADD10C,0.00000*%
%ADD11R,0.01969X0.09449*%
%ADD12R,0.03937X0.07874*%
%ADD13C,0.15000*%
%ADD14C,0.07000*%
%ADD15R,0.06299X0.07098*%
%ADD16R,0.06299X0.07874*%
%ADD17C,0.07874*%
%ADD18C,0.03937*%
%ADD19R,0.02362X0.04724*%
%ADD20R,0.04724X0.02362*%
%ADD21R,0.05906X0.01575*%
%ADD22R,0.07800X0.02200*%
%ADD23OC8,0.06000*%
%ADD24C,0.06000*%
%ADD25R,0.03543X0.01378*%
%ADD26R,0.03150X0.06693*%
%ADD27C,0.00800*%
%ADD28C,0.02978*%
%ADD29C,0.01600*%
%ADD30C,0.03200*%
%ADD31C,0.02400*%
D10*
X0005000Y0006000D02*
X0005000Y0216000D01*
X0005002Y0216139D01*
X0005008Y0216278D01*
X0005018Y0216417D01*
X0005031Y0216555D01*
X0005049Y0216693D01*
X0005070Y0216831D01*
X0005095Y0216968D01*
X0005124Y0217104D01*
X0005157Y0217239D01*
X0005194Y0217373D01*
X0005234Y0217507D01*
X0005278Y0217639D01*
X0005326Y0217769D01*
X0005378Y0217898D01*
X0005433Y0218026D01*
X0005491Y0218152D01*
X0005553Y0218277D01*
X0005619Y0218400D01*
X0005688Y0218521D01*
X0005760Y0218639D01*
X0005836Y0218756D01*
X0005915Y0218871D01*
X0005997Y0218983D01*
X0006082Y0219093D01*
X0006171Y0219201D01*
X0006262Y0219306D01*
X0006356Y0219408D01*
X0006453Y0219508D01*
X0006553Y0219605D01*
X0006655Y0219699D01*
X0006760Y0219790D01*
X0006868Y0219879D01*
X0006978Y0219964D01*
X0007090Y0220046D01*
X0007205Y0220125D01*
X0007322Y0220201D01*
X0007440Y0220273D01*
X0007561Y0220342D01*
X0007684Y0220408D01*
X0007809Y0220470D01*
X0007935Y0220528D01*
X0008063Y0220583D01*
X0008192Y0220635D01*
X0008322Y0220683D01*
X0008454Y0220727D01*
X0008588Y0220767D01*
X0008722Y0220804D01*
X0008857Y0220837D01*
X0008993Y0220866D01*
X0009130Y0220891D01*
X0009268Y0220912D01*
X0009406Y0220930D01*
X0009544Y0220943D01*
X0009683Y0220953D01*
X0009822Y0220959D01*
X0009961Y0220961D01*
X0205000Y0220961D01*
X0205119Y0220959D01*
X0205237Y0220953D01*
X0205355Y0220944D01*
X0205473Y0220931D01*
X0205591Y0220914D01*
X0205707Y0220893D01*
X0205824Y0220868D01*
X0205939Y0220840D01*
X0206053Y0220808D01*
X0206166Y0220772D01*
X0206278Y0220733D01*
X0206389Y0220691D01*
X0206498Y0220644D01*
X0206606Y0220594D01*
X0206712Y0220541D01*
X0206816Y0220485D01*
X0206919Y0220425D01*
X0207019Y0220362D01*
X0207117Y0220295D01*
X0207214Y0220226D01*
X0207308Y0220154D01*
X0207399Y0220078D01*
X0207488Y0220000D01*
X0207575Y0219919D01*
X0207659Y0219835D01*
X0207740Y0219748D01*
X0207818Y0219659D01*
X0207894Y0219568D01*
X0207966Y0219474D01*
X0208035Y0219377D01*
X0208102Y0219279D01*
X0208165Y0219179D01*
X0208225Y0219076D01*
X0208281Y0218972D01*
X0208334Y0218866D01*
X0208384Y0218758D01*
X0208431Y0218649D01*
X0208473Y0218538D01*
X0208512Y0218426D01*
X0208548Y0218313D01*
X0208580Y0218199D01*
X0208608Y0218084D01*
X0208633Y0217967D01*
X0208654Y0217851D01*
X0208671Y0217733D01*
X0208684Y0217615D01*
X0208693Y0217497D01*
X0208699Y0217379D01*
X0208701Y0217260D01*
X0208701Y0004701D01*
X0208699Y0004582D01*
X0208693Y0004464D01*
X0208684Y0004346D01*
X0208671Y0004228D01*
X0208654Y0004110D01*
X0208633Y0003994D01*
X0208608Y0003877D01*
X0208580Y0003762D01*
X0208548Y0003648D01*
X0208512Y0003535D01*
X0208473Y0003423D01*
X0208431Y0003312D01*
X0208384Y0003203D01*
X0208334Y0003095D01*
X0208281Y0002989D01*
X0208225Y0002885D01*
X0208165Y0002782D01*
X0208102Y0002682D01*
X0208035Y0002584D01*
X0207966Y0002487D01*
X0207894Y0002393D01*
X0207818Y0002302D01*
X0207740Y0002213D01*
X0207659Y0002126D01*
X0207575Y0002042D01*
X0207488Y0001961D01*
X0207399Y0001883D01*
X0207308Y0001807D01*
X0207214Y0001735D01*
X0207117Y0001666D01*
X0207019Y0001599D01*
X0206919Y0001536D01*
X0206816Y0001476D01*
X0206712Y0001420D01*
X0206606Y0001367D01*
X0206498Y0001317D01*
X0206389Y0001270D01*
X0206278Y0001228D01*
X0206166Y0001189D01*
X0206053Y0001153D01*
X0205939Y0001121D01*
X0205824Y0001093D01*
X0205707Y0001068D01*
X0205591Y0001047D01*
X0205473Y0001030D01*
X0205355Y0001017D01*
X0205237Y0001008D01*
X0205119Y0001002D01*
X0205000Y0001000D01*
X0010000Y0001000D01*
X0009860Y0001002D01*
X0009720Y0001008D01*
X0009580Y0001018D01*
X0009440Y0001031D01*
X0009301Y0001049D01*
X0009162Y0001071D01*
X0009025Y0001096D01*
X0008887Y0001125D01*
X0008751Y0001158D01*
X0008616Y0001195D01*
X0008482Y0001236D01*
X0008349Y0001281D01*
X0008217Y0001329D01*
X0008087Y0001381D01*
X0007958Y0001436D01*
X0007831Y0001495D01*
X0007705Y0001558D01*
X0007581Y0001624D01*
X0007460Y0001693D01*
X0007340Y0001766D01*
X0007222Y0001843D01*
X0007107Y0001922D01*
X0006993Y0002005D01*
X0006883Y0002091D01*
X0006774Y0002180D01*
X0006668Y0002272D01*
X0006565Y0002367D01*
X0006464Y0002464D01*
X0006367Y0002565D01*
X0006272Y0002668D01*
X0006180Y0002774D01*
X0006091Y0002883D01*
X0006005Y0002993D01*
X0005922Y0003107D01*
X0005843Y0003222D01*
X0005766Y0003340D01*
X0005693Y0003460D01*
X0005624Y0003581D01*
X0005558Y0003705D01*
X0005495Y0003831D01*
X0005436Y0003958D01*
X0005381Y0004087D01*
X0005329Y0004217D01*
X0005281Y0004349D01*
X0005236Y0004482D01*
X0005195Y0004616D01*
X0005158Y0004751D01*
X0005125Y0004887D01*
X0005096Y0005025D01*
X0005071Y0005162D01*
X0005049Y0005301D01*
X0005031Y0005440D01*
X0005018Y0005580D01*
X0005008Y0005720D01*
X0005002Y0005860D01*
X0005000Y0006000D01*
X0190000Y0076000D02*
X0190002Y0076141D01*
X0190008Y0076282D01*
X0190018Y0076422D01*
X0190032Y0076562D01*
X0190050Y0076702D01*
X0190071Y0076841D01*
X0190097Y0076980D01*
X0190126Y0077118D01*
X0190160Y0077254D01*
X0190197Y0077390D01*
X0190238Y0077525D01*
X0190283Y0077659D01*
X0190332Y0077791D01*
X0190384Y0077922D01*
X0190440Y0078051D01*
X0190500Y0078178D01*
X0190563Y0078304D01*
X0190629Y0078428D01*
X0190700Y0078551D01*
X0190773Y0078671D01*
X0190850Y0078789D01*
X0190930Y0078905D01*
X0191014Y0079018D01*
X0191100Y0079129D01*
X0191190Y0079238D01*
X0191283Y0079344D01*
X0191378Y0079447D01*
X0191477Y0079548D01*
X0191578Y0079646D01*
X0191682Y0079741D01*
X0191789Y0079833D01*
X0191898Y0079922D01*
X0192010Y0080007D01*
X0192124Y0080090D01*
X0192240Y0080170D01*
X0192359Y0080246D01*
X0192480Y0080318D01*
X0192602Y0080388D01*
X0192727Y0080453D01*
X0192853Y0080516D01*
X0192981Y0080574D01*
X0193111Y0080629D01*
X0193242Y0080681D01*
X0193375Y0080728D01*
X0193509Y0080772D01*
X0193644Y0080813D01*
X0193780Y0080849D01*
X0193917Y0080881D01*
X0194055Y0080910D01*
X0194193Y0080935D01*
X0194333Y0080955D01*
X0194473Y0080972D01*
X0194613Y0080985D01*
X0194754Y0080994D01*
X0194894Y0080999D01*
X0195035Y0081000D01*
X0195176Y0080997D01*
X0195317Y0080990D01*
X0195457Y0080979D01*
X0195597Y0080964D01*
X0195737Y0080945D01*
X0195876Y0080923D01*
X0196014Y0080896D01*
X0196152Y0080866D01*
X0196288Y0080831D01*
X0196424Y0080793D01*
X0196558Y0080751D01*
X0196692Y0080705D01*
X0196824Y0080656D01*
X0196954Y0080602D01*
X0197083Y0080545D01*
X0197210Y0080485D01*
X0197336Y0080421D01*
X0197459Y0080353D01*
X0197581Y0080282D01*
X0197701Y0080208D01*
X0197818Y0080130D01*
X0197933Y0080049D01*
X0198046Y0079965D01*
X0198157Y0079878D01*
X0198265Y0079787D01*
X0198370Y0079694D01*
X0198473Y0079597D01*
X0198573Y0079498D01*
X0198670Y0079396D01*
X0198764Y0079291D01*
X0198855Y0079184D01*
X0198943Y0079074D01*
X0199028Y0078962D01*
X0199110Y0078847D01*
X0199189Y0078730D01*
X0199264Y0078611D01*
X0199336Y0078490D01*
X0199404Y0078367D01*
X0199469Y0078242D01*
X0199531Y0078115D01*
X0199588Y0077986D01*
X0199643Y0077856D01*
X0199693Y0077725D01*
X0199740Y0077592D01*
X0199783Y0077458D01*
X0199822Y0077322D01*
X0199857Y0077186D01*
X0199889Y0077049D01*
X0199916Y0076911D01*
X0199940Y0076772D01*
X0199960Y0076632D01*
X0199976Y0076492D01*
X0199988Y0076352D01*
X0199996Y0076211D01*
X0200000Y0076070D01*
X0200000Y0075930D01*
X0199996Y0075789D01*
X0199988Y0075648D01*
X0199976Y0075508D01*
X0199960Y0075368D01*
X0199940Y0075228D01*
X0199916Y0075089D01*
X0199889Y0074951D01*
X0199857Y0074814D01*
X0199822Y0074678D01*
X0199783Y0074542D01*
X0199740Y0074408D01*
X0199693Y0074275D01*
X0199643Y0074144D01*
X0199588Y0074014D01*
X0199531Y0073885D01*
X0199469Y0073758D01*
X0199404Y0073633D01*
X0199336Y0073510D01*
X0199264Y0073389D01*
X0199189Y0073270D01*
X0199110Y0073153D01*
X0199028Y0073038D01*
X0198943Y0072926D01*
X0198855Y0072816D01*
X0198764Y0072709D01*
X0198670Y0072604D01*
X0198573Y0072502D01*
X0198473Y0072403D01*
X0198370Y0072306D01*
X0198265Y0072213D01*
X0198157Y0072122D01*
X0198046Y0072035D01*
X0197933Y0071951D01*
X0197818Y0071870D01*
X0197701Y0071792D01*
X0197581Y0071718D01*
X0197459Y0071647D01*
X0197336Y0071579D01*
X0197210Y0071515D01*
X0197083Y0071455D01*
X0196954Y0071398D01*
X0196824Y0071344D01*
X0196692Y0071295D01*
X0196558Y0071249D01*
X0196424Y0071207D01*
X0196288Y0071169D01*
X0196152Y0071134D01*
X0196014Y0071104D01*
X0195876Y0071077D01*
X0195737Y0071055D01*
X0195597Y0071036D01*
X0195457Y0071021D01*
X0195317Y0071010D01*
X0195176Y0071003D01*
X0195035Y0071000D01*
X0194894Y0071001D01*
X0194754Y0071006D01*
X0194613Y0071015D01*
X0194473Y0071028D01*
X0194333Y0071045D01*
X0194193Y0071065D01*
X0194055Y0071090D01*
X0193917Y0071119D01*
X0193780Y0071151D01*
X0193644Y0071187D01*
X0193509Y0071228D01*
X0193375Y0071272D01*
X0193242Y0071319D01*
X0193111Y0071371D01*
X0192981Y0071426D01*
X0192853Y0071484D01*
X0192727Y0071547D01*
X0192602Y0071612D01*
X0192480Y0071682D01*
X0192359Y0071754D01*
X0192240Y0071830D01*
X0192124Y0071910D01*
X0192010Y0071993D01*
X0191898Y0072078D01*
X0191789Y0072167D01*
X0191682Y0072259D01*
X0191578Y0072354D01*
X0191477Y0072452D01*
X0191378Y0072553D01*
X0191283Y0072656D01*
X0191190Y0072762D01*
X0191100Y0072871D01*
X0191014Y0072982D01*
X0190930Y0073095D01*
X0190850Y0073211D01*
X0190773Y0073329D01*
X0190700Y0073449D01*
X0190629Y0073572D01*
X0190563Y0073696D01*
X0190500Y0073822D01*
X0190440Y0073949D01*
X0190384Y0074078D01*
X0190332Y0074209D01*
X0190283Y0074341D01*
X0190238Y0074475D01*
X0190197Y0074610D01*
X0190160Y0074746D01*
X0190126Y0074882D01*
X0190097Y0075020D01*
X0190071Y0075159D01*
X0190050Y0075298D01*
X0190032Y0075438D01*
X0190018Y0075578D01*
X0190008Y0075718D01*
X0190002Y0075859D01*
X0190000Y0076000D01*
X0190000Y0146000D02*
X0190002Y0146141D01*
X0190008Y0146282D01*
X0190018Y0146422D01*
X0190032Y0146562D01*
X0190050Y0146702D01*
X0190071Y0146841D01*
X0190097Y0146980D01*
X0190126Y0147118D01*
X0190160Y0147254D01*
X0190197Y0147390D01*
X0190238Y0147525D01*
X0190283Y0147659D01*
X0190332Y0147791D01*
X0190384Y0147922D01*
X0190440Y0148051D01*
X0190500Y0148178D01*
X0190563Y0148304D01*
X0190629Y0148428D01*
X0190700Y0148551D01*
X0190773Y0148671D01*
X0190850Y0148789D01*
X0190930Y0148905D01*
X0191014Y0149018D01*
X0191100Y0149129D01*
X0191190Y0149238D01*
X0191283Y0149344D01*
X0191378Y0149447D01*
X0191477Y0149548D01*
X0191578Y0149646D01*
X0191682Y0149741D01*
X0191789Y0149833D01*
X0191898Y0149922D01*
X0192010Y0150007D01*
X0192124Y0150090D01*
X0192240Y0150170D01*
X0192359Y0150246D01*
X0192480Y0150318D01*
X0192602Y0150388D01*
X0192727Y0150453D01*
X0192853Y0150516D01*
X0192981Y0150574D01*
X0193111Y0150629D01*
X0193242Y0150681D01*
X0193375Y0150728D01*
X0193509Y0150772D01*
X0193644Y0150813D01*
X0193780Y0150849D01*
X0193917Y0150881D01*
X0194055Y0150910D01*
X0194193Y0150935D01*
X0194333Y0150955D01*
X0194473Y0150972D01*
X0194613Y0150985D01*
X0194754Y0150994D01*
X0194894Y0150999D01*
X0195035Y0151000D01*
X0195176Y0150997D01*
X0195317Y0150990D01*
X0195457Y0150979D01*
X0195597Y0150964D01*
X0195737Y0150945D01*
X0195876Y0150923D01*
X0196014Y0150896D01*
X0196152Y0150866D01*
X0196288Y0150831D01*
X0196424Y0150793D01*
X0196558Y0150751D01*
X0196692Y0150705D01*
X0196824Y0150656D01*
X0196954Y0150602D01*
X0197083Y0150545D01*
X0197210Y0150485D01*
X0197336Y0150421D01*
X0197459Y0150353D01*
X0197581Y0150282D01*
X0197701Y0150208D01*
X0197818Y0150130D01*
X0197933Y0150049D01*
X0198046Y0149965D01*
X0198157Y0149878D01*
X0198265Y0149787D01*
X0198370Y0149694D01*
X0198473Y0149597D01*
X0198573Y0149498D01*
X0198670Y0149396D01*
X0198764Y0149291D01*
X0198855Y0149184D01*
X0198943Y0149074D01*
X0199028Y0148962D01*
X0199110Y0148847D01*
X0199189Y0148730D01*
X0199264Y0148611D01*
X0199336Y0148490D01*
X0199404Y0148367D01*
X0199469Y0148242D01*
X0199531Y0148115D01*
X0199588Y0147986D01*
X0199643Y0147856D01*
X0199693Y0147725D01*
X0199740Y0147592D01*
X0199783Y0147458D01*
X0199822Y0147322D01*
X0199857Y0147186D01*
X0199889Y0147049D01*
X0199916Y0146911D01*
X0199940Y0146772D01*
X0199960Y0146632D01*
X0199976Y0146492D01*
X0199988Y0146352D01*
X0199996Y0146211D01*
X0200000Y0146070D01*
X0200000Y0145930D01*
X0199996Y0145789D01*
X0199988Y0145648D01*
X0199976Y0145508D01*
X0199960Y0145368D01*
X0199940Y0145228D01*
X0199916Y0145089D01*
X0199889Y0144951D01*
X0199857Y0144814D01*
X0199822Y0144678D01*
X0199783Y0144542D01*
X0199740Y0144408D01*
X0199693Y0144275D01*
X0199643Y0144144D01*
X0199588Y0144014D01*
X0199531Y0143885D01*
X0199469Y0143758D01*
X0199404Y0143633D01*
X0199336Y0143510D01*
X0199264Y0143389D01*
X0199189Y0143270D01*
X0199110Y0143153D01*
X0199028Y0143038D01*
X0198943Y0142926D01*
X0198855Y0142816D01*
X0198764Y0142709D01*
X0198670Y0142604D01*
X0198573Y0142502D01*
X0198473Y0142403D01*
X0198370Y0142306D01*
X0198265Y0142213D01*
X0198157Y0142122D01*
X0198046Y0142035D01*
X0197933Y0141951D01*
X0197818Y0141870D01*
X0197701Y0141792D01*
X0197581Y0141718D01*
X0197459Y0141647D01*
X0197336Y0141579D01*
X0197210Y0141515D01*
X0197083Y0141455D01*
X0196954Y0141398D01*
X0196824Y0141344D01*
X0196692Y0141295D01*
X0196558Y0141249D01*
X0196424Y0141207D01*
X0196288Y0141169D01*
X0196152Y0141134D01*
X0196014Y0141104D01*
X0195876Y0141077D01*
X0195737Y0141055D01*
X0195597Y0141036D01*
X0195457Y0141021D01*
X0195317Y0141010D01*
X0195176Y0141003D01*
X0195035Y0141000D01*
X0194894Y0141001D01*
X0194754Y0141006D01*
X0194613Y0141015D01*
X0194473Y0141028D01*
X0194333Y0141045D01*
X0194193Y0141065D01*
X0194055Y0141090D01*
X0193917Y0141119D01*
X0193780Y0141151D01*
X0193644Y0141187D01*
X0193509Y0141228D01*
X0193375Y0141272D01*
X0193242Y0141319D01*
X0193111Y0141371D01*
X0192981Y0141426D01*
X0192853Y0141484D01*
X0192727Y0141547D01*
X0192602Y0141612D01*
X0192480Y0141682D01*
X0192359Y0141754D01*
X0192240Y0141830D01*
X0192124Y0141910D01*
X0192010Y0141993D01*
X0191898Y0142078D01*
X0191789Y0142167D01*
X0191682Y0142259D01*
X0191578Y0142354D01*
X0191477Y0142452D01*
X0191378Y0142553D01*
X0191283Y0142656D01*
X0191190Y0142762D01*
X0191100Y0142871D01*
X0191014Y0142982D01*
X0190930Y0143095D01*
X0190850Y0143211D01*
X0190773Y0143329D01*
X0190700Y0143449D01*
X0190629Y0143572D01*
X0190563Y0143696D01*
X0190500Y0143822D01*
X0190440Y0143949D01*
X0190384Y0144078D01*
X0190332Y0144209D01*
X0190283Y0144341D01*
X0190238Y0144475D01*
X0190197Y0144610D01*
X0190160Y0144746D01*
X0190126Y0144882D01*
X0190097Y0145020D01*
X0190071Y0145159D01*
X0190050Y0145298D01*
X0190032Y0145438D01*
X0190018Y0145578D01*
X0190008Y0145718D01*
X0190002Y0145859D01*
X0190000Y0146000D01*
D11*
X0107165Y0106000D03*
X0102835Y0106000D03*
X0047165Y0186000D03*
X0042835Y0186000D03*
D12*
X0085000Y0188382D03*
X0105000Y0188382D03*
X0115000Y0188382D03*
X0125000Y0188382D03*
X0135000Y0188382D03*
X0150000Y0188382D03*
X0170000Y0188382D03*
X0180000Y0188382D03*
X0190000Y0188382D03*
X0200000Y0188382D03*
X0200000Y0163618D03*
X0190000Y0163618D03*
X0180000Y0163618D03*
X0170000Y0163618D03*
X0150000Y0163618D03*
X0135000Y0163618D03*
X0125000Y0163618D03*
X0115000Y0163618D03*
X0105000Y0163618D03*
X0085000Y0163618D03*
X0085000Y0058382D03*
X0095000Y0058382D03*
X0105000Y0058382D03*
X0115000Y0058382D03*
X0135000Y0058382D03*
X0150000Y0058382D03*
X0160000Y0058382D03*
X0170000Y0058382D03*
X0180000Y0058382D03*
X0200000Y0058382D03*
X0200000Y0033618D03*
X0180000Y0033618D03*
X0170000Y0033618D03*
X0160000Y0033618D03*
X0150000Y0033618D03*
X0135000Y0033618D03*
X0115000Y0033618D03*
X0105000Y0033618D03*
X0095000Y0033618D03*
X0085000Y0033618D03*
X0070000Y0033618D03*
X0050000Y0033618D03*
X0040000Y0033618D03*
X0030000Y0033618D03*
X0020000Y0033618D03*
X0020000Y0058382D03*
X0030000Y0058382D03*
X0040000Y0058382D03*
X0050000Y0058382D03*
X0070000Y0058382D03*
D13*
X0015000Y0076000D03*
X0015000Y0146000D03*
D14*
X0070000Y0151000D03*
X0080000Y0151000D03*
X0090000Y0151000D03*
X0100000Y0151000D03*
X0110000Y0151000D03*
X0120000Y0151000D03*
X0130000Y0151000D03*
X0140000Y0151000D03*
X0150000Y0151000D03*
X0160000Y0151000D03*
X0170000Y0151000D03*
X0180000Y0151000D03*
X0180000Y0071000D03*
X0170000Y0071000D03*
X0160000Y0071000D03*
X0150000Y0071000D03*
X0140000Y0071000D03*
X0130000Y0071000D03*
X0120000Y0071000D03*
X0110000Y0071000D03*
X0100000Y0071000D03*
X0090000Y0071000D03*
X0080000Y0071000D03*
X0070000Y0071000D03*
X0060000Y0071000D03*
X0050000Y0071000D03*
X0040000Y0071000D03*
X0030000Y0071000D03*
D15*
X0024402Y0211000D03*
X0035598Y0211000D03*
D16*
X0056488Y0188000D03*
X0067512Y0188000D03*
D17*
X0060000Y0206000D03*
X0050000Y0206000D03*
X0080118Y0206000D03*
X0090118Y0206000D03*
X0100118Y0206000D03*
X0110118Y0206000D03*
X0120000Y0206000D03*
X0130000Y0206000D03*
X0145118Y0206000D03*
X0155118Y0206000D03*
X0165118Y0206000D03*
X0175118Y0206000D03*
X0185000Y0206000D03*
X0195000Y0206000D03*
X0194882Y0016000D03*
X0184882Y0016000D03*
X0174882Y0016000D03*
X0164882Y0016000D03*
X0155000Y0016000D03*
X0145000Y0016000D03*
X0129882Y0016000D03*
X0119882Y0016000D03*
X0109882Y0016000D03*
X0099882Y0016000D03*
X0090000Y0016000D03*
X0080000Y0016000D03*
X0064882Y0016000D03*
X0054882Y0016000D03*
X0044882Y0016000D03*
X0034882Y0016000D03*
X0025000Y0016000D03*
X0015000Y0016000D03*
D18*
X0202500Y0007500D03*
X0012500Y0213500D03*
D19*
X0017500Y0129780D03*
X0022500Y0129780D03*
X0027500Y0129780D03*
X0032500Y0129780D03*
X0037500Y0129780D03*
X0042500Y0129780D03*
X0047500Y0129780D03*
X0052500Y0129780D03*
X0052500Y0102220D03*
X0047500Y0102220D03*
X0042500Y0102220D03*
X0037500Y0102220D03*
X0032500Y0102220D03*
X0027500Y0102220D03*
X0022500Y0102220D03*
X0017500Y0102220D03*
D20*
X0146220Y0103500D03*
X0146220Y0098500D03*
X0146220Y0093500D03*
X0146220Y0108500D03*
X0146220Y0113500D03*
X0146220Y0118500D03*
X0146220Y0123500D03*
X0146220Y0128500D03*
X0173780Y0128500D03*
X0173780Y0123500D03*
X0173780Y0118500D03*
X0173780Y0113500D03*
X0173780Y0108500D03*
X0173780Y0103500D03*
X0173780Y0098500D03*
X0173780Y0093500D03*
D21*
X0094272Y0094366D03*
X0094272Y0096925D03*
X0094272Y0099484D03*
X0094272Y0102043D03*
X0094272Y0104602D03*
X0094272Y0107161D03*
X0094272Y0109720D03*
X0094272Y0112280D03*
X0094272Y0114839D03*
X0094272Y0117398D03*
X0094272Y0119957D03*
X0094272Y0122516D03*
X0094272Y0125075D03*
X0094272Y0127634D03*
X0065728Y0127634D03*
X0065728Y0125075D03*
X0065728Y0122516D03*
X0065728Y0119957D03*
X0065728Y0117398D03*
X0065728Y0114839D03*
X0065728Y0112280D03*
X0065728Y0109720D03*
X0065728Y0107161D03*
X0065728Y0104602D03*
X0065728Y0102043D03*
X0065728Y0099484D03*
X0065728Y0096925D03*
X0065728Y0094366D03*
D22*
X0067700Y0161500D03*
X0067700Y0166500D03*
X0067700Y0171500D03*
X0067700Y0176500D03*
X0048300Y0176500D03*
X0048300Y0171500D03*
X0048300Y0166500D03*
X0048300Y0161500D03*
D23*
X0120000Y0126000D03*
X0120000Y0116000D03*
X0130000Y0116000D03*
X0130000Y0126000D03*
X0130000Y0106000D03*
X0130000Y0096000D03*
X0120000Y0096000D03*
X0120000Y0106000D03*
D24*
X0120000Y0084000D02*
X0120000Y0078000D01*
X0130000Y0078000D02*
X0130000Y0084000D01*
X0140000Y0084000D02*
X0140000Y0078000D01*
X0150000Y0078000D02*
X0150000Y0084000D01*
X0160000Y0084000D02*
X0160000Y0078000D01*
X0170000Y0078000D02*
X0170000Y0084000D01*
X0180000Y0084000D02*
X0180000Y0078000D01*
X0180000Y0138000D02*
X0180000Y0144000D01*
X0170000Y0144000D02*
X0170000Y0138000D01*
X0160000Y0138000D02*
X0160000Y0144000D01*
X0150000Y0144000D02*
X0150000Y0138000D01*
X0140000Y0138000D02*
X0140000Y0144000D01*
X0130000Y0144000D02*
X0130000Y0138000D01*
X0120000Y0138000D02*
X0120000Y0144000D01*
X0110000Y0144000D02*
X0110000Y0138000D01*
X0100000Y0138000D02*
X0100000Y0144000D01*
X0090000Y0144000D02*
X0090000Y0138000D01*
X0080000Y0138000D02*
X0080000Y0144000D01*
X0070000Y0144000D02*
X0070000Y0138000D01*
X0070000Y0084000D02*
X0070000Y0078000D01*
X0060000Y0078000D02*
X0060000Y0084000D01*
X0050000Y0084000D02*
X0050000Y0078000D01*
X0040000Y0078000D02*
X0040000Y0084000D01*
X0030000Y0084000D02*
X0030000Y0078000D01*
X0080000Y0078000D02*
X0080000Y0084000D01*
X0090000Y0084000D02*
X0090000Y0078000D01*
X0100000Y0078000D02*
X0100000Y0084000D01*
X0110000Y0084000D02*
X0110000Y0078000D01*
D25*
X0191654Y0105961D03*
X0191654Y0108480D03*
X0191654Y0111000D03*
X0191654Y0113520D03*
X0191654Y0116039D03*
X0198346Y0116039D03*
X0198346Y0113520D03*
X0198346Y0111000D03*
X0198346Y0108480D03*
X0198346Y0105961D03*
D26*
X0026693Y0186000D03*
X0013307Y0186000D03*
D27*
X0013400Y0186000D01*
X0021800Y0177600D01*
X0021800Y0166800D01*
X0011511Y0165989D02*
X0011511Y0178000D01*
X0013400Y0186000D02*
X0013400Y0200000D01*
X0024200Y0210800D01*
X0024402Y0211000D01*
X0024600Y0211200D01*
X0027400Y0211200D01*
X0032200Y0216000D01*
X0039000Y0216000D01*
X0044600Y0210400D01*
X0044600Y0196000D01*
X0049400Y0191200D01*
X0049400Y0180000D01*
X0051800Y0180000D01*
X0057200Y0174600D01*
X0057000Y0174400D01*
X0056600Y0174400D01*
X0057200Y0174600D02*
X0065000Y0166800D01*
X0067400Y0166800D01*
X0067700Y0166500D01*
X0067700Y0171500D02*
X0067400Y0171600D01*
X0065800Y0171600D01*
X0056600Y0180800D01*
X0056600Y0188000D01*
X0056488Y0188000D01*
X0056200Y0188000D01*
X0049400Y0180000D02*
X0045400Y0180000D01*
X0043000Y0182400D01*
X0043000Y0186000D01*
X0042835Y0186000D01*
X0047000Y0186000D02*
X0047000Y0189600D01*
X0042800Y0193800D01*
X0037400Y0188400D01*
X0037400Y0163200D01*
X0041400Y0159200D01*
X0048100Y0158700D01*
X0044600Y0155100D01*
X0043486Y0152411D02*
X0041897Y0154000D01*
X0030500Y0154000D01*
X0023500Y0154000D02*
X0011511Y0165989D01*
X0026693Y0186000D02*
X0027000Y0186000D01*
X0027000Y0141200D01*
X0029800Y0132400D02*
X0044200Y0146800D01*
X0056600Y0146800D01*
X0067900Y0158100D01*
X0068037Y0158100D01*
X0068337Y0158400D01*
X0090000Y0158400D01*
X0090000Y0186000D01*
X0085000Y0188000D01*
X0085000Y0188382D01*
X0073000Y0178000D02*
X0073000Y0161600D01*
X0067800Y0161600D01*
X0067700Y0161500D01*
X0067400Y0161200D01*
X0057800Y0161200D01*
X0055800Y0159200D01*
X0048100Y0158700D01*
X0048300Y0161500D02*
X0048600Y0161600D01*
X0049000Y0162000D01*
X0054600Y0162000D01*
X0054600Y0166000D02*
X0049000Y0166000D01*
X0048600Y0166400D01*
X0048300Y0166500D01*
X0048200Y0171200D02*
X0048300Y0171500D01*
X0048200Y0171200D02*
X0046200Y0171200D01*
X0041800Y0166800D01*
X0039000Y0165600D02*
X0041800Y0162800D01*
X0039000Y0165600D02*
X0039000Y0169200D01*
X0042800Y0173000D01*
X0040200Y0175600D01*
X0042800Y0173000D02*
X0046200Y0176400D01*
X0048200Y0176400D01*
X0048300Y0176500D01*
X0047165Y0186000D02*
X0047000Y0186000D01*
X0042800Y0193800D02*
X0035800Y0200800D01*
X0035800Y0210800D01*
X0035598Y0211000D01*
X0067400Y0188000D02*
X0067512Y0188000D01*
X0067800Y0188000D01*
X0067800Y0176800D01*
X0067700Y0176500D01*
X0072200Y0178800D02*
X0073000Y0178000D01*
X0072200Y0178800D02*
X0072200Y0209200D01*
X0076600Y0213600D01*
X0129800Y0213600D01*
X0135400Y0208000D01*
X0135400Y0204400D01*
X0138200Y0201600D01*
X0138200Y0163600D01*
X0135000Y0163600D01*
X0135000Y0163618D01*
X0138200Y0163600D02*
X0149800Y0163600D01*
X0150000Y0163618D01*
X0150200Y0163600D01*
X0155400Y0158400D01*
X0185400Y0158400D01*
X0185400Y0122400D01*
X0189800Y0122400D01*
X0196400Y0115800D01*
X0196600Y0116000D01*
X0198200Y0116000D01*
X0198346Y0116039D01*
X0196400Y0115800D02*
X0195000Y0114400D01*
X0195000Y0104800D01*
X0193800Y0103600D01*
X0191800Y0105600D01*
X0191654Y0105961D01*
X0191400Y0108400D02*
X0191654Y0108480D01*
X0191400Y0108400D02*
X0187000Y0108400D01*
X0191400Y0111200D02*
X0191654Y0111000D01*
X0191400Y0111200D02*
X0180200Y0111200D01*
X0177400Y0115200D02*
X0177400Y0096800D01*
X0176600Y0096000D01*
X0171000Y0096000D01*
X0170200Y0095200D01*
X0170200Y0090000D01*
X0175000Y0085200D01*
X0175000Y0069200D01*
X0180600Y0063600D01*
X0182600Y0063600D01*
X0199800Y0046400D01*
X0199800Y0034000D01*
X0200000Y0033618D01*
X0200000Y0058382D02*
X0199800Y0058400D01*
X0199000Y0058400D01*
X0185000Y0072400D01*
X0185000Y0092800D01*
X0184000Y0093800D01*
X0183800Y0093600D01*
X0173800Y0093600D01*
X0173780Y0093500D01*
X0184000Y0093800D02*
X0193800Y0103600D01*
X0191654Y0113520D02*
X0191400Y0113600D01*
X0185800Y0113600D01*
X0180200Y0119200D01*
X0180200Y0140800D01*
X0180000Y0141000D01*
X0180200Y0141200D01*
X0180200Y0150800D01*
X0180000Y0151000D01*
X0179800Y0151200D01*
X0176600Y0151200D01*
X0171800Y0156000D01*
X0133400Y0156000D01*
X0130000Y0151000D02*
X0130200Y0150800D01*
X0130200Y0141200D01*
X0130000Y0141000D01*
X0120200Y0141200D02*
X0120200Y0150800D01*
X0120000Y0151000D01*
X0125800Y0156800D02*
X0131800Y0162800D01*
X0131800Y0180000D01*
X0135000Y0183200D01*
X0135000Y0188382D01*
X0145400Y0183600D02*
X0149800Y0188000D01*
X0150000Y0188382D01*
X0125800Y0156800D02*
X0069000Y0156800D01*
X0057400Y0145200D01*
X0047400Y0145200D01*
X0035000Y0132800D01*
X0035000Y0132400D01*
X0032600Y0130000D01*
X0032500Y0129780D01*
X0029800Y0132000D02*
X0029800Y0132400D01*
X0029800Y0132000D02*
X0027800Y0130000D01*
X0027500Y0129780D01*
X0022600Y0130000D02*
X0022500Y0129780D01*
X0022600Y0130000D02*
X0022600Y0132800D01*
X0039000Y0149200D01*
X0043486Y0152411D02*
X0048589Y0152411D01*
X0050000Y0151000D01*
X0049800Y0139200D02*
X0061400Y0127600D01*
X0061400Y0126400D01*
X0062600Y0125200D01*
X0065400Y0125200D01*
X0065728Y0125075D01*
X0065800Y0125200D01*
X0078200Y0125200D01*
X0082200Y0129200D01*
X0082200Y0129600D01*
X0085800Y0133200D01*
X0088600Y0132000D02*
X0080600Y0124000D01*
X0080600Y0109200D01*
X0085000Y0104800D01*
X0094200Y0104800D01*
X0094272Y0104602D01*
X0094272Y0107161D02*
X0084901Y0107161D01*
X0082200Y0109863D01*
X0082200Y0123337D01*
X0089158Y0130295D01*
X0103995Y0130295D01*
X0107000Y0127290D01*
X0107000Y0120000D01*
X0118060Y0120000D01*
X0118260Y0120200D01*
X0125800Y0120200D01*
X0130000Y0116000D01*
X0134200Y0117740D02*
X0130140Y0121800D01*
X0114200Y0121800D01*
X0113311Y0122689D01*
X0112032Y0122689D01*
X0110000Y0126000D02*
X0120000Y0126000D01*
X0115000Y0116000D02*
X0113289Y0114289D01*
X0113289Y0099286D01*
X0110914Y0096911D01*
X0110900Y0096911D01*
X0109750Y0095761D01*
X0109800Y0099600D02*
X0109324Y0100076D01*
X0101353Y0100076D01*
X0099429Y0102000D01*
X0094600Y0102000D01*
X0094272Y0102043D01*
X0094200Y0099600D02*
X0094272Y0099484D01*
X0094200Y0099600D02*
X0086800Y0100600D01*
X0081400Y0106000D01*
X0077800Y0108500D01*
X0078400Y0104403D02*
X0080314Y0104489D01*
X0087777Y0097489D01*
X0088666Y0091600D01*
X0115000Y0091600D01*
X0115000Y0101000D01*
X0120000Y0106000D01*
X0120000Y0096000D02*
X0120000Y0090000D01*
X0090060Y0090000D01*
X0087060Y0087000D01*
X0086000Y0087000D01*
X0085689Y0087311D01*
X0085689Y0092314D01*
X0083614Y0094389D01*
X0079308Y0093889D01*
X0075831Y0092866D01*
X0065728Y0094366D01*
X0065800Y0094000D01*
X0065800Y0096800D02*
X0065728Y0096925D01*
X0070922Y0096925D01*
X0072249Y0098251D01*
X0073362Y0100940D02*
X0070060Y0100940D01*
X0070000Y0101000D01*
X0069881Y0100881D01*
X0069881Y0100759D01*
X0069178Y0100056D01*
X0066300Y0100056D01*
X0065728Y0099484D01*
X0065157Y0101472D02*
X0062279Y0101472D01*
X0056807Y0096000D01*
X0054711Y0096000D01*
X0056000Y0092900D02*
X0060200Y0094600D01*
X0056000Y0092900D02*
X0048300Y0092900D01*
X0039000Y0093200D01*
X0041000Y0100100D01*
X0042600Y0102000D01*
X0042500Y0102220D01*
X0039800Y0104800D02*
X0041000Y0106000D01*
X0061263Y0106000D01*
X0062631Y0107369D01*
X0065521Y0107369D01*
X0065728Y0107161D01*
X0065400Y0109600D02*
X0065728Y0109720D01*
X0065400Y0109600D02*
X0062600Y0109600D01*
X0060600Y0107600D01*
X0032600Y0107600D01*
X0029800Y0104800D01*
X0029800Y0104400D01*
X0027800Y0102400D01*
X0027500Y0102220D01*
X0031001Y0100722D02*
X0031001Y0097001D01*
X0031001Y0100722D02*
X0032500Y0102220D01*
X0032600Y0102000D01*
X0037500Y0102220D02*
X0037800Y0102400D01*
X0039800Y0104400D01*
X0039800Y0104800D01*
X0033800Y0112800D02*
X0022600Y0112800D01*
X0015000Y0105200D01*
X0015000Y0088400D01*
X0023800Y0079600D01*
X0023800Y0038800D01*
X0020200Y0035200D01*
X0020200Y0034000D01*
X0020000Y0033618D01*
X0020000Y0058382D02*
X0020200Y0058400D01*
X0020200Y0064000D01*
X0021000Y0064800D01*
X0030000Y0071000D02*
X0030200Y0071200D01*
X0030200Y0080800D01*
X0030000Y0081000D01*
X0032337Y0089600D02*
X0080797Y0089600D01*
X0085300Y0085097D01*
X0085300Y0069053D01*
X0088053Y0066300D01*
X0091947Y0066300D01*
X0094700Y0069053D01*
X0094700Y0087011D01*
X0095000Y0087311D01*
X0094272Y0094366D02*
X0094600Y0094400D01*
X0095000Y0094800D01*
X0099800Y0094800D01*
X0098122Y0096925D02*
X0094272Y0096925D01*
X0094200Y0097200D01*
X0098122Y0096925D02*
X0098686Y0097489D01*
X0100914Y0097489D01*
X0101478Y0096925D01*
X0102095Y0096925D01*
X0102556Y0097387D01*
X0102835Y0106000D02*
X0103000Y0106000D01*
X0103000Y0110800D01*
X0105000Y0112800D01*
X0102924Y0115113D02*
X0099424Y0110995D01*
X0097721Y0109292D01*
X0094892Y0109792D01*
X0094600Y0110000D01*
X0094272Y0109720D01*
X0094200Y0107200D02*
X0094272Y0107161D01*
X0094272Y0112280D02*
X0097150Y0112280D01*
X0098705Y0113835D01*
X0098705Y0115157D01*
X0099139Y0115590D01*
X0099357Y0115977D01*
X0099591Y0116042D01*
X0099762Y0116213D01*
X0100000Y0116213D01*
X0100000Y0117302D01*
X0102924Y0115113D02*
X0104311Y0121500D01*
X0094600Y0112400D02*
X0094272Y0112280D01*
X0094200Y0114800D02*
X0091000Y0114800D01*
X0089000Y0112800D01*
X0089000Y0110000D01*
X0085000Y0111200D02*
X0091000Y0117200D01*
X0094200Y0117200D01*
X0094272Y0117398D01*
X0094272Y0114839D02*
X0094200Y0114800D01*
X0094200Y0122400D02*
X0085400Y0122400D01*
X0088200Y0125200D02*
X0094200Y0125200D01*
X0094272Y0125075D01*
X0094272Y0122516D02*
X0094200Y0122400D01*
X0088600Y0132000D02*
X0162000Y0131500D01*
X0165500Y0128000D01*
X0153500Y0116500D01*
X0150500Y0113500D01*
X0146220Y0113500D01*
X0146200Y0113600D01*
X0146220Y0118500D02*
X0150500Y0118500D01*
X0150501Y0118501D01*
X0154001Y0121000D01*
X0146200Y0123200D02*
X0146220Y0123500D01*
X0146200Y0123200D02*
X0145400Y0123200D01*
X0141400Y0119200D01*
X0134200Y0117740D02*
X0134200Y0114260D01*
X0130000Y0110060D01*
X0130000Y0106000D01*
X0138600Y0096000D02*
X0131000Y0088400D01*
X0108200Y0088400D01*
X0105000Y0085200D01*
X0105000Y0069200D01*
X0099400Y0063600D01*
X0092600Y0063600D01*
X0088200Y0059200D01*
X0088200Y0037200D01*
X0085000Y0034000D01*
X0085000Y0033618D01*
X0070000Y0033618D02*
X0065000Y0036000D01*
X0069800Y0034000D02*
X0070000Y0033618D01*
X0074600Y0014000D02*
X0074600Y0058400D01*
X0070200Y0058400D01*
X0070000Y0058382D01*
X0069800Y0058400D01*
X0057800Y0058400D01*
X0050200Y0066000D01*
X0045000Y0066000D01*
X0040000Y0071000D01*
X0040200Y0071200D01*
X0040200Y0080800D01*
X0040000Y0081000D01*
X0050000Y0081000D02*
X0050200Y0080800D01*
X0050200Y0071200D01*
X0050000Y0071000D01*
X0055300Y0069053D02*
X0060834Y0063519D01*
X0072466Y0063519D01*
X0072673Y0063311D01*
X0080000Y0063311D01*
X0085000Y0058400D02*
X0085000Y0058382D01*
X0085000Y0058400D02*
X0074600Y0058400D01*
X0070000Y0071000D02*
X0070200Y0071200D01*
X0070200Y0080800D01*
X0070000Y0081000D01*
X0060200Y0080800D02*
X0060200Y0071200D01*
X0060000Y0071000D01*
X0055300Y0069053D02*
X0055300Y0075220D01*
X0055000Y0075520D01*
X0060200Y0080800D02*
X0060000Y0081000D01*
X0077293Y0097010D02*
X0073362Y0100940D01*
X0072898Y0105102D02*
X0078801Y0100699D01*
X0081301Y0099699D01*
X0082569Y0097163D02*
X0082415Y0097010D01*
X0077293Y0097010D01*
X0082569Y0097163D02*
X0084193Y0097163D01*
X0083000Y0091200D02*
X0033000Y0091200D01*
X0025000Y0099200D01*
X0025000Y0099600D01*
X0022600Y0102000D01*
X0022500Y0102220D01*
X0019800Y0104400D02*
X0019800Y0104800D01*
X0026200Y0111200D01*
X0061400Y0111200D01*
X0062200Y0112000D01*
X0065400Y0112000D01*
X0065728Y0112280D01*
X0065728Y0114839D02*
X0070770Y0114839D01*
X0071386Y0114222D01*
X0073614Y0114222D01*
X0074230Y0114839D01*
X0074537Y0114839D01*
X0075154Y0114222D01*
X0072500Y0116911D02*
X0072013Y0117398D01*
X0065728Y0117398D01*
X0065400Y0119600D02*
X0065728Y0119957D01*
X0065400Y0119600D02*
X0062200Y0119600D01*
X0056600Y0114000D01*
X0049800Y0114000D01*
X0052600Y0116800D02*
X0052600Y0129600D01*
X0052500Y0129780D01*
X0058600Y0126400D02*
X0058600Y0124400D01*
X0060800Y0122200D01*
X0061000Y0122400D01*
X0065400Y0122400D01*
X0065728Y0122516D01*
X0065728Y0127634D02*
X0065800Y0128000D01*
X0068200Y0130400D01*
X0079400Y0130400D01*
X0080000Y0141000D02*
X0080200Y0141200D01*
X0080200Y0150800D01*
X0080000Y0151000D01*
X0090000Y0151000D02*
X0090200Y0150800D01*
X0090200Y0141200D01*
X0090000Y0141000D01*
X0100000Y0141000D02*
X0100200Y0141200D01*
X0100200Y0150800D01*
X0100000Y0151000D01*
X0110000Y0151000D02*
X0110200Y0150800D01*
X0110200Y0141200D01*
X0110000Y0141000D01*
X0120000Y0141000D02*
X0120200Y0141200D01*
X0140000Y0141000D02*
X0140200Y0141200D01*
X0140200Y0150800D01*
X0140000Y0151000D01*
X0150000Y0151000D02*
X0150200Y0150800D01*
X0150200Y0141200D01*
X0150000Y0141000D01*
X0160000Y0141000D02*
X0160200Y0141200D01*
X0160200Y0150800D01*
X0160000Y0151000D01*
X0170000Y0151000D02*
X0170200Y0150800D01*
X0170200Y0141200D01*
X0170000Y0141000D01*
X0171000Y0131200D02*
X0149800Y0110000D01*
X0149800Y0096800D01*
X0149000Y0096000D01*
X0138600Y0096000D01*
X0141400Y0098800D02*
X0146200Y0098800D01*
X0146220Y0098500D01*
X0146200Y0099200D01*
X0146200Y0103200D01*
X0146220Y0103500D01*
X0146200Y0103600D01*
X0146200Y0108400D01*
X0146220Y0108500D01*
X0151400Y0106400D02*
X0151400Y0091600D01*
X0145000Y0085200D01*
X0145000Y0044000D01*
X0135000Y0034000D01*
X0135000Y0033618D01*
X0131800Y0029200D02*
X0132600Y0028400D01*
X0137400Y0028400D01*
X0137600Y0028600D01*
X0137800Y0028400D01*
X0137800Y0012800D01*
X0133400Y0008400D01*
X0080200Y0008400D01*
X0074600Y0014000D01*
X0080000Y0071000D02*
X0080200Y0071200D01*
X0080200Y0080800D01*
X0080000Y0081000D01*
X0090000Y0081000D02*
X0090200Y0080800D01*
X0090200Y0071200D01*
X0090000Y0071000D01*
X0100000Y0071000D02*
X0100200Y0071200D01*
X0100200Y0080800D01*
X0100000Y0081000D01*
X0110000Y0081000D02*
X0110200Y0080800D01*
X0110200Y0071200D01*
X0110000Y0071000D01*
X0120000Y0071000D02*
X0120200Y0071200D01*
X0120200Y0080800D01*
X0120000Y0081000D01*
X0130000Y0081000D02*
X0130200Y0080800D01*
X0130200Y0071200D01*
X0130000Y0071000D01*
X0140000Y0071000D02*
X0140200Y0071200D01*
X0140200Y0080800D01*
X0140000Y0081000D01*
X0150000Y0081000D02*
X0150200Y0080800D01*
X0150200Y0071200D01*
X0150000Y0071000D01*
X0160000Y0071000D02*
X0160200Y0071200D01*
X0160200Y0080800D01*
X0160000Y0081000D01*
X0170000Y0081000D02*
X0170200Y0080800D01*
X0170200Y0071200D01*
X0170000Y0071000D01*
X0180000Y0071000D02*
X0180200Y0071200D01*
X0180200Y0080800D01*
X0180000Y0081000D01*
X0155000Y0095200D02*
X0155000Y0040000D01*
X0150200Y0035200D01*
X0150200Y0034000D01*
X0150000Y0033618D01*
X0146600Y0037600D02*
X0146600Y0054800D01*
X0149800Y0058000D01*
X0150000Y0058382D01*
X0135000Y0058382D02*
X0135000Y0041600D01*
X0131800Y0038400D01*
X0131800Y0029200D01*
X0137600Y0028600D02*
X0146600Y0037600D01*
X0146200Y0093200D02*
X0141400Y0093200D01*
X0146200Y0093200D02*
X0146220Y0093500D01*
X0155000Y0095200D02*
X0171000Y0111200D01*
X0171400Y0111200D01*
X0173400Y0113200D01*
X0173780Y0113500D01*
X0176200Y0116000D02*
X0173800Y0118400D01*
X0173780Y0118500D01*
X0176200Y0116000D02*
X0176600Y0116000D01*
X0177400Y0115200D01*
X0183000Y0120400D02*
X0187000Y0116400D01*
X0191400Y0116400D01*
X0191654Y0116039D01*
X0177400Y0126800D02*
X0176600Y0126000D01*
X0176200Y0126000D01*
X0173800Y0123600D01*
X0173780Y0123500D01*
X0177400Y0126800D02*
X0177400Y0130400D01*
X0176600Y0131200D01*
X0171000Y0131200D01*
X0173400Y0128400D02*
X0173780Y0128500D01*
X0173400Y0128400D02*
X0151400Y0106400D01*
X0157314Y0108511D02*
X0157511Y0108511D01*
X0165000Y0116000D01*
X0167573Y0117230D02*
X0167573Y0118770D01*
X0167573Y0117230D02*
X0167689Y0117114D01*
X0167689Y0114886D01*
X0163499Y0110696D01*
X0163499Y0107501D01*
X0146220Y0128500D02*
X0141500Y0128500D01*
X0110600Y0109200D02*
X0107400Y0106000D01*
X0107165Y0106000D01*
X0072898Y0105102D02*
X0065728Y0104602D01*
X0065728Y0102043D02*
X0065157Y0101472D01*
X0057400Y0102400D02*
X0052600Y0102400D01*
X0052500Y0102220D01*
X0052200Y0102400D01*
X0047800Y0102400D01*
X0047500Y0102220D01*
X0033800Y0112800D02*
X0042200Y0121200D01*
X0042200Y0129600D01*
X0042500Y0129780D01*
X0037500Y0129780D02*
X0037400Y0129600D01*
X0037400Y0120400D01*
X0019800Y0104400D02*
X0017800Y0102400D01*
X0017500Y0102220D01*
X0027449Y0092949D02*
X0028989Y0092949D01*
X0032337Y0089600D01*
X0057400Y0118800D02*
X0060800Y0122200D01*
X0070000Y0141000D02*
X0070200Y0141200D01*
X0070200Y0150800D01*
X0070000Y0151000D01*
X0067900Y0158100D02*
X0068200Y0158400D01*
X0073000Y0161600D02*
X0083000Y0161600D01*
X0085000Y0163600D01*
X0085000Y0163618D01*
X0017800Y0136000D02*
X0017800Y0130000D01*
X0017500Y0129780D01*
X0185400Y0158400D02*
X0192600Y0158400D01*
X0197800Y0163600D01*
X0199800Y0163600D01*
X0200000Y0163618D01*
X0195000Y0180800D02*
X0195000Y0182000D01*
X0199800Y0186800D01*
X0199800Y0188000D01*
X0200000Y0188382D01*
D28*
X0195000Y0180800D03*
X0190000Y0171000D03*
X0180000Y0171000D03*
X0170000Y0171000D03*
X0145400Y0183600D03*
X0125000Y0171000D03*
X0115000Y0171000D03*
X0105000Y0171000D03*
X0133400Y0156000D03*
X0141500Y0128500D03*
X0141400Y0119200D03*
X0154001Y0121000D03*
X0165000Y0116000D03*
X0167573Y0118770D03*
X0163499Y0107501D03*
X0157314Y0108511D03*
X0141400Y0098800D03*
X0141400Y0093200D03*
X0115000Y0116000D03*
X0112032Y0122689D03*
X0110000Y0126000D03*
X0104311Y0121500D03*
X0100000Y0117302D03*
X0105000Y0112800D03*
X0110600Y0109200D03*
X0109800Y0099600D03*
X0109750Y0095761D03*
X0102556Y0097387D03*
X0099800Y0094800D03*
X0095000Y0087311D03*
X0084193Y0097163D03*
X0081301Y0099699D03*
X0078400Y0104403D03*
X0077800Y0108500D03*
X0075154Y0114222D03*
X0072500Y0116911D03*
X0085000Y0111200D03*
X0089000Y0110000D03*
X0085400Y0122400D03*
X0088200Y0125200D03*
X0085800Y0133200D03*
X0079400Y0130400D03*
X0058600Y0126400D03*
X0057400Y0118800D03*
X0052600Y0116800D03*
X0049800Y0114000D03*
X0057400Y0102400D03*
X0054711Y0096000D03*
X0060200Y0094600D03*
X0072249Y0098251D03*
X0083000Y0091200D03*
X0080000Y0063311D03*
X0095000Y0051000D03*
X0105000Y0051000D03*
X0115000Y0051000D03*
X0160000Y0051000D03*
X0170000Y0051000D03*
X0180000Y0051000D03*
X0187000Y0108400D03*
X0180200Y0111200D03*
X0183000Y0120400D03*
X0065000Y0036000D03*
X0050000Y0051000D03*
X0040000Y0051000D03*
X0030000Y0051000D03*
X0021000Y0064800D03*
X0027449Y0092949D03*
X0031001Y0097001D03*
X0037400Y0120400D03*
X0049800Y0139200D03*
X0039000Y0149200D03*
X0044600Y0155100D03*
X0050000Y0151000D03*
X0054600Y0162000D03*
X0054600Y0166000D03*
X0056600Y0174400D03*
X0040200Y0175600D03*
X0041800Y0166800D03*
X0041800Y0162800D03*
X0030500Y0154000D03*
X0023500Y0154000D03*
X0021800Y0166800D03*
X0011511Y0178000D03*
X0027000Y0141200D03*
X0017800Y0136000D03*
X0055000Y0075520D03*
D29*
X0050000Y0058382D02*
X0050200Y0058000D01*
X0040000Y0058382D02*
X0039800Y0058000D01*
X0030000Y0058382D02*
X0029800Y0058000D01*
X0030000Y0033618D02*
X0030200Y0033600D01*
X0030200Y0030400D01*
X0040200Y0030400D02*
X0040200Y0033600D01*
X0040000Y0033618D01*
X0050000Y0033618D02*
X0050200Y0033600D01*
X0050200Y0030400D01*
X0054600Y0016000D02*
X0054882Y0016000D01*
X0064600Y0016000D02*
X0064882Y0016000D01*
X0044882Y0016000D02*
X0044600Y0016000D01*
X0035000Y0016000D02*
X0034882Y0016000D01*
X0090000Y0016000D02*
X0090200Y0016000D01*
X0099882Y0016000D02*
X0100200Y0016000D01*
X0109800Y0016000D02*
X0109882Y0016000D01*
X0105000Y0030800D02*
X0105000Y0033618D01*
X0115000Y0033618D02*
X0115000Y0030800D01*
X0129800Y0016000D02*
X0129882Y0016000D01*
X0160200Y0030400D02*
X0160200Y0033600D01*
X0160000Y0033618D01*
X0170000Y0033618D02*
X0170200Y0033600D01*
X0170200Y0030400D01*
X0180200Y0030400D02*
X0180200Y0033600D01*
X0180000Y0033618D01*
X0184600Y0016000D02*
X0184882Y0016000D01*
X0194600Y0016000D02*
X0194882Y0016000D01*
X0174882Y0016000D02*
X0174600Y0016000D01*
X0165000Y0016000D02*
X0164882Y0016000D01*
X0169800Y0058000D02*
X0170000Y0058382D01*
X0180000Y0058382D02*
X0180200Y0058000D01*
X0160000Y0058382D02*
X0159800Y0058000D01*
X0095000Y0033618D02*
X0095000Y0030800D01*
X0105000Y0163618D02*
X0105000Y0164000D01*
X0105000Y0188382D02*
X0105000Y0188400D01*
X0115000Y0188400D02*
X0115000Y0188382D01*
X0125000Y0188400D02*
X0125000Y0188382D01*
X0131000Y0205200D02*
X0130200Y0206000D01*
X0130000Y0206000D01*
X0120200Y0206000D02*
X0120000Y0206000D01*
X0110118Y0206000D02*
X0109800Y0206000D01*
X0100200Y0206000D02*
X0100118Y0206000D01*
X0090200Y0206000D02*
X0090118Y0206000D01*
X0080200Y0206000D02*
X0080118Y0206000D01*
X0145118Y0206000D02*
X0145400Y0206000D01*
X0155118Y0206000D02*
X0155400Y0206000D01*
X0169800Y0188400D02*
X0170000Y0188382D01*
X0175000Y0206000D02*
X0175118Y0206000D01*
X0180200Y0164000D02*
X0180000Y0163618D01*
X0170000Y0163618D02*
X0169800Y0164000D01*
X0190000Y0163618D02*
X0190200Y0164000D01*
D30*
X0190200Y0170800D01*
X0190000Y0188382D02*
X0190000Y0196000D01*
X0177338Y0196000D01*
X0174619Y0198719D01*
X0170000Y0198719D01*
X0165118Y0206000D01*
X0155118Y0206000D02*
X0155000Y0201000D01*
X0161281Y0194719D01*
X0172963Y0194719D01*
X0179300Y0188382D01*
X0180000Y0188382D01*
X0170000Y0188382D02*
X0159300Y0188382D01*
X0152963Y0194719D01*
X0150000Y0194719D01*
X0145000Y0206000D01*
X0145118Y0206000D01*
X0125000Y0188400D02*
X0124282Y0188400D01*
X0113963Y0198719D01*
X0107281Y0198719D01*
X0107000Y0199000D01*
X0100118Y0206000D01*
X0091156Y0206000D02*
X0102437Y0194719D01*
X0107963Y0194719D01*
X0109369Y0193313D01*
X0109369Y0191631D01*
X0110000Y0191000D01*
X0115000Y0188400D01*
X0105000Y0188400D02*
X0085000Y0196000D01*
X0080118Y0206000D01*
X0090118Y0206000D02*
X0091156Y0206000D01*
X0067800Y0198200D02*
X0067800Y0188000D01*
X0067800Y0198200D02*
X0060000Y0206000D01*
X0050000Y0206000D02*
X0050000Y0201000D01*
X0056200Y0194800D01*
X0056200Y0188000D01*
X0105000Y0171000D02*
X0105000Y0164000D01*
X0115000Y0163618D02*
X0115000Y0171000D01*
X0125000Y0171000D02*
X0125000Y0163618D01*
X0170000Y0163618D02*
X0170000Y0171000D01*
X0169800Y0058000D02*
X0169800Y0051200D01*
X0170000Y0051000D01*
X0180000Y0051000D02*
X0180000Y0058382D01*
X0160000Y0057800D02*
X0160000Y0051000D01*
X0160000Y0057800D02*
X0159800Y0058000D01*
X0160000Y0033618D02*
X0174882Y0018736D01*
X0174882Y0016000D01*
X0184882Y0016000D02*
X0184882Y0018736D01*
X0170000Y0033618D01*
X0180000Y0033618D02*
X0195000Y0018618D01*
X0195000Y0016000D01*
X0194600Y0016000D01*
X0129800Y0016000D02*
X0129800Y0018818D01*
X0115000Y0033618D01*
X0105000Y0033618D02*
X0119800Y0018818D01*
X0119800Y0016000D01*
X0119882Y0016000D01*
X0119800Y0016000D02*
X0118844Y0016000D01*
X0109882Y0016000D02*
X0108844Y0016000D01*
X0102507Y0022337D01*
X0098663Y0022337D01*
X0095000Y0026000D01*
X0095000Y0033618D01*
X0095000Y0051000D02*
X0095000Y0058382D01*
X0105000Y0058382D02*
X0105000Y0051000D01*
X0115000Y0051000D02*
X0115000Y0058382D01*
X0064882Y0026118D02*
X0064882Y0016000D01*
X0054882Y0016000D02*
X0054882Y0018736D01*
X0040000Y0033618D01*
X0050000Y0033618D02*
X0057382Y0033618D01*
X0064882Y0026118D01*
X0044882Y0018736D02*
X0044882Y0016000D01*
X0044882Y0018736D02*
X0030000Y0033618D01*
X0030000Y0051000D02*
X0030000Y0058382D01*
X0039800Y0058000D02*
X0040000Y0057800D01*
X0040000Y0051000D01*
X0050000Y0051000D02*
X0050000Y0058382D01*
D31*
X0169800Y0164000D02*
X0170000Y0164200D01*
X0180200Y0164000D02*
X0180200Y0170800D01*
X0180000Y0171000D01*
X0190000Y0171000D02*
X0190200Y0170800D01*
M02*
