G75*
%MOIN*%
%OFA0B0*%
%FSLAX25Y25*%
%IPPOS*%
%LPD*%
%AMOC8*
5,1,8,0,0,1.08239X$1,22.5*
%
%ADD10R,0.10800X0.05800*%
%ADD11C,0.10800*%
%ADD12C,0.15800*%
%ADD13C,0.07800*%
%ADD14C,0.08674*%
%ADD15OC8,0.06800*%
%ADD16C,0.06800*%
%ADD17C,0.03778*%
D10*
X0015000Y0161000D03*
X0015000Y0171000D03*
X0030000Y0171000D03*
X0030000Y0161000D03*
D11*
X0195000Y0146000D03*
X0195000Y0076000D03*
D12*
X0015000Y0076000D03*
X0015000Y0146000D03*
D13*
X0070000Y0151000D03*
X0080000Y0151000D03*
X0090000Y0151000D03*
X0100000Y0151000D03*
X0110000Y0151000D03*
X0120000Y0151000D03*
X0130000Y0151000D03*
X0140000Y0151000D03*
X0150000Y0151000D03*
X0160000Y0151000D03*
X0170000Y0151000D03*
X0180000Y0151000D03*
X0180000Y0071000D03*
X0170000Y0071000D03*
X0160000Y0071000D03*
X0150000Y0071000D03*
X0140000Y0071000D03*
X0130000Y0071000D03*
X0120000Y0071000D03*
X0110000Y0071000D03*
X0100000Y0071000D03*
X0090000Y0071000D03*
X0080000Y0071000D03*
X0070000Y0071000D03*
X0060000Y0071000D03*
X0050000Y0071000D03*
X0040000Y0071000D03*
X0030000Y0071000D03*
D14*
X0015000Y0016000D03*
X0025000Y0016000D03*
X0034882Y0016000D03*
X0044882Y0016000D03*
X0054882Y0016000D03*
X0064882Y0016000D03*
X0080000Y0016000D03*
X0090000Y0016000D03*
X0099882Y0016000D03*
X0109882Y0016000D03*
X0119882Y0016000D03*
X0129882Y0016000D03*
X0145000Y0016000D03*
X0155000Y0016000D03*
X0164882Y0016000D03*
X0174882Y0016000D03*
X0184882Y0016000D03*
X0194882Y0016000D03*
X0195000Y0206000D03*
X0185000Y0206000D03*
X0175118Y0206000D03*
X0165118Y0206000D03*
X0155118Y0206000D03*
X0145118Y0206000D03*
X0130000Y0206000D03*
X0120000Y0206000D03*
X0110118Y0206000D03*
X0100118Y0206000D03*
X0090118Y0206000D03*
X0080118Y0206000D03*
X0060000Y0206000D03*
X0050000Y0206000D03*
D15*
X0120000Y0126000D03*
X0120000Y0116000D03*
X0130000Y0116000D03*
X0130000Y0126000D03*
X0130000Y0106000D03*
X0130000Y0096000D03*
X0120000Y0096000D03*
X0120000Y0106000D03*
D16*
X0120000Y0084000D02*
X0120000Y0078000D01*
X0130000Y0078000D02*
X0130000Y0084000D01*
X0140000Y0084000D02*
X0140000Y0078000D01*
X0150000Y0078000D02*
X0150000Y0084000D01*
X0160000Y0084000D02*
X0160000Y0078000D01*
X0170000Y0078000D02*
X0170000Y0084000D01*
X0180000Y0084000D02*
X0180000Y0078000D01*
X0180000Y0138000D02*
X0180000Y0144000D01*
X0170000Y0144000D02*
X0170000Y0138000D01*
X0160000Y0138000D02*
X0160000Y0144000D01*
X0150000Y0144000D02*
X0150000Y0138000D01*
X0140000Y0138000D02*
X0140000Y0144000D01*
X0130000Y0144000D02*
X0130000Y0138000D01*
X0120000Y0138000D02*
X0120000Y0144000D01*
X0110000Y0144000D02*
X0110000Y0138000D01*
X0100000Y0138000D02*
X0100000Y0144000D01*
X0090000Y0144000D02*
X0090000Y0138000D01*
X0080000Y0138000D02*
X0080000Y0144000D01*
X0070000Y0144000D02*
X0070000Y0138000D01*
X0070000Y0084000D02*
X0070000Y0078000D01*
X0060000Y0078000D02*
X0060000Y0084000D01*
X0050000Y0084000D02*
X0050000Y0078000D01*
X0040000Y0078000D02*
X0040000Y0084000D01*
X0030000Y0084000D02*
X0030000Y0078000D01*
X0080000Y0078000D02*
X0080000Y0084000D01*
X0090000Y0084000D02*
X0090000Y0078000D01*
X0100000Y0078000D02*
X0100000Y0084000D01*
X0110000Y0084000D02*
X0110000Y0078000D01*
D17*
X0095000Y0087311D03*
X0099800Y0094800D03*
X0102556Y0097387D03*
X0109750Y0095761D03*
X0109800Y0099600D03*
X0110600Y0109200D03*
X0105000Y0112800D03*
X0100000Y0117302D03*
X0104311Y0121500D03*
X0110000Y0126000D03*
X0112032Y0122689D03*
X0115000Y0116000D03*
X0089000Y0110000D03*
X0085000Y0111200D03*
X0077800Y0108500D03*
X0078400Y0104403D03*
X0081301Y0099699D03*
X0084193Y0097163D03*
X0083000Y0091200D03*
X0072249Y0098251D03*
X0060200Y0094600D03*
X0054711Y0096000D03*
X0057400Y0102400D03*
X0049800Y0114000D03*
X0052600Y0116800D03*
X0057400Y0118800D03*
X0058600Y0126400D03*
X0049800Y0139200D03*
X0039000Y0149200D03*
X0044600Y0155100D03*
X0050000Y0151000D03*
X0054600Y0162000D03*
X0054600Y0166000D03*
X0056600Y0174400D03*
X0040200Y0175600D03*
X0041800Y0166800D03*
X0041800Y0162800D03*
X0030500Y0154000D03*
X0023500Y0154000D03*
X0021800Y0166800D03*
X0011511Y0178000D03*
X0027000Y0141200D03*
X0017800Y0136000D03*
X0037400Y0120400D03*
X0031001Y0097001D03*
X0027449Y0092949D03*
X0021000Y0064800D03*
X0030000Y0051000D03*
X0040000Y0051000D03*
X0050000Y0051000D03*
X0065000Y0036000D03*
X0080000Y0063311D03*
X0095000Y0051000D03*
X0105000Y0051000D03*
X0115000Y0051000D03*
X0141400Y0093200D03*
X0141400Y0098800D03*
X0157314Y0108511D03*
X0163499Y0107501D03*
X0165000Y0116000D03*
X0167573Y0118770D03*
X0154001Y0121000D03*
X0141400Y0119200D03*
X0141500Y0128500D03*
X0133400Y0156000D03*
X0125000Y0171000D03*
X0115000Y0171000D03*
X0105000Y0171000D03*
X0085800Y0133200D03*
X0079400Y0130400D03*
X0085400Y0122400D03*
X0088200Y0125200D03*
X0075154Y0114222D03*
X0072500Y0116911D03*
X0055000Y0075520D03*
X0145400Y0183600D03*
X0170000Y0171000D03*
X0180000Y0171000D03*
X0190000Y0171000D03*
X0195000Y0180800D03*
X0183000Y0120400D03*
X0180200Y0111200D03*
X0187000Y0108400D03*
X0180000Y0051000D03*
X0170000Y0051000D03*
X0160000Y0051000D03*
M02*
