G75*
%MOIN*%
%OFA0B0*%
%FSLAX25Y25*%
%IPPOS*%
%LPD*%
%AMOC8*
5,1,8,0,0,1.08239X$1,22.5*
%
%ADD10C,0.00200*%
%ADD11C,0.00300*%
%ADD12C,0.00600*%
%ADD13C,0.00800*%
%ADD14R,0.02500X0.15000*%
%ADD15C,0.00000*%
%ADD16C,0.00400*%
%ADD17R,0.00787X0.00787*%
%ADD18R,0.00591X0.00984*%
%ADD19C,0.00500*%
%ADD20R,0.08071X0.01378*%
D10*
X0006600Y0028100D02*
X0007333Y0030300D01*
X0008067Y0028100D01*
X0007883Y0028650D02*
X0006783Y0028650D01*
X0010139Y0028100D02*
X0010139Y0030300D01*
X0010750Y0030300D01*
X0010793Y0030298D01*
X0010835Y0030293D01*
X0010877Y0030283D01*
X0010917Y0030271D01*
X0010957Y0030254D01*
X0010995Y0030234D01*
X0011030Y0030212D01*
X0011064Y0030186D01*
X0011096Y0030157D01*
X0011125Y0030125D01*
X0011151Y0030091D01*
X0011173Y0030056D01*
X0011193Y0030018D01*
X0011210Y0029978D01*
X0011222Y0029938D01*
X0011232Y0029896D01*
X0011237Y0029854D01*
X0011239Y0029811D01*
X0011237Y0029768D01*
X0011232Y0029726D01*
X0011222Y0029684D01*
X0011210Y0029644D01*
X0011193Y0029604D01*
X0011173Y0029567D01*
X0011151Y0029531D01*
X0011125Y0029497D01*
X0011096Y0029465D01*
X0011064Y0029436D01*
X0011030Y0029410D01*
X0010995Y0029388D01*
X0010957Y0029368D01*
X0010917Y0029351D01*
X0010877Y0029339D01*
X0010835Y0029329D01*
X0010793Y0029324D01*
X0010750Y0029322D01*
X0010139Y0029322D01*
X0010750Y0029322D02*
X0010798Y0029320D01*
X0010846Y0029314D01*
X0010893Y0029305D01*
X0010939Y0029292D01*
X0010984Y0029275D01*
X0011027Y0029255D01*
X0011069Y0029232D01*
X0011109Y0029205D01*
X0011147Y0029176D01*
X0011182Y0029143D01*
X0011215Y0029108D01*
X0011244Y0029070D01*
X0011271Y0029030D01*
X0011294Y0028988D01*
X0011314Y0028945D01*
X0011331Y0028900D01*
X0011344Y0028854D01*
X0011353Y0028807D01*
X0011359Y0028759D01*
X0011361Y0028711D01*
X0011359Y0028663D01*
X0011353Y0028615D01*
X0011344Y0028568D01*
X0011331Y0028522D01*
X0011314Y0028477D01*
X0011294Y0028434D01*
X0011271Y0028392D01*
X0011244Y0028352D01*
X0011215Y0028314D01*
X0011182Y0028279D01*
X0011147Y0028246D01*
X0011109Y0028217D01*
X0011069Y0028190D01*
X0011027Y0028167D01*
X0010984Y0028147D01*
X0010939Y0028130D01*
X0010893Y0028117D01*
X0010846Y0028108D01*
X0010798Y0028102D01*
X0010750Y0028100D01*
X0010139Y0028100D01*
X0010048Y0030967D02*
X0010782Y0033167D01*
X0009804Y0033167D02*
X0010293Y0031700D01*
X0010048Y0030967D02*
X0009804Y0030967D01*
X0009118Y0031700D02*
X0009082Y0031702D01*
X0009046Y0031707D01*
X0009011Y0031716D01*
X0008978Y0031728D01*
X0008945Y0031743D01*
X0008914Y0031762D01*
X0008885Y0031783D01*
X0008858Y0031807D01*
X0008834Y0031834D01*
X0008813Y0031863D01*
X0008794Y0031894D01*
X0008779Y0031927D01*
X0008767Y0031960D01*
X0008758Y0031995D01*
X0008753Y0032031D01*
X0008751Y0032067D01*
X0008751Y0033900D01*
X0007211Y0033900D02*
X0006600Y0033900D01*
X0006600Y0031700D01*
X0006600Y0032678D02*
X0007211Y0032678D01*
X0007333Y0032678D02*
X0007822Y0031700D01*
X0007211Y0032678D02*
X0007259Y0032680D01*
X0007307Y0032686D01*
X0007354Y0032695D01*
X0007400Y0032708D01*
X0007445Y0032725D01*
X0007488Y0032745D01*
X0007530Y0032768D01*
X0007570Y0032795D01*
X0007608Y0032824D01*
X0007643Y0032857D01*
X0007676Y0032892D01*
X0007705Y0032930D01*
X0007732Y0032970D01*
X0007755Y0033012D01*
X0007775Y0033055D01*
X0007792Y0033100D01*
X0007805Y0033146D01*
X0007814Y0033193D01*
X0007820Y0033241D01*
X0007822Y0033289D01*
X0007820Y0033337D01*
X0007814Y0033385D01*
X0007805Y0033432D01*
X0007792Y0033478D01*
X0007775Y0033523D01*
X0007755Y0033566D01*
X0007732Y0033608D01*
X0007705Y0033648D01*
X0007676Y0033686D01*
X0007643Y0033721D01*
X0007608Y0033754D01*
X0007570Y0033783D01*
X0007530Y0033810D01*
X0007488Y0033833D01*
X0007445Y0033853D01*
X0007400Y0033870D01*
X0007354Y0033883D01*
X0007307Y0033892D01*
X0007259Y0033898D01*
X0007211Y0033900D01*
X0011626Y0033900D02*
X0012359Y0033900D01*
X0012402Y0033898D01*
X0012444Y0033893D01*
X0012486Y0033883D01*
X0012526Y0033871D01*
X0012566Y0033854D01*
X0012604Y0033834D01*
X0012639Y0033812D01*
X0012673Y0033786D01*
X0012705Y0033757D01*
X0012734Y0033725D01*
X0012760Y0033691D01*
X0012782Y0033656D01*
X0012802Y0033618D01*
X0012819Y0033578D01*
X0012831Y0033538D01*
X0012841Y0033496D01*
X0012846Y0033454D01*
X0012848Y0033411D01*
X0012846Y0033368D01*
X0012841Y0033326D01*
X0012831Y0033284D01*
X0012819Y0033244D01*
X0012802Y0033204D01*
X0012782Y0033167D01*
X0012760Y0033131D01*
X0012734Y0033097D01*
X0012705Y0033065D01*
X0012673Y0033036D01*
X0012639Y0033010D01*
X0012604Y0032988D01*
X0012566Y0032968D01*
X0012526Y0032951D01*
X0012486Y0032939D01*
X0012444Y0032929D01*
X0012402Y0032924D01*
X0012359Y0032922D01*
X0011870Y0032922D01*
X0012237Y0032922D02*
X0012285Y0032920D01*
X0012333Y0032914D01*
X0012380Y0032905D01*
X0012426Y0032892D01*
X0012471Y0032875D01*
X0012514Y0032855D01*
X0012556Y0032832D01*
X0012596Y0032805D01*
X0012634Y0032776D01*
X0012669Y0032743D01*
X0012702Y0032708D01*
X0012731Y0032670D01*
X0012758Y0032630D01*
X0012781Y0032588D01*
X0012801Y0032545D01*
X0012818Y0032500D01*
X0012831Y0032454D01*
X0012840Y0032407D01*
X0012846Y0032359D01*
X0012848Y0032311D01*
X0012846Y0032263D01*
X0012840Y0032215D01*
X0012831Y0032168D01*
X0012818Y0032122D01*
X0012801Y0032077D01*
X0012781Y0032034D01*
X0012758Y0031992D01*
X0012731Y0031952D01*
X0012702Y0031914D01*
X0012669Y0031879D01*
X0012634Y0031846D01*
X0012596Y0031817D01*
X0012556Y0031790D01*
X0012514Y0031767D01*
X0012471Y0031747D01*
X0012426Y0031730D01*
X0012380Y0031717D01*
X0012333Y0031708D01*
X0012285Y0031702D01*
X0012237Y0031700D01*
X0011626Y0031700D01*
X0013100Y0030300D02*
X0014322Y0028100D01*
X0014322Y0030300D01*
X0015332Y0029689D02*
X0015332Y0028711D01*
X0015334Y0028663D01*
X0015340Y0028615D01*
X0015349Y0028568D01*
X0015362Y0028522D01*
X0015379Y0028477D01*
X0015399Y0028434D01*
X0015422Y0028392D01*
X0015449Y0028352D01*
X0015478Y0028314D01*
X0015511Y0028279D01*
X0015546Y0028246D01*
X0015584Y0028217D01*
X0015624Y0028190D01*
X0015666Y0028167D01*
X0015709Y0028147D01*
X0015754Y0028130D01*
X0015800Y0028117D01*
X0015847Y0028108D01*
X0015895Y0028102D01*
X0015943Y0028100D01*
X0015991Y0028102D01*
X0016039Y0028108D01*
X0016086Y0028117D01*
X0016132Y0028130D01*
X0016177Y0028147D01*
X0016220Y0028167D01*
X0016262Y0028190D01*
X0016302Y0028217D01*
X0016340Y0028246D01*
X0016375Y0028279D01*
X0016408Y0028314D01*
X0016437Y0028352D01*
X0016464Y0028392D01*
X0016487Y0028434D01*
X0016507Y0028477D01*
X0016524Y0028522D01*
X0016537Y0028568D01*
X0016546Y0028615D01*
X0016552Y0028663D01*
X0016554Y0028711D01*
X0016554Y0029689D01*
X0016552Y0029737D01*
X0016546Y0029785D01*
X0016537Y0029832D01*
X0016524Y0029878D01*
X0016507Y0029923D01*
X0016487Y0029966D01*
X0016464Y0030008D01*
X0016437Y0030048D01*
X0016408Y0030086D01*
X0016375Y0030121D01*
X0016340Y0030154D01*
X0016302Y0030183D01*
X0016262Y0030210D01*
X0016220Y0030233D01*
X0016177Y0030253D01*
X0016132Y0030270D01*
X0016086Y0030283D01*
X0016039Y0030292D01*
X0015991Y0030298D01*
X0015943Y0030300D01*
X0015895Y0030298D01*
X0015847Y0030292D01*
X0015800Y0030283D01*
X0015754Y0030270D01*
X0015709Y0030253D01*
X0015666Y0030233D01*
X0015624Y0030210D01*
X0015584Y0030183D01*
X0015546Y0030154D01*
X0015511Y0030121D01*
X0015478Y0030086D01*
X0015449Y0030048D01*
X0015422Y0030008D01*
X0015399Y0029966D01*
X0015379Y0029923D01*
X0015362Y0029878D01*
X0015349Y0029832D01*
X0015340Y0029785D01*
X0015334Y0029737D01*
X0015332Y0029689D01*
X0013100Y0030300D02*
X0013100Y0028100D01*
X0023245Y0028589D02*
X0023245Y0029811D01*
X0023247Y0029854D01*
X0023252Y0029896D01*
X0023262Y0029938D01*
X0023274Y0029978D01*
X0023291Y0030018D01*
X0023311Y0030055D01*
X0023333Y0030091D01*
X0023359Y0030125D01*
X0023388Y0030157D01*
X0023420Y0030186D01*
X0023454Y0030212D01*
X0023489Y0030234D01*
X0023527Y0030254D01*
X0023567Y0030271D01*
X0023607Y0030283D01*
X0023649Y0030293D01*
X0023691Y0030298D01*
X0023734Y0030300D01*
X0024223Y0030300D01*
X0025052Y0029689D02*
X0025052Y0028711D01*
X0025054Y0028663D01*
X0025060Y0028615D01*
X0025069Y0028568D01*
X0025082Y0028522D01*
X0025099Y0028477D01*
X0025119Y0028434D01*
X0025142Y0028392D01*
X0025169Y0028352D01*
X0025198Y0028314D01*
X0025231Y0028279D01*
X0025266Y0028246D01*
X0025304Y0028217D01*
X0025344Y0028190D01*
X0025386Y0028167D01*
X0025429Y0028147D01*
X0025474Y0028130D01*
X0025520Y0028117D01*
X0025567Y0028108D01*
X0025615Y0028102D01*
X0025663Y0028100D01*
X0025711Y0028102D01*
X0025759Y0028108D01*
X0025806Y0028117D01*
X0025852Y0028130D01*
X0025897Y0028147D01*
X0025940Y0028167D01*
X0025982Y0028190D01*
X0026022Y0028217D01*
X0026060Y0028246D01*
X0026095Y0028279D01*
X0026128Y0028314D01*
X0026157Y0028352D01*
X0026184Y0028392D01*
X0026207Y0028434D01*
X0026227Y0028477D01*
X0026244Y0028522D01*
X0026257Y0028568D01*
X0026266Y0028615D01*
X0026272Y0028663D01*
X0026274Y0028711D01*
X0026274Y0029689D01*
X0026272Y0029737D01*
X0026266Y0029785D01*
X0026257Y0029832D01*
X0026244Y0029878D01*
X0026227Y0029923D01*
X0026207Y0029966D01*
X0026184Y0030008D01*
X0026157Y0030048D01*
X0026128Y0030086D01*
X0026095Y0030121D01*
X0026060Y0030154D01*
X0026022Y0030183D01*
X0025982Y0030210D01*
X0025940Y0030233D01*
X0025897Y0030253D01*
X0025852Y0030270D01*
X0025806Y0030283D01*
X0025759Y0030292D01*
X0025711Y0030298D01*
X0025663Y0030300D01*
X0025615Y0030298D01*
X0025567Y0030292D01*
X0025520Y0030283D01*
X0025474Y0030270D01*
X0025429Y0030253D01*
X0025386Y0030233D01*
X0025344Y0030210D01*
X0025304Y0030183D01*
X0025266Y0030154D01*
X0025231Y0030121D01*
X0025198Y0030086D01*
X0025169Y0030048D01*
X0025142Y0030008D01*
X0025119Y0029966D01*
X0025099Y0029923D01*
X0025082Y0029878D01*
X0025069Y0029832D01*
X0025060Y0029785D01*
X0025054Y0029737D01*
X0025052Y0029689D01*
X0023734Y0028100D02*
X0023691Y0028102D01*
X0023649Y0028107D01*
X0023607Y0028117D01*
X0023567Y0028129D01*
X0023527Y0028146D01*
X0023490Y0028166D01*
X0023454Y0028188D01*
X0023420Y0028214D01*
X0023388Y0028243D01*
X0023359Y0028275D01*
X0023333Y0028309D01*
X0023311Y0028345D01*
X0023291Y0028382D01*
X0023274Y0028422D01*
X0023262Y0028462D01*
X0023252Y0028504D01*
X0023247Y0028546D01*
X0023245Y0028589D01*
X0023734Y0028100D02*
X0024223Y0028100D01*
X0033044Y0028100D02*
X0033044Y0030300D01*
X0034266Y0028100D01*
X0034266Y0030300D01*
X0035269Y0029811D02*
X0035269Y0028589D01*
X0035271Y0028546D01*
X0035276Y0028504D01*
X0035286Y0028462D01*
X0035298Y0028422D01*
X0035315Y0028382D01*
X0035335Y0028345D01*
X0035357Y0028309D01*
X0035383Y0028275D01*
X0035412Y0028243D01*
X0035444Y0028214D01*
X0035478Y0028188D01*
X0035514Y0028166D01*
X0035551Y0028146D01*
X0035591Y0028129D01*
X0035631Y0028117D01*
X0035673Y0028107D01*
X0035715Y0028102D01*
X0035758Y0028100D01*
X0036247Y0028100D01*
X0035269Y0029811D02*
X0035271Y0029854D01*
X0035276Y0029896D01*
X0035286Y0029938D01*
X0035298Y0029978D01*
X0035315Y0030018D01*
X0035335Y0030055D01*
X0035357Y0030091D01*
X0035383Y0030125D01*
X0035412Y0030157D01*
X0035444Y0030186D01*
X0035478Y0030212D01*
X0035513Y0030234D01*
X0035551Y0030254D01*
X0035591Y0030271D01*
X0035631Y0030283D01*
X0035673Y0030293D01*
X0035715Y0030298D01*
X0035758Y0030300D01*
X0036247Y0030300D01*
X0043600Y0030300D02*
X0043600Y0028100D01*
X0044822Y0028100D02*
X0043600Y0030300D01*
X0044822Y0030300D02*
X0044822Y0028100D01*
X0045832Y0028711D02*
X0045832Y0029689D01*
X0045834Y0029737D01*
X0045840Y0029785D01*
X0045849Y0029832D01*
X0045862Y0029878D01*
X0045879Y0029923D01*
X0045899Y0029966D01*
X0045922Y0030008D01*
X0045949Y0030048D01*
X0045978Y0030086D01*
X0046011Y0030121D01*
X0046046Y0030154D01*
X0046084Y0030183D01*
X0046124Y0030210D01*
X0046166Y0030233D01*
X0046209Y0030253D01*
X0046254Y0030270D01*
X0046300Y0030283D01*
X0046347Y0030292D01*
X0046395Y0030298D01*
X0046443Y0030300D01*
X0046491Y0030298D01*
X0046539Y0030292D01*
X0046586Y0030283D01*
X0046632Y0030270D01*
X0046677Y0030253D01*
X0046720Y0030233D01*
X0046762Y0030210D01*
X0046802Y0030183D01*
X0046840Y0030154D01*
X0046875Y0030121D01*
X0046908Y0030086D01*
X0046937Y0030048D01*
X0046964Y0030008D01*
X0046987Y0029966D01*
X0047007Y0029923D01*
X0047024Y0029878D01*
X0047037Y0029832D01*
X0047046Y0029785D01*
X0047052Y0029737D01*
X0047054Y0029689D01*
X0047054Y0028711D01*
X0047052Y0028663D01*
X0047046Y0028615D01*
X0047037Y0028568D01*
X0047024Y0028522D01*
X0047007Y0028477D01*
X0046987Y0028434D01*
X0046964Y0028392D01*
X0046937Y0028352D01*
X0046908Y0028314D01*
X0046875Y0028279D01*
X0046840Y0028246D01*
X0046802Y0028217D01*
X0046762Y0028190D01*
X0046720Y0028167D01*
X0046677Y0028147D01*
X0046632Y0028130D01*
X0046586Y0028117D01*
X0046539Y0028108D01*
X0046491Y0028102D01*
X0046443Y0028100D01*
X0046395Y0028102D01*
X0046347Y0028108D01*
X0046300Y0028117D01*
X0046254Y0028130D01*
X0046209Y0028147D01*
X0046166Y0028167D01*
X0046124Y0028190D01*
X0046084Y0028217D01*
X0046046Y0028246D01*
X0046011Y0028279D01*
X0045978Y0028314D01*
X0045949Y0028352D01*
X0045922Y0028392D01*
X0045899Y0028434D01*
X0045879Y0028477D01*
X0045862Y0028522D01*
X0045849Y0028568D01*
X0045840Y0028615D01*
X0045834Y0028663D01*
X0045832Y0028711D01*
X0053745Y0028589D02*
X0053745Y0029811D01*
X0053747Y0029854D01*
X0053752Y0029896D01*
X0053762Y0029938D01*
X0053774Y0029978D01*
X0053791Y0030018D01*
X0053811Y0030055D01*
X0053833Y0030091D01*
X0053859Y0030125D01*
X0053888Y0030157D01*
X0053920Y0030186D01*
X0053954Y0030212D01*
X0053989Y0030234D01*
X0054027Y0030254D01*
X0054067Y0030271D01*
X0054107Y0030283D01*
X0054149Y0030293D01*
X0054191Y0030298D01*
X0054234Y0030300D01*
X0054723Y0030300D01*
X0055552Y0029689D02*
X0055552Y0028711D01*
X0055554Y0028663D01*
X0055560Y0028615D01*
X0055569Y0028568D01*
X0055582Y0028522D01*
X0055599Y0028477D01*
X0055619Y0028434D01*
X0055642Y0028392D01*
X0055669Y0028352D01*
X0055698Y0028314D01*
X0055731Y0028279D01*
X0055766Y0028246D01*
X0055804Y0028217D01*
X0055844Y0028190D01*
X0055886Y0028167D01*
X0055929Y0028147D01*
X0055974Y0028130D01*
X0056020Y0028117D01*
X0056067Y0028108D01*
X0056115Y0028102D01*
X0056163Y0028100D01*
X0056211Y0028102D01*
X0056259Y0028108D01*
X0056306Y0028117D01*
X0056352Y0028130D01*
X0056397Y0028147D01*
X0056440Y0028167D01*
X0056482Y0028190D01*
X0056522Y0028217D01*
X0056560Y0028246D01*
X0056595Y0028279D01*
X0056628Y0028314D01*
X0056657Y0028352D01*
X0056684Y0028392D01*
X0056707Y0028434D01*
X0056727Y0028477D01*
X0056744Y0028522D01*
X0056757Y0028568D01*
X0056766Y0028615D01*
X0056772Y0028663D01*
X0056774Y0028711D01*
X0056774Y0029689D01*
X0056772Y0029737D01*
X0056766Y0029785D01*
X0056757Y0029832D01*
X0056744Y0029878D01*
X0056727Y0029923D01*
X0056707Y0029966D01*
X0056684Y0030008D01*
X0056657Y0030048D01*
X0056628Y0030086D01*
X0056595Y0030121D01*
X0056560Y0030154D01*
X0056522Y0030183D01*
X0056482Y0030210D01*
X0056440Y0030233D01*
X0056397Y0030253D01*
X0056352Y0030270D01*
X0056306Y0030283D01*
X0056259Y0030292D01*
X0056211Y0030298D01*
X0056163Y0030300D01*
X0056115Y0030298D01*
X0056067Y0030292D01*
X0056020Y0030283D01*
X0055974Y0030270D01*
X0055929Y0030253D01*
X0055886Y0030233D01*
X0055844Y0030210D01*
X0055804Y0030183D01*
X0055766Y0030154D01*
X0055731Y0030121D01*
X0055698Y0030086D01*
X0055669Y0030048D01*
X0055642Y0030008D01*
X0055619Y0029966D01*
X0055599Y0029923D01*
X0055582Y0029878D01*
X0055569Y0029832D01*
X0055560Y0029785D01*
X0055554Y0029737D01*
X0055552Y0029689D01*
X0054234Y0028100D02*
X0054191Y0028102D01*
X0054149Y0028107D01*
X0054107Y0028117D01*
X0054067Y0028129D01*
X0054027Y0028146D01*
X0053990Y0028166D01*
X0053954Y0028188D01*
X0053920Y0028214D01*
X0053888Y0028243D01*
X0053859Y0028275D01*
X0053833Y0028309D01*
X0053811Y0028345D01*
X0053791Y0028382D01*
X0053774Y0028422D01*
X0053762Y0028462D01*
X0053752Y0028504D01*
X0053747Y0028546D01*
X0053745Y0028589D01*
X0054234Y0028100D02*
X0054723Y0028100D01*
X0063544Y0028100D02*
X0063544Y0030300D01*
X0064766Y0028100D01*
X0064766Y0030300D01*
X0065769Y0029811D02*
X0065769Y0028589D01*
X0065771Y0028546D01*
X0065776Y0028504D01*
X0065786Y0028462D01*
X0065798Y0028422D01*
X0065815Y0028382D01*
X0065835Y0028345D01*
X0065857Y0028309D01*
X0065883Y0028275D01*
X0065912Y0028243D01*
X0065944Y0028214D01*
X0065978Y0028188D01*
X0066014Y0028166D01*
X0066051Y0028146D01*
X0066091Y0028129D01*
X0066131Y0028117D01*
X0066173Y0028107D01*
X0066215Y0028102D01*
X0066258Y0028100D01*
X0066747Y0028100D01*
X0065769Y0029811D02*
X0065771Y0029854D01*
X0065776Y0029896D01*
X0065786Y0029938D01*
X0065798Y0029978D01*
X0065815Y0030018D01*
X0065835Y0030055D01*
X0065857Y0030091D01*
X0065883Y0030125D01*
X0065912Y0030157D01*
X0065944Y0030186D01*
X0065978Y0030212D01*
X0066013Y0030234D01*
X0066051Y0030254D01*
X0066091Y0030271D01*
X0066131Y0030283D01*
X0066173Y0030293D01*
X0066215Y0030298D01*
X0066258Y0030300D01*
X0066747Y0030300D01*
X0078600Y0030300D02*
X0078600Y0028100D01*
X0079822Y0028100D02*
X0078600Y0030300D01*
X0079822Y0030300D02*
X0079822Y0028100D01*
X0080832Y0028711D02*
X0080832Y0029689D01*
X0080834Y0029737D01*
X0080840Y0029785D01*
X0080849Y0029832D01*
X0080862Y0029878D01*
X0080879Y0029923D01*
X0080899Y0029966D01*
X0080922Y0030008D01*
X0080949Y0030048D01*
X0080978Y0030086D01*
X0081011Y0030121D01*
X0081046Y0030154D01*
X0081084Y0030183D01*
X0081124Y0030210D01*
X0081166Y0030233D01*
X0081209Y0030253D01*
X0081254Y0030270D01*
X0081300Y0030283D01*
X0081347Y0030292D01*
X0081395Y0030298D01*
X0081443Y0030300D01*
X0081491Y0030298D01*
X0081539Y0030292D01*
X0081586Y0030283D01*
X0081632Y0030270D01*
X0081677Y0030253D01*
X0081720Y0030233D01*
X0081762Y0030210D01*
X0081802Y0030183D01*
X0081840Y0030154D01*
X0081875Y0030121D01*
X0081908Y0030086D01*
X0081937Y0030048D01*
X0081964Y0030008D01*
X0081987Y0029966D01*
X0082007Y0029923D01*
X0082024Y0029878D01*
X0082037Y0029832D01*
X0082046Y0029785D01*
X0082052Y0029737D01*
X0082054Y0029689D01*
X0082054Y0028711D01*
X0082052Y0028663D01*
X0082046Y0028615D01*
X0082037Y0028568D01*
X0082024Y0028522D01*
X0082007Y0028477D01*
X0081987Y0028434D01*
X0081964Y0028392D01*
X0081937Y0028352D01*
X0081908Y0028314D01*
X0081875Y0028279D01*
X0081840Y0028246D01*
X0081802Y0028217D01*
X0081762Y0028190D01*
X0081720Y0028167D01*
X0081677Y0028147D01*
X0081632Y0028130D01*
X0081586Y0028117D01*
X0081539Y0028108D01*
X0081491Y0028102D01*
X0081443Y0028100D01*
X0081395Y0028102D01*
X0081347Y0028108D01*
X0081300Y0028117D01*
X0081254Y0028130D01*
X0081209Y0028147D01*
X0081166Y0028167D01*
X0081124Y0028190D01*
X0081084Y0028217D01*
X0081046Y0028246D01*
X0081011Y0028279D01*
X0080978Y0028314D01*
X0080949Y0028352D01*
X0080922Y0028392D01*
X0080899Y0028434D01*
X0080879Y0028477D01*
X0080862Y0028522D01*
X0080849Y0028568D01*
X0080840Y0028615D01*
X0080834Y0028663D01*
X0080832Y0028711D01*
X0088745Y0028589D02*
X0088745Y0029811D01*
X0088747Y0029854D01*
X0088752Y0029896D01*
X0088762Y0029938D01*
X0088774Y0029978D01*
X0088791Y0030018D01*
X0088811Y0030055D01*
X0088833Y0030091D01*
X0088859Y0030125D01*
X0088888Y0030157D01*
X0088920Y0030186D01*
X0088954Y0030212D01*
X0088989Y0030234D01*
X0089027Y0030254D01*
X0089067Y0030271D01*
X0089107Y0030283D01*
X0089149Y0030293D01*
X0089191Y0030298D01*
X0089234Y0030300D01*
X0089723Y0030300D01*
X0090552Y0029689D02*
X0090552Y0028711D01*
X0090554Y0028663D01*
X0090560Y0028615D01*
X0090569Y0028568D01*
X0090582Y0028522D01*
X0090599Y0028477D01*
X0090619Y0028434D01*
X0090642Y0028392D01*
X0090669Y0028352D01*
X0090698Y0028314D01*
X0090731Y0028279D01*
X0090766Y0028246D01*
X0090804Y0028217D01*
X0090844Y0028190D01*
X0090886Y0028167D01*
X0090929Y0028147D01*
X0090974Y0028130D01*
X0091020Y0028117D01*
X0091067Y0028108D01*
X0091115Y0028102D01*
X0091163Y0028100D01*
X0091211Y0028102D01*
X0091259Y0028108D01*
X0091306Y0028117D01*
X0091352Y0028130D01*
X0091397Y0028147D01*
X0091440Y0028167D01*
X0091482Y0028190D01*
X0091522Y0028217D01*
X0091560Y0028246D01*
X0091595Y0028279D01*
X0091628Y0028314D01*
X0091657Y0028352D01*
X0091684Y0028392D01*
X0091707Y0028434D01*
X0091727Y0028477D01*
X0091744Y0028522D01*
X0091757Y0028568D01*
X0091766Y0028615D01*
X0091772Y0028663D01*
X0091774Y0028711D01*
X0091774Y0029689D01*
X0091772Y0029737D01*
X0091766Y0029785D01*
X0091757Y0029832D01*
X0091744Y0029878D01*
X0091727Y0029923D01*
X0091707Y0029966D01*
X0091684Y0030008D01*
X0091657Y0030048D01*
X0091628Y0030086D01*
X0091595Y0030121D01*
X0091560Y0030154D01*
X0091522Y0030183D01*
X0091482Y0030210D01*
X0091440Y0030233D01*
X0091397Y0030253D01*
X0091352Y0030270D01*
X0091306Y0030283D01*
X0091259Y0030292D01*
X0091211Y0030298D01*
X0091163Y0030300D01*
X0091115Y0030298D01*
X0091067Y0030292D01*
X0091020Y0030283D01*
X0090974Y0030270D01*
X0090929Y0030253D01*
X0090886Y0030233D01*
X0090844Y0030210D01*
X0090804Y0030183D01*
X0090766Y0030154D01*
X0090731Y0030121D01*
X0090698Y0030086D01*
X0090669Y0030048D01*
X0090642Y0030008D01*
X0090619Y0029966D01*
X0090599Y0029923D01*
X0090582Y0029878D01*
X0090569Y0029832D01*
X0090560Y0029785D01*
X0090554Y0029737D01*
X0090552Y0029689D01*
X0089234Y0028100D02*
X0089191Y0028102D01*
X0089149Y0028107D01*
X0089107Y0028117D01*
X0089067Y0028129D01*
X0089027Y0028146D01*
X0088990Y0028166D01*
X0088954Y0028188D01*
X0088920Y0028214D01*
X0088888Y0028243D01*
X0088859Y0028275D01*
X0088833Y0028309D01*
X0088811Y0028345D01*
X0088791Y0028382D01*
X0088774Y0028422D01*
X0088762Y0028462D01*
X0088752Y0028504D01*
X0088747Y0028546D01*
X0088745Y0028589D01*
X0089234Y0028100D02*
X0089723Y0028100D01*
X0098544Y0028100D02*
X0098544Y0030300D01*
X0099766Y0028100D01*
X0099766Y0030300D01*
X0100769Y0029811D02*
X0100769Y0028589D01*
X0100771Y0028546D01*
X0100776Y0028504D01*
X0100786Y0028462D01*
X0100798Y0028422D01*
X0100815Y0028382D01*
X0100835Y0028345D01*
X0100857Y0028309D01*
X0100883Y0028275D01*
X0100912Y0028243D01*
X0100944Y0028214D01*
X0100978Y0028188D01*
X0101014Y0028166D01*
X0101051Y0028146D01*
X0101091Y0028129D01*
X0101131Y0028117D01*
X0101173Y0028107D01*
X0101215Y0028102D01*
X0101258Y0028100D01*
X0101747Y0028100D01*
X0100769Y0029811D02*
X0100771Y0029854D01*
X0100776Y0029896D01*
X0100786Y0029938D01*
X0100798Y0029978D01*
X0100815Y0030018D01*
X0100835Y0030055D01*
X0100857Y0030091D01*
X0100883Y0030125D01*
X0100912Y0030157D01*
X0100944Y0030186D01*
X0100978Y0030212D01*
X0101013Y0030234D01*
X0101051Y0030254D01*
X0101091Y0030271D01*
X0101131Y0030283D01*
X0101173Y0030293D01*
X0101215Y0030298D01*
X0101258Y0030300D01*
X0101747Y0030300D01*
X0108600Y0030300D02*
X0108600Y0028100D01*
X0109822Y0028100D02*
X0108600Y0030300D01*
X0109822Y0030300D02*
X0109822Y0028100D01*
X0110832Y0028711D02*
X0110832Y0029689D01*
X0110834Y0029737D01*
X0110840Y0029785D01*
X0110849Y0029832D01*
X0110862Y0029878D01*
X0110879Y0029923D01*
X0110899Y0029966D01*
X0110922Y0030008D01*
X0110949Y0030048D01*
X0110978Y0030086D01*
X0111011Y0030121D01*
X0111046Y0030154D01*
X0111084Y0030183D01*
X0111124Y0030210D01*
X0111166Y0030233D01*
X0111209Y0030253D01*
X0111254Y0030270D01*
X0111300Y0030283D01*
X0111347Y0030292D01*
X0111395Y0030298D01*
X0111443Y0030300D01*
X0111491Y0030298D01*
X0111539Y0030292D01*
X0111586Y0030283D01*
X0111632Y0030270D01*
X0111677Y0030253D01*
X0111720Y0030233D01*
X0111762Y0030210D01*
X0111802Y0030183D01*
X0111840Y0030154D01*
X0111875Y0030121D01*
X0111908Y0030086D01*
X0111937Y0030048D01*
X0111964Y0030008D01*
X0111987Y0029966D01*
X0112007Y0029923D01*
X0112024Y0029878D01*
X0112037Y0029832D01*
X0112046Y0029785D01*
X0112052Y0029737D01*
X0112054Y0029689D01*
X0112054Y0028711D01*
X0112052Y0028663D01*
X0112046Y0028615D01*
X0112037Y0028568D01*
X0112024Y0028522D01*
X0112007Y0028477D01*
X0111987Y0028434D01*
X0111964Y0028392D01*
X0111937Y0028352D01*
X0111908Y0028314D01*
X0111875Y0028279D01*
X0111840Y0028246D01*
X0111802Y0028217D01*
X0111762Y0028190D01*
X0111720Y0028167D01*
X0111677Y0028147D01*
X0111632Y0028130D01*
X0111586Y0028117D01*
X0111539Y0028108D01*
X0111491Y0028102D01*
X0111443Y0028100D01*
X0111395Y0028102D01*
X0111347Y0028108D01*
X0111300Y0028117D01*
X0111254Y0028130D01*
X0111209Y0028147D01*
X0111166Y0028167D01*
X0111124Y0028190D01*
X0111084Y0028217D01*
X0111046Y0028246D01*
X0111011Y0028279D01*
X0110978Y0028314D01*
X0110949Y0028352D01*
X0110922Y0028392D01*
X0110899Y0028434D01*
X0110879Y0028477D01*
X0110862Y0028522D01*
X0110849Y0028568D01*
X0110840Y0028615D01*
X0110834Y0028663D01*
X0110832Y0028711D01*
X0118745Y0028589D02*
X0118745Y0029811D01*
X0118747Y0029854D01*
X0118752Y0029896D01*
X0118762Y0029938D01*
X0118774Y0029978D01*
X0118791Y0030018D01*
X0118811Y0030055D01*
X0118833Y0030091D01*
X0118859Y0030125D01*
X0118888Y0030157D01*
X0118920Y0030186D01*
X0118954Y0030212D01*
X0118989Y0030234D01*
X0119027Y0030254D01*
X0119067Y0030271D01*
X0119107Y0030283D01*
X0119149Y0030293D01*
X0119191Y0030298D01*
X0119234Y0030300D01*
X0119723Y0030300D01*
X0120552Y0029689D02*
X0120552Y0028711D01*
X0120554Y0028663D01*
X0120560Y0028615D01*
X0120569Y0028568D01*
X0120582Y0028522D01*
X0120599Y0028477D01*
X0120619Y0028434D01*
X0120642Y0028392D01*
X0120669Y0028352D01*
X0120698Y0028314D01*
X0120731Y0028279D01*
X0120766Y0028246D01*
X0120804Y0028217D01*
X0120844Y0028190D01*
X0120886Y0028167D01*
X0120929Y0028147D01*
X0120974Y0028130D01*
X0121020Y0028117D01*
X0121067Y0028108D01*
X0121115Y0028102D01*
X0121163Y0028100D01*
X0121211Y0028102D01*
X0121259Y0028108D01*
X0121306Y0028117D01*
X0121352Y0028130D01*
X0121397Y0028147D01*
X0121440Y0028167D01*
X0121482Y0028190D01*
X0121522Y0028217D01*
X0121560Y0028246D01*
X0121595Y0028279D01*
X0121628Y0028314D01*
X0121657Y0028352D01*
X0121684Y0028392D01*
X0121707Y0028434D01*
X0121727Y0028477D01*
X0121744Y0028522D01*
X0121757Y0028568D01*
X0121766Y0028615D01*
X0121772Y0028663D01*
X0121774Y0028711D01*
X0121774Y0029689D01*
X0121772Y0029737D01*
X0121766Y0029785D01*
X0121757Y0029832D01*
X0121744Y0029878D01*
X0121727Y0029923D01*
X0121707Y0029966D01*
X0121684Y0030008D01*
X0121657Y0030048D01*
X0121628Y0030086D01*
X0121595Y0030121D01*
X0121560Y0030154D01*
X0121522Y0030183D01*
X0121482Y0030210D01*
X0121440Y0030233D01*
X0121397Y0030253D01*
X0121352Y0030270D01*
X0121306Y0030283D01*
X0121259Y0030292D01*
X0121211Y0030298D01*
X0121163Y0030300D01*
X0121115Y0030298D01*
X0121067Y0030292D01*
X0121020Y0030283D01*
X0120974Y0030270D01*
X0120929Y0030253D01*
X0120886Y0030233D01*
X0120844Y0030210D01*
X0120804Y0030183D01*
X0120766Y0030154D01*
X0120731Y0030121D01*
X0120698Y0030086D01*
X0120669Y0030048D01*
X0120642Y0030008D01*
X0120619Y0029966D01*
X0120599Y0029923D01*
X0120582Y0029878D01*
X0120569Y0029832D01*
X0120560Y0029785D01*
X0120554Y0029737D01*
X0120552Y0029689D01*
X0119234Y0028100D02*
X0119191Y0028102D01*
X0119149Y0028107D01*
X0119107Y0028117D01*
X0119067Y0028129D01*
X0119027Y0028146D01*
X0118990Y0028166D01*
X0118954Y0028188D01*
X0118920Y0028214D01*
X0118888Y0028243D01*
X0118859Y0028275D01*
X0118833Y0028309D01*
X0118811Y0028345D01*
X0118791Y0028382D01*
X0118774Y0028422D01*
X0118762Y0028462D01*
X0118752Y0028504D01*
X0118747Y0028546D01*
X0118745Y0028589D01*
X0119234Y0028100D02*
X0119723Y0028100D01*
X0128544Y0028100D02*
X0128544Y0030300D01*
X0129766Y0028100D01*
X0129766Y0030300D01*
X0130769Y0029811D02*
X0130769Y0028589D01*
X0130771Y0028546D01*
X0130776Y0028504D01*
X0130786Y0028462D01*
X0130798Y0028422D01*
X0130815Y0028382D01*
X0130835Y0028345D01*
X0130857Y0028309D01*
X0130883Y0028275D01*
X0130912Y0028243D01*
X0130944Y0028214D01*
X0130978Y0028188D01*
X0131014Y0028166D01*
X0131051Y0028146D01*
X0131091Y0028129D01*
X0131131Y0028117D01*
X0131173Y0028107D01*
X0131215Y0028102D01*
X0131258Y0028100D01*
X0131747Y0028100D01*
X0130769Y0029811D02*
X0130771Y0029854D01*
X0130776Y0029896D01*
X0130786Y0029938D01*
X0130798Y0029978D01*
X0130815Y0030018D01*
X0130835Y0030055D01*
X0130857Y0030091D01*
X0130883Y0030125D01*
X0130912Y0030157D01*
X0130944Y0030186D01*
X0130978Y0030212D01*
X0131013Y0030234D01*
X0131051Y0030254D01*
X0131091Y0030271D01*
X0131131Y0030283D01*
X0131173Y0030293D01*
X0131215Y0030298D01*
X0131258Y0030300D01*
X0131747Y0030300D01*
X0143600Y0030300D02*
X0143600Y0028100D01*
X0144822Y0028100D02*
X0143600Y0030300D01*
X0144822Y0030300D02*
X0144822Y0028100D01*
X0145832Y0028711D02*
X0145832Y0029689D01*
X0145834Y0029737D01*
X0145840Y0029785D01*
X0145849Y0029832D01*
X0145862Y0029878D01*
X0145879Y0029923D01*
X0145899Y0029966D01*
X0145922Y0030008D01*
X0145949Y0030048D01*
X0145978Y0030086D01*
X0146011Y0030121D01*
X0146046Y0030154D01*
X0146084Y0030183D01*
X0146124Y0030210D01*
X0146166Y0030233D01*
X0146209Y0030253D01*
X0146254Y0030270D01*
X0146300Y0030283D01*
X0146347Y0030292D01*
X0146395Y0030298D01*
X0146443Y0030300D01*
X0146491Y0030298D01*
X0146539Y0030292D01*
X0146586Y0030283D01*
X0146632Y0030270D01*
X0146677Y0030253D01*
X0146720Y0030233D01*
X0146762Y0030210D01*
X0146802Y0030183D01*
X0146840Y0030154D01*
X0146875Y0030121D01*
X0146908Y0030086D01*
X0146937Y0030048D01*
X0146964Y0030008D01*
X0146987Y0029966D01*
X0147007Y0029923D01*
X0147024Y0029878D01*
X0147037Y0029832D01*
X0147046Y0029785D01*
X0147052Y0029737D01*
X0147054Y0029689D01*
X0147054Y0028711D01*
X0147052Y0028663D01*
X0147046Y0028615D01*
X0147037Y0028568D01*
X0147024Y0028522D01*
X0147007Y0028477D01*
X0146987Y0028434D01*
X0146964Y0028392D01*
X0146937Y0028352D01*
X0146908Y0028314D01*
X0146875Y0028279D01*
X0146840Y0028246D01*
X0146802Y0028217D01*
X0146762Y0028190D01*
X0146720Y0028167D01*
X0146677Y0028147D01*
X0146632Y0028130D01*
X0146586Y0028117D01*
X0146539Y0028108D01*
X0146491Y0028102D01*
X0146443Y0028100D01*
X0146395Y0028102D01*
X0146347Y0028108D01*
X0146300Y0028117D01*
X0146254Y0028130D01*
X0146209Y0028147D01*
X0146166Y0028167D01*
X0146124Y0028190D01*
X0146084Y0028217D01*
X0146046Y0028246D01*
X0146011Y0028279D01*
X0145978Y0028314D01*
X0145949Y0028352D01*
X0145922Y0028392D01*
X0145899Y0028434D01*
X0145879Y0028477D01*
X0145862Y0028522D01*
X0145849Y0028568D01*
X0145840Y0028615D01*
X0145834Y0028663D01*
X0145832Y0028711D01*
X0153745Y0028589D02*
X0153745Y0029811D01*
X0153747Y0029854D01*
X0153752Y0029896D01*
X0153762Y0029938D01*
X0153774Y0029978D01*
X0153791Y0030018D01*
X0153811Y0030055D01*
X0153833Y0030091D01*
X0153859Y0030125D01*
X0153888Y0030157D01*
X0153920Y0030186D01*
X0153954Y0030212D01*
X0153989Y0030234D01*
X0154027Y0030254D01*
X0154067Y0030271D01*
X0154107Y0030283D01*
X0154149Y0030293D01*
X0154191Y0030298D01*
X0154234Y0030300D01*
X0154723Y0030300D01*
X0155552Y0029689D02*
X0155552Y0028711D01*
X0155554Y0028663D01*
X0155560Y0028615D01*
X0155569Y0028568D01*
X0155582Y0028522D01*
X0155599Y0028477D01*
X0155619Y0028434D01*
X0155642Y0028392D01*
X0155669Y0028352D01*
X0155698Y0028314D01*
X0155731Y0028279D01*
X0155766Y0028246D01*
X0155804Y0028217D01*
X0155844Y0028190D01*
X0155886Y0028167D01*
X0155929Y0028147D01*
X0155974Y0028130D01*
X0156020Y0028117D01*
X0156067Y0028108D01*
X0156115Y0028102D01*
X0156163Y0028100D01*
X0156211Y0028102D01*
X0156259Y0028108D01*
X0156306Y0028117D01*
X0156352Y0028130D01*
X0156397Y0028147D01*
X0156440Y0028167D01*
X0156482Y0028190D01*
X0156522Y0028217D01*
X0156560Y0028246D01*
X0156595Y0028279D01*
X0156628Y0028314D01*
X0156657Y0028352D01*
X0156684Y0028392D01*
X0156707Y0028434D01*
X0156727Y0028477D01*
X0156744Y0028522D01*
X0156757Y0028568D01*
X0156766Y0028615D01*
X0156772Y0028663D01*
X0156774Y0028711D01*
X0156774Y0029689D01*
X0156772Y0029737D01*
X0156766Y0029785D01*
X0156757Y0029832D01*
X0156744Y0029878D01*
X0156727Y0029923D01*
X0156707Y0029966D01*
X0156684Y0030008D01*
X0156657Y0030048D01*
X0156628Y0030086D01*
X0156595Y0030121D01*
X0156560Y0030154D01*
X0156522Y0030183D01*
X0156482Y0030210D01*
X0156440Y0030233D01*
X0156397Y0030253D01*
X0156352Y0030270D01*
X0156306Y0030283D01*
X0156259Y0030292D01*
X0156211Y0030298D01*
X0156163Y0030300D01*
X0156115Y0030298D01*
X0156067Y0030292D01*
X0156020Y0030283D01*
X0155974Y0030270D01*
X0155929Y0030253D01*
X0155886Y0030233D01*
X0155844Y0030210D01*
X0155804Y0030183D01*
X0155766Y0030154D01*
X0155731Y0030121D01*
X0155698Y0030086D01*
X0155669Y0030048D01*
X0155642Y0030008D01*
X0155619Y0029966D01*
X0155599Y0029923D01*
X0155582Y0029878D01*
X0155569Y0029832D01*
X0155560Y0029785D01*
X0155554Y0029737D01*
X0155552Y0029689D01*
X0154234Y0028100D02*
X0154191Y0028102D01*
X0154149Y0028107D01*
X0154107Y0028117D01*
X0154067Y0028129D01*
X0154027Y0028146D01*
X0153990Y0028166D01*
X0153954Y0028188D01*
X0153920Y0028214D01*
X0153888Y0028243D01*
X0153859Y0028275D01*
X0153833Y0028309D01*
X0153811Y0028345D01*
X0153791Y0028382D01*
X0153774Y0028422D01*
X0153762Y0028462D01*
X0153752Y0028504D01*
X0153747Y0028546D01*
X0153745Y0028589D01*
X0154234Y0028100D02*
X0154723Y0028100D01*
X0163544Y0028100D02*
X0163544Y0030300D01*
X0164766Y0028100D01*
X0164766Y0030300D01*
X0165769Y0029811D02*
X0165769Y0028589D01*
X0165771Y0028546D01*
X0165776Y0028504D01*
X0165786Y0028462D01*
X0165798Y0028422D01*
X0165815Y0028382D01*
X0165835Y0028345D01*
X0165857Y0028309D01*
X0165883Y0028275D01*
X0165912Y0028243D01*
X0165944Y0028214D01*
X0165978Y0028188D01*
X0166014Y0028166D01*
X0166051Y0028146D01*
X0166091Y0028129D01*
X0166131Y0028117D01*
X0166173Y0028107D01*
X0166215Y0028102D01*
X0166258Y0028100D01*
X0166747Y0028100D01*
X0165769Y0029811D02*
X0165771Y0029854D01*
X0165776Y0029896D01*
X0165786Y0029938D01*
X0165798Y0029978D01*
X0165815Y0030018D01*
X0165835Y0030055D01*
X0165857Y0030091D01*
X0165883Y0030125D01*
X0165912Y0030157D01*
X0165944Y0030186D01*
X0165978Y0030212D01*
X0166013Y0030234D01*
X0166051Y0030254D01*
X0166091Y0030271D01*
X0166131Y0030283D01*
X0166173Y0030293D01*
X0166215Y0030298D01*
X0166258Y0030300D01*
X0166747Y0030300D01*
X0173600Y0030300D02*
X0173600Y0028100D01*
X0174822Y0028100D02*
X0173600Y0030300D01*
X0174822Y0030300D02*
X0174822Y0028100D01*
X0175832Y0028711D02*
X0175832Y0029689D01*
X0175834Y0029737D01*
X0175840Y0029785D01*
X0175849Y0029832D01*
X0175862Y0029878D01*
X0175879Y0029923D01*
X0175899Y0029966D01*
X0175922Y0030008D01*
X0175949Y0030048D01*
X0175978Y0030086D01*
X0176011Y0030121D01*
X0176046Y0030154D01*
X0176084Y0030183D01*
X0176124Y0030210D01*
X0176166Y0030233D01*
X0176209Y0030253D01*
X0176254Y0030270D01*
X0176300Y0030283D01*
X0176347Y0030292D01*
X0176395Y0030298D01*
X0176443Y0030300D01*
X0176491Y0030298D01*
X0176539Y0030292D01*
X0176586Y0030283D01*
X0176632Y0030270D01*
X0176677Y0030253D01*
X0176720Y0030233D01*
X0176762Y0030210D01*
X0176802Y0030183D01*
X0176840Y0030154D01*
X0176875Y0030121D01*
X0176908Y0030086D01*
X0176937Y0030048D01*
X0176964Y0030008D01*
X0176987Y0029966D01*
X0177007Y0029923D01*
X0177024Y0029878D01*
X0177037Y0029832D01*
X0177046Y0029785D01*
X0177052Y0029737D01*
X0177054Y0029689D01*
X0177054Y0028711D01*
X0177052Y0028663D01*
X0177046Y0028615D01*
X0177037Y0028568D01*
X0177024Y0028522D01*
X0177007Y0028477D01*
X0176987Y0028434D01*
X0176964Y0028392D01*
X0176937Y0028352D01*
X0176908Y0028314D01*
X0176875Y0028279D01*
X0176840Y0028246D01*
X0176802Y0028217D01*
X0176762Y0028190D01*
X0176720Y0028167D01*
X0176677Y0028147D01*
X0176632Y0028130D01*
X0176586Y0028117D01*
X0176539Y0028108D01*
X0176491Y0028102D01*
X0176443Y0028100D01*
X0176395Y0028102D01*
X0176347Y0028108D01*
X0176300Y0028117D01*
X0176254Y0028130D01*
X0176209Y0028147D01*
X0176166Y0028167D01*
X0176124Y0028190D01*
X0176084Y0028217D01*
X0176046Y0028246D01*
X0176011Y0028279D01*
X0175978Y0028314D01*
X0175949Y0028352D01*
X0175922Y0028392D01*
X0175899Y0028434D01*
X0175879Y0028477D01*
X0175862Y0028522D01*
X0175849Y0028568D01*
X0175840Y0028615D01*
X0175834Y0028663D01*
X0175832Y0028711D01*
X0183745Y0028589D02*
X0183745Y0029811D01*
X0183747Y0029854D01*
X0183752Y0029896D01*
X0183762Y0029938D01*
X0183774Y0029978D01*
X0183791Y0030018D01*
X0183811Y0030055D01*
X0183833Y0030091D01*
X0183859Y0030125D01*
X0183888Y0030157D01*
X0183920Y0030186D01*
X0183954Y0030212D01*
X0183989Y0030234D01*
X0184027Y0030254D01*
X0184067Y0030271D01*
X0184107Y0030283D01*
X0184149Y0030293D01*
X0184191Y0030298D01*
X0184234Y0030300D01*
X0184723Y0030300D01*
X0185552Y0029689D02*
X0185552Y0028711D01*
X0185554Y0028663D01*
X0185560Y0028615D01*
X0185569Y0028568D01*
X0185582Y0028522D01*
X0185599Y0028477D01*
X0185619Y0028434D01*
X0185642Y0028392D01*
X0185669Y0028352D01*
X0185698Y0028314D01*
X0185731Y0028279D01*
X0185766Y0028246D01*
X0185804Y0028217D01*
X0185844Y0028190D01*
X0185886Y0028167D01*
X0185929Y0028147D01*
X0185974Y0028130D01*
X0186020Y0028117D01*
X0186067Y0028108D01*
X0186115Y0028102D01*
X0186163Y0028100D01*
X0186211Y0028102D01*
X0186259Y0028108D01*
X0186306Y0028117D01*
X0186352Y0028130D01*
X0186397Y0028147D01*
X0186440Y0028167D01*
X0186482Y0028190D01*
X0186522Y0028217D01*
X0186560Y0028246D01*
X0186595Y0028279D01*
X0186628Y0028314D01*
X0186657Y0028352D01*
X0186684Y0028392D01*
X0186707Y0028434D01*
X0186727Y0028477D01*
X0186744Y0028522D01*
X0186757Y0028568D01*
X0186766Y0028615D01*
X0186772Y0028663D01*
X0186774Y0028711D01*
X0186774Y0029689D01*
X0186772Y0029737D01*
X0186766Y0029785D01*
X0186757Y0029832D01*
X0186744Y0029878D01*
X0186727Y0029923D01*
X0186707Y0029966D01*
X0186684Y0030008D01*
X0186657Y0030048D01*
X0186628Y0030086D01*
X0186595Y0030121D01*
X0186560Y0030154D01*
X0186522Y0030183D01*
X0186482Y0030210D01*
X0186440Y0030233D01*
X0186397Y0030253D01*
X0186352Y0030270D01*
X0186306Y0030283D01*
X0186259Y0030292D01*
X0186211Y0030298D01*
X0186163Y0030300D01*
X0186115Y0030298D01*
X0186067Y0030292D01*
X0186020Y0030283D01*
X0185974Y0030270D01*
X0185929Y0030253D01*
X0185886Y0030233D01*
X0185844Y0030210D01*
X0185804Y0030183D01*
X0185766Y0030154D01*
X0185731Y0030121D01*
X0185698Y0030086D01*
X0185669Y0030048D01*
X0185642Y0030008D01*
X0185619Y0029966D01*
X0185599Y0029923D01*
X0185582Y0029878D01*
X0185569Y0029832D01*
X0185560Y0029785D01*
X0185554Y0029737D01*
X0185552Y0029689D01*
X0184234Y0028100D02*
X0184191Y0028102D01*
X0184149Y0028107D01*
X0184107Y0028117D01*
X0184067Y0028129D01*
X0184027Y0028146D01*
X0183990Y0028166D01*
X0183954Y0028188D01*
X0183920Y0028214D01*
X0183888Y0028243D01*
X0183859Y0028275D01*
X0183833Y0028309D01*
X0183811Y0028345D01*
X0183791Y0028382D01*
X0183774Y0028422D01*
X0183762Y0028462D01*
X0183752Y0028504D01*
X0183747Y0028546D01*
X0183745Y0028589D01*
X0184234Y0028100D02*
X0184723Y0028100D01*
X0193544Y0028100D02*
X0193544Y0030300D01*
X0194766Y0028100D01*
X0194766Y0030300D01*
X0195769Y0029811D02*
X0195769Y0028589D01*
X0195771Y0028546D01*
X0195776Y0028504D01*
X0195786Y0028462D01*
X0195798Y0028422D01*
X0195815Y0028382D01*
X0195835Y0028345D01*
X0195857Y0028309D01*
X0195883Y0028275D01*
X0195912Y0028243D01*
X0195944Y0028214D01*
X0195978Y0028188D01*
X0196014Y0028166D01*
X0196051Y0028146D01*
X0196091Y0028129D01*
X0196131Y0028117D01*
X0196173Y0028107D01*
X0196215Y0028102D01*
X0196258Y0028100D01*
X0196747Y0028100D01*
X0195769Y0029811D02*
X0195771Y0029854D01*
X0195776Y0029896D01*
X0195786Y0029938D01*
X0195798Y0029978D01*
X0195815Y0030018D01*
X0195835Y0030055D01*
X0195857Y0030091D01*
X0195883Y0030125D01*
X0195912Y0030157D01*
X0195944Y0030186D01*
X0195978Y0030212D01*
X0196013Y0030234D01*
X0196051Y0030254D01*
X0196091Y0030271D01*
X0196131Y0030283D01*
X0196173Y0030293D01*
X0196215Y0030298D01*
X0196258Y0030300D01*
X0196747Y0030300D01*
X0201600Y0027400D02*
X0201600Y0025200D01*
X0201600Y0026178D02*
X0202211Y0026178D01*
X0202333Y0026178D02*
X0202822Y0025200D01*
X0203751Y0025567D02*
X0203751Y0027400D01*
X0204804Y0026667D02*
X0205293Y0025200D01*
X0205048Y0024467D02*
X0205782Y0026667D01*
X0206626Y0026422D02*
X0206626Y0027400D01*
X0207848Y0027400D01*
X0207359Y0026422D02*
X0206626Y0026422D01*
X0207359Y0026422D02*
X0207402Y0026420D01*
X0207444Y0026415D01*
X0207486Y0026405D01*
X0207526Y0026393D01*
X0207566Y0026376D01*
X0207604Y0026356D01*
X0207639Y0026334D01*
X0207673Y0026308D01*
X0207705Y0026279D01*
X0207734Y0026247D01*
X0207760Y0026213D01*
X0207782Y0026178D01*
X0207802Y0026140D01*
X0207819Y0026100D01*
X0207831Y0026060D01*
X0207841Y0026018D01*
X0207846Y0025976D01*
X0207848Y0025933D01*
X0207848Y0025689D01*
X0207846Y0025646D01*
X0207841Y0025604D01*
X0207831Y0025562D01*
X0207819Y0025522D01*
X0207802Y0025482D01*
X0207782Y0025444D01*
X0207760Y0025409D01*
X0207734Y0025375D01*
X0207705Y0025343D01*
X0207673Y0025314D01*
X0207639Y0025288D01*
X0207603Y0025266D01*
X0207566Y0025246D01*
X0207526Y0025229D01*
X0207486Y0025217D01*
X0207444Y0025207D01*
X0207402Y0025202D01*
X0207359Y0025200D01*
X0206626Y0025200D01*
X0205750Y0023800D02*
X0205139Y0023800D01*
X0205139Y0021600D01*
X0205750Y0021600D01*
X0205798Y0021602D01*
X0205846Y0021608D01*
X0205893Y0021617D01*
X0205939Y0021630D01*
X0205984Y0021647D01*
X0206027Y0021667D01*
X0206069Y0021690D01*
X0206109Y0021717D01*
X0206147Y0021746D01*
X0206182Y0021779D01*
X0206215Y0021814D01*
X0206244Y0021852D01*
X0206271Y0021892D01*
X0206294Y0021934D01*
X0206314Y0021977D01*
X0206331Y0022022D01*
X0206344Y0022068D01*
X0206353Y0022115D01*
X0206359Y0022163D01*
X0206361Y0022211D01*
X0206359Y0022259D01*
X0206353Y0022307D01*
X0206344Y0022354D01*
X0206331Y0022400D01*
X0206314Y0022445D01*
X0206294Y0022488D01*
X0206271Y0022530D01*
X0206244Y0022570D01*
X0206215Y0022608D01*
X0206182Y0022643D01*
X0206147Y0022676D01*
X0206109Y0022705D01*
X0206069Y0022732D01*
X0206027Y0022755D01*
X0205984Y0022775D01*
X0205939Y0022792D01*
X0205893Y0022805D01*
X0205846Y0022814D01*
X0205798Y0022820D01*
X0205750Y0022822D01*
X0205139Y0022822D01*
X0205750Y0022822D02*
X0205793Y0022824D01*
X0205835Y0022829D01*
X0205877Y0022839D01*
X0205917Y0022851D01*
X0205957Y0022868D01*
X0205995Y0022888D01*
X0206030Y0022910D01*
X0206064Y0022936D01*
X0206096Y0022965D01*
X0206125Y0022997D01*
X0206151Y0023031D01*
X0206173Y0023067D01*
X0206193Y0023104D01*
X0206210Y0023144D01*
X0206222Y0023184D01*
X0206232Y0023226D01*
X0206237Y0023268D01*
X0206239Y0023311D01*
X0206237Y0023354D01*
X0206232Y0023396D01*
X0206222Y0023438D01*
X0206210Y0023478D01*
X0206193Y0023518D01*
X0206173Y0023556D01*
X0206151Y0023591D01*
X0206125Y0023625D01*
X0206096Y0023657D01*
X0206064Y0023686D01*
X0206030Y0023712D01*
X0205995Y0023734D01*
X0205957Y0023754D01*
X0205917Y0023771D01*
X0205877Y0023783D01*
X0205835Y0023793D01*
X0205793Y0023798D01*
X0205750Y0023800D01*
X0205048Y0024467D02*
X0204804Y0024467D01*
X0204118Y0025200D02*
X0204082Y0025202D01*
X0204046Y0025207D01*
X0204011Y0025216D01*
X0203978Y0025228D01*
X0203945Y0025243D01*
X0203914Y0025262D01*
X0203885Y0025283D01*
X0203858Y0025307D01*
X0203834Y0025334D01*
X0203813Y0025363D01*
X0203794Y0025394D01*
X0203779Y0025427D01*
X0203767Y0025460D01*
X0203758Y0025495D01*
X0203753Y0025531D01*
X0203751Y0025567D01*
X0202211Y0026178D02*
X0202259Y0026180D01*
X0202307Y0026186D01*
X0202354Y0026195D01*
X0202400Y0026208D01*
X0202445Y0026225D01*
X0202488Y0026245D01*
X0202530Y0026268D01*
X0202570Y0026295D01*
X0202608Y0026324D01*
X0202643Y0026357D01*
X0202676Y0026392D01*
X0202705Y0026430D01*
X0202732Y0026470D01*
X0202755Y0026512D01*
X0202775Y0026555D01*
X0202792Y0026600D01*
X0202805Y0026646D01*
X0202814Y0026693D01*
X0202820Y0026741D01*
X0202822Y0026789D01*
X0202820Y0026837D01*
X0202814Y0026885D01*
X0202805Y0026932D01*
X0202792Y0026978D01*
X0202775Y0027023D01*
X0202755Y0027066D01*
X0202732Y0027108D01*
X0202705Y0027148D01*
X0202676Y0027186D01*
X0202643Y0027221D01*
X0202608Y0027254D01*
X0202570Y0027283D01*
X0202530Y0027310D01*
X0202488Y0027333D01*
X0202445Y0027353D01*
X0202400Y0027370D01*
X0202354Y0027383D01*
X0202307Y0027392D01*
X0202259Y0027398D01*
X0202211Y0027400D01*
X0201600Y0027400D01*
X0202333Y0023800D02*
X0203067Y0021600D01*
X0202883Y0022150D02*
X0201783Y0022150D01*
X0201600Y0021600D02*
X0202333Y0023800D01*
X0196900Y0191200D02*
X0195678Y0193400D01*
X0195678Y0191200D01*
X0194668Y0191811D02*
X0194668Y0192789D01*
X0194666Y0192837D01*
X0194660Y0192885D01*
X0194651Y0192932D01*
X0194638Y0192978D01*
X0194621Y0193023D01*
X0194601Y0193066D01*
X0194578Y0193108D01*
X0194551Y0193148D01*
X0194522Y0193186D01*
X0194489Y0193221D01*
X0194454Y0193254D01*
X0194416Y0193283D01*
X0194376Y0193310D01*
X0194334Y0193333D01*
X0194291Y0193353D01*
X0194246Y0193370D01*
X0194200Y0193383D01*
X0194153Y0193392D01*
X0194105Y0193398D01*
X0194057Y0193400D01*
X0194009Y0193398D01*
X0193961Y0193392D01*
X0193914Y0193383D01*
X0193868Y0193370D01*
X0193823Y0193353D01*
X0193780Y0193333D01*
X0193738Y0193310D01*
X0193698Y0193283D01*
X0193660Y0193254D01*
X0193625Y0193221D01*
X0193592Y0193186D01*
X0193563Y0193148D01*
X0193536Y0193108D01*
X0193513Y0193066D01*
X0193493Y0193023D01*
X0193476Y0192978D01*
X0193463Y0192932D01*
X0193454Y0192885D01*
X0193448Y0192837D01*
X0193446Y0192789D01*
X0193446Y0191811D01*
X0193448Y0191763D01*
X0193454Y0191715D01*
X0193463Y0191668D01*
X0193476Y0191622D01*
X0193493Y0191577D01*
X0193513Y0191534D01*
X0193536Y0191492D01*
X0193563Y0191452D01*
X0193592Y0191414D01*
X0193625Y0191379D01*
X0193660Y0191346D01*
X0193698Y0191317D01*
X0193738Y0191290D01*
X0193780Y0191267D01*
X0193823Y0191247D01*
X0193868Y0191230D01*
X0193914Y0191217D01*
X0193961Y0191208D01*
X0194009Y0191202D01*
X0194057Y0191200D01*
X0194105Y0191202D01*
X0194153Y0191208D01*
X0194200Y0191217D01*
X0194246Y0191230D01*
X0194291Y0191247D01*
X0194334Y0191267D01*
X0194376Y0191290D01*
X0194416Y0191317D01*
X0194454Y0191346D01*
X0194489Y0191379D01*
X0194522Y0191414D01*
X0194551Y0191452D01*
X0194578Y0191492D01*
X0194601Y0191534D01*
X0194621Y0191577D01*
X0194638Y0191622D01*
X0194651Y0191668D01*
X0194660Y0191715D01*
X0194666Y0191763D01*
X0194668Y0191811D01*
X0196900Y0191200D02*
X0196900Y0193400D01*
X0186755Y0192911D02*
X0186755Y0191689D01*
X0186753Y0191646D01*
X0186748Y0191604D01*
X0186738Y0191562D01*
X0186726Y0191522D01*
X0186709Y0191482D01*
X0186689Y0191445D01*
X0186667Y0191409D01*
X0186641Y0191375D01*
X0186612Y0191343D01*
X0186580Y0191314D01*
X0186546Y0191288D01*
X0186511Y0191266D01*
X0186473Y0191246D01*
X0186433Y0191229D01*
X0186393Y0191217D01*
X0186351Y0191207D01*
X0186309Y0191202D01*
X0186266Y0191200D01*
X0185777Y0191200D01*
X0184948Y0191811D02*
X0184948Y0192789D01*
X0184946Y0192837D01*
X0184940Y0192885D01*
X0184931Y0192932D01*
X0184918Y0192978D01*
X0184901Y0193023D01*
X0184881Y0193066D01*
X0184858Y0193108D01*
X0184831Y0193148D01*
X0184802Y0193186D01*
X0184769Y0193221D01*
X0184734Y0193254D01*
X0184696Y0193283D01*
X0184656Y0193310D01*
X0184614Y0193333D01*
X0184571Y0193353D01*
X0184526Y0193370D01*
X0184480Y0193383D01*
X0184433Y0193392D01*
X0184385Y0193398D01*
X0184337Y0193400D01*
X0184289Y0193398D01*
X0184241Y0193392D01*
X0184194Y0193383D01*
X0184148Y0193370D01*
X0184103Y0193353D01*
X0184060Y0193333D01*
X0184018Y0193310D01*
X0183978Y0193283D01*
X0183940Y0193254D01*
X0183905Y0193221D01*
X0183872Y0193186D01*
X0183843Y0193148D01*
X0183816Y0193108D01*
X0183793Y0193066D01*
X0183773Y0193023D01*
X0183756Y0192978D01*
X0183743Y0192932D01*
X0183734Y0192885D01*
X0183728Y0192837D01*
X0183726Y0192789D01*
X0183726Y0191811D01*
X0183728Y0191763D01*
X0183734Y0191715D01*
X0183743Y0191668D01*
X0183756Y0191622D01*
X0183773Y0191577D01*
X0183793Y0191534D01*
X0183816Y0191492D01*
X0183843Y0191452D01*
X0183872Y0191414D01*
X0183905Y0191379D01*
X0183940Y0191346D01*
X0183978Y0191317D01*
X0184018Y0191290D01*
X0184060Y0191267D01*
X0184103Y0191247D01*
X0184148Y0191230D01*
X0184194Y0191217D01*
X0184241Y0191208D01*
X0184289Y0191202D01*
X0184337Y0191200D01*
X0184385Y0191202D01*
X0184433Y0191208D01*
X0184480Y0191217D01*
X0184526Y0191230D01*
X0184571Y0191247D01*
X0184614Y0191267D01*
X0184656Y0191290D01*
X0184696Y0191317D01*
X0184734Y0191346D01*
X0184769Y0191379D01*
X0184802Y0191414D01*
X0184831Y0191452D01*
X0184858Y0191492D01*
X0184881Y0191534D01*
X0184901Y0191577D01*
X0184918Y0191622D01*
X0184931Y0191668D01*
X0184940Y0191715D01*
X0184946Y0191763D01*
X0184948Y0191811D01*
X0186266Y0193400D02*
X0186309Y0193398D01*
X0186351Y0193393D01*
X0186393Y0193383D01*
X0186433Y0193371D01*
X0186473Y0193354D01*
X0186511Y0193334D01*
X0186546Y0193312D01*
X0186580Y0193286D01*
X0186612Y0193257D01*
X0186641Y0193225D01*
X0186667Y0193191D01*
X0186689Y0193156D01*
X0186709Y0193118D01*
X0186726Y0193078D01*
X0186738Y0193038D01*
X0186748Y0192996D01*
X0186753Y0192954D01*
X0186755Y0192911D01*
X0186266Y0193400D02*
X0185777Y0193400D01*
X0176956Y0193400D02*
X0176956Y0191200D01*
X0175734Y0193400D01*
X0175734Y0191200D01*
X0174731Y0191689D02*
X0174731Y0192911D01*
X0174729Y0192954D01*
X0174724Y0192996D01*
X0174714Y0193038D01*
X0174702Y0193078D01*
X0174685Y0193118D01*
X0174665Y0193156D01*
X0174643Y0193191D01*
X0174617Y0193225D01*
X0174588Y0193257D01*
X0174556Y0193286D01*
X0174522Y0193312D01*
X0174487Y0193334D01*
X0174449Y0193354D01*
X0174409Y0193371D01*
X0174369Y0193383D01*
X0174327Y0193393D01*
X0174285Y0193398D01*
X0174242Y0193400D01*
X0173753Y0193400D01*
X0174731Y0191689D02*
X0174729Y0191646D01*
X0174724Y0191604D01*
X0174714Y0191562D01*
X0174702Y0191522D01*
X0174685Y0191482D01*
X0174665Y0191445D01*
X0174643Y0191409D01*
X0174617Y0191375D01*
X0174588Y0191343D01*
X0174556Y0191314D01*
X0174522Y0191288D01*
X0174487Y0191266D01*
X0174449Y0191246D01*
X0174409Y0191229D01*
X0174369Y0191217D01*
X0174327Y0191207D01*
X0174285Y0191202D01*
X0174242Y0191200D01*
X0173753Y0191200D01*
X0166400Y0191700D02*
X0165178Y0193900D01*
X0165178Y0191700D01*
X0164168Y0192311D02*
X0164168Y0193289D01*
X0164166Y0193337D01*
X0164160Y0193385D01*
X0164151Y0193432D01*
X0164138Y0193478D01*
X0164121Y0193523D01*
X0164101Y0193566D01*
X0164078Y0193608D01*
X0164051Y0193648D01*
X0164022Y0193686D01*
X0163989Y0193721D01*
X0163954Y0193754D01*
X0163916Y0193783D01*
X0163876Y0193810D01*
X0163834Y0193833D01*
X0163791Y0193853D01*
X0163746Y0193870D01*
X0163700Y0193883D01*
X0163653Y0193892D01*
X0163605Y0193898D01*
X0163557Y0193900D01*
X0163509Y0193898D01*
X0163461Y0193892D01*
X0163414Y0193883D01*
X0163368Y0193870D01*
X0163323Y0193853D01*
X0163280Y0193833D01*
X0163238Y0193810D01*
X0163198Y0193783D01*
X0163160Y0193754D01*
X0163125Y0193721D01*
X0163092Y0193686D01*
X0163063Y0193648D01*
X0163036Y0193608D01*
X0163013Y0193566D01*
X0162993Y0193523D01*
X0162976Y0193478D01*
X0162963Y0193432D01*
X0162954Y0193385D01*
X0162948Y0193337D01*
X0162946Y0193289D01*
X0162946Y0192311D01*
X0162948Y0192263D01*
X0162954Y0192215D01*
X0162963Y0192168D01*
X0162976Y0192122D01*
X0162993Y0192077D01*
X0163013Y0192034D01*
X0163036Y0191992D01*
X0163063Y0191952D01*
X0163092Y0191914D01*
X0163125Y0191879D01*
X0163160Y0191846D01*
X0163198Y0191817D01*
X0163238Y0191790D01*
X0163280Y0191767D01*
X0163323Y0191747D01*
X0163368Y0191730D01*
X0163414Y0191717D01*
X0163461Y0191708D01*
X0163509Y0191702D01*
X0163557Y0191700D01*
X0163605Y0191702D01*
X0163653Y0191708D01*
X0163700Y0191717D01*
X0163746Y0191730D01*
X0163791Y0191747D01*
X0163834Y0191767D01*
X0163876Y0191790D01*
X0163916Y0191817D01*
X0163954Y0191846D01*
X0163989Y0191879D01*
X0164022Y0191914D01*
X0164051Y0191952D01*
X0164078Y0191992D01*
X0164101Y0192034D01*
X0164121Y0192077D01*
X0164138Y0192122D01*
X0164151Y0192168D01*
X0164160Y0192215D01*
X0164166Y0192263D01*
X0164168Y0192311D01*
X0166400Y0191700D02*
X0166400Y0193900D01*
X0156255Y0193411D02*
X0156255Y0192189D01*
X0156253Y0192146D01*
X0156248Y0192104D01*
X0156238Y0192062D01*
X0156226Y0192022D01*
X0156209Y0191982D01*
X0156189Y0191945D01*
X0156167Y0191909D01*
X0156141Y0191875D01*
X0156112Y0191843D01*
X0156080Y0191814D01*
X0156046Y0191788D01*
X0156011Y0191766D01*
X0155973Y0191746D01*
X0155933Y0191729D01*
X0155893Y0191717D01*
X0155851Y0191707D01*
X0155809Y0191702D01*
X0155766Y0191700D01*
X0155277Y0191700D01*
X0154448Y0192311D02*
X0154448Y0193289D01*
X0154446Y0193337D01*
X0154440Y0193385D01*
X0154431Y0193432D01*
X0154418Y0193478D01*
X0154401Y0193523D01*
X0154381Y0193566D01*
X0154358Y0193608D01*
X0154331Y0193648D01*
X0154302Y0193686D01*
X0154269Y0193721D01*
X0154234Y0193754D01*
X0154196Y0193783D01*
X0154156Y0193810D01*
X0154114Y0193833D01*
X0154071Y0193853D01*
X0154026Y0193870D01*
X0153980Y0193883D01*
X0153933Y0193892D01*
X0153885Y0193898D01*
X0153837Y0193900D01*
X0153789Y0193898D01*
X0153741Y0193892D01*
X0153694Y0193883D01*
X0153648Y0193870D01*
X0153603Y0193853D01*
X0153560Y0193833D01*
X0153518Y0193810D01*
X0153478Y0193783D01*
X0153440Y0193754D01*
X0153405Y0193721D01*
X0153372Y0193686D01*
X0153343Y0193648D01*
X0153316Y0193608D01*
X0153293Y0193566D01*
X0153273Y0193523D01*
X0153256Y0193478D01*
X0153243Y0193432D01*
X0153234Y0193385D01*
X0153228Y0193337D01*
X0153226Y0193289D01*
X0153226Y0192311D01*
X0153228Y0192263D01*
X0153234Y0192215D01*
X0153243Y0192168D01*
X0153256Y0192122D01*
X0153273Y0192077D01*
X0153293Y0192034D01*
X0153316Y0191992D01*
X0153343Y0191952D01*
X0153372Y0191914D01*
X0153405Y0191879D01*
X0153440Y0191846D01*
X0153478Y0191817D01*
X0153518Y0191790D01*
X0153560Y0191767D01*
X0153603Y0191747D01*
X0153648Y0191730D01*
X0153694Y0191717D01*
X0153741Y0191708D01*
X0153789Y0191702D01*
X0153837Y0191700D01*
X0153885Y0191702D01*
X0153933Y0191708D01*
X0153980Y0191717D01*
X0154026Y0191730D01*
X0154071Y0191747D01*
X0154114Y0191767D01*
X0154156Y0191790D01*
X0154196Y0191817D01*
X0154234Y0191846D01*
X0154269Y0191879D01*
X0154302Y0191914D01*
X0154331Y0191952D01*
X0154358Y0191992D01*
X0154381Y0192034D01*
X0154401Y0192077D01*
X0154418Y0192122D01*
X0154431Y0192168D01*
X0154440Y0192215D01*
X0154446Y0192263D01*
X0154448Y0192311D01*
X0155766Y0193900D02*
X0155809Y0193898D01*
X0155851Y0193893D01*
X0155893Y0193883D01*
X0155933Y0193871D01*
X0155973Y0193854D01*
X0156011Y0193834D01*
X0156046Y0193812D01*
X0156080Y0193786D01*
X0156112Y0193757D01*
X0156141Y0193725D01*
X0156167Y0193691D01*
X0156189Y0193656D01*
X0156209Y0193618D01*
X0156226Y0193578D01*
X0156238Y0193538D01*
X0156248Y0193496D01*
X0156253Y0193454D01*
X0156255Y0193411D01*
X0155766Y0193900D02*
X0155277Y0193900D01*
X0146456Y0193900D02*
X0146456Y0191700D01*
X0145234Y0193900D01*
X0145234Y0191700D01*
X0144231Y0192189D02*
X0144231Y0193411D01*
X0144229Y0193454D01*
X0144224Y0193496D01*
X0144214Y0193538D01*
X0144202Y0193578D01*
X0144185Y0193618D01*
X0144165Y0193656D01*
X0144143Y0193691D01*
X0144117Y0193725D01*
X0144088Y0193757D01*
X0144056Y0193786D01*
X0144022Y0193812D01*
X0143987Y0193834D01*
X0143949Y0193854D01*
X0143909Y0193871D01*
X0143869Y0193883D01*
X0143827Y0193893D01*
X0143785Y0193898D01*
X0143742Y0193900D01*
X0143253Y0193900D01*
X0144231Y0192189D02*
X0144229Y0192146D01*
X0144224Y0192104D01*
X0144214Y0192062D01*
X0144202Y0192022D01*
X0144185Y0191982D01*
X0144165Y0191945D01*
X0144143Y0191909D01*
X0144117Y0191875D01*
X0144088Y0191843D01*
X0144056Y0191814D01*
X0144022Y0191788D01*
X0143987Y0191766D01*
X0143949Y0191746D01*
X0143909Y0191729D01*
X0143869Y0191717D01*
X0143827Y0191707D01*
X0143785Y0191702D01*
X0143742Y0191700D01*
X0143253Y0191700D01*
X0131400Y0191700D02*
X0130178Y0193900D01*
X0130178Y0191700D01*
X0129168Y0192311D02*
X0129168Y0193289D01*
X0129166Y0193337D01*
X0129160Y0193385D01*
X0129151Y0193432D01*
X0129138Y0193478D01*
X0129121Y0193523D01*
X0129101Y0193566D01*
X0129078Y0193608D01*
X0129051Y0193648D01*
X0129022Y0193686D01*
X0128989Y0193721D01*
X0128954Y0193754D01*
X0128916Y0193783D01*
X0128876Y0193810D01*
X0128834Y0193833D01*
X0128791Y0193853D01*
X0128746Y0193870D01*
X0128700Y0193883D01*
X0128653Y0193892D01*
X0128605Y0193898D01*
X0128557Y0193900D01*
X0128509Y0193898D01*
X0128461Y0193892D01*
X0128414Y0193883D01*
X0128368Y0193870D01*
X0128323Y0193853D01*
X0128280Y0193833D01*
X0128238Y0193810D01*
X0128198Y0193783D01*
X0128160Y0193754D01*
X0128125Y0193721D01*
X0128092Y0193686D01*
X0128063Y0193648D01*
X0128036Y0193608D01*
X0128013Y0193566D01*
X0127993Y0193523D01*
X0127976Y0193478D01*
X0127963Y0193432D01*
X0127954Y0193385D01*
X0127948Y0193337D01*
X0127946Y0193289D01*
X0127946Y0192311D01*
X0127948Y0192263D01*
X0127954Y0192215D01*
X0127963Y0192168D01*
X0127976Y0192122D01*
X0127993Y0192077D01*
X0128013Y0192034D01*
X0128036Y0191992D01*
X0128063Y0191952D01*
X0128092Y0191914D01*
X0128125Y0191879D01*
X0128160Y0191846D01*
X0128198Y0191817D01*
X0128238Y0191790D01*
X0128280Y0191767D01*
X0128323Y0191747D01*
X0128368Y0191730D01*
X0128414Y0191717D01*
X0128461Y0191708D01*
X0128509Y0191702D01*
X0128557Y0191700D01*
X0128605Y0191702D01*
X0128653Y0191708D01*
X0128700Y0191717D01*
X0128746Y0191730D01*
X0128791Y0191747D01*
X0128834Y0191767D01*
X0128876Y0191790D01*
X0128916Y0191817D01*
X0128954Y0191846D01*
X0128989Y0191879D01*
X0129022Y0191914D01*
X0129051Y0191952D01*
X0129078Y0191992D01*
X0129101Y0192034D01*
X0129121Y0192077D01*
X0129138Y0192122D01*
X0129151Y0192168D01*
X0129160Y0192215D01*
X0129166Y0192263D01*
X0129168Y0192311D01*
X0131400Y0191700D02*
X0131400Y0193900D01*
X0121255Y0193411D02*
X0121255Y0192189D01*
X0121253Y0192146D01*
X0121248Y0192104D01*
X0121238Y0192062D01*
X0121226Y0192022D01*
X0121209Y0191982D01*
X0121189Y0191945D01*
X0121167Y0191909D01*
X0121141Y0191875D01*
X0121112Y0191843D01*
X0121080Y0191814D01*
X0121046Y0191788D01*
X0121011Y0191766D01*
X0120973Y0191746D01*
X0120933Y0191729D01*
X0120893Y0191717D01*
X0120851Y0191707D01*
X0120809Y0191702D01*
X0120766Y0191700D01*
X0120277Y0191700D01*
X0119448Y0192311D02*
X0119448Y0193289D01*
X0119446Y0193337D01*
X0119440Y0193385D01*
X0119431Y0193432D01*
X0119418Y0193478D01*
X0119401Y0193523D01*
X0119381Y0193566D01*
X0119358Y0193608D01*
X0119331Y0193648D01*
X0119302Y0193686D01*
X0119269Y0193721D01*
X0119234Y0193754D01*
X0119196Y0193783D01*
X0119156Y0193810D01*
X0119114Y0193833D01*
X0119071Y0193853D01*
X0119026Y0193870D01*
X0118980Y0193883D01*
X0118933Y0193892D01*
X0118885Y0193898D01*
X0118837Y0193900D01*
X0118789Y0193898D01*
X0118741Y0193892D01*
X0118694Y0193883D01*
X0118648Y0193870D01*
X0118603Y0193853D01*
X0118560Y0193833D01*
X0118518Y0193810D01*
X0118478Y0193783D01*
X0118440Y0193754D01*
X0118405Y0193721D01*
X0118372Y0193686D01*
X0118343Y0193648D01*
X0118316Y0193608D01*
X0118293Y0193566D01*
X0118273Y0193523D01*
X0118256Y0193478D01*
X0118243Y0193432D01*
X0118234Y0193385D01*
X0118228Y0193337D01*
X0118226Y0193289D01*
X0118226Y0192311D01*
X0118228Y0192263D01*
X0118234Y0192215D01*
X0118243Y0192168D01*
X0118256Y0192122D01*
X0118273Y0192077D01*
X0118293Y0192034D01*
X0118316Y0191992D01*
X0118343Y0191952D01*
X0118372Y0191914D01*
X0118405Y0191879D01*
X0118440Y0191846D01*
X0118478Y0191817D01*
X0118518Y0191790D01*
X0118560Y0191767D01*
X0118603Y0191747D01*
X0118648Y0191730D01*
X0118694Y0191717D01*
X0118741Y0191708D01*
X0118789Y0191702D01*
X0118837Y0191700D01*
X0118885Y0191702D01*
X0118933Y0191708D01*
X0118980Y0191717D01*
X0119026Y0191730D01*
X0119071Y0191747D01*
X0119114Y0191767D01*
X0119156Y0191790D01*
X0119196Y0191817D01*
X0119234Y0191846D01*
X0119269Y0191879D01*
X0119302Y0191914D01*
X0119331Y0191952D01*
X0119358Y0191992D01*
X0119381Y0192034D01*
X0119401Y0192077D01*
X0119418Y0192122D01*
X0119431Y0192168D01*
X0119440Y0192215D01*
X0119446Y0192263D01*
X0119448Y0192311D01*
X0120766Y0193900D02*
X0120809Y0193898D01*
X0120851Y0193893D01*
X0120893Y0193883D01*
X0120933Y0193871D01*
X0120973Y0193854D01*
X0121011Y0193834D01*
X0121046Y0193812D01*
X0121080Y0193786D01*
X0121112Y0193757D01*
X0121141Y0193725D01*
X0121167Y0193691D01*
X0121189Y0193656D01*
X0121209Y0193618D01*
X0121226Y0193578D01*
X0121238Y0193538D01*
X0121248Y0193496D01*
X0121253Y0193454D01*
X0121255Y0193411D01*
X0120766Y0193900D02*
X0120277Y0193900D01*
X0111456Y0193900D02*
X0111456Y0191700D01*
X0110234Y0193900D01*
X0110234Y0191700D01*
X0109231Y0192189D02*
X0109231Y0193411D01*
X0109229Y0193454D01*
X0109224Y0193496D01*
X0109214Y0193538D01*
X0109202Y0193578D01*
X0109185Y0193618D01*
X0109165Y0193656D01*
X0109143Y0193691D01*
X0109117Y0193725D01*
X0109088Y0193757D01*
X0109056Y0193786D01*
X0109022Y0193812D01*
X0108987Y0193834D01*
X0108949Y0193854D01*
X0108909Y0193871D01*
X0108869Y0193883D01*
X0108827Y0193893D01*
X0108785Y0193898D01*
X0108742Y0193900D01*
X0108253Y0193900D01*
X0109231Y0192189D02*
X0109229Y0192146D01*
X0109224Y0192104D01*
X0109214Y0192062D01*
X0109202Y0192022D01*
X0109185Y0191982D01*
X0109165Y0191945D01*
X0109143Y0191909D01*
X0109117Y0191875D01*
X0109088Y0191843D01*
X0109056Y0191814D01*
X0109022Y0191788D01*
X0108987Y0191766D01*
X0108949Y0191746D01*
X0108909Y0191729D01*
X0108869Y0191717D01*
X0108827Y0191707D01*
X0108785Y0191702D01*
X0108742Y0191700D01*
X0108253Y0191700D01*
X0101400Y0191700D02*
X0100178Y0193900D01*
X0100178Y0191700D01*
X0099168Y0192311D02*
X0099168Y0193289D01*
X0099166Y0193337D01*
X0099160Y0193385D01*
X0099151Y0193432D01*
X0099138Y0193478D01*
X0099121Y0193523D01*
X0099101Y0193566D01*
X0099078Y0193608D01*
X0099051Y0193648D01*
X0099022Y0193686D01*
X0098989Y0193721D01*
X0098954Y0193754D01*
X0098916Y0193783D01*
X0098876Y0193810D01*
X0098834Y0193833D01*
X0098791Y0193853D01*
X0098746Y0193870D01*
X0098700Y0193883D01*
X0098653Y0193892D01*
X0098605Y0193898D01*
X0098557Y0193900D01*
X0098509Y0193898D01*
X0098461Y0193892D01*
X0098414Y0193883D01*
X0098368Y0193870D01*
X0098323Y0193853D01*
X0098280Y0193833D01*
X0098238Y0193810D01*
X0098198Y0193783D01*
X0098160Y0193754D01*
X0098125Y0193721D01*
X0098092Y0193686D01*
X0098063Y0193648D01*
X0098036Y0193608D01*
X0098013Y0193566D01*
X0097993Y0193523D01*
X0097976Y0193478D01*
X0097963Y0193432D01*
X0097954Y0193385D01*
X0097948Y0193337D01*
X0097946Y0193289D01*
X0097946Y0192311D01*
X0097948Y0192263D01*
X0097954Y0192215D01*
X0097963Y0192168D01*
X0097976Y0192122D01*
X0097993Y0192077D01*
X0098013Y0192034D01*
X0098036Y0191992D01*
X0098063Y0191952D01*
X0098092Y0191914D01*
X0098125Y0191879D01*
X0098160Y0191846D01*
X0098198Y0191817D01*
X0098238Y0191790D01*
X0098280Y0191767D01*
X0098323Y0191747D01*
X0098368Y0191730D01*
X0098414Y0191717D01*
X0098461Y0191708D01*
X0098509Y0191702D01*
X0098557Y0191700D01*
X0098605Y0191702D01*
X0098653Y0191708D01*
X0098700Y0191717D01*
X0098746Y0191730D01*
X0098791Y0191747D01*
X0098834Y0191767D01*
X0098876Y0191790D01*
X0098916Y0191817D01*
X0098954Y0191846D01*
X0098989Y0191879D01*
X0099022Y0191914D01*
X0099051Y0191952D01*
X0099078Y0191992D01*
X0099101Y0192034D01*
X0099121Y0192077D01*
X0099138Y0192122D01*
X0099151Y0192168D01*
X0099160Y0192215D01*
X0099166Y0192263D01*
X0099168Y0192311D01*
X0101400Y0191700D02*
X0101400Y0193900D01*
X0091255Y0193411D02*
X0091255Y0192189D01*
X0091253Y0192146D01*
X0091248Y0192104D01*
X0091238Y0192062D01*
X0091226Y0192022D01*
X0091209Y0191982D01*
X0091189Y0191945D01*
X0091167Y0191909D01*
X0091141Y0191875D01*
X0091112Y0191843D01*
X0091080Y0191814D01*
X0091046Y0191788D01*
X0091011Y0191766D01*
X0090973Y0191746D01*
X0090933Y0191729D01*
X0090893Y0191717D01*
X0090851Y0191707D01*
X0090809Y0191702D01*
X0090766Y0191700D01*
X0090277Y0191700D01*
X0089448Y0192311D02*
X0089448Y0193289D01*
X0089446Y0193337D01*
X0089440Y0193385D01*
X0089431Y0193432D01*
X0089418Y0193478D01*
X0089401Y0193523D01*
X0089381Y0193566D01*
X0089358Y0193608D01*
X0089331Y0193648D01*
X0089302Y0193686D01*
X0089269Y0193721D01*
X0089234Y0193754D01*
X0089196Y0193783D01*
X0089156Y0193810D01*
X0089114Y0193833D01*
X0089071Y0193853D01*
X0089026Y0193870D01*
X0088980Y0193883D01*
X0088933Y0193892D01*
X0088885Y0193898D01*
X0088837Y0193900D01*
X0088789Y0193898D01*
X0088741Y0193892D01*
X0088694Y0193883D01*
X0088648Y0193870D01*
X0088603Y0193853D01*
X0088560Y0193833D01*
X0088518Y0193810D01*
X0088478Y0193783D01*
X0088440Y0193754D01*
X0088405Y0193721D01*
X0088372Y0193686D01*
X0088343Y0193648D01*
X0088316Y0193608D01*
X0088293Y0193566D01*
X0088273Y0193523D01*
X0088256Y0193478D01*
X0088243Y0193432D01*
X0088234Y0193385D01*
X0088228Y0193337D01*
X0088226Y0193289D01*
X0088226Y0192311D01*
X0088228Y0192263D01*
X0088234Y0192215D01*
X0088243Y0192168D01*
X0088256Y0192122D01*
X0088273Y0192077D01*
X0088293Y0192034D01*
X0088316Y0191992D01*
X0088343Y0191952D01*
X0088372Y0191914D01*
X0088405Y0191879D01*
X0088440Y0191846D01*
X0088478Y0191817D01*
X0088518Y0191790D01*
X0088560Y0191767D01*
X0088603Y0191747D01*
X0088648Y0191730D01*
X0088694Y0191717D01*
X0088741Y0191708D01*
X0088789Y0191702D01*
X0088837Y0191700D01*
X0088885Y0191702D01*
X0088933Y0191708D01*
X0088980Y0191717D01*
X0089026Y0191730D01*
X0089071Y0191747D01*
X0089114Y0191767D01*
X0089156Y0191790D01*
X0089196Y0191817D01*
X0089234Y0191846D01*
X0089269Y0191879D01*
X0089302Y0191914D01*
X0089331Y0191952D01*
X0089358Y0191992D01*
X0089381Y0192034D01*
X0089401Y0192077D01*
X0089418Y0192122D01*
X0089431Y0192168D01*
X0089440Y0192215D01*
X0089446Y0192263D01*
X0089448Y0192311D01*
X0090766Y0193900D02*
X0090809Y0193898D01*
X0090851Y0193893D01*
X0090893Y0193883D01*
X0090933Y0193871D01*
X0090973Y0193854D01*
X0091011Y0193834D01*
X0091046Y0193812D01*
X0091080Y0193786D01*
X0091112Y0193757D01*
X0091141Y0193725D01*
X0091167Y0193691D01*
X0091189Y0193656D01*
X0091209Y0193618D01*
X0091226Y0193578D01*
X0091238Y0193538D01*
X0091248Y0193496D01*
X0091253Y0193454D01*
X0091255Y0193411D01*
X0090766Y0193900D02*
X0090277Y0193900D01*
X0081456Y0193900D02*
X0081456Y0191700D01*
X0080234Y0193900D01*
X0080234Y0191700D01*
X0079231Y0192189D02*
X0079231Y0193411D01*
X0079229Y0193454D01*
X0079224Y0193496D01*
X0079214Y0193538D01*
X0079202Y0193578D01*
X0079185Y0193618D01*
X0079165Y0193656D01*
X0079143Y0193691D01*
X0079117Y0193725D01*
X0079088Y0193757D01*
X0079056Y0193786D01*
X0079022Y0193812D01*
X0078987Y0193834D01*
X0078949Y0193854D01*
X0078909Y0193871D01*
X0078869Y0193883D01*
X0078827Y0193893D01*
X0078785Y0193898D01*
X0078742Y0193900D01*
X0078253Y0193900D01*
X0079231Y0192189D02*
X0079229Y0192146D01*
X0079224Y0192104D01*
X0079214Y0192062D01*
X0079202Y0192022D01*
X0079185Y0191982D01*
X0079165Y0191945D01*
X0079143Y0191909D01*
X0079117Y0191875D01*
X0079088Y0191843D01*
X0079056Y0191814D01*
X0079022Y0191788D01*
X0078987Y0191766D01*
X0078949Y0191746D01*
X0078909Y0191729D01*
X0078869Y0191717D01*
X0078827Y0191707D01*
X0078785Y0191702D01*
X0078742Y0191700D01*
X0078253Y0191700D01*
X0041400Y0216700D02*
X0040789Y0216700D01*
X0041400Y0216700D02*
X0041400Y0218900D01*
X0041400Y0217922D02*
X0040789Y0217922D01*
X0040667Y0217922D02*
X0040178Y0218900D01*
X0039249Y0218533D02*
X0039249Y0216700D01*
X0038196Y0217433D02*
X0037707Y0218900D01*
X0037952Y0219633D02*
X0037218Y0217433D01*
X0036374Y0217189D02*
X0035763Y0216700D01*
X0035763Y0218900D01*
X0036374Y0218900D02*
X0035152Y0218900D01*
X0033184Y0218900D02*
X0032451Y0216700D01*
X0031718Y0218900D01*
X0031901Y0218350D02*
X0033001Y0218350D01*
X0029646Y0218900D02*
X0029646Y0216700D01*
X0029035Y0216700D01*
X0028992Y0216702D01*
X0028950Y0216707D01*
X0028908Y0216717D01*
X0028868Y0216729D01*
X0028828Y0216746D01*
X0028791Y0216766D01*
X0028755Y0216788D01*
X0028721Y0216814D01*
X0028689Y0216843D01*
X0028660Y0216875D01*
X0028634Y0216909D01*
X0028612Y0216945D01*
X0028592Y0216982D01*
X0028575Y0217022D01*
X0028563Y0217062D01*
X0028553Y0217104D01*
X0028548Y0217146D01*
X0028546Y0217189D01*
X0028548Y0217232D01*
X0028553Y0217274D01*
X0028563Y0217316D01*
X0028575Y0217356D01*
X0028592Y0217396D01*
X0028612Y0217434D01*
X0028634Y0217469D01*
X0028660Y0217503D01*
X0028689Y0217535D01*
X0028721Y0217564D01*
X0028755Y0217590D01*
X0028791Y0217612D01*
X0028828Y0217632D01*
X0028868Y0217649D01*
X0028908Y0217661D01*
X0028950Y0217671D01*
X0028992Y0217676D01*
X0029035Y0217678D01*
X0029646Y0217678D01*
X0029035Y0217678D02*
X0028987Y0217680D01*
X0028939Y0217686D01*
X0028892Y0217695D01*
X0028846Y0217708D01*
X0028801Y0217725D01*
X0028758Y0217745D01*
X0028716Y0217768D01*
X0028676Y0217795D01*
X0028638Y0217824D01*
X0028603Y0217857D01*
X0028570Y0217892D01*
X0028541Y0217930D01*
X0028514Y0217970D01*
X0028491Y0218012D01*
X0028471Y0218055D01*
X0028454Y0218100D01*
X0028441Y0218146D01*
X0028432Y0218193D01*
X0028426Y0218241D01*
X0028424Y0218289D01*
X0028426Y0218337D01*
X0028432Y0218385D01*
X0028441Y0218432D01*
X0028454Y0218478D01*
X0028471Y0218523D01*
X0028491Y0218566D01*
X0028514Y0218608D01*
X0028541Y0218648D01*
X0028570Y0218686D01*
X0028603Y0218721D01*
X0028638Y0218754D01*
X0028676Y0218783D01*
X0028716Y0218810D01*
X0028758Y0218833D01*
X0028801Y0218853D01*
X0028846Y0218870D01*
X0028892Y0218883D01*
X0028939Y0218892D01*
X0028987Y0218898D01*
X0029035Y0218900D01*
X0029646Y0218900D01*
X0026352Y0218900D02*
X0026352Y0216700D01*
X0025741Y0216700D01*
X0025693Y0216702D01*
X0025645Y0216708D01*
X0025598Y0216717D01*
X0025552Y0216730D01*
X0025507Y0216747D01*
X0025464Y0216767D01*
X0025422Y0216790D01*
X0025382Y0216817D01*
X0025344Y0216846D01*
X0025309Y0216879D01*
X0025276Y0216914D01*
X0025247Y0216952D01*
X0025220Y0216992D01*
X0025197Y0217034D01*
X0025177Y0217077D01*
X0025160Y0217122D01*
X0025147Y0217168D01*
X0025138Y0217215D01*
X0025132Y0217263D01*
X0025130Y0217311D01*
X0025132Y0217359D01*
X0025138Y0217407D01*
X0025147Y0217454D01*
X0025160Y0217500D01*
X0025177Y0217545D01*
X0025197Y0217588D01*
X0025220Y0217630D01*
X0025247Y0217670D01*
X0025276Y0217708D01*
X0025309Y0217743D01*
X0025344Y0217776D01*
X0025382Y0217805D01*
X0025422Y0217832D01*
X0025464Y0217855D01*
X0025507Y0217875D01*
X0025552Y0217892D01*
X0025598Y0217905D01*
X0025645Y0217914D01*
X0025693Y0217920D01*
X0025741Y0217922D01*
X0026352Y0217922D01*
X0025619Y0217922D02*
X0025130Y0218900D01*
X0024201Y0218533D02*
X0024201Y0216700D01*
X0023148Y0217433D02*
X0022659Y0218900D01*
X0022904Y0219633D02*
X0022170Y0217433D01*
X0020287Y0217678D02*
X0020254Y0217644D01*
X0020224Y0217607D01*
X0020196Y0217567D01*
X0020172Y0217526D01*
X0020152Y0217483D01*
X0020135Y0217438D01*
X0020121Y0217392D01*
X0020112Y0217345D01*
X0020106Y0217298D01*
X0020104Y0217250D01*
X0020287Y0217678D02*
X0021326Y0218900D01*
X0020104Y0218900D01*
X0021327Y0217189D02*
X0021309Y0217140D01*
X0021287Y0217092D01*
X0021262Y0217046D01*
X0021234Y0217003D01*
X0021202Y0216961D01*
X0021168Y0216921D01*
X0021131Y0216885D01*
X0021091Y0216851D01*
X0021048Y0216820D01*
X0021004Y0216793D01*
X0020958Y0216769D01*
X0020910Y0216748D01*
X0020860Y0216731D01*
X0020810Y0216717D01*
X0020758Y0216708D01*
X0020706Y0216702D01*
X0020654Y0216700D01*
X0020609Y0216702D01*
X0020563Y0216708D01*
X0020519Y0216717D01*
X0020475Y0216730D01*
X0020433Y0216746D01*
X0020392Y0216766D01*
X0020353Y0216790D01*
X0020316Y0216816D01*
X0020281Y0216845D01*
X0020249Y0216877D01*
X0020220Y0216912D01*
X0020194Y0216949D01*
X0020170Y0216988D01*
X0020150Y0217029D01*
X0020134Y0217071D01*
X0020121Y0217115D01*
X0020112Y0217159D01*
X0020106Y0217205D01*
X0020104Y0217250D01*
X0017953Y0218350D02*
X0016853Y0218350D01*
X0016670Y0218900D02*
X0017403Y0216700D01*
X0018137Y0218900D01*
X0014598Y0218900D02*
X0014598Y0216700D01*
X0013987Y0216700D01*
X0013944Y0216702D01*
X0013902Y0216707D01*
X0013860Y0216717D01*
X0013820Y0216729D01*
X0013780Y0216746D01*
X0013742Y0216766D01*
X0013707Y0216788D01*
X0013673Y0216814D01*
X0013641Y0216843D01*
X0013612Y0216875D01*
X0013586Y0216909D01*
X0013564Y0216945D01*
X0013544Y0216982D01*
X0013527Y0217022D01*
X0013515Y0217062D01*
X0013505Y0217104D01*
X0013500Y0217146D01*
X0013498Y0217189D01*
X0013500Y0217232D01*
X0013505Y0217274D01*
X0013515Y0217316D01*
X0013527Y0217356D01*
X0013544Y0217396D01*
X0013564Y0217434D01*
X0013586Y0217469D01*
X0013612Y0217503D01*
X0013641Y0217535D01*
X0013673Y0217564D01*
X0013707Y0217590D01*
X0013743Y0217612D01*
X0013780Y0217632D01*
X0013820Y0217649D01*
X0013860Y0217661D01*
X0013902Y0217671D01*
X0013944Y0217676D01*
X0013987Y0217678D01*
X0014598Y0217678D01*
X0013987Y0217678D02*
X0013939Y0217680D01*
X0013891Y0217686D01*
X0013844Y0217695D01*
X0013798Y0217708D01*
X0013753Y0217725D01*
X0013710Y0217745D01*
X0013668Y0217768D01*
X0013628Y0217795D01*
X0013590Y0217824D01*
X0013555Y0217857D01*
X0013522Y0217892D01*
X0013493Y0217930D01*
X0013466Y0217970D01*
X0013443Y0218012D01*
X0013423Y0218055D01*
X0013406Y0218100D01*
X0013393Y0218146D01*
X0013384Y0218193D01*
X0013378Y0218241D01*
X0013376Y0218289D01*
X0013378Y0218337D01*
X0013384Y0218385D01*
X0013393Y0218432D01*
X0013406Y0218478D01*
X0013423Y0218523D01*
X0013443Y0218566D01*
X0013466Y0218608D01*
X0013493Y0218648D01*
X0013522Y0218686D01*
X0013555Y0218721D01*
X0013590Y0218754D01*
X0013628Y0218783D01*
X0013668Y0218810D01*
X0013710Y0218833D01*
X0013753Y0218853D01*
X0013798Y0218870D01*
X0013844Y0218883D01*
X0013891Y0218892D01*
X0013939Y0218898D01*
X0013987Y0218900D01*
X0014598Y0218900D01*
X0011397Y0218411D02*
X0011397Y0217189D01*
X0011395Y0217146D01*
X0011390Y0217104D01*
X0011380Y0217062D01*
X0011368Y0217022D01*
X0011351Y0216982D01*
X0011331Y0216945D01*
X0011309Y0216909D01*
X0011283Y0216875D01*
X0011254Y0216843D01*
X0011222Y0216814D01*
X0011188Y0216788D01*
X0011153Y0216766D01*
X0011115Y0216746D01*
X0011075Y0216729D01*
X0011035Y0216717D01*
X0010993Y0216707D01*
X0010951Y0216702D01*
X0010908Y0216700D01*
X0010419Y0216700D01*
X0009601Y0217189D02*
X0009599Y0217146D01*
X0009594Y0217104D01*
X0009584Y0217062D01*
X0009572Y0217022D01*
X0009555Y0216982D01*
X0009535Y0216945D01*
X0009513Y0216909D01*
X0009487Y0216875D01*
X0009458Y0216843D01*
X0009426Y0216814D01*
X0009392Y0216788D01*
X0009357Y0216766D01*
X0009319Y0216746D01*
X0009279Y0216729D01*
X0009239Y0216717D01*
X0009197Y0216707D01*
X0009155Y0216702D01*
X0009112Y0216700D01*
X0009602Y0217189D02*
X0009600Y0217232D01*
X0009595Y0217275D01*
X0009585Y0217317D01*
X0009573Y0217358D01*
X0009556Y0217397D01*
X0009537Y0217436D01*
X0009514Y0217472D01*
X0009488Y0217506D01*
X0009459Y0217538D01*
X0009427Y0217567D01*
X0009393Y0217594D01*
X0009357Y0217617D01*
X0008685Y0217983D01*
X0008929Y0218900D02*
X0008992Y0218898D01*
X0009054Y0218892D01*
X0009116Y0218883D01*
X0009178Y0218870D01*
X0009238Y0218853D01*
X0009297Y0218832D01*
X0009355Y0218808D01*
X0009411Y0218780D01*
X0009466Y0218749D01*
X0009519Y0218715D01*
X0009569Y0218678D01*
X0009617Y0218638D01*
X0009662Y0218594D01*
X0008685Y0217983D02*
X0008649Y0218006D01*
X0008615Y0218033D01*
X0008583Y0218062D01*
X0008554Y0218094D01*
X0008528Y0218128D01*
X0008505Y0218164D01*
X0008486Y0218203D01*
X0008469Y0218242D01*
X0008457Y0218283D01*
X0008447Y0218325D01*
X0008442Y0218368D01*
X0008440Y0218411D01*
X0008442Y0218454D01*
X0008447Y0218496D01*
X0008457Y0218538D01*
X0008469Y0218578D01*
X0008486Y0218618D01*
X0008506Y0218656D01*
X0008528Y0218691D01*
X0008554Y0218725D01*
X0008583Y0218757D01*
X0008615Y0218786D01*
X0008649Y0218812D01*
X0008685Y0218834D01*
X0008722Y0218854D01*
X0008762Y0218871D01*
X0008802Y0218883D01*
X0008844Y0218893D01*
X0008886Y0218898D01*
X0008929Y0218900D01*
X0008562Y0216883D02*
X0008610Y0216850D01*
X0008660Y0216819D01*
X0008713Y0216791D01*
X0008767Y0216768D01*
X0008822Y0216747D01*
X0008879Y0216730D01*
X0008936Y0216717D01*
X0008994Y0216708D01*
X0009053Y0216702D01*
X0009112Y0216700D01*
X0010908Y0218900D02*
X0010951Y0218898D01*
X0010993Y0218893D01*
X0011035Y0218883D01*
X0011075Y0218871D01*
X0011115Y0218854D01*
X0011153Y0218834D01*
X0011188Y0218812D01*
X0011222Y0218786D01*
X0011254Y0218757D01*
X0011283Y0218725D01*
X0011309Y0218691D01*
X0011331Y0218656D01*
X0011351Y0218618D01*
X0011368Y0218578D01*
X0011380Y0218538D01*
X0011390Y0218496D01*
X0011395Y0218454D01*
X0011397Y0218411D01*
X0010908Y0218900D02*
X0010419Y0218900D01*
X0022904Y0219633D02*
X0023148Y0219633D01*
X0023834Y0218900D02*
X0023870Y0218898D01*
X0023906Y0218893D01*
X0023941Y0218884D01*
X0023974Y0218872D01*
X0024007Y0218857D01*
X0024038Y0218838D01*
X0024067Y0218817D01*
X0024094Y0218793D01*
X0024118Y0218766D01*
X0024139Y0218737D01*
X0024158Y0218706D01*
X0024173Y0218673D01*
X0024185Y0218640D01*
X0024194Y0218605D01*
X0024199Y0218569D01*
X0024201Y0218533D01*
X0037952Y0219633D02*
X0038196Y0219633D01*
X0038882Y0218900D02*
X0038918Y0218898D01*
X0038954Y0218893D01*
X0038989Y0218884D01*
X0039022Y0218872D01*
X0039055Y0218857D01*
X0039086Y0218838D01*
X0039115Y0218817D01*
X0039142Y0218793D01*
X0039166Y0218766D01*
X0039187Y0218737D01*
X0039206Y0218706D01*
X0039221Y0218673D01*
X0039233Y0218640D01*
X0039242Y0218605D01*
X0039247Y0218569D01*
X0039249Y0218533D01*
X0040789Y0217922D02*
X0040741Y0217920D01*
X0040693Y0217914D01*
X0040646Y0217905D01*
X0040600Y0217892D01*
X0040555Y0217875D01*
X0040512Y0217855D01*
X0040470Y0217832D01*
X0040430Y0217805D01*
X0040392Y0217776D01*
X0040357Y0217743D01*
X0040324Y0217708D01*
X0040295Y0217670D01*
X0040268Y0217630D01*
X0040245Y0217588D01*
X0040225Y0217545D01*
X0040208Y0217500D01*
X0040195Y0217454D01*
X0040186Y0217407D01*
X0040180Y0217359D01*
X0040178Y0217311D01*
X0040180Y0217263D01*
X0040186Y0217215D01*
X0040195Y0217168D01*
X0040208Y0217122D01*
X0040225Y0217077D01*
X0040245Y0217034D01*
X0040268Y0216992D01*
X0040295Y0216952D01*
X0040324Y0216914D01*
X0040357Y0216879D01*
X0040392Y0216846D01*
X0040430Y0216817D01*
X0040470Y0216790D01*
X0040512Y0216767D01*
X0040555Y0216747D01*
X0040600Y0216730D01*
X0040646Y0216717D01*
X0040693Y0216708D01*
X0040741Y0216702D01*
X0040789Y0216700D01*
D11*
X0040883Y0198350D02*
X0039917Y0195450D01*
X0041850Y0195450D02*
X0040883Y0198350D01*
X0038778Y0197222D02*
X0036845Y0197222D01*
X0066845Y0197222D02*
X0068778Y0197222D01*
X0067811Y0196256D02*
X0067811Y0198189D01*
X0070883Y0198350D02*
X0069917Y0195450D01*
X0071850Y0195450D02*
X0070883Y0198350D01*
D12*
X0063400Y0178800D02*
X0059200Y0178800D01*
X0056800Y0178800D01*
X0052600Y0178800D01*
X0047756Y0180488D02*
X0042244Y0180488D01*
X0042244Y0191512D02*
X0047756Y0191512D01*
X0019000Y0186000D02*
X0019002Y0186063D01*
X0019008Y0186125D01*
X0019018Y0186187D01*
X0019031Y0186249D01*
X0019049Y0186309D01*
X0019070Y0186368D01*
X0019095Y0186426D01*
X0019124Y0186482D01*
X0019156Y0186536D01*
X0019191Y0186588D01*
X0019229Y0186637D01*
X0019271Y0186685D01*
X0019315Y0186729D01*
X0019363Y0186771D01*
X0019412Y0186809D01*
X0019464Y0186844D01*
X0019518Y0186876D01*
X0019574Y0186905D01*
X0019632Y0186930D01*
X0019691Y0186951D01*
X0019751Y0186969D01*
X0019813Y0186982D01*
X0019875Y0186992D01*
X0019937Y0186998D01*
X0020000Y0187000D01*
X0020063Y0186998D01*
X0020125Y0186992D01*
X0020187Y0186982D01*
X0020249Y0186969D01*
X0020309Y0186951D01*
X0020368Y0186930D01*
X0020426Y0186905D01*
X0020482Y0186876D01*
X0020536Y0186844D01*
X0020588Y0186809D01*
X0020637Y0186771D01*
X0020685Y0186729D01*
X0020729Y0186685D01*
X0020771Y0186637D01*
X0020809Y0186588D01*
X0020844Y0186536D01*
X0020876Y0186482D01*
X0020905Y0186426D01*
X0020930Y0186368D01*
X0020951Y0186309D01*
X0020969Y0186249D01*
X0020982Y0186187D01*
X0020992Y0186125D01*
X0020998Y0186063D01*
X0021000Y0186000D01*
X0020998Y0185937D01*
X0020992Y0185875D01*
X0020982Y0185813D01*
X0020969Y0185751D01*
X0020951Y0185691D01*
X0020930Y0185632D01*
X0020905Y0185574D01*
X0020876Y0185518D01*
X0020844Y0185464D01*
X0020809Y0185412D01*
X0020771Y0185363D01*
X0020729Y0185315D01*
X0020685Y0185271D01*
X0020637Y0185229D01*
X0020588Y0185191D01*
X0020536Y0185156D01*
X0020482Y0185124D01*
X0020426Y0185095D01*
X0020368Y0185070D01*
X0020309Y0185049D01*
X0020249Y0185031D01*
X0020187Y0185018D01*
X0020125Y0185008D01*
X0020063Y0185002D01*
X0020000Y0185000D01*
X0019937Y0185002D01*
X0019875Y0185008D01*
X0019813Y0185018D01*
X0019751Y0185031D01*
X0019691Y0185049D01*
X0019632Y0185070D01*
X0019574Y0185095D01*
X0019518Y0185124D01*
X0019464Y0185156D01*
X0019412Y0185191D01*
X0019363Y0185229D01*
X0019315Y0185271D01*
X0019271Y0185315D01*
X0019229Y0185363D01*
X0019191Y0185412D01*
X0019156Y0185464D01*
X0019124Y0185518D01*
X0019095Y0185574D01*
X0019070Y0185632D01*
X0019049Y0185691D01*
X0019031Y0185751D01*
X0019018Y0185813D01*
X0019008Y0185875D01*
X0019002Y0185937D01*
X0019000Y0186000D01*
X0017047Y0186000D02*
X0017049Y0186108D01*
X0017055Y0186217D01*
X0017065Y0186325D01*
X0017079Y0186432D01*
X0017097Y0186539D01*
X0017118Y0186646D01*
X0017144Y0186751D01*
X0017174Y0186856D01*
X0017207Y0186959D01*
X0017244Y0187061D01*
X0017285Y0187161D01*
X0017329Y0187260D01*
X0017378Y0187358D01*
X0017429Y0187453D01*
X0017484Y0187546D01*
X0017543Y0187638D01*
X0017605Y0187727D01*
X0017670Y0187814D01*
X0017738Y0187898D01*
X0017809Y0187980D01*
X0017883Y0188059D01*
X0017960Y0188135D01*
X0018040Y0188209D01*
X0018123Y0188279D01*
X0018208Y0188347D01*
X0018295Y0188411D01*
X0018385Y0188472D01*
X0018477Y0188530D01*
X0018571Y0188584D01*
X0018667Y0188635D01*
X0018764Y0188682D01*
X0018864Y0188726D01*
X0018965Y0188766D01*
X0019067Y0188802D01*
X0019170Y0188834D01*
X0019275Y0188863D01*
X0019381Y0188887D01*
X0019487Y0188908D01*
X0019594Y0188925D01*
X0019702Y0188938D01*
X0019810Y0188947D01*
X0019919Y0188952D01*
X0020027Y0188953D01*
X0020136Y0188950D01*
X0020244Y0188943D01*
X0020352Y0188932D01*
X0020459Y0188917D01*
X0020566Y0188898D01*
X0020672Y0188875D01*
X0020777Y0188849D01*
X0020882Y0188818D01*
X0020984Y0188784D01*
X0021086Y0188746D01*
X0021186Y0188704D01*
X0021285Y0188659D01*
X0021382Y0188610D01*
X0021476Y0188557D01*
X0021569Y0188501D01*
X0021660Y0188442D01*
X0021749Y0188379D01*
X0021835Y0188314D01*
X0021919Y0188245D01*
X0022000Y0188173D01*
X0022078Y0188098D01*
X0022154Y0188020D01*
X0022227Y0187939D01*
X0022297Y0187856D01*
X0022363Y0187771D01*
X0022427Y0187683D01*
X0022487Y0187592D01*
X0022544Y0187500D01*
X0022597Y0187405D01*
X0022647Y0187309D01*
X0022693Y0187211D01*
X0022736Y0187111D01*
X0022775Y0187010D01*
X0022810Y0186907D01*
X0022842Y0186804D01*
X0022869Y0186699D01*
X0022893Y0186593D01*
X0022913Y0186486D01*
X0022929Y0186379D01*
X0022941Y0186271D01*
X0022949Y0186163D01*
X0022953Y0186054D01*
X0022953Y0185946D01*
X0022949Y0185837D01*
X0022941Y0185729D01*
X0022929Y0185621D01*
X0022913Y0185514D01*
X0022893Y0185407D01*
X0022869Y0185301D01*
X0022842Y0185196D01*
X0022810Y0185093D01*
X0022775Y0184990D01*
X0022736Y0184889D01*
X0022693Y0184789D01*
X0022647Y0184691D01*
X0022597Y0184595D01*
X0022544Y0184500D01*
X0022487Y0184408D01*
X0022427Y0184317D01*
X0022363Y0184229D01*
X0022297Y0184144D01*
X0022227Y0184061D01*
X0022154Y0183980D01*
X0022078Y0183902D01*
X0022000Y0183827D01*
X0021919Y0183755D01*
X0021835Y0183686D01*
X0021749Y0183621D01*
X0021660Y0183558D01*
X0021569Y0183499D01*
X0021477Y0183443D01*
X0021382Y0183390D01*
X0021285Y0183341D01*
X0021186Y0183296D01*
X0021086Y0183254D01*
X0020984Y0183216D01*
X0020882Y0183182D01*
X0020777Y0183151D01*
X0020672Y0183125D01*
X0020566Y0183102D01*
X0020459Y0183083D01*
X0020352Y0183068D01*
X0020244Y0183057D01*
X0020136Y0183050D01*
X0020027Y0183047D01*
X0019919Y0183048D01*
X0019810Y0183053D01*
X0019702Y0183062D01*
X0019594Y0183075D01*
X0019487Y0183092D01*
X0019381Y0183113D01*
X0019275Y0183137D01*
X0019170Y0183166D01*
X0019067Y0183198D01*
X0018965Y0183234D01*
X0018864Y0183274D01*
X0018764Y0183318D01*
X0018667Y0183365D01*
X0018571Y0183416D01*
X0018477Y0183470D01*
X0018385Y0183528D01*
X0018295Y0183589D01*
X0018208Y0183653D01*
X0018123Y0183721D01*
X0018040Y0183791D01*
X0017960Y0183865D01*
X0017883Y0183941D01*
X0017809Y0184020D01*
X0017738Y0184102D01*
X0017670Y0184186D01*
X0017605Y0184273D01*
X0017543Y0184362D01*
X0017484Y0184454D01*
X0017429Y0184547D01*
X0017378Y0184642D01*
X0017329Y0184740D01*
X0017285Y0184839D01*
X0017244Y0184939D01*
X0017207Y0185041D01*
X0017174Y0185144D01*
X0017144Y0185249D01*
X0017118Y0185354D01*
X0017097Y0185461D01*
X0017079Y0185568D01*
X0017065Y0185675D01*
X0017055Y0185783D01*
X0017049Y0185892D01*
X0017047Y0186000D01*
X0052600Y0159200D02*
X0063400Y0159200D01*
X0067500Y0146000D02*
X0072500Y0146000D01*
X0075000Y0143500D01*
X0077500Y0146000D01*
X0082500Y0146000D01*
X0085000Y0143500D01*
X0087500Y0146000D01*
X0092500Y0146000D01*
X0095000Y0143500D01*
X0097500Y0146000D01*
X0102500Y0146000D01*
X0105000Y0143500D01*
X0107500Y0146000D01*
X0112500Y0146000D01*
X0115000Y0143500D01*
X0117500Y0146000D01*
X0122500Y0146000D01*
X0125000Y0143500D01*
X0127500Y0146000D01*
X0132500Y0146000D01*
X0135000Y0143500D01*
X0137500Y0146000D01*
X0142500Y0146000D01*
X0145000Y0143500D01*
X0147500Y0146000D01*
X0152500Y0146000D01*
X0155000Y0143500D01*
X0157500Y0146000D01*
X0162500Y0146000D01*
X0165000Y0143500D01*
X0167500Y0146000D01*
X0172500Y0146000D01*
X0175000Y0143500D01*
X0177500Y0146000D01*
X0182500Y0146000D01*
X0185000Y0143500D01*
X0185000Y0138500D01*
X0182500Y0136000D01*
X0177500Y0136000D01*
X0175000Y0138500D01*
X0172500Y0136000D01*
X0167500Y0136000D01*
X0165000Y0138500D01*
X0165000Y0143500D01*
X0165000Y0138500D02*
X0162500Y0136000D01*
X0157500Y0136000D01*
X0155000Y0138500D01*
X0152500Y0136000D01*
X0147500Y0136000D01*
X0145000Y0138500D01*
X0142500Y0136000D01*
X0137500Y0136000D01*
X0135000Y0138500D01*
X0135000Y0143500D01*
X0135000Y0138500D02*
X0132500Y0136000D01*
X0127500Y0136000D01*
X0125000Y0138500D01*
X0122500Y0136000D01*
X0117500Y0136000D01*
X0115000Y0138500D01*
X0112500Y0136000D01*
X0107500Y0136000D01*
X0105000Y0138500D01*
X0105000Y0143500D01*
X0105000Y0138500D02*
X0102500Y0136000D01*
X0097500Y0136000D01*
X0095000Y0138500D01*
X0092500Y0136000D01*
X0087500Y0136000D01*
X0085000Y0138500D01*
X0082500Y0136000D01*
X0077500Y0136000D01*
X0075000Y0138500D01*
X0072500Y0136000D01*
X0067500Y0136000D01*
X0065000Y0138500D01*
X0065000Y0143500D01*
X0067500Y0146000D01*
X0075000Y0143500D02*
X0075000Y0138500D01*
X0085000Y0138500D02*
X0085000Y0143500D01*
X0095000Y0143500D02*
X0095000Y0138500D01*
X0115000Y0138500D02*
X0115000Y0143500D01*
X0125000Y0143500D02*
X0125000Y0138500D01*
X0117500Y0131000D02*
X0132500Y0131000D01*
X0135000Y0128500D01*
X0135000Y0123500D01*
X0132500Y0121000D01*
X0117500Y0121000D01*
X0115000Y0118500D01*
X0115000Y0113500D01*
X0117500Y0111000D01*
X0132500Y0111000D01*
X0135000Y0108500D01*
X0135000Y0103500D01*
X0132500Y0101000D01*
X0135000Y0098500D01*
X0135000Y0093500D01*
X0132500Y0091000D01*
X0117500Y0091000D01*
X0115000Y0093500D01*
X0115000Y0098500D01*
X0117500Y0101000D01*
X0132500Y0101000D01*
X0132500Y0111000D02*
X0135000Y0113500D01*
X0135000Y0118500D01*
X0132500Y0121000D01*
X0117500Y0121000D02*
X0115000Y0123500D01*
X0115000Y0128500D01*
X0117500Y0131000D01*
X0117500Y0111000D02*
X0115000Y0108500D01*
X0115000Y0103500D01*
X0117500Y0101000D01*
X0107756Y0100488D02*
X0102244Y0100488D01*
X0102244Y0111512D02*
X0107756Y0111512D01*
X0107500Y0086000D02*
X0112500Y0086000D01*
X0115000Y0083500D01*
X0117500Y0086000D01*
X0122500Y0086000D01*
X0125000Y0083500D01*
X0127500Y0086000D01*
X0132500Y0086000D01*
X0135000Y0083500D01*
X0135000Y0078500D01*
X0132500Y0076000D01*
X0127500Y0076000D01*
X0125000Y0078500D01*
X0122500Y0076000D01*
X0117500Y0076000D01*
X0115000Y0078500D01*
X0112500Y0076000D01*
X0107500Y0076000D01*
X0105000Y0078500D01*
X0102500Y0076000D01*
X0097500Y0076000D01*
X0095000Y0078500D01*
X0092500Y0076000D01*
X0087500Y0076000D01*
X0085000Y0078500D01*
X0082500Y0076000D01*
X0077500Y0076000D01*
X0075000Y0078500D01*
X0072500Y0076000D01*
X0067500Y0076000D01*
X0065000Y0078500D01*
X0062500Y0076000D01*
X0057500Y0076000D01*
X0055000Y0078500D01*
X0052500Y0076000D01*
X0047500Y0076000D01*
X0045000Y0078500D01*
X0042500Y0076000D01*
X0037500Y0076000D01*
X0035000Y0078500D01*
X0032500Y0076000D01*
X0027500Y0076000D01*
X0025000Y0078500D01*
X0025000Y0083500D01*
X0027500Y0086000D01*
X0032500Y0086000D01*
X0035000Y0083500D01*
X0037500Y0086000D01*
X0042500Y0086000D01*
X0045000Y0083500D01*
X0045000Y0078500D01*
X0045000Y0083500D02*
X0047500Y0086000D01*
X0052500Y0086000D01*
X0055000Y0083500D01*
X0057500Y0086000D01*
X0062500Y0086000D01*
X0065000Y0083500D01*
X0067500Y0086000D01*
X0072500Y0086000D01*
X0075000Y0083500D01*
X0075000Y0078500D01*
X0075000Y0083500D02*
X0077500Y0086000D01*
X0082500Y0086000D01*
X0085000Y0083500D01*
X0087500Y0086000D01*
X0092500Y0086000D01*
X0095000Y0083500D01*
X0097500Y0086000D01*
X0102500Y0086000D01*
X0105000Y0083500D01*
X0105000Y0078500D01*
X0105000Y0083500D02*
X0107500Y0086000D01*
X0115000Y0083500D02*
X0115000Y0078500D01*
X0125000Y0078500D02*
X0125000Y0083500D01*
X0135000Y0083500D02*
X0137500Y0086000D01*
X0142500Y0086000D01*
X0145000Y0083500D01*
X0147500Y0086000D01*
X0152500Y0086000D01*
X0155000Y0083500D01*
X0157500Y0086000D01*
X0162500Y0086000D01*
X0165000Y0083500D01*
X0165000Y0078500D01*
X0162500Y0076000D01*
X0157500Y0076000D01*
X0155000Y0078500D01*
X0152500Y0076000D01*
X0147500Y0076000D01*
X0145000Y0078500D01*
X0142500Y0076000D01*
X0137500Y0076000D01*
X0135000Y0078500D01*
X0145000Y0078500D02*
X0145000Y0083500D01*
X0151044Y0090606D02*
X0168956Y0090606D01*
X0169027Y0090597D01*
X0169098Y0090592D01*
X0169170Y0090591D01*
X0169241Y0090594D01*
X0169312Y0090601D01*
X0169383Y0090611D01*
X0169452Y0090625D01*
X0169522Y0090644D01*
X0169590Y0090665D01*
X0169656Y0090691D01*
X0169721Y0090720D01*
X0169785Y0090752D01*
X0169847Y0090788D01*
X0169906Y0090827D01*
X0169964Y0090870D01*
X0170019Y0090915D01*
X0170071Y0090964D01*
X0170121Y0091015D01*
X0170168Y0091068D01*
X0170212Y0091125D01*
X0170253Y0091183D01*
X0170291Y0091244D01*
X0170325Y0091306D01*
X0170356Y0091371D01*
X0170383Y0091437D01*
X0170407Y0091504D01*
X0170427Y0091572D01*
X0170444Y0091642D01*
X0170456Y0091712D01*
X0170456Y0091713D02*
X0170433Y0129697D01*
X0170440Y0129779D01*
X0170444Y0129862D01*
X0170443Y0129944D01*
X0170439Y0130026D01*
X0170431Y0130109D01*
X0170420Y0130190D01*
X0170404Y0130271D01*
X0170385Y0130351D01*
X0170362Y0130431D01*
X0170336Y0130509D01*
X0170305Y0130585D01*
X0170272Y0130661D01*
X0170235Y0130734D01*
X0170194Y0130806D01*
X0170151Y0130876D01*
X0170104Y0130944D01*
X0170054Y0131010D01*
X0170001Y0131073D01*
X0169945Y0131134D01*
X0169887Y0131192D01*
X0169826Y0131247D01*
X0169762Y0131300D01*
X0169696Y0131349D01*
X0169628Y0131395D01*
X0169557Y0131438D01*
X0169485Y0131478D01*
X0169411Y0131515D01*
X0169336Y0131548D01*
X0169259Y0131577D01*
X0169180Y0131603D01*
X0169101Y0131625D01*
X0169021Y0131644D01*
X0168940Y0131659D01*
X0168858Y0131670D01*
X0168858Y0131669D02*
X0151044Y0131787D01*
X0150968Y0131785D01*
X0150892Y0131779D01*
X0150817Y0131770D01*
X0150742Y0131756D01*
X0150668Y0131739D01*
X0150595Y0131718D01*
X0150523Y0131694D01*
X0150452Y0131665D01*
X0150383Y0131634D01*
X0150316Y0131599D01*
X0150251Y0131560D01*
X0150187Y0131518D01*
X0150126Y0131473D01*
X0150067Y0131425D01*
X0150011Y0131374D01*
X0149957Y0131320D01*
X0149906Y0131264D01*
X0149858Y0131205D01*
X0149813Y0131144D01*
X0149771Y0131080D01*
X0149732Y0131015D01*
X0149697Y0130948D01*
X0149666Y0130879D01*
X0149637Y0130808D01*
X0149613Y0130736D01*
X0149592Y0130663D01*
X0149575Y0130589D01*
X0149561Y0130514D01*
X0149552Y0130439D01*
X0149546Y0130363D01*
X0149544Y0130287D01*
X0149544Y0091713D01*
X0149544Y0091712D02*
X0149556Y0091642D01*
X0149573Y0091572D01*
X0149593Y0091504D01*
X0149617Y0091437D01*
X0149644Y0091371D01*
X0149675Y0091306D01*
X0149709Y0091244D01*
X0149747Y0091183D01*
X0149788Y0091125D01*
X0149832Y0091068D01*
X0149879Y0091015D01*
X0149929Y0090964D01*
X0149981Y0090915D01*
X0150036Y0090870D01*
X0150094Y0090827D01*
X0150153Y0090788D01*
X0150215Y0090752D01*
X0150279Y0090720D01*
X0150344Y0090691D01*
X0150410Y0090665D01*
X0150478Y0090644D01*
X0150548Y0090625D01*
X0150617Y0090611D01*
X0150688Y0090601D01*
X0150759Y0090594D01*
X0150830Y0090591D01*
X0150902Y0090592D01*
X0150973Y0090597D01*
X0151044Y0090606D01*
X0155000Y0083500D02*
X0155000Y0078500D01*
X0165000Y0078500D02*
X0167500Y0076000D01*
X0172500Y0076000D01*
X0175000Y0078500D01*
X0177500Y0076000D01*
X0182500Y0076000D01*
X0185000Y0078500D01*
X0185000Y0083500D01*
X0182500Y0086000D01*
X0177500Y0086000D01*
X0175000Y0083500D01*
X0175000Y0078500D01*
X0175000Y0083500D02*
X0172500Y0086000D01*
X0167500Y0086000D01*
X0165000Y0083500D01*
X0162000Y0131000D02*
X0161998Y0130912D01*
X0161992Y0130823D01*
X0161982Y0130735D01*
X0161969Y0130648D01*
X0161951Y0130561D01*
X0161930Y0130475D01*
X0161905Y0130390D01*
X0161876Y0130307D01*
X0161843Y0130224D01*
X0161807Y0130144D01*
X0161768Y0130065D01*
X0161725Y0129987D01*
X0161678Y0129912D01*
X0161628Y0129839D01*
X0161575Y0129768D01*
X0161519Y0129699D01*
X0161460Y0129633D01*
X0161398Y0129570D01*
X0161334Y0129510D01*
X0161267Y0129452D01*
X0161197Y0129398D01*
X0161125Y0129346D01*
X0161051Y0129298D01*
X0160974Y0129253D01*
X0160896Y0129212D01*
X0160816Y0129174D01*
X0160735Y0129140D01*
X0160652Y0129109D01*
X0160567Y0129082D01*
X0160482Y0129059D01*
X0160396Y0129040D01*
X0160308Y0129024D01*
X0160221Y0129012D01*
X0160133Y0129004D01*
X0160044Y0129000D01*
X0159956Y0129000D01*
X0159867Y0129004D01*
X0159779Y0129012D01*
X0159692Y0129024D01*
X0159604Y0129040D01*
X0159518Y0129059D01*
X0159433Y0129082D01*
X0159348Y0129109D01*
X0159265Y0129140D01*
X0159184Y0129174D01*
X0159104Y0129212D01*
X0159026Y0129253D01*
X0158949Y0129298D01*
X0158875Y0129346D01*
X0158803Y0129398D01*
X0158733Y0129452D01*
X0158666Y0129510D01*
X0158602Y0129570D01*
X0158540Y0129633D01*
X0158481Y0129699D01*
X0158425Y0129768D01*
X0158372Y0129839D01*
X0158322Y0129912D01*
X0158275Y0129987D01*
X0158232Y0130065D01*
X0158193Y0130144D01*
X0158157Y0130224D01*
X0158124Y0130307D01*
X0158095Y0130390D01*
X0158070Y0130475D01*
X0158049Y0130561D01*
X0158031Y0130648D01*
X0158018Y0130735D01*
X0158008Y0130823D01*
X0158002Y0130912D01*
X0158000Y0131000D01*
X0155000Y0138500D02*
X0155000Y0143500D01*
X0145000Y0143500D02*
X0145000Y0138500D01*
X0175000Y0138500D02*
X0175000Y0143500D01*
X0095000Y0083500D02*
X0095000Y0078500D01*
X0085000Y0078500D02*
X0085000Y0083500D01*
X0065000Y0083500D02*
X0065000Y0078500D01*
X0055000Y0078500D02*
X0055000Y0083500D01*
X0035000Y0083500D02*
X0035000Y0078500D01*
X0015713Y0105544D02*
X0054287Y0105544D01*
X0054288Y0105544D02*
X0054358Y0105556D01*
X0054428Y0105573D01*
X0054496Y0105593D01*
X0054563Y0105617D01*
X0054629Y0105644D01*
X0054694Y0105675D01*
X0054756Y0105709D01*
X0054817Y0105747D01*
X0054875Y0105788D01*
X0054932Y0105832D01*
X0054985Y0105879D01*
X0055036Y0105929D01*
X0055085Y0105981D01*
X0055130Y0106036D01*
X0055173Y0106094D01*
X0055212Y0106153D01*
X0055248Y0106215D01*
X0055280Y0106279D01*
X0055309Y0106344D01*
X0055335Y0106410D01*
X0055356Y0106478D01*
X0055375Y0106548D01*
X0055389Y0106617D01*
X0055399Y0106688D01*
X0055406Y0106759D01*
X0055409Y0106830D01*
X0055408Y0106902D01*
X0055403Y0106973D01*
X0055394Y0107044D01*
X0055394Y0124956D01*
X0055403Y0125027D01*
X0055408Y0125098D01*
X0055409Y0125170D01*
X0055406Y0125241D01*
X0055399Y0125312D01*
X0055389Y0125383D01*
X0055375Y0125452D01*
X0055356Y0125522D01*
X0055335Y0125590D01*
X0055309Y0125656D01*
X0055280Y0125721D01*
X0055248Y0125785D01*
X0055212Y0125847D01*
X0055173Y0125906D01*
X0055130Y0125964D01*
X0055085Y0126019D01*
X0055036Y0126071D01*
X0054985Y0126121D01*
X0054932Y0126168D01*
X0054875Y0126212D01*
X0054817Y0126253D01*
X0054756Y0126291D01*
X0054694Y0126325D01*
X0054629Y0126356D01*
X0054563Y0126383D01*
X0054496Y0126407D01*
X0054428Y0126427D01*
X0054358Y0126444D01*
X0054288Y0126456D01*
X0054287Y0126456D02*
X0016303Y0126433D01*
X0016221Y0126440D01*
X0016138Y0126444D01*
X0016056Y0126443D01*
X0015974Y0126439D01*
X0015891Y0126431D01*
X0015810Y0126420D01*
X0015729Y0126404D01*
X0015649Y0126385D01*
X0015569Y0126362D01*
X0015491Y0126336D01*
X0015415Y0126305D01*
X0015339Y0126272D01*
X0015266Y0126235D01*
X0015194Y0126194D01*
X0015124Y0126151D01*
X0015056Y0126104D01*
X0014990Y0126054D01*
X0014927Y0126001D01*
X0014866Y0125945D01*
X0014808Y0125887D01*
X0014753Y0125826D01*
X0014700Y0125762D01*
X0014651Y0125696D01*
X0014605Y0125628D01*
X0014562Y0125557D01*
X0014522Y0125485D01*
X0014485Y0125411D01*
X0014452Y0125336D01*
X0014423Y0125259D01*
X0014397Y0125180D01*
X0014375Y0125101D01*
X0014356Y0125021D01*
X0014341Y0124940D01*
X0014330Y0124858D01*
X0014331Y0124858D02*
X0014213Y0107044D01*
X0014215Y0106968D01*
X0014221Y0106892D01*
X0014230Y0106817D01*
X0014244Y0106742D01*
X0014261Y0106668D01*
X0014282Y0106595D01*
X0014306Y0106523D01*
X0014335Y0106452D01*
X0014366Y0106383D01*
X0014401Y0106316D01*
X0014440Y0106251D01*
X0014482Y0106187D01*
X0014527Y0106126D01*
X0014575Y0106067D01*
X0014626Y0106011D01*
X0014680Y0105957D01*
X0014736Y0105906D01*
X0014795Y0105858D01*
X0014856Y0105813D01*
X0014920Y0105771D01*
X0014985Y0105732D01*
X0015052Y0105697D01*
X0015121Y0105666D01*
X0015192Y0105637D01*
X0015264Y0105613D01*
X0015337Y0105592D01*
X0015411Y0105575D01*
X0015486Y0105561D01*
X0015561Y0105552D01*
X0015637Y0105546D01*
X0015713Y0105544D01*
X0015000Y0114000D02*
X0015088Y0114002D01*
X0015177Y0114008D01*
X0015265Y0114018D01*
X0015352Y0114031D01*
X0015439Y0114049D01*
X0015525Y0114070D01*
X0015610Y0114095D01*
X0015693Y0114124D01*
X0015776Y0114157D01*
X0015856Y0114193D01*
X0015935Y0114232D01*
X0016013Y0114275D01*
X0016088Y0114322D01*
X0016161Y0114372D01*
X0016232Y0114425D01*
X0016301Y0114481D01*
X0016367Y0114540D01*
X0016430Y0114602D01*
X0016490Y0114666D01*
X0016548Y0114733D01*
X0016602Y0114803D01*
X0016654Y0114875D01*
X0016702Y0114949D01*
X0016747Y0115026D01*
X0016788Y0115104D01*
X0016826Y0115184D01*
X0016860Y0115265D01*
X0016891Y0115348D01*
X0016918Y0115433D01*
X0016941Y0115518D01*
X0016960Y0115604D01*
X0016976Y0115692D01*
X0016988Y0115779D01*
X0016996Y0115867D01*
X0017000Y0115956D01*
X0017000Y0116044D01*
X0016996Y0116133D01*
X0016988Y0116221D01*
X0016976Y0116308D01*
X0016960Y0116396D01*
X0016941Y0116482D01*
X0016918Y0116567D01*
X0016891Y0116652D01*
X0016860Y0116735D01*
X0016826Y0116816D01*
X0016788Y0116896D01*
X0016747Y0116974D01*
X0016702Y0117051D01*
X0016654Y0117125D01*
X0016602Y0117197D01*
X0016548Y0117267D01*
X0016490Y0117334D01*
X0016430Y0117398D01*
X0016367Y0117460D01*
X0016301Y0117519D01*
X0016232Y0117575D01*
X0016161Y0117628D01*
X0016088Y0117678D01*
X0016013Y0117725D01*
X0015935Y0117768D01*
X0015856Y0117807D01*
X0015776Y0117843D01*
X0015693Y0117876D01*
X0015610Y0117905D01*
X0015525Y0117930D01*
X0015439Y0117951D01*
X0015352Y0117969D01*
X0015265Y0117982D01*
X0015177Y0117992D01*
X0015088Y0117998D01*
X0015000Y0118000D01*
D13*
X0069764Y0131079D02*
X0069764Y0090921D01*
X0090236Y0090921D02*
X0090236Y0131079D01*
X0069764Y0131079D01*
X0080079Y0162811D02*
X0080079Y0189189D01*
X0139921Y0189189D01*
X0139921Y0162811D01*
X0080079Y0162811D01*
X0145079Y0162811D02*
X0145079Y0189189D01*
X0204921Y0189189D01*
X0204921Y0162811D01*
X0145079Y0162811D01*
X0191358Y0118874D02*
X0198642Y0118874D01*
X0198642Y0103520D02*
X0198642Y0102831D01*
X0191358Y0102831D01*
X0191358Y0103520D01*
X0204921Y0059189D02*
X0204921Y0032811D01*
X0145079Y0032811D01*
X0145079Y0059189D01*
X0204921Y0059189D01*
X0139921Y0059189D02*
X0139921Y0032811D01*
X0080079Y0032811D01*
X0080079Y0059189D01*
X0139921Y0059189D01*
X0074921Y0059189D02*
X0074921Y0032811D01*
X0015079Y0032811D01*
X0015079Y0059189D01*
X0074921Y0059189D01*
D14*
X0070659Y0046000D03*
X0135659Y0046000D03*
X0200659Y0046000D03*
X0149341Y0176000D03*
X0084341Y0176000D03*
D15*
X0059200Y0178800D02*
X0059198Y0178731D01*
X0059192Y0178663D01*
X0059182Y0178595D01*
X0059169Y0178528D01*
X0059151Y0178462D01*
X0059130Y0178397D01*
X0059105Y0178333D01*
X0059077Y0178271D01*
X0059045Y0178210D01*
X0059010Y0178151D01*
X0058971Y0178095D01*
X0058929Y0178040D01*
X0058884Y0177989D01*
X0058836Y0177939D01*
X0058786Y0177893D01*
X0058733Y0177850D01*
X0058677Y0177809D01*
X0058620Y0177772D01*
X0058560Y0177739D01*
X0058498Y0177708D01*
X0058435Y0177682D01*
X0058371Y0177659D01*
X0058305Y0177639D01*
X0058238Y0177624D01*
X0058171Y0177612D01*
X0058103Y0177604D01*
X0058034Y0177600D01*
X0057966Y0177600D01*
X0057897Y0177604D01*
X0057829Y0177612D01*
X0057762Y0177624D01*
X0057695Y0177639D01*
X0057629Y0177659D01*
X0057565Y0177682D01*
X0057502Y0177708D01*
X0057440Y0177739D01*
X0057380Y0177772D01*
X0057323Y0177809D01*
X0057267Y0177850D01*
X0057214Y0177893D01*
X0057164Y0177939D01*
X0057116Y0177989D01*
X0057071Y0178040D01*
X0057029Y0178095D01*
X0056990Y0178151D01*
X0056955Y0178210D01*
X0056923Y0178271D01*
X0056895Y0178333D01*
X0056870Y0178397D01*
X0056849Y0178462D01*
X0056831Y0178528D01*
X0056818Y0178595D01*
X0056808Y0178663D01*
X0056802Y0178731D01*
X0056800Y0178800D01*
X0015000Y0156000D02*
X0195000Y0156000D01*
X0195242Y0155997D01*
X0195483Y0155988D01*
X0195724Y0155974D01*
X0195965Y0155953D01*
X0196205Y0155927D01*
X0196445Y0155895D01*
X0196684Y0155857D01*
X0196921Y0155814D01*
X0197158Y0155764D01*
X0197393Y0155709D01*
X0197627Y0155649D01*
X0197859Y0155582D01*
X0198090Y0155511D01*
X0198319Y0155433D01*
X0198546Y0155350D01*
X0198771Y0155262D01*
X0198994Y0155168D01*
X0199214Y0155069D01*
X0199432Y0154964D01*
X0199647Y0154855D01*
X0199860Y0154740D01*
X0200070Y0154620D01*
X0200276Y0154495D01*
X0200480Y0154365D01*
X0200681Y0154230D01*
X0200878Y0154090D01*
X0201072Y0153946D01*
X0201262Y0153797D01*
X0201448Y0153643D01*
X0201631Y0153485D01*
X0201810Y0153323D01*
X0201985Y0153156D01*
X0202156Y0152985D01*
X0202323Y0152810D01*
X0202485Y0152631D01*
X0202643Y0152448D01*
X0202797Y0152262D01*
X0202946Y0152072D01*
X0203090Y0151878D01*
X0203230Y0151681D01*
X0203365Y0151480D01*
X0203495Y0151276D01*
X0203620Y0151070D01*
X0203740Y0150860D01*
X0203855Y0150647D01*
X0203964Y0150432D01*
X0204069Y0150214D01*
X0204168Y0149994D01*
X0204262Y0149771D01*
X0204350Y0149546D01*
X0204433Y0149319D01*
X0204511Y0149090D01*
X0204582Y0148859D01*
X0204649Y0148627D01*
X0204709Y0148393D01*
X0204764Y0148158D01*
X0204814Y0147921D01*
X0204857Y0147684D01*
X0204895Y0147445D01*
X0204927Y0147205D01*
X0204953Y0146965D01*
X0204974Y0146724D01*
X0204988Y0146483D01*
X0204997Y0146242D01*
X0205000Y0146000D01*
X0205000Y0076000D01*
X0204997Y0075758D01*
X0204988Y0075517D01*
X0204974Y0075276D01*
X0204953Y0075035D01*
X0204927Y0074795D01*
X0204895Y0074555D01*
X0204857Y0074316D01*
X0204814Y0074079D01*
X0204764Y0073842D01*
X0204709Y0073607D01*
X0204649Y0073373D01*
X0204582Y0073141D01*
X0204511Y0072910D01*
X0204433Y0072681D01*
X0204350Y0072454D01*
X0204262Y0072229D01*
X0204168Y0072006D01*
X0204069Y0071786D01*
X0203964Y0071568D01*
X0203855Y0071353D01*
X0203740Y0071140D01*
X0203620Y0070930D01*
X0203495Y0070724D01*
X0203365Y0070520D01*
X0203230Y0070319D01*
X0203090Y0070122D01*
X0202946Y0069928D01*
X0202797Y0069738D01*
X0202643Y0069552D01*
X0202485Y0069369D01*
X0202323Y0069190D01*
X0202156Y0069015D01*
X0201985Y0068844D01*
X0201810Y0068677D01*
X0201631Y0068515D01*
X0201448Y0068357D01*
X0201262Y0068203D01*
X0201072Y0068054D01*
X0200878Y0067910D01*
X0200681Y0067770D01*
X0200480Y0067635D01*
X0200276Y0067505D01*
X0200070Y0067380D01*
X0199860Y0067260D01*
X0199647Y0067145D01*
X0199432Y0067036D01*
X0199214Y0066931D01*
X0198994Y0066832D01*
X0198771Y0066738D01*
X0198546Y0066650D01*
X0198319Y0066567D01*
X0198090Y0066489D01*
X0197859Y0066418D01*
X0197627Y0066351D01*
X0197393Y0066291D01*
X0197158Y0066236D01*
X0196921Y0066186D01*
X0196684Y0066143D01*
X0196445Y0066105D01*
X0196205Y0066073D01*
X0195965Y0066047D01*
X0195724Y0066026D01*
X0195483Y0066012D01*
X0195242Y0066003D01*
X0195000Y0066000D01*
X0015000Y0066000D01*
X0014758Y0066003D01*
X0014517Y0066012D01*
X0014276Y0066026D01*
X0014035Y0066047D01*
X0013795Y0066073D01*
X0013555Y0066105D01*
X0013316Y0066143D01*
X0013079Y0066186D01*
X0012842Y0066236D01*
X0012607Y0066291D01*
X0012373Y0066351D01*
X0012141Y0066418D01*
X0011910Y0066489D01*
X0011681Y0066567D01*
X0011454Y0066650D01*
X0011229Y0066738D01*
X0011006Y0066832D01*
X0010786Y0066931D01*
X0010568Y0067036D01*
X0010353Y0067145D01*
X0010140Y0067260D01*
X0009930Y0067380D01*
X0009724Y0067505D01*
X0009520Y0067635D01*
X0009319Y0067770D01*
X0009122Y0067910D01*
X0008928Y0068054D01*
X0008738Y0068203D01*
X0008552Y0068357D01*
X0008369Y0068515D01*
X0008190Y0068677D01*
X0008015Y0068844D01*
X0007844Y0069015D01*
X0007677Y0069190D01*
X0007515Y0069369D01*
X0007357Y0069552D01*
X0007203Y0069738D01*
X0007054Y0069928D01*
X0006910Y0070122D01*
X0006770Y0070319D01*
X0006635Y0070520D01*
X0006505Y0070724D01*
X0006380Y0070930D01*
X0006260Y0071140D01*
X0006145Y0071353D01*
X0006036Y0071568D01*
X0005931Y0071786D01*
X0005832Y0072006D01*
X0005738Y0072229D01*
X0005650Y0072454D01*
X0005567Y0072681D01*
X0005489Y0072910D01*
X0005418Y0073141D01*
X0005351Y0073373D01*
X0005291Y0073607D01*
X0005236Y0073842D01*
X0005186Y0074079D01*
X0005143Y0074316D01*
X0005105Y0074555D01*
X0005073Y0074795D01*
X0005047Y0075035D01*
X0005026Y0075276D01*
X0005012Y0075517D01*
X0005003Y0075758D01*
X0005000Y0076000D01*
X0005000Y0102000D01*
X0007000Y0104000D01*
X0007000Y0118000D01*
X0005000Y0120000D01*
X0005000Y0146000D01*
X0005003Y0146242D01*
X0005012Y0146483D01*
X0005026Y0146724D01*
X0005047Y0146965D01*
X0005073Y0147205D01*
X0005105Y0147445D01*
X0005143Y0147684D01*
X0005186Y0147921D01*
X0005236Y0148158D01*
X0005291Y0148393D01*
X0005351Y0148627D01*
X0005418Y0148859D01*
X0005489Y0149090D01*
X0005567Y0149319D01*
X0005650Y0149546D01*
X0005738Y0149771D01*
X0005832Y0149994D01*
X0005931Y0150214D01*
X0006036Y0150432D01*
X0006145Y0150647D01*
X0006260Y0150860D01*
X0006380Y0151070D01*
X0006505Y0151276D01*
X0006635Y0151480D01*
X0006770Y0151681D01*
X0006910Y0151878D01*
X0007054Y0152072D01*
X0007203Y0152262D01*
X0007357Y0152448D01*
X0007515Y0152631D01*
X0007677Y0152810D01*
X0007844Y0152985D01*
X0008015Y0153156D01*
X0008190Y0153323D01*
X0008369Y0153485D01*
X0008552Y0153643D01*
X0008738Y0153797D01*
X0008928Y0153946D01*
X0009122Y0154090D01*
X0009319Y0154230D01*
X0009520Y0154365D01*
X0009724Y0154495D01*
X0009930Y0154620D01*
X0010140Y0154740D01*
X0010353Y0154855D01*
X0010568Y0154964D01*
X0010786Y0155069D01*
X0011006Y0155168D01*
X0011229Y0155262D01*
X0011454Y0155350D01*
X0011681Y0155433D01*
X0011910Y0155511D01*
X0012141Y0155582D01*
X0012373Y0155649D01*
X0012607Y0155709D01*
X0012842Y0155764D01*
X0013079Y0155814D01*
X0013316Y0155857D01*
X0013555Y0155895D01*
X0013795Y0155927D01*
X0014035Y0155953D01*
X0014276Y0155974D01*
X0014517Y0155988D01*
X0014758Y0155997D01*
X0015000Y0156000D01*
D16*
X0027835Y0209032D02*
X0027908Y0208955D01*
X0027983Y0208880D01*
X0028061Y0208809D01*
X0028142Y0208740D01*
X0028225Y0208674D01*
X0028310Y0208611D01*
X0028398Y0208552D01*
X0028487Y0208495D01*
X0028579Y0208442D01*
X0028673Y0208392D01*
X0028768Y0208346D01*
X0028865Y0208303D01*
X0028963Y0208264D01*
X0029063Y0208228D01*
X0029164Y0208196D01*
X0029266Y0208168D01*
X0029369Y0208143D01*
X0029473Y0208122D01*
X0029578Y0208105D01*
X0029683Y0208091D01*
X0029788Y0208082D01*
X0029894Y0208076D01*
X0030000Y0208074D01*
X0030106Y0208076D01*
X0030212Y0208082D01*
X0030317Y0208091D01*
X0030422Y0208105D01*
X0030527Y0208122D01*
X0030631Y0208143D01*
X0030734Y0208168D01*
X0030836Y0208196D01*
X0030937Y0208228D01*
X0031037Y0208264D01*
X0031135Y0208303D01*
X0031232Y0208346D01*
X0031327Y0208392D01*
X0031421Y0208442D01*
X0031513Y0208495D01*
X0031602Y0208552D01*
X0031690Y0208611D01*
X0031775Y0208674D01*
X0031858Y0208740D01*
X0031939Y0208809D01*
X0032017Y0208880D01*
X0032092Y0208955D01*
X0032165Y0209032D01*
X0032165Y0212968D02*
X0032092Y0213045D01*
X0032017Y0213120D01*
X0031939Y0213191D01*
X0031858Y0213260D01*
X0031775Y0213326D01*
X0031690Y0213389D01*
X0031602Y0213448D01*
X0031513Y0213505D01*
X0031421Y0213558D01*
X0031327Y0213608D01*
X0031232Y0213654D01*
X0031135Y0213697D01*
X0031037Y0213736D01*
X0030937Y0213772D01*
X0030836Y0213804D01*
X0030734Y0213832D01*
X0030631Y0213857D01*
X0030527Y0213878D01*
X0030422Y0213895D01*
X0030317Y0213909D01*
X0030212Y0213918D01*
X0030106Y0213924D01*
X0030000Y0213926D01*
X0029894Y0213924D01*
X0029788Y0213918D01*
X0029683Y0213909D01*
X0029578Y0213895D01*
X0029473Y0213878D01*
X0029369Y0213857D01*
X0029266Y0213832D01*
X0029164Y0213804D01*
X0029063Y0213772D01*
X0028963Y0213736D01*
X0028865Y0213697D01*
X0028768Y0213654D01*
X0028673Y0213608D01*
X0028579Y0213558D01*
X0028487Y0213505D01*
X0028398Y0213448D01*
X0028310Y0213389D01*
X0028225Y0213326D01*
X0028142Y0213260D01*
X0028061Y0213191D01*
X0027983Y0213120D01*
X0027908Y0213045D01*
X0027835Y0212968D01*
D17*
X0030000Y0211000D03*
D18*
X0027933Y0213264D03*
D19*
X0009370Y0003402D02*
X0009370Y0002220D01*
X0020000Y0002220D01*
X0020000Y0011276D01*
X0030000Y0011276D01*
X0030000Y0002220D01*
X0020000Y0002220D01*
X0020000Y0011276D02*
X0009370Y0011276D01*
X0009370Y0020724D01*
X0070630Y0020724D01*
X0070630Y0011276D01*
X0060000Y0011276D01*
X0060000Y0002220D01*
X0050000Y0002220D01*
X0050000Y0011276D01*
X0060000Y0011276D01*
X0060000Y0002220D02*
X0070630Y0002220D01*
X0070630Y0003402D01*
X0009370Y0003402D01*
X0009370Y0011276D01*
X0009370Y0020724D02*
X0009370Y0027024D01*
X0070630Y0027024D01*
X0070630Y0020724D01*
X0074370Y0020724D02*
X0135630Y0020724D01*
X0135630Y0011276D01*
X0125000Y0011276D01*
X0125000Y0002220D01*
X0115000Y0002220D01*
X0115000Y0011276D01*
X0125000Y0011276D01*
X0125000Y0002220D02*
X0135630Y0002220D01*
X0135630Y0003402D01*
X0074370Y0003402D01*
X0074370Y0011276D01*
X0085000Y0011276D01*
X0085000Y0002220D01*
X0074370Y0002220D01*
X0074370Y0003402D01*
X0070630Y0003402D02*
X0070630Y0011276D01*
X0074370Y0011276D02*
X0074370Y0020724D01*
X0074370Y0027024D01*
X0135630Y0027024D01*
X0135630Y0020724D01*
X0139370Y0020724D02*
X0200630Y0020724D01*
X0200630Y0011276D01*
X0190000Y0011276D01*
X0190000Y0002220D01*
X0180000Y0002220D01*
X0180000Y0011276D01*
X0190000Y0011276D01*
X0190000Y0002220D02*
X0200630Y0002220D01*
X0200630Y0003402D01*
X0139370Y0003402D01*
X0139370Y0011276D01*
X0150000Y0011276D01*
X0150000Y0002220D01*
X0139370Y0002220D01*
X0139370Y0003402D01*
X0135630Y0003402D02*
X0135630Y0011276D01*
X0139370Y0011276D02*
X0139370Y0020724D01*
X0139370Y0027024D01*
X0200630Y0027024D01*
X0200630Y0020724D01*
X0200630Y0011276D02*
X0200630Y0003402D01*
X0180000Y0002220D02*
X0170000Y0002220D01*
X0170000Y0011276D01*
X0180000Y0011276D01*
X0170000Y0011276D02*
X0160000Y0011276D01*
X0160000Y0002220D01*
X0150000Y0002220D01*
X0150000Y0011276D02*
X0160000Y0011276D01*
X0160000Y0002220D02*
X0170000Y0002220D01*
X0115000Y0002220D02*
X0105000Y0002220D01*
X0105000Y0011276D01*
X0115000Y0011276D01*
X0105000Y0011276D02*
X0095000Y0011276D01*
X0095000Y0002220D01*
X0085000Y0002220D01*
X0085000Y0011276D02*
X0095000Y0011276D01*
X0095000Y0002220D02*
X0105000Y0002220D01*
X0050000Y0002220D02*
X0040000Y0002220D01*
X0040000Y0011276D01*
X0050000Y0011276D01*
X0040000Y0011276D02*
X0030000Y0011276D01*
X0030000Y0002220D02*
X0040000Y0002220D01*
X0048170Y0179500D02*
X0048172Y0179536D01*
X0048178Y0179571D01*
X0048187Y0179605D01*
X0048201Y0179639D01*
X0048217Y0179670D01*
X0048237Y0179700D01*
X0048260Y0179727D01*
X0048286Y0179752D01*
X0048315Y0179773D01*
X0048345Y0179792D01*
X0048378Y0179807D01*
X0048412Y0179818D01*
X0048447Y0179826D01*
X0048482Y0179830D01*
X0048518Y0179830D01*
X0048553Y0179826D01*
X0048588Y0179818D01*
X0048622Y0179807D01*
X0048655Y0179792D01*
X0048685Y0179773D01*
X0048714Y0179752D01*
X0048740Y0179727D01*
X0048763Y0179700D01*
X0048783Y0179670D01*
X0048799Y0179639D01*
X0048813Y0179605D01*
X0048822Y0179571D01*
X0048828Y0179536D01*
X0048830Y0179500D01*
X0048828Y0179464D01*
X0048822Y0179429D01*
X0048813Y0179395D01*
X0048799Y0179361D01*
X0048783Y0179330D01*
X0048763Y0179300D01*
X0048740Y0179273D01*
X0048714Y0179248D01*
X0048685Y0179227D01*
X0048655Y0179208D01*
X0048622Y0179193D01*
X0048588Y0179182D01*
X0048553Y0179174D01*
X0048518Y0179170D01*
X0048482Y0179170D01*
X0048447Y0179174D01*
X0048412Y0179182D01*
X0048378Y0179193D01*
X0048345Y0179208D01*
X0048315Y0179227D01*
X0048286Y0179248D01*
X0048260Y0179273D01*
X0048237Y0179300D01*
X0048217Y0179330D01*
X0048201Y0179361D01*
X0048187Y0179395D01*
X0048178Y0179429D01*
X0048172Y0179464D01*
X0048170Y0179500D01*
X0044370Y0194976D02*
X0044370Y0201276D01*
X0065630Y0201276D01*
X0065630Y0194976D01*
X0044370Y0194976D01*
X0044370Y0201276D02*
X0044370Y0210724D01*
X0055000Y0210724D01*
X0055000Y0219780D01*
X0065630Y0219780D01*
X0065630Y0218598D01*
X0044370Y0218598D01*
X0044370Y0219780D01*
X0055000Y0219780D01*
X0055000Y0210724D02*
X0065630Y0210724D01*
X0065630Y0201276D01*
X0074370Y0201276D02*
X0074370Y0210724D01*
X0085000Y0210724D01*
X0085000Y0219780D01*
X0095000Y0219780D01*
X0095000Y0210724D01*
X0085000Y0210724D01*
X0085000Y0219780D02*
X0074370Y0219780D01*
X0074370Y0218598D01*
X0135630Y0218598D01*
X0135630Y0210724D01*
X0125000Y0210724D01*
X0125000Y0219780D01*
X0135630Y0219780D01*
X0135630Y0218598D01*
X0139370Y0218598D02*
X0139370Y0219780D01*
X0150000Y0219780D01*
X0150000Y0210724D01*
X0139370Y0210724D01*
X0139370Y0218598D01*
X0200630Y0218598D01*
X0200630Y0210724D01*
X0190000Y0210724D01*
X0190000Y0219780D01*
X0200630Y0219780D01*
X0200630Y0218598D01*
X0200630Y0210724D02*
X0200630Y0201276D01*
X0139370Y0201276D01*
X0139370Y0210724D01*
X0135630Y0210724D02*
X0135630Y0201276D01*
X0074370Y0201276D01*
X0074370Y0194976D01*
X0135630Y0194976D01*
X0135630Y0201276D01*
X0139370Y0201276D02*
X0139370Y0194976D01*
X0200630Y0194976D01*
X0200630Y0201276D01*
X0190000Y0210724D02*
X0180000Y0210724D01*
X0180000Y0219780D01*
X0190000Y0219780D01*
X0180000Y0219780D02*
X0170000Y0219780D01*
X0170000Y0210724D01*
X0160000Y0210724D01*
X0160000Y0219780D01*
X0170000Y0219780D01*
X0170000Y0210724D02*
X0180000Y0210724D01*
X0160000Y0210724D02*
X0150000Y0210724D01*
X0150000Y0219780D02*
X0160000Y0219780D01*
X0125000Y0219780D02*
X0115000Y0219780D01*
X0115000Y0210724D01*
X0105000Y0210724D01*
X0105000Y0219780D01*
X0115000Y0219780D01*
X0105000Y0219780D02*
X0095000Y0219780D01*
X0095000Y0210724D02*
X0105000Y0210724D01*
X0115000Y0210724D02*
X0125000Y0210724D01*
X0074370Y0210724D02*
X0074370Y0218598D01*
X0065630Y0218598D02*
X0065630Y0210724D01*
X0044370Y0210724D02*
X0044370Y0218598D01*
X0025906Y0190921D02*
X0025906Y0181079D01*
X0014094Y0181079D01*
X0014094Y0190921D01*
X0025906Y0190921D01*
D20*
X0195000Y0118185D03*
M02*
