G75*
%MOIN*%
%OFA0B0*%
%FSLAX25Y25*%
%IPPOS*%
%LPD*%
%AMOC8*
5,1,8,0,0,1.08239X$1,22.5*
%
%ADD10R,0.10000X0.05000*%
%ADD11C,0.01000*%
%ADD12C,0.15000*%
%ADD13C,0.07000*%
%ADD14C,0.07874*%
%ADD15OC8,0.06000*%
%ADD16C,0.06000*%
%ADD17C,0.00800*%
%ADD18C,0.02978*%
%ADD19C,0.03200*%
%ADD20C,0.02400*%
%ADD21C,0.01600*%
D10*
X0015000Y0161000D03*
X0015000Y0171000D03*
X0030000Y0171000D03*
X0030000Y0161000D03*
D11*
X0030000Y0171000D01*
X0015000Y0171000D02*
X0015000Y0161000D01*
D12*
X0015000Y0146000D03*
X0015000Y0076000D03*
D13*
X0030000Y0071000D03*
X0040000Y0071000D03*
X0050000Y0071000D03*
X0060000Y0071000D03*
X0070000Y0071000D03*
X0080000Y0071000D03*
X0090000Y0071000D03*
X0100000Y0071000D03*
X0110000Y0071000D03*
X0120000Y0071000D03*
X0130000Y0071000D03*
X0140000Y0071000D03*
X0150000Y0071000D03*
X0160000Y0071000D03*
X0170000Y0071000D03*
X0180000Y0071000D03*
X0180000Y0151000D03*
X0170000Y0151000D03*
X0160000Y0151000D03*
X0150000Y0151000D03*
X0140000Y0151000D03*
X0130000Y0151000D03*
X0120000Y0151000D03*
X0110000Y0151000D03*
X0100000Y0151000D03*
X0090000Y0151000D03*
X0080000Y0151000D03*
X0070000Y0151000D03*
D14*
X0015000Y0016000D03*
X0025000Y0016000D03*
X0034882Y0016000D03*
X0044882Y0016000D03*
X0054882Y0016000D03*
X0064882Y0016000D03*
X0080000Y0016000D03*
X0090000Y0016000D03*
X0099882Y0016000D03*
X0109882Y0016000D03*
X0119882Y0016000D03*
X0129882Y0016000D03*
X0145000Y0016000D03*
X0155000Y0016000D03*
X0164882Y0016000D03*
X0174882Y0016000D03*
X0184882Y0016000D03*
X0194882Y0016000D03*
X0195000Y0206000D03*
X0185000Y0206000D03*
X0175118Y0206000D03*
X0165118Y0206000D03*
X0155118Y0206000D03*
X0145118Y0206000D03*
X0130000Y0206000D03*
X0120000Y0206000D03*
X0110118Y0206000D03*
X0100118Y0206000D03*
X0090118Y0206000D03*
X0080118Y0206000D03*
X0060000Y0206000D03*
X0050000Y0206000D03*
D15*
X0120000Y0126000D03*
X0120000Y0116000D03*
X0130000Y0116000D03*
X0130000Y0126000D03*
X0130000Y0106000D03*
X0130000Y0096000D03*
X0120000Y0096000D03*
X0120000Y0106000D03*
D16*
X0120000Y0084000D02*
X0120000Y0078000D01*
X0130000Y0078000D02*
X0130000Y0084000D01*
X0140000Y0084000D02*
X0140000Y0078000D01*
X0150000Y0078000D02*
X0150000Y0084000D01*
X0160000Y0084000D02*
X0160000Y0078000D01*
X0170000Y0078000D02*
X0170000Y0084000D01*
X0180000Y0084000D02*
X0180000Y0078000D01*
X0180000Y0138000D02*
X0180000Y0144000D01*
X0170000Y0144000D02*
X0170000Y0138000D01*
X0160000Y0138000D02*
X0160000Y0144000D01*
X0150000Y0144000D02*
X0150000Y0138000D01*
X0140000Y0138000D02*
X0140000Y0144000D01*
X0130000Y0144000D02*
X0130000Y0138000D01*
X0120000Y0138000D02*
X0120000Y0144000D01*
X0110000Y0144000D02*
X0110000Y0138000D01*
X0100000Y0138000D02*
X0100000Y0144000D01*
X0090000Y0144000D02*
X0090000Y0138000D01*
X0080000Y0138000D02*
X0080000Y0144000D01*
X0070000Y0144000D02*
X0070000Y0138000D01*
X0070000Y0084000D02*
X0070000Y0078000D01*
X0060000Y0078000D02*
X0060000Y0084000D01*
X0050000Y0084000D02*
X0050000Y0078000D01*
X0040000Y0078000D02*
X0040000Y0084000D01*
X0030000Y0084000D02*
X0030000Y0078000D01*
X0080000Y0078000D02*
X0080000Y0084000D01*
X0090000Y0084000D02*
X0090000Y0078000D01*
X0100000Y0078000D02*
X0100000Y0084000D01*
X0110000Y0084000D02*
X0110000Y0078000D01*
D17*
X0120600Y0088300D02*
X0109800Y0099600D01*
X0109750Y0095761D02*
X0107985Y0095761D01*
X0103670Y0100076D01*
X0101273Y0100076D01*
X0096958Y0095761D01*
X0085596Y0095761D01*
X0084193Y0097163D01*
X0081301Y0099699D02*
X0075531Y0095469D01*
X0075000Y0094937D01*
X0075000Y0066000D01*
X0141647Y0066000D01*
X0144700Y0069053D01*
X0144700Y0087837D01*
X0147400Y0090537D01*
X0147400Y0098597D01*
X0157314Y0108511D01*
X0153400Y0111200D02*
X0134200Y0130400D01*
X0091000Y0130400D01*
X0091000Y0124000D01*
X0086600Y0119600D01*
X0061400Y0119600D01*
X0055800Y0125200D01*
X0055800Y0139600D01*
X0050000Y0145400D01*
X0050000Y0151000D01*
X0051300Y0152300D01*
X0051300Y0157300D01*
X0041800Y0166800D01*
X0039000Y0168000D02*
X0052000Y0181000D01*
X0055000Y0181000D01*
X0060000Y0176000D01*
X0060000Y0173000D01*
X0074000Y0164000D01*
X0194000Y0164000D01*
X0194500Y0164500D01*
X0194500Y0180300D01*
X0195000Y0180800D01*
X0169800Y0151200D02*
X0166600Y0151200D01*
X0169800Y0151200D02*
X0170000Y0151000D01*
X0160000Y0161000D01*
X0069063Y0161000D01*
X0061374Y0168689D01*
X0053486Y0168689D01*
X0051911Y0167114D01*
X0051911Y0166111D01*
X0051800Y0166000D01*
X0051800Y0167200D01*
X0051800Y0166000D02*
X0051800Y0164800D01*
X0054600Y0162000D01*
X0054600Y0162339D01*
X0054600Y0162000D02*
X0054600Y0147200D01*
X0079400Y0122400D01*
X0085400Y0122400D01*
X0088200Y0125200D02*
X0080600Y0125200D01*
X0075000Y0130800D01*
X0075000Y0152800D01*
X0074800Y0153000D01*
X0077800Y0156000D01*
X0133400Y0156000D01*
X0142500Y0165600D02*
X0142500Y0183500D01*
X0145400Y0183600D01*
X0142500Y0165600D02*
X0075400Y0165600D01*
X0075000Y0166000D01*
X0061600Y0176000D01*
X0061600Y0176663D01*
X0055663Y0182600D01*
X0051337Y0182600D01*
X0037537Y0168800D01*
X0037400Y0168800D01*
X0037400Y0155600D01*
X0017800Y0136000D01*
X0027000Y0136800D02*
X0049800Y0114000D01*
X0049800Y0100800D01*
X0030000Y0081000D01*
X0023800Y0084000D02*
X0023800Y0071600D01*
X0015000Y0062800D01*
X0015000Y0056000D01*
X0065000Y0056000D01*
X0065000Y0036000D01*
X0080000Y0063311D02*
X0148958Y0063311D01*
X0154700Y0069053D01*
X0154700Y0090700D01*
X0163499Y0099499D01*
X0163499Y0107501D01*
X0165000Y0116000D02*
X0154000Y0116000D01*
X0141500Y0128500D01*
X0141400Y0119200D02*
X0141400Y0105200D01*
X0145800Y0100800D01*
X0145800Y0091200D01*
X0143400Y0088800D01*
X0120600Y0088300D01*
X0130000Y0096000D02*
X0134797Y0096000D01*
X0140286Y0090511D01*
X0142514Y0090511D01*
X0144089Y0092086D01*
X0144089Y0099974D01*
X0135800Y0108263D01*
X0135800Y0116140D01*
X0131740Y0120200D01*
X0115397Y0120200D01*
X0112500Y0117302D01*
X0100000Y0117302D01*
X0104311Y0121500D02*
X0110343Y0121000D01*
X0112032Y0122689D01*
X0110000Y0126000D02*
X0108800Y0127200D01*
X0096200Y0127200D01*
X0094200Y0125200D01*
X0094200Y0122675D01*
X0086837Y0115311D01*
X0076243Y0115311D01*
X0075154Y0114222D01*
X0072500Y0116911D02*
X0086174Y0116911D01*
X0092600Y0123337D01*
X0092600Y0126900D01*
X0094500Y0128800D01*
X0111260Y0128800D01*
X0118260Y0121800D01*
X0121740Y0121800D01*
X0122440Y0122500D01*
X0127000Y0122500D01*
X0130000Y0125500D01*
X0130000Y0126000D01*
X0130000Y0116000D02*
X0130200Y0116000D01*
X0130600Y0111600D02*
X0112200Y0111600D01*
X0111000Y0112800D01*
X0105000Y0112800D01*
X0086600Y0112800D01*
X0085000Y0111200D01*
X0079900Y0111700D01*
X0078600Y0111400D01*
X0057400Y0110400D01*
X0057400Y0118800D01*
X0052600Y0116800D02*
X0052600Y0140400D01*
X0048600Y0144400D01*
X0044600Y0155100D01*
X0051300Y0157300D02*
X0051400Y0157200D01*
X0053000Y0158000D02*
X0053000Y0144800D01*
X0058600Y0139200D01*
X0058600Y0126400D01*
X0052600Y0116800D02*
X0052600Y0100600D01*
X0040000Y0081000D01*
X0040000Y0071000D02*
X0033800Y0064800D01*
X0021000Y0064800D01*
X0023800Y0084000D02*
X0037400Y0097600D01*
X0037400Y0120400D01*
X0027000Y0136800D02*
X0027000Y0141200D01*
X0030500Y0154000D02*
X0023500Y0154000D01*
X0021800Y0161200D02*
X0021800Y0166800D01*
X0021800Y0161200D02*
X0015000Y0161200D01*
X0015000Y0161000D01*
X0021800Y0161200D02*
X0029800Y0161200D01*
X0030000Y0161000D01*
X0039000Y0168000D02*
X0039000Y0149200D01*
X0041800Y0147200D02*
X0049800Y0139200D01*
X0041800Y0147200D02*
X0041800Y0162800D01*
X0050200Y0160800D02*
X0053000Y0158000D01*
X0050200Y0160800D02*
X0050200Y0168000D01*
X0056600Y0174400D01*
X0054600Y0166000D02*
X0061800Y0166000D01*
X0074800Y0153000D01*
X0085800Y0133200D02*
X0162200Y0133200D01*
X0187000Y0108400D01*
X0180200Y0111200D02*
X0153400Y0111200D01*
X0154001Y0121000D02*
X0160343Y0126000D01*
X0167573Y0118770D01*
X0183000Y0120400D02*
X0183000Y0128000D01*
X0170000Y0141000D01*
X0134200Y0108000D02*
X0130600Y0111600D01*
X0134200Y0108000D02*
X0134200Y0107600D01*
X0141400Y0100400D01*
X0141400Y0098800D01*
X0141400Y0093200D01*
X0120000Y0116000D02*
X0115000Y0116000D01*
X0110600Y0109200D02*
X0089800Y0109200D01*
X0089000Y0110000D01*
X0087800Y0110000D01*
X0071800Y0094000D01*
X0067400Y0094000D01*
X0065000Y0091600D01*
X0065000Y0069200D01*
X0061800Y0066000D01*
X0045000Y0066000D01*
X0040000Y0071000D01*
X0054711Y0075809D02*
X0055000Y0075520D01*
X0054711Y0075809D02*
X0054711Y0096000D01*
X0060200Y0094600D02*
X0063400Y0099600D01*
X0069800Y0106000D01*
X0077800Y0108500D01*
X0078400Y0104403D02*
X0072249Y0098251D01*
X0083000Y0091200D02*
X0096200Y0091200D01*
X0099800Y0094800D01*
X0099800Y0092111D02*
X0100914Y0092111D01*
X0102556Y0093753D01*
X0102556Y0097387D01*
X0101969Y0096799D01*
X0101603Y0096799D01*
X0099800Y0092111D02*
X0095000Y0087311D01*
X0060000Y0081000D02*
X0057400Y0083600D01*
X0057400Y0102400D01*
X0057400Y0110400D01*
X0079400Y0130400D02*
X0091000Y0130400D01*
X0119800Y0126000D02*
X0120000Y0126000D01*
X0040200Y0175600D02*
X0035800Y0171200D01*
X0030200Y0171200D01*
X0030000Y0171000D01*
X0015000Y0173404D02*
X0013300Y0171704D01*
X0013300Y0171000D01*
X0015000Y0173404D02*
X0015000Y0174511D01*
X0011511Y0178000D01*
X0031001Y0097001D02*
X0027449Y0093449D01*
X0027449Y0092949D01*
D18*
X0027449Y0092949D03*
X0031001Y0097001D03*
X0049800Y0114000D03*
X0052600Y0116800D03*
X0057400Y0118800D03*
X0058600Y0126400D03*
X0049800Y0139200D03*
X0039000Y0149200D03*
X0044600Y0155100D03*
X0050000Y0151000D03*
X0054600Y0162000D03*
X0054600Y0166000D03*
X0056600Y0174400D03*
X0040200Y0175600D03*
X0041800Y0166800D03*
X0041800Y0162800D03*
X0030500Y0154000D03*
X0023500Y0154000D03*
X0021800Y0166800D03*
X0011511Y0178000D03*
X0027000Y0141200D03*
X0017800Y0136000D03*
X0037400Y0120400D03*
X0057400Y0102400D03*
X0054711Y0096000D03*
X0060200Y0094600D03*
X0072249Y0098251D03*
X0078400Y0104403D03*
X0077800Y0108500D03*
X0075154Y0114222D03*
X0072500Y0116911D03*
X0085000Y0111200D03*
X0089000Y0110000D03*
X0081301Y0099699D03*
X0084193Y0097163D03*
X0083000Y0091200D03*
X0095000Y0087311D03*
X0099800Y0094800D03*
X0102556Y0097387D03*
X0109750Y0095761D03*
X0109800Y0099600D03*
X0110600Y0109200D03*
X0105000Y0112800D03*
X0100000Y0117302D03*
X0104311Y0121500D03*
X0110000Y0126000D03*
X0112032Y0122689D03*
X0115000Y0116000D03*
X0088200Y0125200D03*
X0085400Y0122400D03*
X0079400Y0130400D03*
X0085800Y0133200D03*
X0105000Y0171000D03*
X0115000Y0171000D03*
X0125000Y0171000D03*
X0133400Y0156000D03*
X0145400Y0183600D03*
X0170000Y0171000D03*
X0180000Y0171000D03*
X0190000Y0171000D03*
X0195000Y0180800D03*
X0141500Y0128500D03*
X0141400Y0119200D03*
X0154001Y0121000D03*
X0165000Y0116000D03*
X0167573Y0118770D03*
X0163499Y0107501D03*
X0157314Y0108511D03*
X0141400Y0098800D03*
X0141400Y0093200D03*
X0180200Y0111200D03*
X0187000Y0108400D03*
X0183000Y0120400D03*
X0180000Y0051000D03*
X0170000Y0051000D03*
X0160000Y0051000D03*
X0115000Y0051000D03*
X0105000Y0051000D03*
X0095000Y0051000D03*
X0080000Y0063311D03*
X0055000Y0075520D03*
X0050000Y0051000D03*
X0040000Y0051000D03*
X0030000Y0051000D03*
X0021000Y0064800D03*
X0065000Y0036000D03*
D19*
X0050000Y0031000D02*
X0035000Y0016000D01*
X0034882Y0016000D01*
X0025000Y0016000D02*
X0040000Y0031000D01*
X0040000Y0051000D01*
X0050000Y0051000D02*
X0050000Y0031000D01*
X0030000Y0031000D02*
X0030000Y0051000D01*
X0030000Y0031000D02*
X0015000Y0016000D01*
X0080000Y0016000D02*
X0090000Y0026000D01*
X0090000Y0046000D01*
X0095000Y0051000D01*
X0095000Y0041000D02*
X0095000Y0021000D01*
X0090000Y0016000D01*
X0099882Y0016000D02*
X0105000Y0021118D01*
X0105000Y0041000D01*
X0115000Y0051000D01*
X0105000Y0051000D02*
X0095000Y0041000D01*
X0145000Y0016000D02*
X0160000Y0031000D01*
X0160000Y0051000D01*
X0170000Y0051000D02*
X0170000Y0031000D01*
X0155000Y0016000D01*
X0164882Y0016000D02*
X0180000Y0031118D01*
X0180000Y0051000D01*
X0170000Y0171000D02*
X0170000Y0196000D01*
X0175118Y0206000D01*
X0190000Y0201000D02*
X0190000Y0171000D01*
X0130000Y0206000D02*
X0125000Y0196000D01*
X0125000Y0171000D01*
X0115000Y0171000D02*
X0115000Y0196000D01*
X0120000Y0206000D01*
X0110118Y0206000D02*
X0105000Y0196000D01*
X0105000Y0171000D01*
D20*
X0180000Y0171000D02*
X0180000Y0201000D01*
X0185000Y0206000D01*
X0190000Y0201000D02*
X0195000Y0206000D01*
D21*
X0080200Y0016000D02*
X0080000Y0016000D01*
M02*
