%
M48
M72
T01C0.01378
T02C0.03937
T03C0.04000
T04C0.04724
T05C0.09843
T06C0.10000
%
T01
X30000Y51000
X40000Y51000
X50000Y51000
X65000Y36000
X80000Y63311
X95000Y51000
X105000Y51000
X115000Y51000
X95000Y87311
X99800Y94800
X102556Y97387
X109750Y95761
X109800Y99600
X110600Y109200
X105000Y112800
X100000Y117302
X104311Y121500
X110000Y126000
X112032Y122689
X115000Y116000
X89000Y110000
X85000Y111200
X77800Y108500
X78400Y104403
X81301Y99699
X84193Y97163
X83000Y91200
X72249Y98251
X60200Y94600
X54711Y96000
X57400Y102400
X49800Y114000
X52600Y116800
X57400Y118800
X58600Y126400
X49800Y139200
X39000Y149200
X44600Y155100
X50000Y151000
X54600Y162000
X54600Y166000
X56600Y174400
X40200Y175600
X41800Y166800
X41800Y162800
X30500Y154000
X23500Y154000
X21800Y166800
X11511Y178000
X27000Y141200
X17800Y136000
X37400Y120400
X31001Y97001
X27449Y92949
X21000Y64800
X55000Y75520
X75154Y114222
X72500Y116911
X85400Y122400
X88200Y125200
X85800Y133200
X79400Y130400
X105000Y171000
X115000Y171000
X125000Y171000
X133400Y156000
X145400Y183600
X170000Y171000
X180000Y171000
X190000Y171000
X195000Y180800
X141500Y128500
X141400Y119200
X154001Y121000
X165000Y116000
X167573Y118770
X163499Y107501
X157314Y108511
X141400Y98800
X141400Y93200
X180200Y111200
X187000Y108400
X183000Y120400
X180000Y51000
X170000Y51000
X160000Y51000
T02
X160000Y71000
X150000Y71000
X140000Y71000
X130000Y71000
X120000Y71000
X110000Y71000
X100000Y71000
X90000Y71000
X80000Y71000
X70000Y71000
X60000Y71000
X50000Y71000
X40000Y71000
X30000Y71000
X70000Y151000
X80000Y151000
X90000Y151000
X100000Y151000
X110000Y151000
X120000Y151000
X130000Y151000
X140000Y151000
X150000Y151000
X160000Y151000
X170000Y151000
X180000Y151000
X180000Y71000
X170000Y71000
T03
X170000Y81000
X180000Y81000
X160000Y81000
X150000Y81000
X140000Y81000
X130000Y81000
X120000Y81000
X110000Y81000
X100000Y81000
X90000Y81000
X80000Y81000
X70000Y81000
X60000Y81000
X50000Y81000
X40000Y81000
X30000Y81000
X70000Y141000
X80000Y141000
X90000Y141000
X100000Y141000
X110000Y141000
X120000Y141000
X130000Y141000
X140000Y141000
X150000Y141000
X160000Y141000
X170000Y141000
X180000Y141000
X130000Y126000
X130000Y116000
X120000Y116000
X120000Y126000
X120000Y106000
X120000Y96000
X130000Y96000
X130000Y106000
T04
X15000Y16000
X25000Y16000
X34882Y16000
X44882Y16000
X54882Y16000
X64882Y16000
X80000Y16000
X90000Y16000
X99882Y16000
X109882Y16000
X119882Y16000
X129882Y16000
X145000Y16000
X155000Y16000
X164882Y16000
X174882Y16000
X184882Y16000
X194882Y16000
X195000Y206000
X185000Y206000
X175118Y206000
X165118Y206000
X155118Y206000
X145118Y206000
X130000Y206000
X120000Y206000
X110118Y206000
X100118Y206000
X90118Y206000
X80118Y206000
X60000Y206000
X50000Y206000
T05
X15000Y146000
X15000Y76000
T06
X195000Y76000
X195000Y146000
M30
