G75*
%MOIN*%
%OFA0B0*%
%FSLAX25Y25*%
%IPPOS*%
%LPD*%
%AMOC8*
5,1,8,0,0,1.08239X$1,22.5*
%
%ADD10C,0.00600*%
D10*
X0010000Y0157500D02*
X0020000Y0157500D01*
X0020060Y0157502D01*
X0020121Y0157507D01*
X0020180Y0157516D01*
X0020239Y0157529D01*
X0020298Y0157545D01*
X0020355Y0157565D01*
X0020410Y0157588D01*
X0020465Y0157615D01*
X0020517Y0157644D01*
X0020568Y0157677D01*
X0020617Y0157713D01*
X0020663Y0157751D01*
X0020707Y0157793D01*
X0020749Y0157837D01*
X0020787Y0157883D01*
X0020823Y0157932D01*
X0020856Y0157983D01*
X0020885Y0158035D01*
X0020912Y0158090D01*
X0020935Y0158145D01*
X0020955Y0158202D01*
X0020971Y0158261D01*
X0020984Y0158320D01*
X0020993Y0158379D01*
X0020998Y0158440D01*
X0021000Y0158500D01*
X0021000Y0173500D01*
X0020998Y0173560D01*
X0020993Y0173621D01*
X0020984Y0173680D01*
X0020971Y0173739D01*
X0020955Y0173798D01*
X0020935Y0173855D01*
X0020912Y0173910D01*
X0020885Y0173965D01*
X0020856Y0174017D01*
X0020823Y0174068D01*
X0020787Y0174117D01*
X0020749Y0174163D01*
X0020707Y0174207D01*
X0020663Y0174249D01*
X0020617Y0174287D01*
X0020568Y0174323D01*
X0020517Y0174356D01*
X0020465Y0174385D01*
X0020410Y0174412D01*
X0020355Y0174435D01*
X0020298Y0174455D01*
X0020239Y0174471D01*
X0020180Y0174484D01*
X0020121Y0174493D01*
X0020060Y0174498D01*
X0020000Y0174500D01*
X0010000Y0174500D01*
X0009940Y0174498D01*
X0009879Y0174493D01*
X0009820Y0174484D01*
X0009761Y0174471D01*
X0009702Y0174455D01*
X0009645Y0174435D01*
X0009590Y0174412D01*
X0009535Y0174385D01*
X0009483Y0174356D01*
X0009432Y0174323D01*
X0009383Y0174287D01*
X0009337Y0174249D01*
X0009293Y0174207D01*
X0009251Y0174163D01*
X0009213Y0174117D01*
X0009177Y0174068D01*
X0009144Y0174017D01*
X0009115Y0173965D01*
X0009088Y0173910D01*
X0009065Y0173855D01*
X0009045Y0173798D01*
X0009029Y0173739D01*
X0009016Y0173680D01*
X0009007Y0173621D01*
X0009002Y0173560D01*
X0009000Y0173500D01*
X0009000Y0158500D01*
X0009002Y0158440D01*
X0009007Y0158379D01*
X0009016Y0158320D01*
X0009029Y0158261D01*
X0009045Y0158202D01*
X0009065Y0158145D01*
X0009088Y0158090D01*
X0009115Y0158035D01*
X0009144Y0157983D01*
X0009177Y0157932D01*
X0009213Y0157883D01*
X0009251Y0157837D01*
X0009293Y0157793D01*
X0009337Y0157751D01*
X0009383Y0157713D01*
X0009432Y0157677D01*
X0009483Y0157644D01*
X0009535Y0157615D01*
X0009590Y0157588D01*
X0009645Y0157565D01*
X0009702Y0157545D01*
X0009761Y0157529D01*
X0009820Y0157516D01*
X0009879Y0157507D01*
X0009940Y0157502D01*
X0010000Y0157500D01*
X0024000Y0158500D02*
X0024000Y0173500D01*
X0024002Y0173560D01*
X0024007Y0173621D01*
X0024016Y0173680D01*
X0024029Y0173739D01*
X0024045Y0173798D01*
X0024065Y0173855D01*
X0024088Y0173910D01*
X0024115Y0173965D01*
X0024144Y0174017D01*
X0024177Y0174068D01*
X0024213Y0174117D01*
X0024251Y0174163D01*
X0024293Y0174207D01*
X0024337Y0174249D01*
X0024383Y0174287D01*
X0024432Y0174323D01*
X0024483Y0174356D01*
X0024535Y0174385D01*
X0024590Y0174412D01*
X0024645Y0174435D01*
X0024702Y0174455D01*
X0024761Y0174471D01*
X0024820Y0174484D01*
X0024879Y0174493D01*
X0024940Y0174498D01*
X0025000Y0174500D01*
X0035000Y0174500D01*
X0035060Y0174498D01*
X0035121Y0174493D01*
X0035180Y0174484D01*
X0035239Y0174471D01*
X0035298Y0174455D01*
X0035355Y0174435D01*
X0035410Y0174412D01*
X0035465Y0174385D01*
X0035517Y0174356D01*
X0035568Y0174323D01*
X0035617Y0174287D01*
X0035663Y0174249D01*
X0035707Y0174207D01*
X0035749Y0174163D01*
X0035787Y0174117D01*
X0035823Y0174068D01*
X0035856Y0174017D01*
X0035885Y0173965D01*
X0035912Y0173910D01*
X0035935Y0173855D01*
X0035955Y0173798D01*
X0035971Y0173739D01*
X0035984Y0173680D01*
X0035993Y0173621D01*
X0035998Y0173560D01*
X0036000Y0173500D01*
X0036000Y0158500D01*
X0035998Y0158440D01*
X0035993Y0158379D01*
X0035984Y0158320D01*
X0035971Y0158261D01*
X0035955Y0158202D01*
X0035935Y0158145D01*
X0035912Y0158090D01*
X0035885Y0158035D01*
X0035856Y0157983D01*
X0035823Y0157932D01*
X0035787Y0157883D01*
X0035749Y0157837D01*
X0035707Y0157793D01*
X0035663Y0157751D01*
X0035617Y0157713D01*
X0035568Y0157677D01*
X0035517Y0157644D01*
X0035465Y0157615D01*
X0035410Y0157588D01*
X0035355Y0157565D01*
X0035298Y0157545D01*
X0035239Y0157529D01*
X0035180Y0157516D01*
X0035121Y0157507D01*
X0035060Y0157502D01*
X0035000Y0157500D01*
X0025000Y0157500D01*
X0024940Y0157502D01*
X0024879Y0157507D01*
X0024820Y0157516D01*
X0024761Y0157529D01*
X0024702Y0157545D01*
X0024645Y0157565D01*
X0024590Y0157588D01*
X0024535Y0157615D01*
X0024483Y0157644D01*
X0024432Y0157677D01*
X0024383Y0157713D01*
X0024337Y0157751D01*
X0024293Y0157793D01*
X0024251Y0157837D01*
X0024213Y0157883D01*
X0024177Y0157932D01*
X0024144Y0157983D01*
X0024115Y0158035D01*
X0024088Y0158090D01*
X0024065Y0158145D01*
X0024045Y0158202D01*
X0024029Y0158261D01*
X0024016Y0158320D01*
X0024007Y0158379D01*
X0024002Y0158440D01*
X0024000Y0158500D01*
M02*
